G04 #@! TF.GenerationSoftware,KiCad,Pcbnew,(5.1.4)-1*
G04 #@! TF.CreationDate,2022-06-05T15:27:35-07:00*
G04 #@! TF.ProjectId,Birty,42697274-792e-46b6-9963-61645f706362,rev?*
G04 #@! TF.SameCoordinates,Original*
G04 #@! TF.FileFunction,Copper,L1,Top*
G04 #@! TF.FilePolarity,Positive*
%FSLAX46Y46*%
G04 Gerber Fmt 4.6, Leading zero omitted, Abs format (unit mm)*
G04 Created by KiCad (PCBNEW (5.1.4)-1) date 2022-06-05 15:27:35*
%MOMM*%
%LPD*%
G04 APERTURE LIST*
%ADD10C,1.803400*%
%ADD11R,0.558800X1.460500*%
%ADD12R,0.550000X1.500000*%
%ADD13R,1.500000X0.550000*%
%ADD14C,0.100000*%
%ADD15C,0.975000*%
%ADD16O,1.700000X1.700000*%
%ADD17R,1.700000X1.700000*%
%ADD18R,1.150000X1.450000*%
%ADD19O,1.050000X1.900000*%
%ADD20R,1.750000X1.900000*%
%ADD21R,0.400000X1.400000*%
%ADD22R,2.100000X1.800000*%
%ADD23O,1.600000X1.600000*%
%ADD24R,1.600000X1.600000*%
%ADD25R,1.000000X0.900000*%
%ADD26R,0.550000X1.700000*%
%ADD27C,0.800000*%
%ADD28C,0.600000*%
%ADD29C,0.250000*%
%ADD30C,0.400000*%
%ADD31C,0.700000*%
G04 APERTURE END LIST*
D10*
X57460000Y-105000000D03*
X60000000Y-105000000D03*
D11*
X87940000Y-34724150D03*
X89210000Y-34724150D03*
X90480000Y-34724150D03*
X91750000Y-34724150D03*
X93020000Y-34724150D03*
X94290000Y-34724150D03*
X95560000Y-34724150D03*
X95560000Y-29275850D03*
X94290000Y-29275850D03*
X93020000Y-29275850D03*
X91750000Y-29275850D03*
X90480000Y-29275850D03*
X89210000Y-29275850D03*
X87940000Y-29275850D03*
D12*
X60954200Y-59289400D03*
X61754200Y-59289400D03*
X62554200Y-59289400D03*
X63354200Y-59289400D03*
X64154200Y-59289400D03*
X64954200Y-59289400D03*
X65754200Y-59289400D03*
X66554200Y-59289400D03*
X67354200Y-59289400D03*
X68154200Y-59289400D03*
X68954200Y-59289400D03*
D13*
X70654200Y-60989400D03*
X70654200Y-61789400D03*
X70654200Y-62589400D03*
X70654200Y-63389400D03*
X70654200Y-64189400D03*
X70654200Y-64989400D03*
X70654200Y-65789400D03*
X70654200Y-66589400D03*
X70654200Y-67389400D03*
X70654200Y-68189400D03*
X70654200Y-68989400D03*
D12*
X68954200Y-70689400D03*
X68154200Y-70689400D03*
X67354200Y-70689400D03*
X66554200Y-70689400D03*
X65754200Y-70689400D03*
X64954200Y-70689400D03*
X64154200Y-70689400D03*
X63354200Y-70689400D03*
X62554200Y-70689400D03*
X61754200Y-70689400D03*
X60954200Y-70689400D03*
D13*
X59254200Y-68989400D03*
X59254200Y-68189400D03*
X59254200Y-67389400D03*
X59254200Y-66589400D03*
X59254200Y-65789400D03*
X59254200Y-64989400D03*
X59254200Y-64189400D03*
X59254200Y-63389400D03*
X59254200Y-62589400D03*
X59254200Y-61789400D03*
X59254200Y-60989400D03*
D14*
G36*
X38367542Y-92979574D02*
G01*
X38391203Y-92983084D01*
X38414407Y-92988896D01*
X38436929Y-92996954D01*
X38458553Y-93007182D01*
X38479070Y-93019479D01*
X38498283Y-93033729D01*
X38516007Y-93049793D01*
X38532071Y-93067517D01*
X38546321Y-93086730D01*
X38558618Y-93107247D01*
X38568846Y-93128871D01*
X38576904Y-93151393D01*
X38582716Y-93174597D01*
X38586226Y-93198258D01*
X38587400Y-93222150D01*
X38587400Y-94134650D01*
X38586226Y-94158542D01*
X38582716Y-94182203D01*
X38576904Y-94205407D01*
X38568846Y-94227929D01*
X38558618Y-94249553D01*
X38546321Y-94270070D01*
X38532071Y-94289283D01*
X38516007Y-94307007D01*
X38498283Y-94323071D01*
X38479070Y-94337321D01*
X38458553Y-94349618D01*
X38436929Y-94359846D01*
X38414407Y-94367904D01*
X38391203Y-94373716D01*
X38367542Y-94377226D01*
X38343650Y-94378400D01*
X37856150Y-94378400D01*
X37832258Y-94377226D01*
X37808597Y-94373716D01*
X37785393Y-94367904D01*
X37762871Y-94359846D01*
X37741247Y-94349618D01*
X37720730Y-94337321D01*
X37701517Y-94323071D01*
X37683793Y-94307007D01*
X37667729Y-94289283D01*
X37653479Y-94270070D01*
X37641182Y-94249553D01*
X37630954Y-94227929D01*
X37622896Y-94205407D01*
X37617084Y-94182203D01*
X37613574Y-94158542D01*
X37612400Y-94134650D01*
X37612400Y-93222150D01*
X37613574Y-93198258D01*
X37617084Y-93174597D01*
X37622896Y-93151393D01*
X37630954Y-93128871D01*
X37641182Y-93107247D01*
X37653479Y-93086730D01*
X37667729Y-93067517D01*
X37683793Y-93049793D01*
X37701517Y-93033729D01*
X37720730Y-93019479D01*
X37741247Y-93007182D01*
X37762871Y-92996954D01*
X37785393Y-92988896D01*
X37808597Y-92983084D01*
X37832258Y-92979574D01*
X37856150Y-92978400D01*
X38343650Y-92978400D01*
X38367542Y-92979574D01*
X38367542Y-92979574D01*
G37*
D15*
X38099900Y-93678400D03*
D14*
G36*
X40242542Y-92979574D02*
G01*
X40266203Y-92983084D01*
X40289407Y-92988896D01*
X40311929Y-92996954D01*
X40333553Y-93007182D01*
X40354070Y-93019479D01*
X40373283Y-93033729D01*
X40391007Y-93049793D01*
X40407071Y-93067517D01*
X40421321Y-93086730D01*
X40433618Y-93107247D01*
X40443846Y-93128871D01*
X40451904Y-93151393D01*
X40457716Y-93174597D01*
X40461226Y-93198258D01*
X40462400Y-93222150D01*
X40462400Y-94134650D01*
X40461226Y-94158542D01*
X40457716Y-94182203D01*
X40451904Y-94205407D01*
X40443846Y-94227929D01*
X40433618Y-94249553D01*
X40421321Y-94270070D01*
X40407071Y-94289283D01*
X40391007Y-94307007D01*
X40373283Y-94323071D01*
X40354070Y-94337321D01*
X40333553Y-94349618D01*
X40311929Y-94359846D01*
X40289407Y-94367904D01*
X40266203Y-94373716D01*
X40242542Y-94377226D01*
X40218650Y-94378400D01*
X39731150Y-94378400D01*
X39707258Y-94377226D01*
X39683597Y-94373716D01*
X39660393Y-94367904D01*
X39637871Y-94359846D01*
X39616247Y-94349618D01*
X39595730Y-94337321D01*
X39576517Y-94323071D01*
X39558793Y-94307007D01*
X39542729Y-94289283D01*
X39528479Y-94270070D01*
X39516182Y-94249553D01*
X39505954Y-94227929D01*
X39497896Y-94205407D01*
X39492084Y-94182203D01*
X39488574Y-94158542D01*
X39487400Y-94134650D01*
X39487400Y-93222150D01*
X39488574Y-93198258D01*
X39492084Y-93174597D01*
X39497896Y-93151393D01*
X39505954Y-93128871D01*
X39516182Y-93107247D01*
X39528479Y-93086730D01*
X39542729Y-93067517D01*
X39558793Y-93049793D01*
X39576517Y-93033729D01*
X39595730Y-93019479D01*
X39616247Y-93007182D01*
X39637871Y-92996954D01*
X39660393Y-92988896D01*
X39683597Y-92983084D01*
X39707258Y-92979574D01*
X39731150Y-92978400D01*
X40218650Y-92978400D01*
X40242542Y-92979574D01*
X40242542Y-92979574D01*
G37*
D15*
X39974900Y-93678400D03*
D10*
X29750000Y-58750000D03*
X29750000Y-61290000D03*
X29750000Y-63830000D03*
X29750000Y-66370000D03*
X29750000Y-68910000D03*
X29750000Y-71450000D03*
D14*
G36*
X36230142Y-34701174D02*
G01*
X36253803Y-34704684D01*
X36277007Y-34710496D01*
X36299529Y-34718554D01*
X36321153Y-34728782D01*
X36341670Y-34741079D01*
X36360883Y-34755329D01*
X36378607Y-34771393D01*
X36394671Y-34789117D01*
X36408921Y-34808330D01*
X36421218Y-34828847D01*
X36431446Y-34850471D01*
X36439504Y-34872993D01*
X36445316Y-34896197D01*
X36448826Y-34919858D01*
X36450000Y-34943750D01*
X36450000Y-35431250D01*
X36448826Y-35455142D01*
X36445316Y-35478803D01*
X36439504Y-35502007D01*
X36431446Y-35524529D01*
X36421218Y-35546153D01*
X36408921Y-35566670D01*
X36394671Y-35585883D01*
X36378607Y-35603607D01*
X36360883Y-35619671D01*
X36341670Y-35633921D01*
X36321153Y-35646218D01*
X36299529Y-35656446D01*
X36277007Y-35664504D01*
X36253803Y-35670316D01*
X36230142Y-35673826D01*
X36206250Y-35675000D01*
X35293750Y-35675000D01*
X35269858Y-35673826D01*
X35246197Y-35670316D01*
X35222993Y-35664504D01*
X35200471Y-35656446D01*
X35178847Y-35646218D01*
X35158330Y-35633921D01*
X35139117Y-35619671D01*
X35121393Y-35603607D01*
X35105329Y-35585883D01*
X35091079Y-35566670D01*
X35078782Y-35546153D01*
X35068554Y-35524529D01*
X35060496Y-35502007D01*
X35054684Y-35478803D01*
X35051174Y-35455142D01*
X35050000Y-35431250D01*
X35050000Y-34943750D01*
X35051174Y-34919858D01*
X35054684Y-34896197D01*
X35060496Y-34872993D01*
X35068554Y-34850471D01*
X35078782Y-34828847D01*
X35091079Y-34808330D01*
X35105329Y-34789117D01*
X35121393Y-34771393D01*
X35139117Y-34755329D01*
X35158330Y-34741079D01*
X35178847Y-34728782D01*
X35200471Y-34718554D01*
X35222993Y-34710496D01*
X35246197Y-34704684D01*
X35269858Y-34701174D01*
X35293750Y-34700000D01*
X36206250Y-34700000D01*
X36230142Y-34701174D01*
X36230142Y-34701174D01*
G37*
D15*
X35750000Y-35187500D03*
D14*
G36*
X36230142Y-32826174D02*
G01*
X36253803Y-32829684D01*
X36277007Y-32835496D01*
X36299529Y-32843554D01*
X36321153Y-32853782D01*
X36341670Y-32866079D01*
X36360883Y-32880329D01*
X36378607Y-32896393D01*
X36394671Y-32914117D01*
X36408921Y-32933330D01*
X36421218Y-32953847D01*
X36431446Y-32975471D01*
X36439504Y-32997993D01*
X36445316Y-33021197D01*
X36448826Y-33044858D01*
X36450000Y-33068750D01*
X36450000Y-33556250D01*
X36448826Y-33580142D01*
X36445316Y-33603803D01*
X36439504Y-33627007D01*
X36431446Y-33649529D01*
X36421218Y-33671153D01*
X36408921Y-33691670D01*
X36394671Y-33710883D01*
X36378607Y-33728607D01*
X36360883Y-33744671D01*
X36341670Y-33758921D01*
X36321153Y-33771218D01*
X36299529Y-33781446D01*
X36277007Y-33789504D01*
X36253803Y-33795316D01*
X36230142Y-33798826D01*
X36206250Y-33800000D01*
X35293750Y-33800000D01*
X35269858Y-33798826D01*
X35246197Y-33795316D01*
X35222993Y-33789504D01*
X35200471Y-33781446D01*
X35178847Y-33771218D01*
X35158330Y-33758921D01*
X35139117Y-33744671D01*
X35121393Y-33728607D01*
X35105329Y-33710883D01*
X35091079Y-33691670D01*
X35078782Y-33671153D01*
X35068554Y-33649529D01*
X35060496Y-33627007D01*
X35054684Y-33603803D01*
X35051174Y-33580142D01*
X35050000Y-33556250D01*
X35050000Y-33068750D01*
X35051174Y-33044858D01*
X35054684Y-33021197D01*
X35060496Y-32997993D01*
X35068554Y-32975471D01*
X35078782Y-32953847D01*
X35091079Y-32933330D01*
X35105329Y-32914117D01*
X35121393Y-32896393D01*
X35139117Y-32880329D01*
X35158330Y-32866079D01*
X35178847Y-32853782D01*
X35200471Y-32843554D01*
X35222993Y-32835496D01*
X35246197Y-32829684D01*
X35269858Y-32826174D01*
X35293750Y-32825000D01*
X36206250Y-32825000D01*
X36230142Y-32826174D01*
X36230142Y-32826174D01*
G37*
D15*
X35750000Y-33312500D03*
D16*
X43280800Y-29952600D03*
D17*
X33120800Y-29952600D03*
D16*
X35660800Y-29952600D03*
X38200800Y-29952600D03*
X45820800Y-29952600D03*
X40740800Y-29952600D03*
D18*
X67680000Y-106220000D03*
X72320000Y-106220000D03*
D19*
X73575000Y-108450000D03*
X66425000Y-108450000D03*
D20*
X68875000Y-108450000D03*
D21*
X70000000Y-105800000D03*
X70650000Y-105800000D03*
X71300000Y-105800000D03*
X68700000Y-105800000D03*
X69350000Y-105800000D03*
D20*
X71125000Y-108450000D03*
D14*
G36*
X40267942Y-88940974D02*
G01*
X40291603Y-88944484D01*
X40314807Y-88950296D01*
X40337329Y-88958354D01*
X40358953Y-88968582D01*
X40379470Y-88980879D01*
X40398683Y-88995129D01*
X40416407Y-89011193D01*
X40432471Y-89028917D01*
X40446721Y-89048130D01*
X40459018Y-89068647D01*
X40469246Y-89090271D01*
X40477304Y-89112793D01*
X40483116Y-89135997D01*
X40486626Y-89159658D01*
X40487800Y-89183550D01*
X40487800Y-90096050D01*
X40486626Y-90119942D01*
X40483116Y-90143603D01*
X40477304Y-90166807D01*
X40469246Y-90189329D01*
X40459018Y-90210953D01*
X40446721Y-90231470D01*
X40432471Y-90250683D01*
X40416407Y-90268407D01*
X40398683Y-90284471D01*
X40379470Y-90298721D01*
X40358953Y-90311018D01*
X40337329Y-90321246D01*
X40314807Y-90329304D01*
X40291603Y-90335116D01*
X40267942Y-90338626D01*
X40244050Y-90339800D01*
X39756550Y-90339800D01*
X39732658Y-90338626D01*
X39708997Y-90335116D01*
X39685793Y-90329304D01*
X39663271Y-90321246D01*
X39641647Y-90311018D01*
X39621130Y-90298721D01*
X39601917Y-90284471D01*
X39584193Y-90268407D01*
X39568129Y-90250683D01*
X39553879Y-90231470D01*
X39541582Y-90210953D01*
X39531354Y-90189329D01*
X39523296Y-90166807D01*
X39517484Y-90143603D01*
X39513974Y-90119942D01*
X39512800Y-90096050D01*
X39512800Y-89183550D01*
X39513974Y-89159658D01*
X39517484Y-89135997D01*
X39523296Y-89112793D01*
X39531354Y-89090271D01*
X39541582Y-89068647D01*
X39553879Y-89048130D01*
X39568129Y-89028917D01*
X39584193Y-89011193D01*
X39601917Y-88995129D01*
X39621130Y-88980879D01*
X39641647Y-88968582D01*
X39663271Y-88958354D01*
X39685793Y-88950296D01*
X39708997Y-88944484D01*
X39732658Y-88940974D01*
X39756550Y-88939800D01*
X40244050Y-88939800D01*
X40267942Y-88940974D01*
X40267942Y-88940974D01*
G37*
D15*
X40000300Y-89639800D03*
D14*
G36*
X38392942Y-88940974D02*
G01*
X38416603Y-88944484D01*
X38439807Y-88950296D01*
X38462329Y-88958354D01*
X38483953Y-88968582D01*
X38504470Y-88980879D01*
X38523683Y-88995129D01*
X38541407Y-89011193D01*
X38557471Y-89028917D01*
X38571721Y-89048130D01*
X38584018Y-89068647D01*
X38594246Y-89090271D01*
X38602304Y-89112793D01*
X38608116Y-89135997D01*
X38611626Y-89159658D01*
X38612800Y-89183550D01*
X38612800Y-90096050D01*
X38611626Y-90119942D01*
X38608116Y-90143603D01*
X38602304Y-90166807D01*
X38594246Y-90189329D01*
X38584018Y-90210953D01*
X38571721Y-90231470D01*
X38557471Y-90250683D01*
X38541407Y-90268407D01*
X38523683Y-90284471D01*
X38504470Y-90298721D01*
X38483953Y-90311018D01*
X38462329Y-90321246D01*
X38439807Y-90329304D01*
X38416603Y-90335116D01*
X38392942Y-90338626D01*
X38369050Y-90339800D01*
X37881550Y-90339800D01*
X37857658Y-90338626D01*
X37833997Y-90335116D01*
X37810793Y-90329304D01*
X37788271Y-90321246D01*
X37766647Y-90311018D01*
X37746130Y-90298721D01*
X37726917Y-90284471D01*
X37709193Y-90268407D01*
X37693129Y-90250683D01*
X37678879Y-90231470D01*
X37666582Y-90210953D01*
X37656354Y-90189329D01*
X37648296Y-90166807D01*
X37642484Y-90143603D01*
X37638974Y-90119942D01*
X37637800Y-90096050D01*
X37637800Y-89183550D01*
X37638974Y-89159658D01*
X37642484Y-89135997D01*
X37648296Y-89112793D01*
X37656354Y-89090271D01*
X37666582Y-89068647D01*
X37678879Y-89048130D01*
X37693129Y-89028917D01*
X37709193Y-89011193D01*
X37726917Y-88995129D01*
X37746130Y-88980879D01*
X37766647Y-88968582D01*
X37788271Y-88958354D01*
X37810793Y-88950296D01*
X37833997Y-88944484D01*
X37857658Y-88940974D01*
X37881550Y-88939800D01*
X38369050Y-88939800D01*
X38392942Y-88940974D01*
X38392942Y-88940974D01*
G37*
D15*
X38125300Y-89639800D03*
D14*
G36*
X63404642Y-74771374D02*
G01*
X63428303Y-74774884D01*
X63451507Y-74780696D01*
X63474029Y-74788754D01*
X63495653Y-74798982D01*
X63516170Y-74811279D01*
X63535383Y-74825529D01*
X63553107Y-74841593D01*
X63569171Y-74859317D01*
X63583421Y-74878530D01*
X63595718Y-74899047D01*
X63605946Y-74920671D01*
X63614004Y-74943193D01*
X63619816Y-74966397D01*
X63623326Y-74990058D01*
X63624500Y-75013950D01*
X63624500Y-75926450D01*
X63623326Y-75950342D01*
X63619816Y-75974003D01*
X63614004Y-75997207D01*
X63605946Y-76019729D01*
X63595718Y-76041353D01*
X63583421Y-76061870D01*
X63569171Y-76081083D01*
X63553107Y-76098807D01*
X63535383Y-76114871D01*
X63516170Y-76129121D01*
X63495653Y-76141418D01*
X63474029Y-76151646D01*
X63451507Y-76159704D01*
X63428303Y-76165516D01*
X63404642Y-76169026D01*
X63380750Y-76170200D01*
X62893250Y-76170200D01*
X62869358Y-76169026D01*
X62845697Y-76165516D01*
X62822493Y-76159704D01*
X62799971Y-76151646D01*
X62778347Y-76141418D01*
X62757830Y-76129121D01*
X62738617Y-76114871D01*
X62720893Y-76098807D01*
X62704829Y-76081083D01*
X62690579Y-76061870D01*
X62678282Y-76041353D01*
X62668054Y-76019729D01*
X62659996Y-75997207D01*
X62654184Y-75974003D01*
X62650674Y-75950342D01*
X62649500Y-75926450D01*
X62649500Y-75013950D01*
X62650674Y-74990058D01*
X62654184Y-74966397D01*
X62659996Y-74943193D01*
X62668054Y-74920671D01*
X62678282Y-74899047D01*
X62690579Y-74878530D01*
X62704829Y-74859317D01*
X62720893Y-74841593D01*
X62738617Y-74825529D01*
X62757830Y-74811279D01*
X62778347Y-74798982D01*
X62799971Y-74788754D01*
X62822493Y-74780696D01*
X62845697Y-74774884D01*
X62869358Y-74771374D01*
X62893250Y-74770200D01*
X63380750Y-74770200D01*
X63404642Y-74771374D01*
X63404642Y-74771374D01*
G37*
D15*
X63137000Y-75470200D03*
D14*
G36*
X61529642Y-74771374D02*
G01*
X61553303Y-74774884D01*
X61576507Y-74780696D01*
X61599029Y-74788754D01*
X61620653Y-74798982D01*
X61641170Y-74811279D01*
X61660383Y-74825529D01*
X61678107Y-74841593D01*
X61694171Y-74859317D01*
X61708421Y-74878530D01*
X61720718Y-74899047D01*
X61730946Y-74920671D01*
X61739004Y-74943193D01*
X61744816Y-74966397D01*
X61748326Y-74990058D01*
X61749500Y-75013950D01*
X61749500Y-75926450D01*
X61748326Y-75950342D01*
X61744816Y-75974003D01*
X61739004Y-75997207D01*
X61730946Y-76019729D01*
X61720718Y-76041353D01*
X61708421Y-76061870D01*
X61694171Y-76081083D01*
X61678107Y-76098807D01*
X61660383Y-76114871D01*
X61641170Y-76129121D01*
X61620653Y-76141418D01*
X61599029Y-76151646D01*
X61576507Y-76159704D01*
X61553303Y-76165516D01*
X61529642Y-76169026D01*
X61505750Y-76170200D01*
X61018250Y-76170200D01*
X60994358Y-76169026D01*
X60970697Y-76165516D01*
X60947493Y-76159704D01*
X60924971Y-76151646D01*
X60903347Y-76141418D01*
X60882830Y-76129121D01*
X60863617Y-76114871D01*
X60845893Y-76098807D01*
X60829829Y-76081083D01*
X60815579Y-76061870D01*
X60803282Y-76041353D01*
X60793054Y-76019729D01*
X60784996Y-75997207D01*
X60779184Y-75974003D01*
X60775674Y-75950342D01*
X60774500Y-75926450D01*
X60774500Y-75013950D01*
X60775674Y-74990058D01*
X60779184Y-74966397D01*
X60784996Y-74943193D01*
X60793054Y-74920671D01*
X60803282Y-74899047D01*
X60815579Y-74878530D01*
X60829829Y-74859317D01*
X60845893Y-74841593D01*
X60863617Y-74825529D01*
X60882830Y-74811279D01*
X60903347Y-74798982D01*
X60924971Y-74788754D01*
X60947493Y-74780696D01*
X60970697Y-74774884D01*
X60994358Y-74771374D01*
X61018250Y-74770200D01*
X61505750Y-74770200D01*
X61529642Y-74771374D01*
X61529642Y-74771374D01*
G37*
D15*
X61262000Y-75470200D03*
D22*
X68930400Y-75680400D03*
X66030400Y-75680400D03*
X66030400Y-73380400D03*
X68930400Y-73380400D03*
D23*
X92534600Y-52630000D03*
X92534600Y-55170000D03*
D24*
X92534600Y-60250000D03*
D23*
X92534600Y-57710000D03*
X84914600Y-57710000D03*
X84914600Y-60250000D03*
X84914600Y-52630000D03*
X84914600Y-55170000D03*
X37465400Y-72370000D03*
X37465400Y-69830000D03*
D24*
X37465400Y-64750000D03*
D23*
X37465400Y-67290000D03*
X45085400Y-67290000D03*
X45085400Y-64750000D03*
X45085400Y-72370000D03*
X45085400Y-69830000D03*
X92534600Y-64500000D03*
X92534600Y-67040000D03*
D24*
X92534600Y-72120000D03*
D23*
X92534600Y-69580000D03*
X84914600Y-69580000D03*
X84914600Y-72120000D03*
X84914600Y-64500000D03*
X84914600Y-67040000D03*
X37465400Y-60250000D03*
X37465400Y-57710000D03*
D24*
X37465400Y-52630000D03*
D23*
X37465400Y-55170000D03*
X45085400Y-55170000D03*
X45085400Y-52630000D03*
X45085400Y-60250000D03*
X45085400Y-57710000D03*
D25*
X61295400Y-81762000D03*
X59695400Y-81762000D03*
X59695400Y-77662000D03*
X61295400Y-77662000D03*
D26*
X61920400Y-79712000D03*
D14*
G36*
X38392942Y-90947574D02*
G01*
X38416603Y-90951084D01*
X38439807Y-90956896D01*
X38462329Y-90964954D01*
X38483953Y-90975182D01*
X38504470Y-90987479D01*
X38523683Y-91001729D01*
X38541407Y-91017793D01*
X38557471Y-91035517D01*
X38571721Y-91054730D01*
X38584018Y-91075247D01*
X38594246Y-91096871D01*
X38602304Y-91119393D01*
X38608116Y-91142597D01*
X38611626Y-91166258D01*
X38612800Y-91190150D01*
X38612800Y-92102650D01*
X38611626Y-92126542D01*
X38608116Y-92150203D01*
X38602304Y-92173407D01*
X38594246Y-92195929D01*
X38584018Y-92217553D01*
X38571721Y-92238070D01*
X38557471Y-92257283D01*
X38541407Y-92275007D01*
X38523683Y-92291071D01*
X38504470Y-92305321D01*
X38483953Y-92317618D01*
X38462329Y-92327846D01*
X38439807Y-92335904D01*
X38416603Y-92341716D01*
X38392942Y-92345226D01*
X38369050Y-92346400D01*
X37881550Y-92346400D01*
X37857658Y-92345226D01*
X37833997Y-92341716D01*
X37810793Y-92335904D01*
X37788271Y-92327846D01*
X37766647Y-92317618D01*
X37746130Y-92305321D01*
X37726917Y-92291071D01*
X37709193Y-92275007D01*
X37693129Y-92257283D01*
X37678879Y-92238070D01*
X37666582Y-92217553D01*
X37656354Y-92195929D01*
X37648296Y-92173407D01*
X37642484Y-92150203D01*
X37638974Y-92126542D01*
X37637800Y-92102650D01*
X37637800Y-91190150D01*
X37638974Y-91166258D01*
X37642484Y-91142597D01*
X37648296Y-91119393D01*
X37656354Y-91096871D01*
X37666582Y-91075247D01*
X37678879Y-91054730D01*
X37693129Y-91035517D01*
X37709193Y-91017793D01*
X37726917Y-91001729D01*
X37746130Y-90987479D01*
X37766647Y-90975182D01*
X37788271Y-90964954D01*
X37810793Y-90956896D01*
X37833997Y-90951084D01*
X37857658Y-90947574D01*
X37881550Y-90946400D01*
X38369050Y-90946400D01*
X38392942Y-90947574D01*
X38392942Y-90947574D01*
G37*
D15*
X38125300Y-91646400D03*
D14*
G36*
X40267942Y-90947574D02*
G01*
X40291603Y-90951084D01*
X40314807Y-90956896D01*
X40337329Y-90964954D01*
X40358953Y-90975182D01*
X40379470Y-90987479D01*
X40398683Y-91001729D01*
X40416407Y-91017793D01*
X40432471Y-91035517D01*
X40446721Y-91054730D01*
X40459018Y-91075247D01*
X40469246Y-91096871D01*
X40477304Y-91119393D01*
X40483116Y-91142597D01*
X40486626Y-91166258D01*
X40487800Y-91190150D01*
X40487800Y-92102650D01*
X40486626Y-92126542D01*
X40483116Y-92150203D01*
X40477304Y-92173407D01*
X40469246Y-92195929D01*
X40459018Y-92217553D01*
X40446721Y-92238070D01*
X40432471Y-92257283D01*
X40416407Y-92275007D01*
X40398683Y-92291071D01*
X40379470Y-92305321D01*
X40358953Y-92317618D01*
X40337329Y-92327846D01*
X40314807Y-92335904D01*
X40291603Y-92341716D01*
X40267942Y-92345226D01*
X40244050Y-92346400D01*
X39756550Y-92346400D01*
X39732658Y-92345226D01*
X39708997Y-92341716D01*
X39685793Y-92335904D01*
X39663271Y-92327846D01*
X39641647Y-92317618D01*
X39621130Y-92305321D01*
X39601917Y-92291071D01*
X39584193Y-92275007D01*
X39568129Y-92257283D01*
X39553879Y-92238070D01*
X39541582Y-92217553D01*
X39531354Y-92195929D01*
X39523296Y-92173407D01*
X39517484Y-92150203D01*
X39513974Y-92126542D01*
X39512800Y-92102650D01*
X39512800Y-91190150D01*
X39513974Y-91166258D01*
X39517484Y-91142597D01*
X39523296Y-91119393D01*
X39531354Y-91096871D01*
X39541582Y-91075247D01*
X39553879Y-91054730D01*
X39568129Y-91035517D01*
X39584193Y-91017793D01*
X39601917Y-91001729D01*
X39621130Y-90987479D01*
X39641647Y-90975182D01*
X39663271Y-90964954D01*
X39685793Y-90956896D01*
X39708997Y-90951084D01*
X39732658Y-90947574D01*
X39756550Y-90946400D01*
X40244050Y-90946400D01*
X40267942Y-90947574D01*
X40267942Y-90947574D01*
G37*
D15*
X40000300Y-91646400D03*
D14*
G36*
X73345342Y-60226474D02*
G01*
X73369003Y-60229984D01*
X73392207Y-60235796D01*
X73414729Y-60243854D01*
X73436353Y-60254082D01*
X73456870Y-60266379D01*
X73476083Y-60280629D01*
X73493807Y-60296693D01*
X73509871Y-60314417D01*
X73524121Y-60333630D01*
X73536418Y-60354147D01*
X73546646Y-60375771D01*
X73554704Y-60398293D01*
X73560516Y-60421497D01*
X73564026Y-60445158D01*
X73565200Y-60469050D01*
X73565200Y-60956550D01*
X73564026Y-60980442D01*
X73560516Y-61004103D01*
X73554704Y-61027307D01*
X73546646Y-61049829D01*
X73536418Y-61071453D01*
X73524121Y-61091970D01*
X73509871Y-61111183D01*
X73493807Y-61128907D01*
X73476083Y-61144971D01*
X73456870Y-61159221D01*
X73436353Y-61171518D01*
X73414729Y-61181746D01*
X73392207Y-61189804D01*
X73369003Y-61195616D01*
X73345342Y-61199126D01*
X73321450Y-61200300D01*
X72408950Y-61200300D01*
X72385058Y-61199126D01*
X72361397Y-61195616D01*
X72338193Y-61189804D01*
X72315671Y-61181746D01*
X72294047Y-61171518D01*
X72273530Y-61159221D01*
X72254317Y-61144971D01*
X72236593Y-61128907D01*
X72220529Y-61111183D01*
X72206279Y-61091970D01*
X72193982Y-61071453D01*
X72183754Y-61049829D01*
X72175696Y-61027307D01*
X72169884Y-61004103D01*
X72166374Y-60980442D01*
X72165200Y-60956550D01*
X72165200Y-60469050D01*
X72166374Y-60445158D01*
X72169884Y-60421497D01*
X72175696Y-60398293D01*
X72183754Y-60375771D01*
X72193982Y-60354147D01*
X72206279Y-60333630D01*
X72220529Y-60314417D01*
X72236593Y-60296693D01*
X72254317Y-60280629D01*
X72273530Y-60266379D01*
X72294047Y-60254082D01*
X72315671Y-60243854D01*
X72338193Y-60235796D01*
X72361397Y-60229984D01*
X72385058Y-60226474D01*
X72408950Y-60225300D01*
X73321450Y-60225300D01*
X73345342Y-60226474D01*
X73345342Y-60226474D01*
G37*
D15*
X72865200Y-60712800D03*
D14*
G36*
X73345342Y-58351474D02*
G01*
X73369003Y-58354984D01*
X73392207Y-58360796D01*
X73414729Y-58368854D01*
X73436353Y-58379082D01*
X73456870Y-58391379D01*
X73476083Y-58405629D01*
X73493807Y-58421693D01*
X73509871Y-58439417D01*
X73524121Y-58458630D01*
X73536418Y-58479147D01*
X73546646Y-58500771D01*
X73554704Y-58523293D01*
X73560516Y-58546497D01*
X73564026Y-58570158D01*
X73565200Y-58594050D01*
X73565200Y-59081550D01*
X73564026Y-59105442D01*
X73560516Y-59129103D01*
X73554704Y-59152307D01*
X73546646Y-59174829D01*
X73536418Y-59196453D01*
X73524121Y-59216970D01*
X73509871Y-59236183D01*
X73493807Y-59253907D01*
X73476083Y-59269971D01*
X73456870Y-59284221D01*
X73436353Y-59296518D01*
X73414729Y-59306746D01*
X73392207Y-59314804D01*
X73369003Y-59320616D01*
X73345342Y-59324126D01*
X73321450Y-59325300D01*
X72408950Y-59325300D01*
X72385058Y-59324126D01*
X72361397Y-59320616D01*
X72338193Y-59314804D01*
X72315671Y-59306746D01*
X72294047Y-59296518D01*
X72273530Y-59284221D01*
X72254317Y-59269971D01*
X72236593Y-59253907D01*
X72220529Y-59236183D01*
X72206279Y-59216970D01*
X72193982Y-59196453D01*
X72183754Y-59174829D01*
X72175696Y-59152307D01*
X72169884Y-59129103D01*
X72166374Y-59105442D01*
X72165200Y-59081550D01*
X72165200Y-58594050D01*
X72166374Y-58570158D01*
X72169884Y-58546497D01*
X72175696Y-58523293D01*
X72183754Y-58500771D01*
X72193982Y-58479147D01*
X72206279Y-58458630D01*
X72220529Y-58439417D01*
X72236593Y-58421693D01*
X72254317Y-58405629D01*
X72273530Y-58391379D01*
X72294047Y-58379082D01*
X72315671Y-58368854D01*
X72338193Y-58360796D01*
X72361397Y-58354984D01*
X72385058Y-58351474D01*
X72408950Y-58350300D01*
X73321450Y-58350300D01*
X73345342Y-58351474D01*
X73345342Y-58351474D01*
G37*
D15*
X72865200Y-58837800D03*
D14*
G36*
X59832542Y-72725574D02*
G01*
X59856203Y-72729084D01*
X59879407Y-72734896D01*
X59901929Y-72742954D01*
X59923553Y-72753182D01*
X59944070Y-72765479D01*
X59963283Y-72779729D01*
X59981007Y-72795793D01*
X59997071Y-72813517D01*
X60011321Y-72832730D01*
X60023618Y-72853247D01*
X60033846Y-72874871D01*
X60041904Y-72897393D01*
X60047716Y-72920597D01*
X60051226Y-72944258D01*
X60052400Y-72968150D01*
X60052400Y-73455650D01*
X60051226Y-73479542D01*
X60047716Y-73503203D01*
X60041904Y-73526407D01*
X60033846Y-73548929D01*
X60023618Y-73570553D01*
X60011321Y-73591070D01*
X59997071Y-73610283D01*
X59981007Y-73628007D01*
X59963283Y-73644071D01*
X59944070Y-73658321D01*
X59923553Y-73670618D01*
X59901929Y-73680846D01*
X59879407Y-73688904D01*
X59856203Y-73694716D01*
X59832542Y-73698226D01*
X59808650Y-73699400D01*
X58896150Y-73699400D01*
X58872258Y-73698226D01*
X58848597Y-73694716D01*
X58825393Y-73688904D01*
X58802871Y-73680846D01*
X58781247Y-73670618D01*
X58760730Y-73658321D01*
X58741517Y-73644071D01*
X58723793Y-73628007D01*
X58707729Y-73610283D01*
X58693479Y-73591070D01*
X58681182Y-73570553D01*
X58670954Y-73548929D01*
X58662896Y-73526407D01*
X58657084Y-73503203D01*
X58653574Y-73479542D01*
X58652400Y-73455650D01*
X58652400Y-72968150D01*
X58653574Y-72944258D01*
X58657084Y-72920597D01*
X58662896Y-72897393D01*
X58670954Y-72874871D01*
X58681182Y-72853247D01*
X58693479Y-72832730D01*
X58707729Y-72813517D01*
X58723793Y-72795793D01*
X58741517Y-72779729D01*
X58760730Y-72765479D01*
X58781247Y-72753182D01*
X58802871Y-72742954D01*
X58825393Y-72734896D01*
X58848597Y-72729084D01*
X58872258Y-72725574D01*
X58896150Y-72724400D01*
X59808650Y-72724400D01*
X59832542Y-72725574D01*
X59832542Y-72725574D01*
G37*
D15*
X59352400Y-73211900D03*
D14*
G36*
X59832542Y-74600574D02*
G01*
X59856203Y-74604084D01*
X59879407Y-74609896D01*
X59901929Y-74617954D01*
X59923553Y-74628182D01*
X59944070Y-74640479D01*
X59963283Y-74654729D01*
X59981007Y-74670793D01*
X59997071Y-74688517D01*
X60011321Y-74707730D01*
X60023618Y-74728247D01*
X60033846Y-74749871D01*
X60041904Y-74772393D01*
X60047716Y-74795597D01*
X60051226Y-74819258D01*
X60052400Y-74843150D01*
X60052400Y-75330650D01*
X60051226Y-75354542D01*
X60047716Y-75378203D01*
X60041904Y-75401407D01*
X60033846Y-75423929D01*
X60023618Y-75445553D01*
X60011321Y-75466070D01*
X59997071Y-75485283D01*
X59981007Y-75503007D01*
X59963283Y-75519071D01*
X59944070Y-75533321D01*
X59923553Y-75545618D01*
X59901929Y-75555846D01*
X59879407Y-75563904D01*
X59856203Y-75569716D01*
X59832542Y-75573226D01*
X59808650Y-75574400D01*
X58896150Y-75574400D01*
X58872258Y-75573226D01*
X58848597Y-75569716D01*
X58825393Y-75563904D01*
X58802871Y-75555846D01*
X58781247Y-75545618D01*
X58760730Y-75533321D01*
X58741517Y-75519071D01*
X58723793Y-75503007D01*
X58707729Y-75485283D01*
X58693479Y-75466070D01*
X58681182Y-75445553D01*
X58670954Y-75423929D01*
X58662896Y-75401407D01*
X58657084Y-75378203D01*
X58653574Y-75354542D01*
X58652400Y-75330650D01*
X58652400Y-74843150D01*
X58653574Y-74819258D01*
X58657084Y-74795597D01*
X58662896Y-74772393D01*
X58670954Y-74749871D01*
X58681182Y-74728247D01*
X58693479Y-74707730D01*
X58707729Y-74688517D01*
X58723793Y-74670793D01*
X58741517Y-74654729D01*
X58760730Y-74640479D01*
X58781247Y-74628182D01*
X58802871Y-74617954D01*
X58825393Y-74609896D01*
X58848597Y-74604084D01*
X58872258Y-74600574D01*
X58896150Y-74599400D01*
X59808650Y-74599400D01*
X59832542Y-74600574D01*
X59832542Y-74600574D01*
G37*
D15*
X59352400Y-75086900D03*
D14*
G36*
X66766742Y-82324474D02*
G01*
X66790403Y-82327984D01*
X66813607Y-82333796D01*
X66836129Y-82341854D01*
X66857753Y-82352082D01*
X66878270Y-82364379D01*
X66897483Y-82378629D01*
X66915207Y-82394693D01*
X66931271Y-82412417D01*
X66945521Y-82431630D01*
X66957818Y-82452147D01*
X66968046Y-82473771D01*
X66976104Y-82496293D01*
X66981916Y-82519497D01*
X66985426Y-82543158D01*
X66986600Y-82567050D01*
X66986600Y-83054550D01*
X66985426Y-83078442D01*
X66981916Y-83102103D01*
X66976104Y-83125307D01*
X66968046Y-83147829D01*
X66957818Y-83169453D01*
X66945521Y-83189970D01*
X66931271Y-83209183D01*
X66915207Y-83226907D01*
X66897483Y-83242971D01*
X66878270Y-83257221D01*
X66857753Y-83269518D01*
X66836129Y-83279746D01*
X66813607Y-83287804D01*
X66790403Y-83293616D01*
X66766742Y-83297126D01*
X66742850Y-83298300D01*
X65830350Y-83298300D01*
X65806458Y-83297126D01*
X65782797Y-83293616D01*
X65759593Y-83287804D01*
X65737071Y-83279746D01*
X65715447Y-83269518D01*
X65694930Y-83257221D01*
X65675717Y-83242971D01*
X65657993Y-83226907D01*
X65641929Y-83209183D01*
X65627679Y-83189970D01*
X65615382Y-83169453D01*
X65605154Y-83147829D01*
X65597096Y-83125307D01*
X65591284Y-83102103D01*
X65587774Y-83078442D01*
X65586600Y-83054550D01*
X65586600Y-82567050D01*
X65587774Y-82543158D01*
X65591284Y-82519497D01*
X65597096Y-82496293D01*
X65605154Y-82473771D01*
X65615382Y-82452147D01*
X65627679Y-82431630D01*
X65641929Y-82412417D01*
X65657993Y-82394693D01*
X65675717Y-82378629D01*
X65694930Y-82364379D01*
X65715447Y-82352082D01*
X65737071Y-82341854D01*
X65759593Y-82333796D01*
X65782797Y-82327984D01*
X65806458Y-82324474D01*
X65830350Y-82323300D01*
X66742850Y-82323300D01*
X66766742Y-82324474D01*
X66766742Y-82324474D01*
G37*
D15*
X66286600Y-82810800D03*
D14*
G36*
X66766742Y-80449474D02*
G01*
X66790403Y-80452984D01*
X66813607Y-80458796D01*
X66836129Y-80466854D01*
X66857753Y-80477082D01*
X66878270Y-80489379D01*
X66897483Y-80503629D01*
X66915207Y-80519693D01*
X66931271Y-80537417D01*
X66945521Y-80556630D01*
X66957818Y-80577147D01*
X66968046Y-80598771D01*
X66976104Y-80621293D01*
X66981916Y-80644497D01*
X66985426Y-80668158D01*
X66986600Y-80692050D01*
X66986600Y-81179550D01*
X66985426Y-81203442D01*
X66981916Y-81227103D01*
X66976104Y-81250307D01*
X66968046Y-81272829D01*
X66957818Y-81294453D01*
X66945521Y-81314970D01*
X66931271Y-81334183D01*
X66915207Y-81351907D01*
X66897483Y-81367971D01*
X66878270Y-81382221D01*
X66857753Y-81394518D01*
X66836129Y-81404746D01*
X66813607Y-81412804D01*
X66790403Y-81418616D01*
X66766742Y-81422126D01*
X66742850Y-81423300D01*
X65830350Y-81423300D01*
X65806458Y-81422126D01*
X65782797Y-81418616D01*
X65759593Y-81412804D01*
X65737071Y-81404746D01*
X65715447Y-81394518D01*
X65694930Y-81382221D01*
X65675717Y-81367971D01*
X65657993Y-81351907D01*
X65641929Y-81334183D01*
X65627679Y-81314970D01*
X65615382Y-81294453D01*
X65605154Y-81272829D01*
X65597096Y-81250307D01*
X65591284Y-81227103D01*
X65587774Y-81203442D01*
X65586600Y-81179550D01*
X65586600Y-80692050D01*
X65587774Y-80668158D01*
X65591284Y-80644497D01*
X65597096Y-80621293D01*
X65605154Y-80598771D01*
X65615382Y-80577147D01*
X65627679Y-80556630D01*
X65641929Y-80537417D01*
X65657993Y-80519693D01*
X65675717Y-80503629D01*
X65694930Y-80489379D01*
X65715447Y-80477082D01*
X65737071Y-80466854D01*
X65759593Y-80458796D01*
X65782797Y-80452984D01*
X65806458Y-80449474D01*
X65830350Y-80448300D01*
X66742850Y-80448300D01*
X66766742Y-80449474D01*
X66766742Y-80449474D01*
G37*
D15*
X66286600Y-80935800D03*
D14*
G36*
X68824142Y-82347574D02*
G01*
X68847803Y-82351084D01*
X68871007Y-82356896D01*
X68893529Y-82364954D01*
X68915153Y-82375182D01*
X68935670Y-82387479D01*
X68954883Y-82401729D01*
X68972607Y-82417793D01*
X68988671Y-82435517D01*
X69002921Y-82454730D01*
X69015218Y-82475247D01*
X69025446Y-82496871D01*
X69033504Y-82519393D01*
X69039316Y-82542597D01*
X69042826Y-82566258D01*
X69044000Y-82590150D01*
X69044000Y-83077650D01*
X69042826Y-83101542D01*
X69039316Y-83125203D01*
X69033504Y-83148407D01*
X69025446Y-83170929D01*
X69015218Y-83192553D01*
X69002921Y-83213070D01*
X68988671Y-83232283D01*
X68972607Y-83250007D01*
X68954883Y-83266071D01*
X68935670Y-83280321D01*
X68915153Y-83292618D01*
X68893529Y-83302846D01*
X68871007Y-83310904D01*
X68847803Y-83316716D01*
X68824142Y-83320226D01*
X68800250Y-83321400D01*
X67887750Y-83321400D01*
X67863858Y-83320226D01*
X67840197Y-83316716D01*
X67816993Y-83310904D01*
X67794471Y-83302846D01*
X67772847Y-83292618D01*
X67752330Y-83280321D01*
X67733117Y-83266071D01*
X67715393Y-83250007D01*
X67699329Y-83232283D01*
X67685079Y-83213070D01*
X67672782Y-83192553D01*
X67662554Y-83170929D01*
X67654496Y-83148407D01*
X67648684Y-83125203D01*
X67645174Y-83101542D01*
X67644000Y-83077650D01*
X67644000Y-82590150D01*
X67645174Y-82566258D01*
X67648684Y-82542597D01*
X67654496Y-82519393D01*
X67662554Y-82496871D01*
X67672782Y-82475247D01*
X67685079Y-82454730D01*
X67699329Y-82435517D01*
X67715393Y-82417793D01*
X67733117Y-82401729D01*
X67752330Y-82387479D01*
X67772847Y-82375182D01*
X67794471Y-82364954D01*
X67816993Y-82356896D01*
X67840197Y-82351084D01*
X67863858Y-82347574D01*
X67887750Y-82346400D01*
X68800250Y-82346400D01*
X68824142Y-82347574D01*
X68824142Y-82347574D01*
G37*
D15*
X68344000Y-82833900D03*
D14*
G36*
X68824142Y-80472574D02*
G01*
X68847803Y-80476084D01*
X68871007Y-80481896D01*
X68893529Y-80489954D01*
X68915153Y-80500182D01*
X68935670Y-80512479D01*
X68954883Y-80526729D01*
X68972607Y-80542793D01*
X68988671Y-80560517D01*
X69002921Y-80579730D01*
X69015218Y-80600247D01*
X69025446Y-80621871D01*
X69033504Y-80644393D01*
X69039316Y-80667597D01*
X69042826Y-80691258D01*
X69044000Y-80715150D01*
X69044000Y-81202650D01*
X69042826Y-81226542D01*
X69039316Y-81250203D01*
X69033504Y-81273407D01*
X69025446Y-81295929D01*
X69015218Y-81317553D01*
X69002921Y-81338070D01*
X68988671Y-81357283D01*
X68972607Y-81375007D01*
X68954883Y-81391071D01*
X68935670Y-81405321D01*
X68915153Y-81417618D01*
X68893529Y-81427846D01*
X68871007Y-81435904D01*
X68847803Y-81441716D01*
X68824142Y-81445226D01*
X68800250Y-81446400D01*
X67887750Y-81446400D01*
X67863858Y-81445226D01*
X67840197Y-81441716D01*
X67816993Y-81435904D01*
X67794471Y-81427846D01*
X67772847Y-81417618D01*
X67752330Y-81405321D01*
X67733117Y-81391071D01*
X67715393Y-81375007D01*
X67699329Y-81357283D01*
X67685079Y-81338070D01*
X67672782Y-81317553D01*
X67662554Y-81295929D01*
X67654496Y-81273407D01*
X67648684Y-81250203D01*
X67645174Y-81226542D01*
X67644000Y-81202650D01*
X67644000Y-80715150D01*
X67645174Y-80691258D01*
X67648684Y-80667597D01*
X67654496Y-80644393D01*
X67662554Y-80621871D01*
X67672782Y-80600247D01*
X67685079Y-80579730D01*
X67699329Y-80560517D01*
X67715393Y-80542793D01*
X67733117Y-80526729D01*
X67752330Y-80512479D01*
X67772847Y-80500182D01*
X67794471Y-80489954D01*
X67816993Y-80481896D01*
X67840197Y-80476084D01*
X67863858Y-80472574D01*
X67887750Y-80471400D01*
X68800250Y-80471400D01*
X68824142Y-80472574D01*
X68824142Y-80472574D01*
G37*
D15*
X68344000Y-80958900D03*
D17*
X70080000Y-30000000D03*
D16*
X65000000Y-30000000D03*
X59920000Y-30000000D03*
X62460000Y-30000000D03*
X67540000Y-30000000D03*
D10*
X100250000Y-71250000D03*
X100250000Y-68710000D03*
X100250000Y-66170000D03*
X100250000Y-63630000D03*
X100250000Y-61090000D03*
X100250000Y-58550000D03*
D17*
X90800000Y-108250000D03*
D16*
X93340000Y-108250000D03*
X100960000Y-108250000D03*
X98420000Y-108250000D03*
X103500000Y-108250000D03*
X95880000Y-108250000D03*
D17*
X26500000Y-108250000D03*
D16*
X29040000Y-108250000D03*
X36660000Y-108250000D03*
X34120000Y-108250000D03*
X39200000Y-108250000D03*
X31580000Y-108250000D03*
D17*
X108250000Y-103500000D03*
D16*
X108250000Y-100960000D03*
X108250000Y-93340000D03*
X108250000Y-95880000D03*
X108250000Y-90800000D03*
X108250000Y-98420000D03*
D17*
X108250000Y-39200000D03*
D16*
X108250000Y-36660000D03*
X108250000Y-29040000D03*
X108250000Y-31580000D03*
X108250000Y-26500000D03*
X108250000Y-34120000D03*
D17*
X21750000Y-90800000D03*
D16*
X21750000Y-93340000D03*
X21750000Y-100960000D03*
X21750000Y-98420000D03*
X21750000Y-103500000D03*
X21750000Y-95880000D03*
D17*
X21750000Y-26500000D03*
D16*
X21750000Y-29040000D03*
X21750000Y-36660000D03*
X21750000Y-34120000D03*
X21750000Y-39200000D03*
X21750000Y-31580000D03*
D17*
X103500000Y-21750000D03*
D16*
X100960000Y-21750000D03*
X93340000Y-21750000D03*
X95880000Y-21750000D03*
X90800000Y-21750000D03*
X98420000Y-21750000D03*
D17*
X39200000Y-21750000D03*
D16*
X36660000Y-21750000D03*
X29040000Y-21750000D03*
X31580000Y-21750000D03*
X26500000Y-21750000D03*
X34120000Y-21750000D03*
D14*
G36*
X86230142Y-32451174D02*
G01*
X86253803Y-32454684D01*
X86277007Y-32460496D01*
X86299529Y-32468554D01*
X86321153Y-32478782D01*
X86341670Y-32491079D01*
X86360883Y-32505329D01*
X86378607Y-32521393D01*
X86394671Y-32539117D01*
X86408921Y-32558330D01*
X86421218Y-32578847D01*
X86431446Y-32600471D01*
X86439504Y-32622993D01*
X86445316Y-32646197D01*
X86448826Y-32669858D01*
X86450000Y-32693750D01*
X86450000Y-33181250D01*
X86448826Y-33205142D01*
X86445316Y-33228803D01*
X86439504Y-33252007D01*
X86431446Y-33274529D01*
X86421218Y-33296153D01*
X86408921Y-33316670D01*
X86394671Y-33335883D01*
X86378607Y-33353607D01*
X86360883Y-33369671D01*
X86341670Y-33383921D01*
X86321153Y-33396218D01*
X86299529Y-33406446D01*
X86277007Y-33414504D01*
X86253803Y-33420316D01*
X86230142Y-33423826D01*
X86206250Y-33425000D01*
X85293750Y-33425000D01*
X85269858Y-33423826D01*
X85246197Y-33420316D01*
X85222993Y-33414504D01*
X85200471Y-33406446D01*
X85178847Y-33396218D01*
X85158330Y-33383921D01*
X85139117Y-33369671D01*
X85121393Y-33353607D01*
X85105329Y-33335883D01*
X85091079Y-33316670D01*
X85078782Y-33296153D01*
X85068554Y-33274529D01*
X85060496Y-33252007D01*
X85054684Y-33228803D01*
X85051174Y-33205142D01*
X85050000Y-33181250D01*
X85050000Y-32693750D01*
X85051174Y-32669858D01*
X85054684Y-32646197D01*
X85060496Y-32622993D01*
X85068554Y-32600471D01*
X85078782Y-32578847D01*
X85091079Y-32558330D01*
X85105329Y-32539117D01*
X85121393Y-32521393D01*
X85139117Y-32505329D01*
X85158330Y-32491079D01*
X85178847Y-32478782D01*
X85200471Y-32468554D01*
X85222993Y-32460496D01*
X85246197Y-32454684D01*
X85269858Y-32451174D01*
X85293750Y-32450000D01*
X86206250Y-32450000D01*
X86230142Y-32451174D01*
X86230142Y-32451174D01*
G37*
D15*
X85750000Y-32937500D03*
D14*
G36*
X86230142Y-30576174D02*
G01*
X86253803Y-30579684D01*
X86277007Y-30585496D01*
X86299529Y-30593554D01*
X86321153Y-30603782D01*
X86341670Y-30616079D01*
X86360883Y-30630329D01*
X86378607Y-30646393D01*
X86394671Y-30664117D01*
X86408921Y-30683330D01*
X86421218Y-30703847D01*
X86431446Y-30725471D01*
X86439504Y-30747993D01*
X86445316Y-30771197D01*
X86448826Y-30794858D01*
X86450000Y-30818750D01*
X86450000Y-31306250D01*
X86448826Y-31330142D01*
X86445316Y-31353803D01*
X86439504Y-31377007D01*
X86431446Y-31399529D01*
X86421218Y-31421153D01*
X86408921Y-31441670D01*
X86394671Y-31460883D01*
X86378607Y-31478607D01*
X86360883Y-31494671D01*
X86341670Y-31508921D01*
X86321153Y-31521218D01*
X86299529Y-31531446D01*
X86277007Y-31539504D01*
X86253803Y-31545316D01*
X86230142Y-31548826D01*
X86206250Y-31550000D01*
X85293750Y-31550000D01*
X85269858Y-31548826D01*
X85246197Y-31545316D01*
X85222993Y-31539504D01*
X85200471Y-31531446D01*
X85178847Y-31521218D01*
X85158330Y-31508921D01*
X85139117Y-31494671D01*
X85121393Y-31478607D01*
X85105329Y-31460883D01*
X85091079Y-31441670D01*
X85078782Y-31421153D01*
X85068554Y-31399529D01*
X85060496Y-31377007D01*
X85054684Y-31353803D01*
X85051174Y-31330142D01*
X85050000Y-31306250D01*
X85050000Y-30818750D01*
X85051174Y-30794858D01*
X85054684Y-30771197D01*
X85060496Y-30747993D01*
X85068554Y-30725471D01*
X85078782Y-30703847D01*
X85091079Y-30683330D01*
X85105329Y-30664117D01*
X85121393Y-30646393D01*
X85139117Y-30630329D01*
X85158330Y-30616079D01*
X85178847Y-30603782D01*
X85200471Y-30593554D01*
X85222993Y-30585496D01*
X85246197Y-30579684D01*
X85269858Y-30576174D01*
X85293750Y-30575000D01*
X86206250Y-30575000D01*
X86230142Y-30576174D01*
X86230142Y-30576174D01*
G37*
D15*
X85750000Y-31062500D03*
D14*
G36*
X57484342Y-63360574D02*
G01*
X57508003Y-63364084D01*
X57531207Y-63369896D01*
X57553729Y-63377954D01*
X57575353Y-63388182D01*
X57595870Y-63400479D01*
X57615083Y-63414729D01*
X57632807Y-63430793D01*
X57648871Y-63448517D01*
X57663121Y-63467730D01*
X57675418Y-63488247D01*
X57685646Y-63509871D01*
X57693704Y-63532393D01*
X57699516Y-63555597D01*
X57703026Y-63579258D01*
X57704200Y-63603150D01*
X57704200Y-64090650D01*
X57703026Y-64114542D01*
X57699516Y-64138203D01*
X57693704Y-64161407D01*
X57685646Y-64183929D01*
X57675418Y-64205553D01*
X57663121Y-64226070D01*
X57648871Y-64245283D01*
X57632807Y-64263007D01*
X57615083Y-64279071D01*
X57595870Y-64293321D01*
X57575353Y-64305618D01*
X57553729Y-64315846D01*
X57531207Y-64323904D01*
X57508003Y-64329716D01*
X57484342Y-64333226D01*
X57460450Y-64334400D01*
X56547950Y-64334400D01*
X56524058Y-64333226D01*
X56500397Y-64329716D01*
X56477193Y-64323904D01*
X56454671Y-64315846D01*
X56433047Y-64305618D01*
X56412530Y-64293321D01*
X56393317Y-64279071D01*
X56375593Y-64263007D01*
X56359529Y-64245283D01*
X56345279Y-64226070D01*
X56332982Y-64205553D01*
X56322754Y-64183929D01*
X56314696Y-64161407D01*
X56308884Y-64138203D01*
X56305374Y-64114542D01*
X56304200Y-64090650D01*
X56304200Y-63603150D01*
X56305374Y-63579258D01*
X56308884Y-63555597D01*
X56314696Y-63532393D01*
X56322754Y-63509871D01*
X56332982Y-63488247D01*
X56345279Y-63467730D01*
X56359529Y-63448517D01*
X56375593Y-63430793D01*
X56393317Y-63414729D01*
X56412530Y-63400479D01*
X56433047Y-63388182D01*
X56454671Y-63377954D01*
X56477193Y-63369896D01*
X56500397Y-63364084D01*
X56524058Y-63360574D01*
X56547950Y-63359400D01*
X57460450Y-63359400D01*
X57484342Y-63360574D01*
X57484342Y-63360574D01*
G37*
D15*
X57004200Y-63846900D03*
D14*
G36*
X57484342Y-61485574D02*
G01*
X57508003Y-61489084D01*
X57531207Y-61494896D01*
X57553729Y-61502954D01*
X57575353Y-61513182D01*
X57595870Y-61525479D01*
X57615083Y-61539729D01*
X57632807Y-61555793D01*
X57648871Y-61573517D01*
X57663121Y-61592730D01*
X57675418Y-61613247D01*
X57685646Y-61634871D01*
X57693704Y-61657393D01*
X57699516Y-61680597D01*
X57703026Y-61704258D01*
X57704200Y-61728150D01*
X57704200Y-62215650D01*
X57703026Y-62239542D01*
X57699516Y-62263203D01*
X57693704Y-62286407D01*
X57685646Y-62308929D01*
X57675418Y-62330553D01*
X57663121Y-62351070D01*
X57648871Y-62370283D01*
X57632807Y-62388007D01*
X57615083Y-62404071D01*
X57595870Y-62418321D01*
X57575353Y-62430618D01*
X57553729Y-62440846D01*
X57531207Y-62448904D01*
X57508003Y-62454716D01*
X57484342Y-62458226D01*
X57460450Y-62459400D01*
X56547950Y-62459400D01*
X56524058Y-62458226D01*
X56500397Y-62454716D01*
X56477193Y-62448904D01*
X56454671Y-62440846D01*
X56433047Y-62430618D01*
X56412530Y-62418321D01*
X56393317Y-62404071D01*
X56375593Y-62388007D01*
X56359529Y-62370283D01*
X56345279Y-62351070D01*
X56332982Y-62330553D01*
X56322754Y-62308929D01*
X56314696Y-62286407D01*
X56308884Y-62263203D01*
X56305374Y-62239542D01*
X56304200Y-62215650D01*
X56304200Y-61728150D01*
X56305374Y-61704258D01*
X56308884Y-61680597D01*
X56314696Y-61657393D01*
X56322754Y-61634871D01*
X56332982Y-61613247D01*
X56345279Y-61592730D01*
X56359529Y-61573517D01*
X56375593Y-61555793D01*
X56393317Y-61539729D01*
X56412530Y-61525479D01*
X56433047Y-61513182D01*
X56454671Y-61502954D01*
X56477193Y-61494896D01*
X56500397Y-61489084D01*
X56524058Y-61485574D01*
X56547950Y-61484400D01*
X57460450Y-61484400D01*
X57484342Y-61485574D01*
X57484342Y-61485574D01*
G37*
D15*
X57004200Y-61971900D03*
D14*
G36*
X63404642Y-72713974D02*
G01*
X63428303Y-72717484D01*
X63451507Y-72723296D01*
X63474029Y-72731354D01*
X63495653Y-72741582D01*
X63516170Y-72753879D01*
X63535383Y-72768129D01*
X63553107Y-72784193D01*
X63569171Y-72801917D01*
X63583421Y-72821130D01*
X63595718Y-72841647D01*
X63605946Y-72863271D01*
X63614004Y-72885793D01*
X63619816Y-72908997D01*
X63623326Y-72932658D01*
X63624500Y-72956550D01*
X63624500Y-73869050D01*
X63623326Y-73892942D01*
X63619816Y-73916603D01*
X63614004Y-73939807D01*
X63605946Y-73962329D01*
X63595718Y-73983953D01*
X63583421Y-74004470D01*
X63569171Y-74023683D01*
X63553107Y-74041407D01*
X63535383Y-74057471D01*
X63516170Y-74071721D01*
X63495653Y-74084018D01*
X63474029Y-74094246D01*
X63451507Y-74102304D01*
X63428303Y-74108116D01*
X63404642Y-74111626D01*
X63380750Y-74112800D01*
X62893250Y-74112800D01*
X62869358Y-74111626D01*
X62845697Y-74108116D01*
X62822493Y-74102304D01*
X62799971Y-74094246D01*
X62778347Y-74084018D01*
X62757830Y-74071721D01*
X62738617Y-74057471D01*
X62720893Y-74041407D01*
X62704829Y-74023683D01*
X62690579Y-74004470D01*
X62678282Y-73983953D01*
X62668054Y-73962329D01*
X62659996Y-73939807D01*
X62654184Y-73916603D01*
X62650674Y-73892942D01*
X62649500Y-73869050D01*
X62649500Y-72956550D01*
X62650674Y-72932658D01*
X62654184Y-72908997D01*
X62659996Y-72885793D01*
X62668054Y-72863271D01*
X62678282Y-72841647D01*
X62690579Y-72821130D01*
X62704829Y-72801917D01*
X62720893Y-72784193D01*
X62738617Y-72768129D01*
X62757830Y-72753879D01*
X62778347Y-72741582D01*
X62799971Y-72731354D01*
X62822493Y-72723296D01*
X62845697Y-72717484D01*
X62869358Y-72713974D01*
X62893250Y-72712800D01*
X63380750Y-72712800D01*
X63404642Y-72713974D01*
X63404642Y-72713974D01*
G37*
D15*
X63137000Y-73412800D03*
D14*
G36*
X61529642Y-72713974D02*
G01*
X61553303Y-72717484D01*
X61576507Y-72723296D01*
X61599029Y-72731354D01*
X61620653Y-72741582D01*
X61641170Y-72753879D01*
X61660383Y-72768129D01*
X61678107Y-72784193D01*
X61694171Y-72801917D01*
X61708421Y-72821130D01*
X61720718Y-72841647D01*
X61730946Y-72863271D01*
X61739004Y-72885793D01*
X61744816Y-72908997D01*
X61748326Y-72932658D01*
X61749500Y-72956550D01*
X61749500Y-73869050D01*
X61748326Y-73892942D01*
X61744816Y-73916603D01*
X61739004Y-73939807D01*
X61730946Y-73962329D01*
X61720718Y-73983953D01*
X61708421Y-74004470D01*
X61694171Y-74023683D01*
X61678107Y-74041407D01*
X61660383Y-74057471D01*
X61641170Y-74071721D01*
X61620653Y-74084018D01*
X61599029Y-74094246D01*
X61576507Y-74102304D01*
X61553303Y-74108116D01*
X61529642Y-74111626D01*
X61505750Y-74112800D01*
X61018250Y-74112800D01*
X60994358Y-74111626D01*
X60970697Y-74108116D01*
X60947493Y-74102304D01*
X60924971Y-74094246D01*
X60903347Y-74084018D01*
X60882830Y-74071721D01*
X60863617Y-74057471D01*
X60845893Y-74041407D01*
X60829829Y-74023683D01*
X60815579Y-74004470D01*
X60803282Y-73983953D01*
X60793054Y-73962329D01*
X60784996Y-73939807D01*
X60779184Y-73916603D01*
X60775674Y-73892942D01*
X60774500Y-73869050D01*
X60774500Y-72956550D01*
X60775674Y-72932658D01*
X60779184Y-72908997D01*
X60784996Y-72885793D01*
X60793054Y-72863271D01*
X60803282Y-72841647D01*
X60815579Y-72821130D01*
X60829829Y-72801917D01*
X60845893Y-72784193D01*
X60863617Y-72768129D01*
X60882830Y-72753879D01*
X60903347Y-72741582D01*
X60924971Y-72731354D01*
X60947493Y-72723296D01*
X60970697Y-72717484D01*
X60994358Y-72713974D01*
X61018250Y-72712800D01*
X61505750Y-72712800D01*
X61529642Y-72713974D01*
X61529642Y-72713974D01*
G37*
D15*
X61262000Y-73412800D03*
D14*
G36*
X73204342Y-70140574D02*
G01*
X73228003Y-70144084D01*
X73251207Y-70149896D01*
X73273729Y-70157954D01*
X73295353Y-70168182D01*
X73315870Y-70180479D01*
X73335083Y-70194729D01*
X73352807Y-70210793D01*
X73368871Y-70228517D01*
X73383121Y-70247730D01*
X73395418Y-70268247D01*
X73405646Y-70289871D01*
X73413704Y-70312393D01*
X73419516Y-70335597D01*
X73423026Y-70359258D01*
X73424200Y-70383150D01*
X73424200Y-70870650D01*
X73423026Y-70894542D01*
X73419516Y-70918203D01*
X73413704Y-70941407D01*
X73405646Y-70963929D01*
X73395418Y-70985553D01*
X73383121Y-71006070D01*
X73368871Y-71025283D01*
X73352807Y-71043007D01*
X73335083Y-71059071D01*
X73315870Y-71073321D01*
X73295353Y-71085618D01*
X73273729Y-71095846D01*
X73251207Y-71103904D01*
X73228003Y-71109716D01*
X73204342Y-71113226D01*
X73180450Y-71114400D01*
X72267950Y-71114400D01*
X72244058Y-71113226D01*
X72220397Y-71109716D01*
X72197193Y-71103904D01*
X72174671Y-71095846D01*
X72153047Y-71085618D01*
X72132530Y-71073321D01*
X72113317Y-71059071D01*
X72095593Y-71043007D01*
X72079529Y-71025283D01*
X72065279Y-71006070D01*
X72052982Y-70985553D01*
X72042754Y-70963929D01*
X72034696Y-70941407D01*
X72028884Y-70918203D01*
X72025374Y-70894542D01*
X72024200Y-70870650D01*
X72024200Y-70383150D01*
X72025374Y-70359258D01*
X72028884Y-70335597D01*
X72034696Y-70312393D01*
X72042754Y-70289871D01*
X72052982Y-70268247D01*
X72065279Y-70247730D01*
X72079529Y-70228517D01*
X72095593Y-70210793D01*
X72113317Y-70194729D01*
X72132530Y-70180479D01*
X72153047Y-70168182D01*
X72174671Y-70157954D01*
X72197193Y-70149896D01*
X72220397Y-70144084D01*
X72244058Y-70140574D01*
X72267950Y-70139400D01*
X73180450Y-70139400D01*
X73204342Y-70140574D01*
X73204342Y-70140574D01*
G37*
D15*
X72724200Y-70626900D03*
D14*
G36*
X73204342Y-68265574D02*
G01*
X73228003Y-68269084D01*
X73251207Y-68274896D01*
X73273729Y-68282954D01*
X73295353Y-68293182D01*
X73315870Y-68305479D01*
X73335083Y-68319729D01*
X73352807Y-68335793D01*
X73368871Y-68353517D01*
X73383121Y-68372730D01*
X73395418Y-68393247D01*
X73405646Y-68414871D01*
X73413704Y-68437393D01*
X73419516Y-68460597D01*
X73423026Y-68484258D01*
X73424200Y-68508150D01*
X73424200Y-68995650D01*
X73423026Y-69019542D01*
X73419516Y-69043203D01*
X73413704Y-69066407D01*
X73405646Y-69088929D01*
X73395418Y-69110553D01*
X73383121Y-69131070D01*
X73368871Y-69150283D01*
X73352807Y-69168007D01*
X73335083Y-69184071D01*
X73315870Y-69198321D01*
X73295353Y-69210618D01*
X73273729Y-69220846D01*
X73251207Y-69228904D01*
X73228003Y-69234716D01*
X73204342Y-69238226D01*
X73180450Y-69239400D01*
X72267950Y-69239400D01*
X72244058Y-69238226D01*
X72220397Y-69234716D01*
X72197193Y-69228904D01*
X72174671Y-69220846D01*
X72153047Y-69210618D01*
X72132530Y-69198321D01*
X72113317Y-69184071D01*
X72095593Y-69168007D01*
X72079529Y-69150283D01*
X72065279Y-69131070D01*
X72052982Y-69110553D01*
X72042754Y-69088929D01*
X72034696Y-69066407D01*
X72028884Y-69043203D01*
X72025374Y-69019542D01*
X72024200Y-68995650D01*
X72024200Y-68508150D01*
X72025374Y-68484258D01*
X72028884Y-68460597D01*
X72034696Y-68437393D01*
X72042754Y-68414871D01*
X72052982Y-68393247D01*
X72065279Y-68372730D01*
X72079529Y-68353517D01*
X72095593Y-68335793D01*
X72113317Y-68319729D01*
X72132530Y-68305479D01*
X72153047Y-68293182D01*
X72174671Y-68282954D01*
X72197193Y-68274896D01*
X72220397Y-68269084D01*
X72244058Y-68265574D01*
X72267950Y-68264400D01*
X73180450Y-68264400D01*
X73204342Y-68265574D01*
X73204342Y-68265574D01*
G37*
D15*
X72724200Y-68751900D03*
D14*
G36*
X69331842Y-56340574D02*
G01*
X69355503Y-56344084D01*
X69378707Y-56349896D01*
X69401229Y-56357954D01*
X69422853Y-56368182D01*
X69443370Y-56380479D01*
X69462583Y-56394729D01*
X69480307Y-56410793D01*
X69496371Y-56428517D01*
X69510621Y-56447730D01*
X69522918Y-56468247D01*
X69533146Y-56489871D01*
X69541204Y-56512393D01*
X69547016Y-56535597D01*
X69550526Y-56559258D01*
X69551700Y-56583150D01*
X69551700Y-57495650D01*
X69550526Y-57519542D01*
X69547016Y-57543203D01*
X69541204Y-57566407D01*
X69533146Y-57588929D01*
X69522918Y-57610553D01*
X69510621Y-57631070D01*
X69496371Y-57650283D01*
X69480307Y-57668007D01*
X69462583Y-57684071D01*
X69443370Y-57698321D01*
X69422853Y-57710618D01*
X69401229Y-57720846D01*
X69378707Y-57728904D01*
X69355503Y-57734716D01*
X69331842Y-57738226D01*
X69307950Y-57739400D01*
X68820450Y-57739400D01*
X68796558Y-57738226D01*
X68772897Y-57734716D01*
X68749693Y-57728904D01*
X68727171Y-57720846D01*
X68705547Y-57710618D01*
X68685030Y-57698321D01*
X68665817Y-57684071D01*
X68648093Y-57668007D01*
X68632029Y-57650283D01*
X68617779Y-57631070D01*
X68605482Y-57610553D01*
X68595254Y-57588929D01*
X68587196Y-57566407D01*
X68581384Y-57543203D01*
X68577874Y-57519542D01*
X68576700Y-57495650D01*
X68576700Y-56583150D01*
X68577874Y-56559258D01*
X68581384Y-56535597D01*
X68587196Y-56512393D01*
X68595254Y-56489871D01*
X68605482Y-56468247D01*
X68617779Y-56447730D01*
X68632029Y-56428517D01*
X68648093Y-56410793D01*
X68665817Y-56394729D01*
X68685030Y-56380479D01*
X68705547Y-56368182D01*
X68727171Y-56357954D01*
X68749693Y-56349896D01*
X68772897Y-56344084D01*
X68796558Y-56340574D01*
X68820450Y-56339400D01*
X69307950Y-56339400D01*
X69331842Y-56340574D01*
X69331842Y-56340574D01*
G37*
D15*
X69064200Y-57039400D03*
D14*
G36*
X71206842Y-56340574D02*
G01*
X71230503Y-56344084D01*
X71253707Y-56349896D01*
X71276229Y-56357954D01*
X71297853Y-56368182D01*
X71318370Y-56380479D01*
X71337583Y-56394729D01*
X71355307Y-56410793D01*
X71371371Y-56428517D01*
X71385621Y-56447730D01*
X71397918Y-56468247D01*
X71408146Y-56489871D01*
X71416204Y-56512393D01*
X71422016Y-56535597D01*
X71425526Y-56559258D01*
X71426700Y-56583150D01*
X71426700Y-57495650D01*
X71425526Y-57519542D01*
X71422016Y-57543203D01*
X71416204Y-57566407D01*
X71408146Y-57588929D01*
X71397918Y-57610553D01*
X71385621Y-57631070D01*
X71371371Y-57650283D01*
X71355307Y-57668007D01*
X71337583Y-57684071D01*
X71318370Y-57698321D01*
X71297853Y-57710618D01*
X71276229Y-57720846D01*
X71253707Y-57728904D01*
X71230503Y-57734716D01*
X71206842Y-57738226D01*
X71182950Y-57739400D01*
X70695450Y-57739400D01*
X70671558Y-57738226D01*
X70647897Y-57734716D01*
X70624693Y-57728904D01*
X70602171Y-57720846D01*
X70580547Y-57710618D01*
X70560030Y-57698321D01*
X70540817Y-57684071D01*
X70523093Y-57668007D01*
X70507029Y-57650283D01*
X70492779Y-57631070D01*
X70480482Y-57610553D01*
X70470254Y-57588929D01*
X70462196Y-57566407D01*
X70456384Y-57543203D01*
X70452874Y-57519542D01*
X70451700Y-57495650D01*
X70451700Y-56583150D01*
X70452874Y-56559258D01*
X70456384Y-56535597D01*
X70462196Y-56512393D01*
X70470254Y-56489871D01*
X70480482Y-56468247D01*
X70492779Y-56447730D01*
X70507029Y-56428517D01*
X70523093Y-56410793D01*
X70540817Y-56394729D01*
X70560030Y-56380479D01*
X70580547Y-56368182D01*
X70602171Y-56357954D01*
X70624693Y-56349896D01*
X70647897Y-56344084D01*
X70671558Y-56340574D01*
X70695450Y-56339400D01*
X71182950Y-56339400D01*
X71206842Y-56340574D01*
X71206842Y-56340574D01*
G37*
D15*
X70939200Y-57039400D03*
D14*
G36*
X61139342Y-56300574D02*
G01*
X61163003Y-56304084D01*
X61186207Y-56309896D01*
X61208729Y-56317954D01*
X61230353Y-56328182D01*
X61250870Y-56340479D01*
X61270083Y-56354729D01*
X61287807Y-56370793D01*
X61303871Y-56388517D01*
X61318121Y-56407730D01*
X61330418Y-56428247D01*
X61340646Y-56449871D01*
X61348704Y-56472393D01*
X61354516Y-56495597D01*
X61358026Y-56519258D01*
X61359200Y-56543150D01*
X61359200Y-57455650D01*
X61358026Y-57479542D01*
X61354516Y-57503203D01*
X61348704Y-57526407D01*
X61340646Y-57548929D01*
X61330418Y-57570553D01*
X61318121Y-57591070D01*
X61303871Y-57610283D01*
X61287807Y-57628007D01*
X61270083Y-57644071D01*
X61250870Y-57658321D01*
X61230353Y-57670618D01*
X61208729Y-57680846D01*
X61186207Y-57688904D01*
X61163003Y-57694716D01*
X61139342Y-57698226D01*
X61115450Y-57699400D01*
X60627950Y-57699400D01*
X60604058Y-57698226D01*
X60580397Y-57694716D01*
X60557193Y-57688904D01*
X60534671Y-57680846D01*
X60513047Y-57670618D01*
X60492530Y-57658321D01*
X60473317Y-57644071D01*
X60455593Y-57628007D01*
X60439529Y-57610283D01*
X60425279Y-57591070D01*
X60412982Y-57570553D01*
X60402754Y-57548929D01*
X60394696Y-57526407D01*
X60388884Y-57503203D01*
X60385374Y-57479542D01*
X60384200Y-57455650D01*
X60384200Y-56543150D01*
X60385374Y-56519258D01*
X60388884Y-56495597D01*
X60394696Y-56472393D01*
X60402754Y-56449871D01*
X60412982Y-56428247D01*
X60425279Y-56407730D01*
X60439529Y-56388517D01*
X60455593Y-56370793D01*
X60473317Y-56354729D01*
X60492530Y-56340479D01*
X60513047Y-56328182D01*
X60534671Y-56317954D01*
X60557193Y-56309896D01*
X60580397Y-56304084D01*
X60604058Y-56300574D01*
X60627950Y-56299400D01*
X61115450Y-56299400D01*
X61139342Y-56300574D01*
X61139342Y-56300574D01*
G37*
D15*
X60871700Y-56999400D03*
D14*
G36*
X59264342Y-56300574D02*
G01*
X59288003Y-56304084D01*
X59311207Y-56309896D01*
X59333729Y-56317954D01*
X59355353Y-56328182D01*
X59375870Y-56340479D01*
X59395083Y-56354729D01*
X59412807Y-56370793D01*
X59428871Y-56388517D01*
X59443121Y-56407730D01*
X59455418Y-56428247D01*
X59465646Y-56449871D01*
X59473704Y-56472393D01*
X59479516Y-56495597D01*
X59483026Y-56519258D01*
X59484200Y-56543150D01*
X59484200Y-57455650D01*
X59483026Y-57479542D01*
X59479516Y-57503203D01*
X59473704Y-57526407D01*
X59465646Y-57548929D01*
X59455418Y-57570553D01*
X59443121Y-57591070D01*
X59428871Y-57610283D01*
X59412807Y-57628007D01*
X59395083Y-57644071D01*
X59375870Y-57658321D01*
X59355353Y-57670618D01*
X59333729Y-57680846D01*
X59311207Y-57688904D01*
X59288003Y-57694716D01*
X59264342Y-57698226D01*
X59240450Y-57699400D01*
X58752950Y-57699400D01*
X58729058Y-57698226D01*
X58705397Y-57694716D01*
X58682193Y-57688904D01*
X58659671Y-57680846D01*
X58638047Y-57670618D01*
X58617530Y-57658321D01*
X58598317Y-57644071D01*
X58580593Y-57628007D01*
X58564529Y-57610283D01*
X58550279Y-57591070D01*
X58537982Y-57570553D01*
X58527754Y-57548929D01*
X58519696Y-57526407D01*
X58513884Y-57503203D01*
X58510374Y-57479542D01*
X58509200Y-57455650D01*
X58509200Y-56543150D01*
X58510374Y-56519258D01*
X58513884Y-56495597D01*
X58519696Y-56472393D01*
X58527754Y-56449871D01*
X58537982Y-56428247D01*
X58550279Y-56407730D01*
X58564529Y-56388517D01*
X58580593Y-56370793D01*
X58598317Y-56354729D01*
X58617530Y-56340479D01*
X58638047Y-56328182D01*
X58659671Y-56317954D01*
X58682193Y-56309896D01*
X58705397Y-56304084D01*
X58729058Y-56300574D01*
X58752950Y-56299400D01*
X59240450Y-56299400D01*
X59264342Y-56300574D01*
X59264342Y-56300574D01*
G37*
D15*
X58996700Y-56999400D03*
D14*
G36*
X57495742Y-64927774D02*
G01*
X57519403Y-64931284D01*
X57542607Y-64937096D01*
X57565129Y-64945154D01*
X57586753Y-64955382D01*
X57607270Y-64967679D01*
X57626483Y-64981929D01*
X57644207Y-64997993D01*
X57660271Y-65015717D01*
X57674521Y-65034930D01*
X57686818Y-65055447D01*
X57697046Y-65077071D01*
X57705104Y-65099593D01*
X57710916Y-65122797D01*
X57714426Y-65146458D01*
X57715600Y-65170350D01*
X57715600Y-65657850D01*
X57714426Y-65681742D01*
X57710916Y-65705403D01*
X57705104Y-65728607D01*
X57697046Y-65751129D01*
X57686818Y-65772753D01*
X57674521Y-65793270D01*
X57660271Y-65812483D01*
X57644207Y-65830207D01*
X57626483Y-65846271D01*
X57607270Y-65860521D01*
X57586753Y-65872818D01*
X57565129Y-65883046D01*
X57542607Y-65891104D01*
X57519403Y-65896916D01*
X57495742Y-65900426D01*
X57471850Y-65901600D01*
X56559350Y-65901600D01*
X56535458Y-65900426D01*
X56511797Y-65896916D01*
X56488593Y-65891104D01*
X56466071Y-65883046D01*
X56444447Y-65872818D01*
X56423930Y-65860521D01*
X56404717Y-65846271D01*
X56386993Y-65830207D01*
X56370929Y-65812483D01*
X56356679Y-65793270D01*
X56344382Y-65772753D01*
X56334154Y-65751129D01*
X56326096Y-65728607D01*
X56320284Y-65705403D01*
X56316774Y-65681742D01*
X56315600Y-65657850D01*
X56315600Y-65170350D01*
X56316774Y-65146458D01*
X56320284Y-65122797D01*
X56326096Y-65099593D01*
X56334154Y-65077071D01*
X56344382Y-65055447D01*
X56356679Y-65034930D01*
X56370929Y-65015717D01*
X56386993Y-64997993D01*
X56404717Y-64981929D01*
X56423930Y-64967679D01*
X56444447Y-64955382D01*
X56466071Y-64945154D01*
X56488593Y-64937096D01*
X56511797Y-64931284D01*
X56535458Y-64927774D01*
X56559350Y-64926600D01*
X57471850Y-64926600D01*
X57495742Y-64927774D01*
X57495742Y-64927774D01*
G37*
D15*
X57015600Y-65414100D03*
D14*
G36*
X57495742Y-66802774D02*
G01*
X57519403Y-66806284D01*
X57542607Y-66812096D01*
X57565129Y-66820154D01*
X57586753Y-66830382D01*
X57607270Y-66842679D01*
X57626483Y-66856929D01*
X57644207Y-66872993D01*
X57660271Y-66890717D01*
X57674521Y-66909930D01*
X57686818Y-66930447D01*
X57697046Y-66952071D01*
X57705104Y-66974593D01*
X57710916Y-66997797D01*
X57714426Y-67021458D01*
X57715600Y-67045350D01*
X57715600Y-67532850D01*
X57714426Y-67556742D01*
X57710916Y-67580403D01*
X57705104Y-67603607D01*
X57697046Y-67626129D01*
X57686818Y-67647753D01*
X57674521Y-67668270D01*
X57660271Y-67687483D01*
X57644207Y-67705207D01*
X57626483Y-67721271D01*
X57607270Y-67735521D01*
X57586753Y-67747818D01*
X57565129Y-67758046D01*
X57542607Y-67766104D01*
X57519403Y-67771916D01*
X57495742Y-67775426D01*
X57471850Y-67776600D01*
X56559350Y-67776600D01*
X56535458Y-67775426D01*
X56511797Y-67771916D01*
X56488593Y-67766104D01*
X56466071Y-67758046D01*
X56444447Y-67747818D01*
X56423930Y-67735521D01*
X56404717Y-67721271D01*
X56386993Y-67705207D01*
X56370929Y-67687483D01*
X56356679Y-67668270D01*
X56344382Y-67647753D01*
X56334154Y-67626129D01*
X56326096Y-67603607D01*
X56320284Y-67580403D01*
X56316774Y-67556742D01*
X56315600Y-67532850D01*
X56315600Y-67045350D01*
X56316774Y-67021458D01*
X56320284Y-66997797D01*
X56326096Y-66974593D01*
X56334154Y-66952071D01*
X56344382Y-66930447D01*
X56356679Y-66909930D01*
X56370929Y-66890717D01*
X56386993Y-66872993D01*
X56404717Y-66856929D01*
X56423930Y-66842679D01*
X56444447Y-66830382D01*
X56466071Y-66820154D01*
X56488593Y-66812096D01*
X56511797Y-66806284D01*
X56535458Y-66802774D01*
X56559350Y-66801600D01*
X57471850Y-66801600D01*
X57495742Y-66802774D01*
X57495742Y-66802774D01*
G37*
D15*
X57015600Y-67289100D03*
D14*
G36*
X72202342Y-74371974D02*
G01*
X72226003Y-74375484D01*
X72249207Y-74381296D01*
X72271729Y-74389354D01*
X72293353Y-74399582D01*
X72313870Y-74411879D01*
X72333083Y-74426129D01*
X72350807Y-74442193D01*
X72366871Y-74459917D01*
X72381121Y-74479130D01*
X72393418Y-74499647D01*
X72403646Y-74521271D01*
X72411704Y-74543793D01*
X72417516Y-74566997D01*
X72421026Y-74590658D01*
X72422200Y-74614550D01*
X72422200Y-75102050D01*
X72421026Y-75125942D01*
X72417516Y-75149603D01*
X72411704Y-75172807D01*
X72403646Y-75195329D01*
X72393418Y-75216953D01*
X72381121Y-75237470D01*
X72366871Y-75256683D01*
X72350807Y-75274407D01*
X72333083Y-75290471D01*
X72313870Y-75304721D01*
X72293353Y-75317018D01*
X72271729Y-75327246D01*
X72249207Y-75335304D01*
X72226003Y-75341116D01*
X72202342Y-75344626D01*
X72178450Y-75345800D01*
X71265950Y-75345800D01*
X71242058Y-75344626D01*
X71218397Y-75341116D01*
X71195193Y-75335304D01*
X71172671Y-75327246D01*
X71151047Y-75317018D01*
X71130530Y-75304721D01*
X71111317Y-75290471D01*
X71093593Y-75274407D01*
X71077529Y-75256683D01*
X71063279Y-75237470D01*
X71050982Y-75216953D01*
X71040754Y-75195329D01*
X71032696Y-75172807D01*
X71026884Y-75149603D01*
X71023374Y-75125942D01*
X71022200Y-75102050D01*
X71022200Y-74614550D01*
X71023374Y-74590658D01*
X71026884Y-74566997D01*
X71032696Y-74543793D01*
X71040754Y-74521271D01*
X71050982Y-74499647D01*
X71063279Y-74479130D01*
X71077529Y-74459917D01*
X71093593Y-74442193D01*
X71111317Y-74426129D01*
X71130530Y-74411879D01*
X71151047Y-74399582D01*
X71172671Y-74389354D01*
X71195193Y-74381296D01*
X71218397Y-74375484D01*
X71242058Y-74371974D01*
X71265950Y-74370800D01*
X72178450Y-74370800D01*
X72202342Y-74371974D01*
X72202342Y-74371974D01*
G37*
D15*
X71722200Y-74858300D03*
D14*
G36*
X72202342Y-72496974D02*
G01*
X72226003Y-72500484D01*
X72249207Y-72506296D01*
X72271729Y-72514354D01*
X72293353Y-72524582D01*
X72313870Y-72536879D01*
X72333083Y-72551129D01*
X72350807Y-72567193D01*
X72366871Y-72584917D01*
X72381121Y-72604130D01*
X72393418Y-72624647D01*
X72403646Y-72646271D01*
X72411704Y-72668793D01*
X72417516Y-72691997D01*
X72421026Y-72715658D01*
X72422200Y-72739550D01*
X72422200Y-73227050D01*
X72421026Y-73250942D01*
X72417516Y-73274603D01*
X72411704Y-73297807D01*
X72403646Y-73320329D01*
X72393418Y-73341953D01*
X72381121Y-73362470D01*
X72366871Y-73381683D01*
X72350807Y-73399407D01*
X72333083Y-73415471D01*
X72313870Y-73429721D01*
X72293353Y-73442018D01*
X72271729Y-73452246D01*
X72249207Y-73460304D01*
X72226003Y-73466116D01*
X72202342Y-73469626D01*
X72178450Y-73470800D01*
X71265950Y-73470800D01*
X71242058Y-73469626D01*
X71218397Y-73466116D01*
X71195193Y-73460304D01*
X71172671Y-73452246D01*
X71151047Y-73442018D01*
X71130530Y-73429721D01*
X71111317Y-73415471D01*
X71093593Y-73399407D01*
X71077529Y-73381683D01*
X71063279Y-73362470D01*
X71050982Y-73341953D01*
X71040754Y-73320329D01*
X71032696Y-73297807D01*
X71026884Y-73274603D01*
X71023374Y-73250942D01*
X71022200Y-73227050D01*
X71022200Y-72739550D01*
X71023374Y-72715658D01*
X71026884Y-72691997D01*
X71032696Y-72668793D01*
X71040754Y-72646271D01*
X71050982Y-72624647D01*
X71063279Y-72604130D01*
X71077529Y-72584917D01*
X71093593Y-72567193D01*
X71111317Y-72551129D01*
X71130530Y-72536879D01*
X71151047Y-72524582D01*
X71172671Y-72514354D01*
X71195193Y-72506296D01*
X71218397Y-72500484D01*
X71242058Y-72496974D01*
X71265950Y-72495800D01*
X72178450Y-72495800D01*
X72202342Y-72496974D01*
X72202342Y-72496974D01*
G37*
D15*
X71722200Y-72983300D03*
D14*
G36*
X65695242Y-77362174D02*
G01*
X65718903Y-77365684D01*
X65742107Y-77371496D01*
X65764629Y-77379554D01*
X65786253Y-77389782D01*
X65806770Y-77402079D01*
X65825983Y-77416329D01*
X65843707Y-77432393D01*
X65859771Y-77450117D01*
X65874021Y-77469330D01*
X65886318Y-77489847D01*
X65896546Y-77511471D01*
X65904604Y-77533993D01*
X65910416Y-77557197D01*
X65913926Y-77580858D01*
X65915100Y-77604750D01*
X65915100Y-78517250D01*
X65913926Y-78541142D01*
X65910416Y-78564803D01*
X65904604Y-78588007D01*
X65896546Y-78610529D01*
X65886318Y-78632153D01*
X65874021Y-78652670D01*
X65859771Y-78671883D01*
X65843707Y-78689607D01*
X65825983Y-78705671D01*
X65806770Y-78719921D01*
X65786253Y-78732218D01*
X65764629Y-78742446D01*
X65742107Y-78750504D01*
X65718903Y-78756316D01*
X65695242Y-78759826D01*
X65671350Y-78761000D01*
X65183850Y-78761000D01*
X65159958Y-78759826D01*
X65136297Y-78756316D01*
X65113093Y-78750504D01*
X65090571Y-78742446D01*
X65068947Y-78732218D01*
X65048430Y-78719921D01*
X65029217Y-78705671D01*
X65011493Y-78689607D01*
X64995429Y-78671883D01*
X64981179Y-78652670D01*
X64968882Y-78632153D01*
X64958654Y-78610529D01*
X64950596Y-78588007D01*
X64944784Y-78564803D01*
X64941274Y-78541142D01*
X64940100Y-78517250D01*
X64940100Y-77604750D01*
X64941274Y-77580858D01*
X64944784Y-77557197D01*
X64950596Y-77533993D01*
X64958654Y-77511471D01*
X64968882Y-77489847D01*
X64981179Y-77469330D01*
X64995429Y-77450117D01*
X65011493Y-77432393D01*
X65029217Y-77416329D01*
X65048430Y-77402079D01*
X65068947Y-77389782D01*
X65090571Y-77379554D01*
X65113093Y-77371496D01*
X65136297Y-77365684D01*
X65159958Y-77362174D01*
X65183850Y-77361000D01*
X65671350Y-77361000D01*
X65695242Y-77362174D01*
X65695242Y-77362174D01*
G37*
D15*
X65427600Y-78061000D03*
D14*
G36*
X67570242Y-77362174D02*
G01*
X67593903Y-77365684D01*
X67617107Y-77371496D01*
X67639629Y-77379554D01*
X67661253Y-77389782D01*
X67681770Y-77402079D01*
X67700983Y-77416329D01*
X67718707Y-77432393D01*
X67734771Y-77450117D01*
X67749021Y-77469330D01*
X67761318Y-77489847D01*
X67771546Y-77511471D01*
X67779604Y-77533993D01*
X67785416Y-77557197D01*
X67788926Y-77580858D01*
X67790100Y-77604750D01*
X67790100Y-78517250D01*
X67788926Y-78541142D01*
X67785416Y-78564803D01*
X67779604Y-78588007D01*
X67771546Y-78610529D01*
X67761318Y-78632153D01*
X67749021Y-78652670D01*
X67734771Y-78671883D01*
X67718707Y-78689607D01*
X67700983Y-78705671D01*
X67681770Y-78719921D01*
X67661253Y-78732218D01*
X67639629Y-78742446D01*
X67617107Y-78750504D01*
X67593903Y-78756316D01*
X67570242Y-78759826D01*
X67546350Y-78761000D01*
X67058850Y-78761000D01*
X67034958Y-78759826D01*
X67011297Y-78756316D01*
X66988093Y-78750504D01*
X66965571Y-78742446D01*
X66943947Y-78732218D01*
X66923430Y-78719921D01*
X66904217Y-78705671D01*
X66886493Y-78689607D01*
X66870429Y-78671883D01*
X66856179Y-78652670D01*
X66843882Y-78632153D01*
X66833654Y-78610529D01*
X66825596Y-78588007D01*
X66819784Y-78564803D01*
X66816274Y-78541142D01*
X66815100Y-78517250D01*
X66815100Y-77604750D01*
X66816274Y-77580858D01*
X66819784Y-77557197D01*
X66825596Y-77533993D01*
X66833654Y-77511471D01*
X66843882Y-77489847D01*
X66856179Y-77469330D01*
X66870429Y-77450117D01*
X66886493Y-77432393D01*
X66904217Y-77416329D01*
X66923430Y-77402079D01*
X66943947Y-77389782D01*
X66965571Y-77379554D01*
X66988093Y-77371496D01*
X67011297Y-77365684D01*
X67034958Y-77362174D01*
X67058850Y-77361000D01*
X67546350Y-77361000D01*
X67570242Y-77362174D01*
X67570242Y-77362174D01*
G37*
D15*
X67302600Y-78061000D03*
D27*
X57004200Y-63846900D03*
X60956952Y-57137456D03*
X71500000Y-104250000D03*
X61250000Y-77750000D03*
X63137000Y-75470200D03*
X71750000Y-74750000D03*
X69000000Y-75750000D03*
X72724200Y-70626900D03*
X72750000Y-58750000D03*
X69024200Y-56999400D03*
X95500000Y-34750000D03*
X85750000Y-32750000D03*
X65250000Y-73500000D03*
X85750000Y-31062500D03*
X88060599Y-29275850D03*
X94290000Y-29275850D03*
X57500000Y-75250000D03*
X57500000Y-77750001D03*
X57460000Y-79825001D03*
X59352400Y-75086900D03*
D28*
X48879343Y-48120657D03*
D27*
X83775000Y-31250000D03*
D28*
X48860312Y-51389688D03*
X28750000Y-92000000D03*
X27448289Y-92000000D03*
X24000000Y-99045000D03*
X24941942Y-104941942D03*
X27243058Y-26493058D03*
X28941942Y-27941942D03*
X38750000Y-26825010D03*
X38750000Y-25125000D03*
X38750000Y-24205000D03*
D27*
X56539601Y-59210399D03*
X58996700Y-56999400D03*
D28*
X94500000Y-23716942D03*
X96690596Y-25875000D03*
X27125000Y-35250000D03*
X25875000Y-35250000D03*
X28566942Y-23933058D03*
X29507628Y-28566942D03*
X49678517Y-51571483D03*
X49754343Y-48995657D03*
X71750000Y-26825010D03*
X71750000Y-23708058D03*
D27*
X103775000Y-94750000D03*
X105225000Y-94750000D03*
D28*
X109250000Y-41000000D03*
X71500000Y-30500000D03*
X71000000Y-31875000D03*
X67750000Y-26825010D03*
X67750000Y-25125000D03*
X88273744Y-24333058D03*
X90091942Y-24341942D03*
X97250000Y-24174990D03*
X98750000Y-26500000D03*
X62888742Y-68638742D03*
X59434313Y-70934313D03*
X49250000Y-77850001D03*
X46250000Y-80000000D03*
X29138058Y-102611942D03*
X30396942Y-102103058D03*
X36750000Y-95328410D03*
X36750000Y-93053400D03*
X28698289Y-89000000D03*
X27867783Y-35875000D03*
X25750000Y-34250000D03*
X28683058Y-25816942D03*
X29557735Y-24923851D03*
X72760548Y-93260548D03*
X75604052Y-93104052D03*
X105225000Y-97250000D03*
X103324990Y-97250000D03*
X100594443Y-97344443D03*
X97987347Y-97237347D03*
X27448289Y-88250000D03*
X53150000Y-95449997D03*
X54850000Y-95250000D03*
X70250000Y-26825010D03*
X70250000Y-25125000D03*
X87708058Y-24958058D03*
X89500000Y-25000000D03*
X95165445Y-25266271D03*
X95972292Y-26227193D03*
X62263742Y-69263742D03*
X60000000Y-71500000D03*
X50250000Y-77850001D03*
X46899869Y-80625000D03*
X38125300Y-89639800D03*
X36687790Y-90250000D03*
X35949997Y-93053400D03*
X35949997Y-95328410D03*
X28698289Y-90000000D03*
X70250000Y-23708058D03*
D27*
X105225000Y-99500000D03*
X102599990Y-99500000D03*
D28*
X35683058Y-95933058D03*
X37361607Y-95953410D03*
X72270010Y-93892508D03*
X74658341Y-93908341D03*
X96058058Y-99308058D03*
X98500000Y-99500000D03*
X24625000Y-97000000D03*
X23375000Y-97000000D03*
X27448289Y-97000000D03*
X28698289Y-97000000D03*
X24743058Y-100756942D03*
X24845191Y-99124579D03*
X27363266Y-89155612D03*
X53150000Y-96250000D03*
X54850000Y-96250000D03*
D27*
X68250000Y-100750000D03*
X66000000Y-103000000D03*
D28*
X25223058Y-103776942D03*
X31896942Y-103603058D03*
D27*
X90750000Y-30500000D03*
X94919142Y-32675010D03*
X68500000Y-101750000D03*
X67000000Y-103250000D03*
D28*
X70250000Y-104500000D03*
X68250000Y-92635548D03*
X68250000Y-94517508D03*
X69641078Y-96521440D03*
X69400000Y-104500000D03*
X66500000Y-92635548D03*
X66500000Y-94517508D03*
X69000000Y-97000000D03*
X45591659Y-79158341D03*
X48452405Y-77911999D03*
X44500000Y-78533341D03*
X56908700Y-68408700D03*
X59254200Y-67389400D03*
X47768021Y-77497727D03*
X68730165Y-63932005D03*
X77000000Y-62750000D03*
X68954199Y-64699997D03*
X76750000Y-63564400D03*
X68250000Y-81000000D03*
X60899342Y-63350658D03*
X66250000Y-81000000D03*
X59254200Y-62589400D03*
D27*
X89250000Y-34750000D03*
X89250000Y-36504401D03*
X95500000Y-29250000D03*
X93500000Y-36250000D03*
D28*
X67551946Y-55801946D03*
X65099857Y-55849857D03*
X56505606Y-55994394D03*
X54860312Y-57389688D03*
X53333092Y-57416908D03*
X51824208Y-57675792D03*
X72000000Y-65000000D03*
X72500000Y-63500000D03*
X68179134Y-55174758D03*
X65724857Y-55176946D03*
X55755606Y-55244394D03*
X52735312Y-55264688D03*
X51208092Y-55291908D03*
X49449208Y-55300792D03*
X68954199Y-65500000D03*
X75875000Y-66000000D03*
X64980026Y-66547458D03*
X62165956Y-63733387D03*
X65545713Y-65981771D03*
X58995459Y-60004541D03*
X72778174Y-64814400D03*
X73500000Y-63564400D03*
X73000000Y-67500000D03*
X74375000Y-67750000D03*
X73125000Y-72000000D03*
X74825009Y-72000000D03*
X75250000Y-64814400D03*
X75250000Y-63564400D03*
D29*
X64154200Y-71689400D02*
X64154200Y-70689400D01*
X64154200Y-74039202D02*
X64154200Y-71689400D01*
X65795398Y-75680400D02*
X64154200Y-74039202D01*
X66030400Y-75680400D02*
X65795398Y-75680400D01*
X65427600Y-76283200D02*
X66030400Y-75680400D01*
X65427600Y-78061000D02*
X65427600Y-76283200D01*
X71086700Y-68989400D02*
X70654200Y-68989400D01*
X72724200Y-70626900D02*
X71086700Y-68989400D01*
X57346700Y-64189400D02*
X59254200Y-64189400D01*
X57004200Y-63846900D02*
X57346700Y-64189400D01*
X61754200Y-57881900D02*
X60871700Y-56999400D01*
X61754200Y-59289400D02*
X61754200Y-57881900D01*
X68154200Y-57949400D02*
X69064200Y-57039400D01*
X68154200Y-59289400D02*
X68154200Y-57949400D01*
X57015600Y-63858300D02*
X57004200Y-63846900D01*
X69024200Y-56999400D02*
X69064200Y-57039400D01*
D30*
X71300000Y-104450000D02*
X71500000Y-104250000D01*
X71300000Y-105800000D02*
X71300000Y-104450000D01*
D29*
X57015600Y-65414100D02*
X57015600Y-63858300D01*
X63354200Y-72395600D02*
X63354200Y-71689400D01*
X63354200Y-71689400D02*
X63354200Y-70689400D01*
X63137000Y-73412800D02*
X63137000Y-72612800D01*
X63137000Y-72612800D02*
X63354200Y-72395600D01*
X63137000Y-73412800D02*
X63137000Y-75470200D01*
X61295400Y-77704600D02*
X61250000Y-77750000D01*
X61295400Y-77662000D02*
X61295400Y-77704600D01*
X71722200Y-74777800D02*
X71750000Y-74750000D01*
X71722200Y-74858300D02*
X71722200Y-74777800D01*
X68930400Y-75680400D02*
X69000000Y-75750000D01*
X69000000Y-76363600D02*
X69000000Y-75750000D01*
X67302600Y-78061000D02*
X69000000Y-76363600D01*
X72837800Y-58837800D02*
X72750000Y-58750000D01*
X72865200Y-58837800D02*
X72837800Y-58837800D01*
X95525850Y-34724150D02*
X95500000Y-34750000D01*
X95560000Y-34724150D02*
X95525850Y-34724150D01*
X85750000Y-32937500D02*
X85750000Y-32750000D01*
X65369600Y-73380400D02*
X65250000Y-73500000D01*
X66030400Y-73380400D02*
X65369600Y-73380400D01*
X68780400Y-73380400D02*
X68930400Y-73380400D01*
X67555399Y-72155399D02*
X68780400Y-73380400D01*
X65610197Y-72155399D02*
X67555399Y-72155399D01*
X64954200Y-71499402D02*
X65610197Y-72155399D01*
X64954200Y-70689400D02*
X64954200Y-71499402D01*
X69327500Y-72983300D02*
X68930400Y-73380400D01*
X71722200Y-72983300D02*
X69327500Y-72983300D01*
X58254200Y-64989400D02*
X59254200Y-64989400D01*
X58040610Y-65202990D02*
X58254200Y-64989400D01*
X58040610Y-66264090D02*
X58040610Y-65202990D01*
X57015600Y-67289100D02*
X58040610Y-66264090D01*
X62554200Y-72120600D02*
X62554200Y-70689400D01*
X61262000Y-73412800D02*
X62554200Y-72120600D01*
X61262000Y-73412800D02*
X61262000Y-75470200D01*
X60954200Y-60289400D02*
X60954200Y-59289400D01*
X61029201Y-60364401D02*
X60954200Y-60289400D01*
X62289201Y-60364401D02*
X61029201Y-60364401D01*
X62554200Y-60099402D02*
X62289201Y-60364401D01*
X62554200Y-59289400D02*
X62554200Y-60099402D01*
X70729200Y-57039400D02*
X70939200Y-57039400D01*
X68954200Y-58814400D02*
X70729200Y-57039400D01*
X68954200Y-59289400D02*
X68954200Y-58814400D01*
X60878700Y-75086900D02*
X61262000Y-75470200D01*
X59352400Y-75086900D02*
X60878700Y-75086900D01*
X68879199Y-60364401D02*
X62289201Y-60364401D01*
X68954200Y-60289400D02*
X68879199Y-60364401D01*
X68954200Y-59289400D02*
X68954200Y-60289400D01*
X72161700Y-68189400D02*
X72724200Y-68751900D01*
X70654200Y-68189400D02*
X72161700Y-68189400D01*
X58996700Y-56999400D02*
X59367350Y-56999400D01*
D31*
X37465400Y-69830000D02*
X37465400Y-67290000D01*
X37465400Y-55170000D02*
X37465400Y-57710000D01*
X38815401Y-59060001D02*
X37465400Y-57710000D01*
X38815401Y-65939999D02*
X38815401Y-59060001D01*
X37465400Y-67290000D02*
X38815401Y-65939999D01*
X58911701Y-106451701D02*
X60912899Y-106451701D01*
X57460000Y-105000000D02*
X58911701Y-106451701D01*
D30*
X68700000Y-103450000D02*
X66307300Y-101057300D01*
X68700000Y-105800000D02*
X68700000Y-103450000D01*
D31*
X60912899Y-106451701D02*
X66307300Y-101057300D01*
D29*
X87940000Y-33252500D02*
X85750000Y-31062500D01*
X87940000Y-34724150D02*
X87940000Y-33252500D01*
X87940000Y-29275850D02*
X88060599Y-29275850D01*
X57186700Y-61789400D02*
X57004200Y-61971900D01*
X59254200Y-61789400D02*
X57186700Y-61789400D01*
X60263086Y-61789400D02*
X59254200Y-61789400D01*
X61524343Y-63050657D02*
X60263086Y-61789400D01*
X61524343Y-64329259D02*
X61524343Y-63050657D01*
X60064202Y-65789400D02*
X61524343Y-64329259D01*
X59254200Y-65789400D02*
X60064202Y-65789400D01*
X40000300Y-89639800D02*
X40000300Y-91646400D01*
X40000300Y-93653000D02*
X39974900Y-93678400D01*
X40000300Y-91646400D02*
X40000300Y-93653000D01*
X60954200Y-58956900D02*
X60954200Y-59289400D01*
X58996700Y-56999400D02*
X60954200Y-58956900D01*
X61284999Y-31175001D02*
X62460000Y-30000000D01*
X43280800Y-29952600D02*
X44503201Y-31175001D01*
X57460000Y-79765001D02*
X57500000Y-79725001D01*
X57500000Y-77850001D02*
X57500000Y-75250000D01*
X57500000Y-77850001D02*
X57500000Y-77750001D01*
X57460000Y-79765001D02*
X57460000Y-79825001D01*
X38880399Y-53755001D02*
X37465400Y-55170000D01*
X48787301Y-53755001D02*
X38880399Y-53755001D01*
X69844198Y-68189400D02*
X70654200Y-68189400D01*
X69579199Y-67924401D02*
X69844198Y-68189400D01*
X69579199Y-60829199D02*
X69579199Y-67924401D01*
X69039400Y-60289400D02*
X69579199Y-60829199D01*
X68954200Y-60289400D02*
X69039400Y-60289400D01*
X63710000Y-31250000D02*
X62460000Y-30000000D01*
X48860312Y-53681990D02*
X48787301Y-53755001D01*
X48860312Y-51389688D02*
X48860312Y-53681990D01*
X38949890Y-94703410D02*
X31453410Y-94703410D01*
X31453410Y-94703410D02*
X28750000Y-92000000D01*
X39974900Y-93678400D02*
X38949890Y-94703410D01*
X41270142Y-27941942D02*
X43280800Y-29952600D01*
X38808058Y-26883068D02*
X38750000Y-26825010D01*
X38808058Y-27941942D02*
X38808058Y-26883068D01*
X28941942Y-27941942D02*
X38808058Y-27941942D01*
X38808058Y-27941942D02*
X41270142Y-27941942D01*
X38750000Y-25125000D02*
X38750000Y-24205000D01*
X55516150Y-60233850D02*
X56539601Y-59210399D01*
X55516150Y-60483850D02*
X55516150Y-60233850D01*
X57004200Y-61971900D02*
X55516150Y-60483850D01*
X55516150Y-60483850D02*
X48787301Y-53755001D01*
X68774999Y-103524999D02*
X68700000Y-103450000D01*
X87174999Y-103524999D02*
X68774999Y-103524999D01*
X90800000Y-107150000D02*
X87174999Y-103524999D01*
X90800000Y-108250000D02*
X90800000Y-107150000D01*
X90800000Y-109350000D02*
X90800000Y-108250000D01*
X90875001Y-109425001D02*
X90800000Y-109350000D01*
X105064001Y-109425001D02*
X90875001Y-109425001D01*
X108250000Y-103500000D02*
X108250000Y-106239002D01*
X108250000Y-106239002D02*
X105064001Y-109425001D01*
X22850000Y-90800000D02*
X21750000Y-90800000D01*
X24000000Y-91950000D02*
X22850000Y-90800000D01*
X24000000Y-92000000D02*
X24000000Y-91950000D01*
X26500000Y-106500000D02*
X26500000Y-108250000D01*
X24941942Y-104941942D02*
X26500000Y-106500000D01*
X27236116Y-26500000D02*
X27243058Y-26493058D01*
X21750000Y-26500000D02*
X27236116Y-26500000D01*
X94290000Y-29275850D02*
X94290000Y-29653590D01*
X106500000Y-21750000D02*
X103500000Y-21750000D01*
X109425001Y-24675001D02*
X106500000Y-21750000D01*
X109425001Y-37224001D02*
X109425001Y-24675001D01*
X108250000Y-38399002D02*
X109425001Y-37224001D01*
X108250000Y-39200000D02*
X108250000Y-38399002D01*
D31*
X92534600Y-55170000D02*
X92534600Y-57710000D01*
X92534600Y-67040000D02*
X92534600Y-69580000D01*
X91734601Y-58509999D02*
X92534600Y-57710000D01*
X91184599Y-59060001D02*
X91734601Y-58509999D01*
X91184599Y-65148001D02*
X91184599Y-59060001D01*
X92534600Y-66498002D02*
X91184599Y-65148001D01*
X92534600Y-67040000D02*
X92534600Y-66498002D01*
D29*
X26524025Y-92500000D02*
X24000000Y-92500000D01*
X27024025Y-92000000D02*
X26524025Y-92500000D01*
X27448289Y-92000000D02*
X27024025Y-92000000D01*
X24000000Y-92000000D02*
X24000000Y-92500000D01*
X24000000Y-92500000D02*
X24000000Y-99045000D01*
X49925001Y-47074999D02*
X49925001Y-31175001D01*
X48879343Y-48120657D02*
X49925001Y-47074999D01*
X44503201Y-31175001D02*
X49925001Y-31175001D01*
X94290000Y-29726700D02*
X94290000Y-29275850D01*
X94894401Y-30331101D02*
X94290000Y-29726700D01*
X98281101Y-30331101D02*
X94894401Y-30331101D01*
X107150000Y-39200000D02*
X98281101Y-30331101D01*
X108250000Y-39200000D02*
X107150000Y-39200000D01*
D31*
X54000000Y-86364600D02*
X53817700Y-86182300D01*
X57460000Y-105000000D02*
X54000000Y-101540000D01*
X37465400Y-69830000D02*
X53817700Y-86182300D01*
D29*
X53860200Y-89639800D02*
X54000000Y-89500000D01*
D31*
X54000000Y-89500000D02*
X54000000Y-86364600D01*
D29*
X53817700Y-83467301D02*
X57460000Y-79825001D01*
X53817700Y-86182300D02*
X53817700Y-83467301D01*
X83375001Y-30850001D02*
X83775000Y-31250000D01*
X83349999Y-30824999D02*
X83375001Y-30850001D01*
X72065999Y-30824999D02*
X83349999Y-30824999D01*
X71640998Y-31250000D02*
X72065999Y-30824999D01*
X63710000Y-31250000D02*
X71640998Y-31250000D01*
X59355999Y-31175001D02*
X61284999Y-31175001D01*
X58930998Y-30750000D02*
X59355999Y-31175001D01*
X50350002Y-30750000D02*
X58930998Y-30750000D01*
X49925001Y-31175001D02*
X50350002Y-30750000D01*
X53853600Y-91646400D02*
X54000000Y-91500000D01*
X40000300Y-91646400D02*
X53853600Y-91646400D01*
D31*
X54000000Y-101540000D02*
X54000000Y-91500000D01*
X54000000Y-91500000D02*
X54000000Y-89500000D01*
X91734601Y-70379999D02*
X92534600Y-69580000D01*
X75900010Y-86214590D02*
X91734601Y-70379999D01*
X75900010Y-91464590D02*
X75900010Y-86214590D01*
X66307300Y-101057300D02*
X75900010Y-91464590D01*
X68549999Y-103299999D02*
X68549999Y-104899999D01*
X66307300Y-101057300D02*
X68549999Y-103299999D01*
D29*
X94340000Y-23556942D02*
X94500000Y-23716942D01*
X57750000Y-60485200D02*
X57750000Y-59395492D01*
X58254200Y-60989400D02*
X57750000Y-60485200D01*
X59254200Y-60989400D02*
X58254200Y-60989400D01*
X36611736Y-50072746D02*
X28073289Y-58611193D01*
X48427254Y-50072746D02*
X36611736Y-50072746D01*
X28073289Y-83573289D02*
X28073289Y-83651789D01*
X28073289Y-58611193D02*
X28073289Y-83573289D01*
X38099900Y-93678400D02*
X31678400Y-93678400D01*
X28823289Y-90823289D02*
X28073289Y-90823289D01*
X31678400Y-93678400D02*
X28823289Y-90823289D01*
X28073289Y-90823289D02*
X28073289Y-83573289D01*
X28073289Y-100663289D02*
X28073289Y-90823289D01*
X28500000Y-35250000D02*
X27125000Y-35250000D01*
X29507628Y-35242372D02*
X29500000Y-35250000D01*
X29500000Y-35250000D02*
X28500000Y-35250000D01*
X29507628Y-28566942D02*
X29507628Y-35242372D01*
X49802254Y-51447746D02*
X49678517Y-51571483D01*
X57750000Y-59395492D02*
X49802254Y-51447746D01*
X49802254Y-51447746D02*
X48427254Y-50072746D01*
X71750000Y-23708058D02*
X74883059Y-20574999D01*
X103775000Y-95315685D02*
X103775000Y-94750000D01*
X104049990Y-95590675D02*
X103775000Y-95315685D01*
X104049990Y-105160010D02*
X104049990Y-95590675D01*
X100960000Y-108250000D02*
X104049990Y-105160010D01*
X106635000Y-93340000D02*
X108250000Y-93340000D01*
X105225000Y-94750000D02*
X106635000Y-93340000D01*
X108250000Y-93340000D02*
X109425001Y-92164999D01*
X31638059Y-104228059D02*
X28073289Y-100663289D01*
X36660000Y-108250000D02*
X32638059Y-104228059D01*
X32638059Y-104228059D02*
X31638059Y-104228059D01*
X20900001Y-101809999D02*
X21750000Y-100960000D01*
X20574999Y-102135001D02*
X20900001Y-101809999D01*
X20574999Y-104610001D02*
X20574999Y-102135001D01*
X25389999Y-109425001D02*
X20574999Y-104610001D01*
X34684001Y-109425001D02*
X25389999Y-109425001D01*
X35859002Y-108250000D02*
X34684001Y-109425001D01*
X36660000Y-108250000D02*
X35859002Y-108250000D01*
X28566942Y-22223058D02*
X29040000Y-21750000D01*
X28566942Y-23933058D02*
X28566942Y-22223058D01*
X24465000Y-36660000D02*
X25875000Y-35250000D01*
X21750000Y-36660000D02*
X24465000Y-36660000D01*
X92164999Y-20574999D02*
X93340000Y-21750000D01*
X74883059Y-20574999D02*
X92164999Y-20574999D01*
X93340000Y-22556942D02*
X94500000Y-23716942D01*
X93340000Y-21750000D02*
X93340000Y-22556942D01*
X105085000Y-25875000D02*
X108250000Y-29040000D01*
X96690596Y-25875000D02*
X105085000Y-25875000D01*
X109425001Y-92164999D02*
X109425001Y-41175001D01*
X109425001Y-41175001D02*
X109250000Y-41000000D01*
X33604508Y-35250000D02*
X29500000Y-35250000D01*
X36611736Y-50072746D02*
X36611736Y-38257228D01*
X36611736Y-38257228D02*
X33604508Y-35250000D01*
X71750000Y-26825010D02*
X71750000Y-30250000D01*
X71750000Y-30250000D02*
X71500000Y-30500000D01*
X66875000Y-31875000D02*
X49754343Y-48995657D01*
X71000000Y-31875000D02*
X66875000Y-31875000D01*
X67540000Y-27035010D02*
X67750000Y-26825010D01*
X67540000Y-30000000D02*
X67540000Y-27035010D01*
X68541942Y-24333058D02*
X88273744Y-24333058D01*
X67750000Y-25125000D02*
X68541942Y-24333058D01*
X90091942Y-24341942D02*
X96158058Y-24341942D01*
X66554200Y-69689400D02*
X65503542Y-68638742D01*
X65503542Y-68638742D02*
X62888742Y-68638742D01*
X66554200Y-70689400D02*
X66554200Y-69689400D01*
X56165688Y-70934313D02*
X49250000Y-77850001D01*
X59434313Y-70934313D02*
X56165688Y-70934313D01*
X37312790Y-88937210D02*
X46250000Y-80000000D01*
X37312790Y-90833890D02*
X37312790Y-88937210D01*
X38125300Y-91646400D02*
X37312790Y-90833890D01*
X29060000Y-102690000D02*
X29138058Y-102611942D01*
X27560000Y-102690000D02*
X29060000Y-102690000D01*
X27560000Y-102690000D02*
X24540000Y-99670000D01*
X36750000Y-95750000D02*
X36750000Y-95328410D01*
X30396942Y-102103058D02*
X36750000Y-95750000D01*
X36750000Y-93021700D02*
X38125300Y-91646400D01*
X36750000Y-93053400D02*
X36750000Y-93021700D01*
X37312790Y-88937210D02*
X28761079Y-88937210D01*
X28761079Y-88937210D02*
X28698289Y-89000000D01*
X28683058Y-25936942D02*
X28683058Y-25816942D01*
X66205000Y-23580000D02*
X67750000Y-25125000D01*
X105345000Y-97130000D02*
X105225000Y-97250000D01*
X60399452Y-93260548D02*
X72760548Y-93260548D01*
X79737347Y-97237347D02*
X97987347Y-97237347D01*
X75604052Y-93104052D02*
X79737347Y-97237347D01*
X103230547Y-97344443D02*
X103324990Y-97250000D01*
X100594443Y-97344443D02*
X103230547Y-97344443D01*
X106880000Y-97250000D02*
X108250000Y-95880000D01*
X105225000Y-97250000D02*
X106880000Y-97250000D01*
X103324990Y-102142929D02*
X103324990Y-101824990D01*
X98420000Y-107047919D02*
X103324990Y-102142929D01*
X98420000Y-108250000D02*
X98420000Y-107047919D01*
X103324990Y-97250000D02*
X103324990Y-101824990D01*
X23000000Y-99670000D02*
X21750000Y-98420000D01*
X24540000Y-99670000D02*
X23000000Y-99670000D01*
X28560000Y-102690000D02*
X34120000Y-108250000D01*
X27560000Y-102690000D02*
X28560000Y-102690000D01*
X31580000Y-22901586D02*
X31580000Y-21750000D01*
X29557735Y-24923851D02*
X31580000Y-22901586D01*
X66000011Y-23375011D02*
X66205000Y-23580000D01*
X31106575Y-23375011D02*
X66000011Y-23375011D01*
X29557735Y-24923851D02*
X31106575Y-23375011D01*
X21880000Y-34250000D02*
X21750000Y-34120000D01*
X25750000Y-34250000D02*
X21880000Y-34250000D01*
X25750000Y-33825736D02*
X25750000Y-34250000D01*
X25750000Y-29613590D02*
X25750000Y-33825736D01*
X28383059Y-26980531D02*
X25750000Y-29613590D01*
X28383059Y-26116941D02*
X28383059Y-26980531D01*
X28683058Y-25816942D02*
X28383059Y-26116941D01*
X97250000Y-23120000D02*
X95880000Y-21750000D01*
X97250000Y-24174990D02*
X97250000Y-23120000D01*
X97158058Y-24341942D02*
X96158058Y-24341942D01*
X97250000Y-24250000D02*
X97158058Y-24341942D01*
X97250000Y-24174990D02*
X97250000Y-24250000D01*
X103170000Y-26500000D02*
X108250000Y-31580000D01*
X98750000Y-26500000D02*
X103170000Y-26500000D01*
X27448289Y-88250000D02*
X27448289Y-40724713D01*
X27867783Y-40305219D02*
X27448289Y-40724713D01*
X27867783Y-35875000D02*
X27867783Y-40305219D01*
X36750000Y-95328410D02*
X53028413Y-95328410D01*
X53028413Y-95328410D02*
X53150000Y-95449997D01*
X56839452Y-93260548D02*
X60399452Y-93260548D01*
X54850000Y-95250000D02*
X56839452Y-93260548D01*
X90480000Y-34273300D02*
X81956700Y-25750000D01*
X90480000Y-34724150D02*
X90480000Y-34273300D01*
X81956700Y-25750000D02*
X29500000Y-25750000D01*
X28941941Y-25191941D02*
X29500000Y-25750000D01*
X28383057Y-25191941D02*
X28941941Y-25191941D01*
X26500000Y-23308884D02*
X28383057Y-25191941D01*
X26500000Y-21750000D02*
X26500000Y-23308884D01*
X70080000Y-26995010D02*
X70250000Y-26825010D01*
X70080000Y-30000000D02*
X70080000Y-26995010D01*
X87541116Y-25125000D02*
X87708058Y-24958058D01*
X70250000Y-25125000D02*
X87541116Y-25125000D01*
X95679190Y-25000000D02*
X95879200Y-24799990D01*
X95000000Y-25100826D02*
X95165445Y-25266271D01*
X95000000Y-25000000D02*
X95000000Y-25100826D01*
X89500000Y-25000000D02*
X95000000Y-25000000D01*
X95000000Y-25000000D02*
X95679190Y-25000000D01*
X95972292Y-26227193D02*
X96870100Y-27125001D01*
X65754200Y-69689400D02*
X65328542Y-69263742D01*
X65328542Y-69263742D02*
X62263742Y-69263742D01*
X65754200Y-70689400D02*
X65754200Y-69689400D01*
X60000000Y-71500000D02*
X59750000Y-71750000D01*
X59750000Y-71750000D02*
X55986411Y-71750000D01*
X50250000Y-77486411D02*
X50250000Y-77850001D01*
X55986411Y-71750000D02*
X50250000Y-77486411D01*
X38125300Y-89399569D02*
X38125300Y-89639800D01*
X46899869Y-80625000D02*
X38125300Y-89399569D01*
X35949997Y-90987793D02*
X35949997Y-93053400D01*
X36687790Y-90250000D02*
X35949997Y-90987793D01*
X29686082Y-90987793D02*
X28698289Y-90000000D01*
X35949997Y-90987793D02*
X29686082Y-90987793D01*
X69466943Y-22925001D02*
X70250000Y-23708058D01*
X105395000Y-99670000D02*
X105225000Y-99500000D01*
X35949997Y-95666119D02*
X35683058Y-95933058D01*
X35949997Y-95328410D02*
X35949997Y-95666119D01*
X37361607Y-95953410D02*
X37701924Y-96293727D01*
X60667492Y-93892508D02*
X72270010Y-93892508D01*
X80058058Y-99308058D02*
X96058058Y-99308058D01*
X74658341Y-93908341D02*
X80058058Y-99308058D01*
X98500000Y-99500000D02*
X102599990Y-99500000D01*
X106305000Y-98420000D02*
X108250000Y-98420000D01*
X105225000Y-99500000D02*
X106305000Y-98420000D01*
X95880000Y-106219990D02*
X102599990Y-99500000D01*
X95880000Y-108250000D02*
X95880000Y-106219990D01*
X27448289Y-97000000D02*
X24625000Y-97000000D01*
X35949997Y-95328410D02*
X30369879Y-95328410D01*
X30369879Y-95328410D02*
X28698289Y-97000000D01*
X31580000Y-108250000D02*
X24743058Y-101413058D01*
X24743058Y-101413058D02*
X24743058Y-100756942D01*
X24845191Y-97220191D02*
X24625000Y-97000000D01*
X24845191Y-99124579D02*
X24845191Y-97220191D01*
X22870000Y-97000000D02*
X21750000Y-95880000D01*
X23375000Y-97000000D02*
X22870000Y-97000000D01*
X35295001Y-22925001D02*
X36175001Y-22925001D01*
X34120000Y-21750000D02*
X35295001Y-22925001D01*
X36175001Y-22925001D02*
X69466943Y-22925001D01*
X20574999Y-30404999D02*
X21750000Y-31580000D01*
X20574999Y-24139999D02*
X20574999Y-30404999D01*
X24139999Y-20574999D02*
X20574999Y-24139999D01*
X34120000Y-21750000D02*
X32944999Y-20574999D01*
X32944999Y-20574999D02*
X24139999Y-20574999D01*
X98420000Y-22952081D02*
X98420000Y-21750000D01*
X98420000Y-23929992D02*
X98420000Y-22952081D01*
X97550002Y-24799990D02*
X98420000Y-23929992D01*
X95879200Y-24799990D02*
X97550002Y-24799990D01*
X107400001Y-33270001D02*
X108250000Y-34120000D01*
X101255001Y-27125001D02*
X107400001Y-33270001D01*
X96870100Y-27125001D02*
X101255001Y-27125001D01*
X20350010Y-32979990D02*
X21750000Y-31580000D01*
X20350010Y-82901721D02*
X20350010Y-32979990D01*
X26023288Y-88574999D02*
X20350010Y-82901721D01*
X26782653Y-88574999D02*
X26023288Y-88574999D01*
X27363266Y-89155612D02*
X26782653Y-88574999D01*
X37701924Y-96293727D02*
X53106273Y-96293727D01*
X53106273Y-96293727D02*
X53150000Y-96250000D01*
X57207492Y-93892508D02*
X60667492Y-93892508D01*
X54850000Y-96250000D02*
X57207492Y-93892508D01*
X87335599Y-30288109D02*
X87335599Y-26214401D01*
X89247499Y-32200009D02*
X87335599Y-30288109D01*
X91750000Y-34724150D02*
X91750000Y-34250000D01*
X89700009Y-32200009D02*
X89247499Y-32200009D01*
X91750000Y-34250000D02*
X89700009Y-32200009D01*
X89950001Y-22599999D02*
X90800000Y-21750000D01*
X89466941Y-23083059D02*
X89950001Y-22599999D01*
X89466941Y-24108057D02*
X89466941Y-23083059D01*
X87360597Y-26214401D02*
X89466941Y-24108057D01*
X87335599Y-26214401D02*
X87360597Y-26214401D01*
X93020000Y-35704400D02*
X93020000Y-34724150D01*
X84500000Y-33191850D02*
X87087551Y-35779401D01*
X92944999Y-35779401D02*
X93020000Y-35704400D01*
X84500000Y-28929710D02*
X84500000Y-33191850D01*
X26500000Y-36000000D02*
X26500000Y-29500000D01*
X26500000Y-29500000D02*
X29799990Y-26200010D01*
X29799990Y-26200010D02*
X81770300Y-26200010D01*
X87087551Y-35779401D02*
X92944999Y-35779401D01*
X81770300Y-26200010D02*
X84500000Y-28929710D01*
X24975001Y-37524999D02*
X26500000Y-36000000D01*
X23425001Y-37524999D02*
X24975001Y-37524999D01*
X21750000Y-39200000D02*
X23425001Y-37524999D01*
X94290000Y-34724150D02*
X94290000Y-35704400D01*
X95500000Y-100750000D02*
X68250000Y-100750000D01*
X66000000Y-103000000D02*
X61873289Y-107126711D01*
X51126711Y-107126711D02*
X52873289Y-107126711D01*
X47750000Y-103750000D02*
X51126711Y-107126711D01*
X61873289Y-107126711D02*
X52873289Y-107126711D01*
X32043884Y-103750000D02*
X31896942Y-103603058D01*
X47750000Y-103750000D02*
X32043884Y-103750000D01*
X22026942Y-103776942D02*
X21750000Y-103500000D01*
X25223058Y-103776942D02*
X22026942Y-103776942D01*
X101476701Y-42891101D02*
X101417800Y-42832200D01*
X95500000Y-100750000D02*
X101476701Y-94773299D01*
X94290000Y-35704400D02*
X101417800Y-42832200D01*
X101476701Y-79745891D02*
X101476701Y-94773299D01*
X101926710Y-79295882D02*
X101476701Y-79745891D01*
X101926710Y-43341110D02*
X101926710Y-79295882D01*
X101417800Y-42832200D02*
X101926710Y-43341110D01*
X93020000Y-28295600D02*
X96065600Y-25250000D01*
X93020000Y-29275850D02*
X93020000Y-28295600D01*
X105797919Y-25250000D02*
X96065600Y-25250000D01*
X107047919Y-26500000D02*
X105797919Y-25250000D01*
X108250000Y-26500000D02*
X107047919Y-26500000D01*
X108250000Y-44250000D02*
X108250000Y-46000000D01*
X91750000Y-30256100D02*
X92993900Y-31500000D01*
X91750000Y-29275850D02*
X91750000Y-30256100D01*
X92993900Y-31500000D02*
X95500000Y-31500000D01*
X108250000Y-45819498D02*
X108250000Y-46000000D01*
X108250000Y-47250000D02*
X108250000Y-90800000D01*
X108250000Y-46000000D02*
X108250000Y-47250000D01*
X103301999Y-41475001D02*
X102250000Y-40423002D01*
X108250000Y-44250000D02*
X105475001Y-41475001D01*
X105475001Y-41475001D02*
X103301999Y-41475001D01*
X102250000Y-38250000D02*
X95500000Y-31500000D01*
X102250000Y-40423002D02*
X102250000Y-38250000D01*
X90480000Y-30230000D02*
X90750000Y-30500000D01*
X90480000Y-29275850D02*
X90480000Y-30230000D01*
X94919142Y-32675010D02*
X95105512Y-32675010D01*
X67000000Y-103250000D02*
X62000000Y-108250000D01*
X62000000Y-108250000D02*
X39200000Y-108250000D01*
X101250000Y-38569276D02*
X95355734Y-32675010D01*
X101250000Y-40695822D02*
X101250000Y-38569276D01*
X102929198Y-42375020D02*
X101250000Y-40695822D01*
X105102201Y-42375021D02*
X102929198Y-42375020D01*
X68500000Y-101750000D02*
X95163580Y-101750000D01*
X95355734Y-32675010D02*
X94919142Y-32675010D01*
X95163580Y-101750000D02*
X101926710Y-94986870D01*
X101926710Y-94986870D02*
X101926710Y-79932292D01*
X101926710Y-79932292D02*
X107250000Y-74609002D01*
X107250000Y-74609002D02*
X107250000Y-44522820D01*
X107250000Y-44522820D02*
X105102201Y-42375021D01*
X89210000Y-30256100D02*
X89210000Y-29275850D01*
X90903910Y-31950010D02*
X89210000Y-30256100D01*
X95313600Y-31950010D02*
X90903910Y-31950010D01*
X95267144Y-31950010D02*
X95200010Y-31950010D01*
X101750000Y-40559412D02*
X101750000Y-38432866D01*
X103115599Y-41925011D02*
X101750000Y-40559412D01*
X101750000Y-38432866D02*
X95267144Y-31950010D01*
X107750000Y-44386410D02*
X105288601Y-41925011D01*
X103500000Y-108250000D02*
X104500000Y-107250000D01*
X104500000Y-107250000D02*
X104500000Y-94401998D01*
X104500000Y-94401998D02*
X107074999Y-91826999D01*
X107074999Y-91826999D02*
X107074999Y-90250010D01*
X105288601Y-41925011D02*
X103115599Y-41925011D01*
X107074999Y-90250010D02*
X107750000Y-89575009D01*
X107750000Y-89575009D02*
X107750000Y-44386410D01*
X70000000Y-104750000D02*
X70250000Y-104500000D01*
X70000000Y-105800000D02*
X70000000Y-104750000D01*
X68250000Y-82927900D02*
X68344000Y-82833900D01*
X69641078Y-96521440D02*
X68250000Y-95130362D01*
X68250000Y-95130362D02*
X68250000Y-94517508D01*
X67787763Y-83390137D02*
X68344000Y-82833900D01*
X66324990Y-84852910D02*
X67787763Y-83390137D01*
X66324990Y-90710538D02*
X66324990Y-84852910D01*
X68250000Y-92635548D02*
X66324990Y-90710538D01*
X69350000Y-104550000D02*
X69400000Y-104500000D01*
X69350000Y-105800000D02*
X69350000Y-104550000D01*
X66500000Y-83024200D02*
X66286600Y-82810800D01*
X66517508Y-94517508D02*
X66500000Y-94517508D01*
X69000000Y-97000000D02*
X66517508Y-94517508D01*
X65730363Y-83367037D02*
X66286600Y-82810800D01*
X65730363Y-91865911D02*
X65730363Y-83367037D01*
X66500000Y-92635548D02*
X65730363Y-91865911D01*
D31*
X31345400Y-58750000D02*
X37465400Y-52630000D01*
X29750000Y-58750000D02*
X31345400Y-58750000D01*
X36425400Y-61290000D02*
X37465400Y-60250000D01*
X29750000Y-61290000D02*
X36425400Y-61290000D01*
X36545400Y-63830000D02*
X37465400Y-64750000D01*
X29750000Y-63830000D02*
X36545400Y-63830000D01*
X31465400Y-66370000D02*
X37465400Y-72370000D01*
X29750000Y-66370000D02*
X31465400Y-66370000D01*
D29*
X45591658Y-79158342D02*
X45591659Y-79158341D01*
X28523299Y-70136701D02*
X29750000Y-68910000D01*
X28523299Y-72038817D02*
X28523299Y-70136701D01*
X29161183Y-72676701D02*
X28523299Y-72038817D01*
X32299076Y-72676701D02*
X29161183Y-72676701D01*
X38780716Y-79158341D02*
X32299076Y-72676701D01*
X45591659Y-79158341D02*
X38780716Y-79158341D01*
X58444198Y-66589400D02*
X59254200Y-66589400D01*
X48452405Y-77487735D02*
X48715140Y-77225000D01*
X48452405Y-77911999D02*
X48452405Y-77487735D01*
X48715140Y-77225000D02*
X49238591Y-77225000D01*
X49238591Y-77225000D02*
X58040610Y-68422981D01*
X58040610Y-68422981D02*
X58040610Y-66992988D01*
X58040610Y-66992988D02*
X58444198Y-66589400D01*
X31708785Y-71450000D02*
X32485477Y-72226692D01*
X29750000Y-71450000D02*
X31708785Y-71450000D01*
X32485477Y-72226692D02*
X38792126Y-78533341D01*
X38792126Y-78533341D02*
X44500000Y-78533341D01*
X47768021Y-77125115D02*
X47768021Y-77497727D01*
X56908700Y-68408700D02*
X56484436Y-68408700D01*
X56484436Y-68408700D02*
X47768021Y-77125115D01*
D31*
X99380000Y-72120000D02*
X100250000Y-71250000D01*
X92534600Y-72120000D02*
X99380000Y-72120000D01*
X96744600Y-68710000D02*
X100250000Y-68710000D01*
X92534600Y-64500000D02*
X96744600Y-68710000D01*
X94330000Y-60250000D02*
X100250000Y-66170000D01*
X92534600Y-60250000D02*
X94330000Y-60250000D01*
X99348301Y-62728301D02*
X100250000Y-63630000D01*
X94702797Y-58082797D02*
X99348301Y-62728301D01*
X94702797Y-54798197D02*
X94702797Y-58082797D01*
X92534600Y-52630000D02*
X94702797Y-54798197D01*
D29*
X65438775Y-63932005D02*
X68730165Y-63932005D01*
X59254200Y-68189400D02*
X61181380Y-68189400D01*
X61181380Y-68189400D02*
X65438775Y-63932005D01*
X101151699Y-60188301D02*
X100250000Y-61090000D01*
X101476701Y-57961183D02*
X101476701Y-59863299D01*
X94570507Y-51054989D02*
X101476701Y-57961183D01*
X91808199Y-51054989D02*
X94570507Y-51054989D01*
X90959590Y-51903598D02*
X91808199Y-51054989D01*
X101476701Y-59863299D02*
X101151699Y-60188301D01*
X90959589Y-53330013D02*
X90959590Y-51903598D01*
X85454601Y-58835001D02*
X90959589Y-53330013D01*
X80914999Y-58835001D02*
X85454601Y-58835001D01*
X77000000Y-62750000D02*
X80914999Y-58835001D01*
X65307193Y-64699997D02*
X68954199Y-64699997D01*
X59254200Y-68989400D02*
X61017790Y-68989400D01*
X61017790Y-68989400D02*
X65307193Y-64699997D01*
X99348301Y-57648301D02*
X100250000Y-58550000D01*
X93204999Y-51504999D02*
X99348301Y-57648301D01*
X91994599Y-51504999D02*
X93204999Y-51504999D01*
X91409599Y-52089999D02*
X91994599Y-51504999D01*
X91409599Y-55420003D02*
X91409599Y-52089999D01*
X83265202Y-63564400D02*
X91409599Y-55420003D01*
X76750000Y-63564400D02*
X83265202Y-63564400D01*
X68291100Y-80958900D02*
X68250000Y-81000000D01*
X68344000Y-80958900D02*
X68291100Y-80958900D01*
X59292942Y-63350658D02*
X59254200Y-63389400D01*
X60899342Y-63350658D02*
X59292942Y-63350658D01*
X66286600Y-80963400D02*
X66250000Y-81000000D01*
X66286600Y-80935800D02*
X66286600Y-80963400D01*
X58796163Y-73768137D02*
X59352400Y-73211900D01*
X58327390Y-74236910D02*
X58796163Y-73768137D01*
X58327390Y-77043990D02*
X58327390Y-74236910D01*
X58945400Y-77662000D02*
X58327390Y-77043990D01*
X59695400Y-77662000D02*
X58945400Y-77662000D01*
X61754200Y-71689400D02*
X61754200Y-70689400D01*
X61055810Y-72387790D02*
X61754200Y-71689400D01*
X60176510Y-72387790D02*
X61055810Y-72387790D01*
X59352400Y-73211900D02*
X60176510Y-72387790D01*
X70930800Y-60712800D02*
X70654200Y-60989400D01*
X72865200Y-60712800D02*
X70930800Y-60712800D01*
X89224150Y-34724150D02*
X89250000Y-34750000D01*
X89210000Y-34724150D02*
X89224150Y-34724150D01*
X63354200Y-58479398D02*
X63354200Y-59289400D01*
X85329197Y-36504401D02*
X63354200Y-58479398D01*
X89250000Y-36504401D02*
X85329197Y-36504401D01*
X95525850Y-29275850D02*
X95500000Y-29250000D01*
X95560000Y-29275850D02*
X95525850Y-29275850D01*
X92520598Y-37229402D02*
X85240606Y-37229402D01*
X93500000Y-36250000D02*
X92520598Y-37229402D01*
X64154200Y-58315808D02*
X64154200Y-59289400D01*
X85240606Y-37229402D02*
X64154200Y-58315808D01*
X71333696Y-55801946D02*
X67551946Y-55801946D01*
X73890210Y-58358460D02*
X71333696Y-55801946D01*
X73890210Y-61192140D02*
X73890210Y-58358460D01*
X70654200Y-63389400D02*
X71692950Y-63389400D01*
X71692950Y-63389400D02*
X73890210Y-61192140D01*
X65099857Y-55849857D02*
X56650143Y-55849857D01*
X56650143Y-55849857D02*
X56505606Y-55994394D01*
X54860312Y-57389688D02*
X53360312Y-57389688D01*
X53360312Y-57389688D02*
X53333092Y-57416908D01*
X45119608Y-57675792D02*
X45085400Y-57710000D01*
X51824208Y-57675792D02*
X45119608Y-57675792D01*
X85714599Y-68780001D02*
X84914600Y-69580000D01*
X86039601Y-68454999D02*
X85714599Y-68780001D01*
X86039601Y-66499999D02*
X86039601Y-68454999D01*
X85454601Y-65914999D02*
X86039601Y-66499999D01*
X82938998Y-64189400D02*
X84664597Y-65914999D01*
X84664597Y-65914999D02*
X85454601Y-65914999D01*
X70654200Y-64189400D02*
X82938998Y-64189400D01*
X70654200Y-64989400D02*
X71989400Y-64989400D01*
X71989400Y-64989400D02*
X72000000Y-65000000D01*
X71342918Y-55174758D02*
X68179134Y-55174758D01*
X74340219Y-58172059D02*
X71342918Y-55174758D01*
X72500000Y-63500000D02*
X74340219Y-61659781D01*
X74340219Y-61659781D02*
X74340219Y-58172059D01*
X65724857Y-55176946D02*
X55823054Y-55176946D01*
X55823054Y-55176946D02*
X55755606Y-55244394D01*
X52735312Y-55264688D02*
X51235312Y-55264688D01*
X51235312Y-55264688D02*
X51208092Y-55291908D01*
X45216192Y-55300792D02*
X45085400Y-55170000D01*
X49449208Y-55300792D02*
X45216192Y-55300792D01*
X68810969Y-65356770D02*
X68954199Y-65500000D01*
X65286830Y-65356770D02*
X68810969Y-65356770D01*
X60954200Y-70689400D02*
X60954200Y-69689400D01*
X60954200Y-69689400D02*
X65286830Y-65356770D01*
X83874600Y-66000000D02*
X84914600Y-67040000D01*
X75875000Y-66000000D02*
X83874600Y-66000000D01*
X35750000Y-30041800D02*
X35660800Y-29952600D01*
X35750000Y-33312500D02*
X35750000Y-30041800D01*
X67354200Y-70689400D02*
X67354200Y-68921632D01*
X67354200Y-68921632D02*
X64980026Y-66547458D01*
X46074990Y-46697365D02*
X47127625Y-47750000D01*
X46074990Y-44324990D02*
X46074990Y-46697365D01*
X38200800Y-29952600D02*
X38200800Y-36450800D01*
X38200800Y-36450800D02*
X46074990Y-44324990D01*
X59006868Y-59379540D02*
X59254342Y-59379540D01*
X47377328Y-47750000D02*
X59006868Y-59379540D01*
X47127625Y-47750000D02*
X47377328Y-47750000D01*
X62165956Y-62291154D02*
X59254342Y-59379540D01*
X62165956Y-63733387D02*
X62165956Y-62291154D01*
X68154200Y-68590258D02*
X65545713Y-65981771D01*
X68154200Y-70689400D02*
X68154200Y-68590258D01*
X35750000Y-36759082D02*
X35750000Y-35187500D01*
X37766926Y-38776008D02*
X35750000Y-36759082D01*
X48613654Y-49622736D02*
X47122736Y-49622736D01*
X58995459Y-60004541D02*
X48613654Y-49622736D01*
X47122736Y-49622736D02*
X43425010Y-45925010D01*
X43425010Y-45925010D02*
X43425010Y-43425010D01*
X43425010Y-43425010D02*
X38776008Y-38776008D01*
X38776008Y-38776008D02*
X37766926Y-38776008D01*
X72778174Y-65146828D02*
X72778174Y-64814400D01*
X70654200Y-65789400D02*
X72135602Y-65789400D01*
X72135602Y-65789400D02*
X72778174Y-65146828D01*
X81894400Y-55170000D02*
X84914600Y-55170000D01*
X73500000Y-63564400D02*
X81894400Y-55170000D01*
X71654200Y-66589400D02*
X70654200Y-66589400D01*
X73014402Y-66589400D02*
X71654200Y-66589400D01*
X73750000Y-67324998D02*
X73014402Y-66589400D01*
X68998840Y-79086010D02*
X73750000Y-74334850D01*
X45085400Y-69830000D02*
X43960399Y-70955001D01*
X73750000Y-74334850D02*
X73750000Y-67324998D01*
X43960399Y-70955001D02*
X43960399Y-74573989D01*
X43960399Y-74573989D02*
X47923409Y-78536999D01*
X47923409Y-78536999D02*
X64399249Y-78536999D01*
X64399249Y-78536999D02*
X64948260Y-79086010D01*
X64948260Y-79086010D02*
X68998840Y-79086010D01*
X61385399Y-80887001D02*
X59498398Y-79000000D01*
X74200009Y-68313599D02*
X74200009Y-74521251D01*
X74200009Y-74521251D02*
X69185240Y-79536020D01*
X62455401Y-80887001D02*
X61385399Y-80887001D01*
X69185240Y-79536020D02*
X63806382Y-79536020D01*
X63806382Y-79536020D02*
X62455401Y-80887001D01*
X59498398Y-79000000D02*
X47750000Y-79000000D01*
X44285401Y-68089999D02*
X45085400Y-67290000D01*
X43250000Y-69125400D02*
X44285401Y-68089999D01*
X43250000Y-74500000D02*
X43250000Y-69125400D01*
X47750000Y-79000000D02*
X43250000Y-74500000D01*
X70654200Y-67389400D02*
X72889400Y-67389400D01*
X72889400Y-67389400D02*
X73000000Y-67500000D01*
X74235665Y-68313599D02*
X74200009Y-68313599D01*
X74375000Y-68174264D02*
X74235665Y-68313599D01*
X74375000Y-67750000D02*
X74375000Y-68174264D01*
X70789800Y-72000000D02*
X73125000Y-72000000D01*
X68954200Y-70689400D02*
X69479200Y-70689400D01*
X69479200Y-70689400D02*
X70789800Y-72000000D01*
X75250000Y-67800002D02*
X75250000Y-64814400D01*
X74825009Y-72000000D02*
X74825009Y-68224993D01*
X74825009Y-68224993D02*
X75250000Y-67800002D01*
X81104400Y-57710000D02*
X84914600Y-57710000D01*
X75250000Y-63564400D02*
X81104400Y-57710000D01*
M02*
