G04 #@! TF.GenerationSoftware,KiCad,Pcbnew,(5.1.4)-1*
G04 #@! TF.CreationDate,2022-06-05T15:27:35-07:00*
G04 #@! TF.ProjectId,Birty,42697274-792e-46b6-9963-61645f706362,rev?*
G04 #@! TF.SameCoordinates,Original*
G04 #@! TF.FileFunction,Paste,Top*
G04 #@! TF.FilePolarity,Positive*
%FSLAX46Y46*%
G04 Gerber Fmt 4.6, Leading zero omitted, Abs format (unit mm)*
G04 Created by KiCad (PCBNEW (5.1.4)-1) date 2022-06-05 15:27:35*
%MOMM*%
%LPD*%
G04 APERTURE LIST*
%ADD10R,0.558800X1.460500*%
%ADD11R,0.550000X1.500000*%
%ADD12R,1.500000X0.550000*%
%ADD13C,0.100000*%
%ADD14C,0.975000*%
%ADD15R,1.150000X1.450000*%
%ADD16R,1.750000X1.900000*%
%ADD17R,0.400000X1.400000*%
%ADD18R,2.100000X1.800000*%
%ADD19R,1.000000X0.900000*%
%ADD20R,0.550000X1.700000*%
G04 APERTURE END LIST*
D10*
X87940000Y-34724150D03*
X89210000Y-34724150D03*
X90480000Y-34724150D03*
X91750000Y-34724150D03*
X93020000Y-34724150D03*
X94290000Y-34724150D03*
X95560000Y-34724150D03*
X95560000Y-29275850D03*
X94290000Y-29275850D03*
X93020000Y-29275850D03*
X91750000Y-29275850D03*
X90480000Y-29275850D03*
X89210000Y-29275850D03*
X87940000Y-29275850D03*
D11*
X60954200Y-59289400D03*
X61754200Y-59289400D03*
X62554200Y-59289400D03*
X63354200Y-59289400D03*
X64154200Y-59289400D03*
X64954200Y-59289400D03*
X65754200Y-59289400D03*
X66554200Y-59289400D03*
X67354200Y-59289400D03*
X68154200Y-59289400D03*
X68954200Y-59289400D03*
D12*
X70654200Y-60989400D03*
X70654200Y-61789400D03*
X70654200Y-62589400D03*
X70654200Y-63389400D03*
X70654200Y-64189400D03*
X70654200Y-64989400D03*
X70654200Y-65789400D03*
X70654200Y-66589400D03*
X70654200Y-67389400D03*
X70654200Y-68189400D03*
X70654200Y-68989400D03*
D11*
X68954200Y-70689400D03*
X68154200Y-70689400D03*
X67354200Y-70689400D03*
X66554200Y-70689400D03*
X65754200Y-70689400D03*
X64954200Y-70689400D03*
X64154200Y-70689400D03*
X63354200Y-70689400D03*
X62554200Y-70689400D03*
X61754200Y-70689400D03*
X60954200Y-70689400D03*
D12*
X59254200Y-68989400D03*
X59254200Y-68189400D03*
X59254200Y-67389400D03*
X59254200Y-66589400D03*
X59254200Y-65789400D03*
X59254200Y-64989400D03*
X59254200Y-64189400D03*
X59254200Y-63389400D03*
X59254200Y-62589400D03*
X59254200Y-61789400D03*
X59254200Y-60989400D03*
D13*
G36*
X38367542Y-92979574D02*
G01*
X38391203Y-92983084D01*
X38414407Y-92988896D01*
X38436929Y-92996954D01*
X38458553Y-93007182D01*
X38479070Y-93019479D01*
X38498283Y-93033729D01*
X38516007Y-93049793D01*
X38532071Y-93067517D01*
X38546321Y-93086730D01*
X38558618Y-93107247D01*
X38568846Y-93128871D01*
X38576904Y-93151393D01*
X38582716Y-93174597D01*
X38586226Y-93198258D01*
X38587400Y-93222150D01*
X38587400Y-94134650D01*
X38586226Y-94158542D01*
X38582716Y-94182203D01*
X38576904Y-94205407D01*
X38568846Y-94227929D01*
X38558618Y-94249553D01*
X38546321Y-94270070D01*
X38532071Y-94289283D01*
X38516007Y-94307007D01*
X38498283Y-94323071D01*
X38479070Y-94337321D01*
X38458553Y-94349618D01*
X38436929Y-94359846D01*
X38414407Y-94367904D01*
X38391203Y-94373716D01*
X38367542Y-94377226D01*
X38343650Y-94378400D01*
X37856150Y-94378400D01*
X37832258Y-94377226D01*
X37808597Y-94373716D01*
X37785393Y-94367904D01*
X37762871Y-94359846D01*
X37741247Y-94349618D01*
X37720730Y-94337321D01*
X37701517Y-94323071D01*
X37683793Y-94307007D01*
X37667729Y-94289283D01*
X37653479Y-94270070D01*
X37641182Y-94249553D01*
X37630954Y-94227929D01*
X37622896Y-94205407D01*
X37617084Y-94182203D01*
X37613574Y-94158542D01*
X37612400Y-94134650D01*
X37612400Y-93222150D01*
X37613574Y-93198258D01*
X37617084Y-93174597D01*
X37622896Y-93151393D01*
X37630954Y-93128871D01*
X37641182Y-93107247D01*
X37653479Y-93086730D01*
X37667729Y-93067517D01*
X37683793Y-93049793D01*
X37701517Y-93033729D01*
X37720730Y-93019479D01*
X37741247Y-93007182D01*
X37762871Y-92996954D01*
X37785393Y-92988896D01*
X37808597Y-92983084D01*
X37832258Y-92979574D01*
X37856150Y-92978400D01*
X38343650Y-92978400D01*
X38367542Y-92979574D01*
X38367542Y-92979574D01*
G37*
D14*
X38099900Y-93678400D03*
D13*
G36*
X40242542Y-92979574D02*
G01*
X40266203Y-92983084D01*
X40289407Y-92988896D01*
X40311929Y-92996954D01*
X40333553Y-93007182D01*
X40354070Y-93019479D01*
X40373283Y-93033729D01*
X40391007Y-93049793D01*
X40407071Y-93067517D01*
X40421321Y-93086730D01*
X40433618Y-93107247D01*
X40443846Y-93128871D01*
X40451904Y-93151393D01*
X40457716Y-93174597D01*
X40461226Y-93198258D01*
X40462400Y-93222150D01*
X40462400Y-94134650D01*
X40461226Y-94158542D01*
X40457716Y-94182203D01*
X40451904Y-94205407D01*
X40443846Y-94227929D01*
X40433618Y-94249553D01*
X40421321Y-94270070D01*
X40407071Y-94289283D01*
X40391007Y-94307007D01*
X40373283Y-94323071D01*
X40354070Y-94337321D01*
X40333553Y-94349618D01*
X40311929Y-94359846D01*
X40289407Y-94367904D01*
X40266203Y-94373716D01*
X40242542Y-94377226D01*
X40218650Y-94378400D01*
X39731150Y-94378400D01*
X39707258Y-94377226D01*
X39683597Y-94373716D01*
X39660393Y-94367904D01*
X39637871Y-94359846D01*
X39616247Y-94349618D01*
X39595730Y-94337321D01*
X39576517Y-94323071D01*
X39558793Y-94307007D01*
X39542729Y-94289283D01*
X39528479Y-94270070D01*
X39516182Y-94249553D01*
X39505954Y-94227929D01*
X39497896Y-94205407D01*
X39492084Y-94182203D01*
X39488574Y-94158542D01*
X39487400Y-94134650D01*
X39487400Y-93222150D01*
X39488574Y-93198258D01*
X39492084Y-93174597D01*
X39497896Y-93151393D01*
X39505954Y-93128871D01*
X39516182Y-93107247D01*
X39528479Y-93086730D01*
X39542729Y-93067517D01*
X39558793Y-93049793D01*
X39576517Y-93033729D01*
X39595730Y-93019479D01*
X39616247Y-93007182D01*
X39637871Y-92996954D01*
X39660393Y-92988896D01*
X39683597Y-92983084D01*
X39707258Y-92979574D01*
X39731150Y-92978400D01*
X40218650Y-92978400D01*
X40242542Y-92979574D01*
X40242542Y-92979574D01*
G37*
D14*
X39974900Y-93678400D03*
D13*
G36*
X36230142Y-34701174D02*
G01*
X36253803Y-34704684D01*
X36277007Y-34710496D01*
X36299529Y-34718554D01*
X36321153Y-34728782D01*
X36341670Y-34741079D01*
X36360883Y-34755329D01*
X36378607Y-34771393D01*
X36394671Y-34789117D01*
X36408921Y-34808330D01*
X36421218Y-34828847D01*
X36431446Y-34850471D01*
X36439504Y-34872993D01*
X36445316Y-34896197D01*
X36448826Y-34919858D01*
X36450000Y-34943750D01*
X36450000Y-35431250D01*
X36448826Y-35455142D01*
X36445316Y-35478803D01*
X36439504Y-35502007D01*
X36431446Y-35524529D01*
X36421218Y-35546153D01*
X36408921Y-35566670D01*
X36394671Y-35585883D01*
X36378607Y-35603607D01*
X36360883Y-35619671D01*
X36341670Y-35633921D01*
X36321153Y-35646218D01*
X36299529Y-35656446D01*
X36277007Y-35664504D01*
X36253803Y-35670316D01*
X36230142Y-35673826D01*
X36206250Y-35675000D01*
X35293750Y-35675000D01*
X35269858Y-35673826D01*
X35246197Y-35670316D01*
X35222993Y-35664504D01*
X35200471Y-35656446D01*
X35178847Y-35646218D01*
X35158330Y-35633921D01*
X35139117Y-35619671D01*
X35121393Y-35603607D01*
X35105329Y-35585883D01*
X35091079Y-35566670D01*
X35078782Y-35546153D01*
X35068554Y-35524529D01*
X35060496Y-35502007D01*
X35054684Y-35478803D01*
X35051174Y-35455142D01*
X35050000Y-35431250D01*
X35050000Y-34943750D01*
X35051174Y-34919858D01*
X35054684Y-34896197D01*
X35060496Y-34872993D01*
X35068554Y-34850471D01*
X35078782Y-34828847D01*
X35091079Y-34808330D01*
X35105329Y-34789117D01*
X35121393Y-34771393D01*
X35139117Y-34755329D01*
X35158330Y-34741079D01*
X35178847Y-34728782D01*
X35200471Y-34718554D01*
X35222993Y-34710496D01*
X35246197Y-34704684D01*
X35269858Y-34701174D01*
X35293750Y-34700000D01*
X36206250Y-34700000D01*
X36230142Y-34701174D01*
X36230142Y-34701174D01*
G37*
D14*
X35750000Y-35187500D03*
D13*
G36*
X36230142Y-32826174D02*
G01*
X36253803Y-32829684D01*
X36277007Y-32835496D01*
X36299529Y-32843554D01*
X36321153Y-32853782D01*
X36341670Y-32866079D01*
X36360883Y-32880329D01*
X36378607Y-32896393D01*
X36394671Y-32914117D01*
X36408921Y-32933330D01*
X36421218Y-32953847D01*
X36431446Y-32975471D01*
X36439504Y-32997993D01*
X36445316Y-33021197D01*
X36448826Y-33044858D01*
X36450000Y-33068750D01*
X36450000Y-33556250D01*
X36448826Y-33580142D01*
X36445316Y-33603803D01*
X36439504Y-33627007D01*
X36431446Y-33649529D01*
X36421218Y-33671153D01*
X36408921Y-33691670D01*
X36394671Y-33710883D01*
X36378607Y-33728607D01*
X36360883Y-33744671D01*
X36341670Y-33758921D01*
X36321153Y-33771218D01*
X36299529Y-33781446D01*
X36277007Y-33789504D01*
X36253803Y-33795316D01*
X36230142Y-33798826D01*
X36206250Y-33800000D01*
X35293750Y-33800000D01*
X35269858Y-33798826D01*
X35246197Y-33795316D01*
X35222993Y-33789504D01*
X35200471Y-33781446D01*
X35178847Y-33771218D01*
X35158330Y-33758921D01*
X35139117Y-33744671D01*
X35121393Y-33728607D01*
X35105329Y-33710883D01*
X35091079Y-33691670D01*
X35078782Y-33671153D01*
X35068554Y-33649529D01*
X35060496Y-33627007D01*
X35054684Y-33603803D01*
X35051174Y-33580142D01*
X35050000Y-33556250D01*
X35050000Y-33068750D01*
X35051174Y-33044858D01*
X35054684Y-33021197D01*
X35060496Y-32997993D01*
X35068554Y-32975471D01*
X35078782Y-32953847D01*
X35091079Y-32933330D01*
X35105329Y-32914117D01*
X35121393Y-32896393D01*
X35139117Y-32880329D01*
X35158330Y-32866079D01*
X35178847Y-32853782D01*
X35200471Y-32843554D01*
X35222993Y-32835496D01*
X35246197Y-32829684D01*
X35269858Y-32826174D01*
X35293750Y-32825000D01*
X36206250Y-32825000D01*
X36230142Y-32826174D01*
X36230142Y-32826174D01*
G37*
D14*
X35750000Y-33312500D03*
D15*
X67680000Y-106220000D03*
X72320000Y-106220000D03*
D16*
X68875000Y-108450000D03*
D17*
X70000000Y-105800000D03*
X70650000Y-105800000D03*
X71300000Y-105800000D03*
X68700000Y-105800000D03*
X69350000Y-105800000D03*
D16*
X71125000Y-108450000D03*
D13*
G36*
X40267942Y-88940974D02*
G01*
X40291603Y-88944484D01*
X40314807Y-88950296D01*
X40337329Y-88958354D01*
X40358953Y-88968582D01*
X40379470Y-88980879D01*
X40398683Y-88995129D01*
X40416407Y-89011193D01*
X40432471Y-89028917D01*
X40446721Y-89048130D01*
X40459018Y-89068647D01*
X40469246Y-89090271D01*
X40477304Y-89112793D01*
X40483116Y-89135997D01*
X40486626Y-89159658D01*
X40487800Y-89183550D01*
X40487800Y-90096050D01*
X40486626Y-90119942D01*
X40483116Y-90143603D01*
X40477304Y-90166807D01*
X40469246Y-90189329D01*
X40459018Y-90210953D01*
X40446721Y-90231470D01*
X40432471Y-90250683D01*
X40416407Y-90268407D01*
X40398683Y-90284471D01*
X40379470Y-90298721D01*
X40358953Y-90311018D01*
X40337329Y-90321246D01*
X40314807Y-90329304D01*
X40291603Y-90335116D01*
X40267942Y-90338626D01*
X40244050Y-90339800D01*
X39756550Y-90339800D01*
X39732658Y-90338626D01*
X39708997Y-90335116D01*
X39685793Y-90329304D01*
X39663271Y-90321246D01*
X39641647Y-90311018D01*
X39621130Y-90298721D01*
X39601917Y-90284471D01*
X39584193Y-90268407D01*
X39568129Y-90250683D01*
X39553879Y-90231470D01*
X39541582Y-90210953D01*
X39531354Y-90189329D01*
X39523296Y-90166807D01*
X39517484Y-90143603D01*
X39513974Y-90119942D01*
X39512800Y-90096050D01*
X39512800Y-89183550D01*
X39513974Y-89159658D01*
X39517484Y-89135997D01*
X39523296Y-89112793D01*
X39531354Y-89090271D01*
X39541582Y-89068647D01*
X39553879Y-89048130D01*
X39568129Y-89028917D01*
X39584193Y-89011193D01*
X39601917Y-88995129D01*
X39621130Y-88980879D01*
X39641647Y-88968582D01*
X39663271Y-88958354D01*
X39685793Y-88950296D01*
X39708997Y-88944484D01*
X39732658Y-88940974D01*
X39756550Y-88939800D01*
X40244050Y-88939800D01*
X40267942Y-88940974D01*
X40267942Y-88940974D01*
G37*
D14*
X40000300Y-89639800D03*
D13*
G36*
X38392942Y-88940974D02*
G01*
X38416603Y-88944484D01*
X38439807Y-88950296D01*
X38462329Y-88958354D01*
X38483953Y-88968582D01*
X38504470Y-88980879D01*
X38523683Y-88995129D01*
X38541407Y-89011193D01*
X38557471Y-89028917D01*
X38571721Y-89048130D01*
X38584018Y-89068647D01*
X38594246Y-89090271D01*
X38602304Y-89112793D01*
X38608116Y-89135997D01*
X38611626Y-89159658D01*
X38612800Y-89183550D01*
X38612800Y-90096050D01*
X38611626Y-90119942D01*
X38608116Y-90143603D01*
X38602304Y-90166807D01*
X38594246Y-90189329D01*
X38584018Y-90210953D01*
X38571721Y-90231470D01*
X38557471Y-90250683D01*
X38541407Y-90268407D01*
X38523683Y-90284471D01*
X38504470Y-90298721D01*
X38483953Y-90311018D01*
X38462329Y-90321246D01*
X38439807Y-90329304D01*
X38416603Y-90335116D01*
X38392942Y-90338626D01*
X38369050Y-90339800D01*
X37881550Y-90339800D01*
X37857658Y-90338626D01*
X37833997Y-90335116D01*
X37810793Y-90329304D01*
X37788271Y-90321246D01*
X37766647Y-90311018D01*
X37746130Y-90298721D01*
X37726917Y-90284471D01*
X37709193Y-90268407D01*
X37693129Y-90250683D01*
X37678879Y-90231470D01*
X37666582Y-90210953D01*
X37656354Y-90189329D01*
X37648296Y-90166807D01*
X37642484Y-90143603D01*
X37638974Y-90119942D01*
X37637800Y-90096050D01*
X37637800Y-89183550D01*
X37638974Y-89159658D01*
X37642484Y-89135997D01*
X37648296Y-89112793D01*
X37656354Y-89090271D01*
X37666582Y-89068647D01*
X37678879Y-89048130D01*
X37693129Y-89028917D01*
X37709193Y-89011193D01*
X37726917Y-88995129D01*
X37746130Y-88980879D01*
X37766647Y-88968582D01*
X37788271Y-88958354D01*
X37810793Y-88950296D01*
X37833997Y-88944484D01*
X37857658Y-88940974D01*
X37881550Y-88939800D01*
X38369050Y-88939800D01*
X38392942Y-88940974D01*
X38392942Y-88940974D01*
G37*
D14*
X38125300Y-89639800D03*
D13*
G36*
X63404642Y-74771374D02*
G01*
X63428303Y-74774884D01*
X63451507Y-74780696D01*
X63474029Y-74788754D01*
X63495653Y-74798982D01*
X63516170Y-74811279D01*
X63535383Y-74825529D01*
X63553107Y-74841593D01*
X63569171Y-74859317D01*
X63583421Y-74878530D01*
X63595718Y-74899047D01*
X63605946Y-74920671D01*
X63614004Y-74943193D01*
X63619816Y-74966397D01*
X63623326Y-74990058D01*
X63624500Y-75013950D01*
X63624500Y-75926450D01*
X63623326Y-75950342D01*
X63619816Y-75974003D01*
X63614004Y-75997207D01*
X63605946Y-76019729D01*
X63595718Y-76041353D01*
X63583421Y-76061870D01*
X63569171Y-76081083D01*
X63553107Y-76098807D01*
X63535383Y-76114871D01*
X63516170Y-76129121D01*
X63495653Y-76141418D01*
X63474029Y-76151646D01*
X63451507Y-76159704D01*
X63428303Y-76165516D01*
X63404642Y-76169026D01*
X63380750Y-76170200D01*
X62893250Y-76170200D01*
X62869358Y-76169026D01*
X62845697Y-76165516D01*
X62822493Y-76159704D01*
X62799971Y-76151646D01*
X62778347Y-76141418D01*
X62757830Y-76129121D01*
X62738617Y-76114871D01*
X62720893Y-76098807D01*
X62704829Y-76081083D01*
X62690579Y-76061870D01*
X62678282Y-76041353D01*
X62668054Y-76019729D01*
X62659996Y-75997207D01*
X62654184Y-75974003D01*
X62650674Y-75950342D01*
X62649500Y-75926450D01*
X62649500Y-75013950D01*
X62650674Y-74990058D01*
X62654184Y-74966397D01*
X62659996Y-74943193D01*
X62668054Y-74920671D01*
X62678282Y-74899047D01*
X62690579Y-74878530D01*
X62704829Y-74859317D01*
X62720893Y-74841593D01*
X62738617Y-74825529D01*
X62757830Y-74811279D01*
X62778347Y-74798982D01*
X62799971Y-74788754D01*
X62822493Y-74780696D01*
X62845697Y-74774884D01*
X62869358Y-74771374D01*
X62893250Y-74770200D01*
X63380750Y-74770200D01*
X63404642Y-74771374D01*
X63404642Y-74771374D01*
G37*
D14*
X63137000Y-75470200D03*
D13*
G36*
X61529642Y-74771374D02*
G01*
X61553303Y-74774884D01*
X61576507Y-74780696D01*
X61599029Y-74788754D01*
X61620653Y-74798982D01*
X61641170Y-74811279D01*
X61660383Y-74825529D01*
X61678107Y-74841593D01*
X61694171Y-74859317D01*
X61708421Y-74878530D01*
X61720718Y-74899047D01*
X61730946Y-74920671D01*
X61739004Y-74943193D01*
X61744816Y-74966397D01*
X61748326Y-74990058D01*
X61749500Y-75013950D01*
X61749500Y-75926450D01*
X61748326Y-75950342D01*
X61744816Y-75974003D01*
X61739004Y-75997207D01*
X61730946Y-76019729D01*
X61720718Y-76041353D01*
X61708421Y-76061870D01*
X61694171Y-76081083D01*
X61678107Y-76098807D01*
X61660383Y-76114871D01*
X61641170Y-76129121D01*
X61620653Y-76141418D01*
X61599029Y-76151646D01*
X61576507Y-76159704D01*
X61553303Y-76165516D01*
X61529642Y-76169026D01*
X61505750Y-76170200D01*
X61018250Y-76170200D01*
X60994358Y-76169026D01*
X60970697Y-76165516D01*
X60947493Y-76159704D01*
X60924971Y-76151646D01*
X60903347Y-76141418D01*
X60882830Y-76129121D01*
X60863617Y-76114871D01*
X60845893Y-76098807D01*
X60829829Y-76081083D01*
X60815579Y-76061870D01*
X60803282Y-76041353D01*
X60793054Y-76019729D01*
X60784996Y-75997207D01*
X60779184Y-75974003D01*
X60775674Y-75950342D01*
X60774500Y-75926450D01*
X60774500Y-75013950D01*
X60775674Y-74990058D01*
X60779184Y-74966397D01*
X60784996Y-74943193D01*
X60793054Y-74920671D01*
X60803282Y-74899047D01*
X60815579Y-74878530D01*
X60829829Y-74859317D01*
X60845893Y-74841593D01*
X60863617Y-74825529D01*
X60882830Y-74811279D01*
X60903347Y-74798982D01*
X60924971Y-74788754D01*
X60947493Y-74780696D01*
X60970697Y-74774884D01*
X60994358Y-74771374D01*
X61018250Y-74770200D01*
X61505750Y-74770200D01*
X61529642Y-74771374D01*
X61529642Y-74771374D01*
G37*
D14*
X61262000Y-75470200D03*
D18*
X68930400Y-75680400D03*
X66030400Y-75680400D03*
X66030400Y-73380400D03*
X68930400Y-73380400D03*
D19*
X61295400Y-81762000D03*
X59695400Y-81762000D03*
X59695400Y-77662000D03*
X61295400Y-77662000D03*
D20*
X61920400Y-79712000D03*
D13*
G36*
X38392942Y-90947574D02*
G01*
X38416603Y-90951084D01*
X38439807Y-90956896D01*
X38462329Y-90964954D01*
X38483953Y-90975182D01*
X38504470Y-90987479D01*
X38523683Y-91001729D01*
X38541407Y-91017793D01*
X38557471Y-91035517D01*
X38571721Y-91054730D01*
X38584018Y-91075247D01*
X38594246Y-91096871D01*
X38602304Y-91119393D01*
X38608116Y-91142597D01*
X38611626Y-91166258D01*
X38612800Y-91190150D01*
X38612800Y-92102650D01*
X38611626Y-92126542D01*
X38608116Y-92150203D01*
X38602304Y-92173407D01*
X38594246Y-92195929D01*
X38584018Y-92217553D01*
X38571721Y-92238070D01*
X38557471Y-92257283D01*
X38541407Y-92275007D01*
X38523683Y-92291071D01*
X38504470Y-92305321D01*
X38483953Y-92317618D01*
X38462329Y-92327846D01*
X38439807Y-92335904D01*
X38416603Y-92341716D01*
X38392942Y-92345226D01*
X38369050Y-92346400D01*
X37881550Y-92346400D01*
X37857658Y-92345226D01*
X37833997Y-92341716D01*
X37810793Y-92335904D01*
X37788271Y-92327846D01*
X37766647Y-92317618D01*
X37746130Y-92305321D01*
X37726917Y-92291071D01*
X37709193Y-92275007D01*
X37693129Y-92257283D01*
X37678879Y-92238070D01*
X37666582Y-92217553D01*
X37656354Y-92195929D01*
X37648296Y-92173407D01*
X37642484Y-92150203D01*
X37638974Y-92126542D01*
X37637800Y-92102650D01*
X37637800Y-91190150D01*
X37638974Y-91166258D01*
X37642484Y-91142597D01*
X37648296Y-91119393D01*
X37656354Y-91096871D01*
X37666582Y-91075247D01*
X37678879Y-91054730D01*
X37693129Y-91035517D01*
X37709193Y-91017793D01*
X37726917Y-91001729D01*
X37746130Y-90987479D01*
X37766647Y-90975182D01*
X37788271Y-90964954D01*
X37810793Y-90956896D01*
X37833997Y-90951084D01*
X37857658Y-90947574D01*
X37881550Y-90946400D01*
X38369050Y-90946400D01*
X38392942Y-90947574D01*
X38392942Y-90947574D01*
G37*
D14*
X38125300Y-91646400D03*
D13*
G36*
X40267942Y-90947574D02*
G01*
X40291603Y-90951084D01*
X40314807Y-90956896D01*
X40337329Y-90964954D01*
X40358953Y-90975182D01*
X40379470Y-90987479D01*
X40398683Y-91001729D01*
X40416407Y-91017793D01*
X40432471Y-91035517D01*
X40446721Y-91054730D01*
X40459018Y-91075247D01*
X40469246Y-91096871D01*
X40477304Y-91119393D01*
X40483116Y-91142597D01*
X40486626Y-91166258D01*
X40487800Y-91190150D01*
X40487800Y-92102650D01*
X40486626Y-92126542D01*
X40483116Y-92150203D01*
X40477304Y-92173407D01*
X40469246Y-92195929D01*
X40459018Y-92217553D01*
X40446721Y-92238070D01*
X40432471Y-92257283D01*
X40416407Y-92275007D01*
X40398683Y-92291071D01*
X40379470Y-92305321D01*
X40358953Y-92317618D01*
X40337329Y-92327846D01*
X40314807Y-92335904D01*
X40291603Y-92341716D01*
X40267942Y-92345226D01*
X40244050Y-92346400D01*
X39756550Y-92346400D01*
X39732658Y-92345226D01*
X39708997Y-92341716D01*
X39685793Y-92335904D01*
X39663271Y-92327846D01*
X39641647Y-92317618D01*
X39621130Y-92305321D01*
X39601917Y-92291071D01*
X39584193Y-92275007D01*
X39568129Y-92257283D01*
X39553879Y-92238070D01*
X39541582Y-92217553D01*
X39531354Y-92195929D01*
X39523296Y-92173407D01*
X39517484Y-92150203D01*
X39513974Y-92126542D01*
X39512800Y-92102650D01*
X39512800Y-91190150D01*
X39513974Y-91166258D01*
X39517484Y-91142597D01*
X39523296Y-91119393D01*
X39531354Y-91096871D01*
X39541582Y-91075247D01*
X39553879Y-91054730D01*
X39568129Y-91035517D01*
X39584193Y-91017793D01*
X39601917Y-91001729D01*
X39621130Y-90987479D01*
X39641647Y-90975182D01*
X39663271Y-90964954D01*
X39685793Y-90956896D01*
X39708997Y-90951084D01*
X39732658Y-90947574D01*
X39756550Y-90946400D01*
X40244050Y-90946400D01*
X40267942Y-90947574D01*
X40267942Y-90947574D01*
G37*
D14*
X40000300Y-91646400D03*
D13*
G36*
X73345342Y-60226474D02*
G01*
X73369003Y-60229984D01*
X73392207Y-60235796D01*
X73414729Y-60243854D01*
X73436353Y-60254082D01*
X73456870Y-60266379D01*
X73476083Y-60280629D01*
X73493807Y-60296693D01*
X73509871Y-60314417D01*
X73524121Y-60333630D01*
X73536418Y-60354147D01*
X73546646Y-60375771D01*
X73554704Y-60398293D01*
X73560516Y-60421497D01*
X73564026Y-60445158D01*
X73565200Y-60469050D01*
X73565200Y-60956550D01*
X73564026Y-60980442D01*
X73560516Y-61004103D01*
X73554704Y-61027307D01*
X73546646Y-61049829D01*
X73536418Y-61071453D01*
X73524121Y-61091970D01*
X73509871Y-61111183D01*
X73493807Y-61128907D01*
X73476083Y-61144971D01*
X73456870Y-61159221D01*
X73436353Y-61171518D01*
X73414729Y-61181746D01*
X73392207Y-61189804D01*
X73369003Y-61195616D01*
X73345342Y-61199126D01*
X73321450Y-61200300D01*
X72408950Y-61200300D01*
X72385058Y-61199126D01*
X72361397Y-61195616D01*
X72338193Y-61189804D01*
X72315671Y-61181746D01*
X72294047Y-61171518D01*
X72273530Y-61159221D01*
X72254317Y-61144971D01*
X72236593Y-61128907D01*
X72220529Y-61111183D01*
X72206279Y-61091970D01*
X72193982Y-61071453D01*
X72183754Y-61049829D01*
X72175696Y-61027307D01*
X72169884Y-61004103D01*
X72166374Y-60980442D01*
X72165200Y-60956550D01*
X72165200Y-60469050D01*
X72166374Y-60445158D01*
X72169884Y-60421497D01*
X72175696Y-60398293D01*
X72183754Y-60375771D01*
X72193982Y-60354147D01*
X72206279Y-60333630D01*
X72220529Y-60314417D01*
X72236593Y-60296693D01*
X72254317Y-60280629D01*
X72273530Y-60266379D01*
X72294047Y-60254082D01*
X72315671Y-60243854D01*
X72338193Y-60235796D01*
X72361397Y-60229984D01*
X72385058Y-60226474D01*
X72408950Y-60225300D01*
X73321450Y-60225300D01*
X73345342Y-60226474D01*
X73345342Y-60226474D01*
G37*
D14*
X72865200Y-60712800D03*
D13*
G36*
X73345342Y-58351474D02*
G01*
X73369003Y-58354984D01*
X73392207Y-58360796D01*
X73414729Y-58368854D01*
X73436353Y-58379082D01*
X73456870Y-58391379D01*
X73476083Y-58405629D01*
X73493807Y-58421693D01*
X73509871Y-58439417D01*
X73524121Y-58458630D01*
X73536418Y-58479147D01*
X73546646Y-58500771D01*
X73554704Y-58523293D01*
X73560516Y-58546497D01*
X73564026Y-58570158D01*
X73565200Y-58594050D01*
X73565200Y-59081550D01*
X73564026Y-59105442D01*
X73560516Y-59129103D01*
X73554704Y-59152307D01*
X73546646Y-59174829D01*
X73536418Y-59196453D01*
X73524121Y-59216970D01*
X73509871Y-59236183D01*
X73493807Y-59253907D01*
X73476083Y-59269971D01*
X73456870Y-59284221D01*
X73436353Y-59296518D01*
X73414729Y-59306746D01*
X73392207Y-59314804D01*
X73369003Y-59320616D01*
X73345342Y-59324126D01*
X73321450Y-59325300D01*
X72408950Y-59325300D01*
X72385058Y-59324126D01*
X72361397Y-59320616D01*
X72338193Y-59314804D01*
X72315671Y-59306746D01*
X72294047Y-59296518D01*
X72273530Y-59284221D01*
X72254317Y-59269971D01*
X72236593Y-59253907D01*
X72220529Y-59236183D01*
X72206279Y-59216970D01*
X72193982Y-59196453D01*
X72183754Y-59174829D01*
X72175696Y-59152307D01*
X72169884Y-59129103D01*
X72166374Y-59105442D01*
X72165200Y-59081550D01*
X72165200Y-58594050D01*
X72166374Y-58570158D01*
X72169884Y-58546497D01*
X72175696Y-58523293D01*
X72183754Y-58500771D01*
X72193982Y-58479147D01*
X72206279Y-58458630D01*
X72220529Y-58439417D01*
X72236593Y-58421693D01*
X72254317Y-58405629D01*
X72273530Y-58391379D01*
X72294047Y-58379082D01*
X72315671Y-58368854D01*
X72338193Y-58360796D01*
X72361397Y-58354984D01*
X72385058Y-58351474D01*
X72408950Y-58350300D01*
X73321450Y-58350300D01*
X73345342Y-58351474D01*
X73345342Y-58351474D01*
G37*
D14*
X72865200Y-58837800D03*
D13*
G36*
X59832542Y-72725574D02*
G01*
X59856203Y-72729084D01*
X59879407Y-72734896D01*
X59901929Y-72742954D01*
X59923553Y-72753182D01*
X59944070Y-72765479D01*
X59963283Y-72779729D01*
X59981007Y-72795793D01*
X59997071Y-72813517D01*
X60011321Y-72832730D01*
X60023618Y-72853247D01*
X60033846Y-72874871D01*
X60041904Y-72897393D01*
X60047716Y-72920597D01*
X60051226Y-72944258D01*
X60052400Y-72968150D01*
X60052400Y-73455650D01*
X60051226Y-73479542D01*
X60047716Y-73503203D01*
X60041904Y-73526407D01*
X60033846Y-73548929D01*
X60023618Y-73570553D01*
X60011321Y-73591070D01*
X59997071Y-73610283D01*
X59981007Y-73628007D01*
X59963283Y-73644071D01*
X59944070Y-73658321D01*
X59923553Y-73670618D01*
X59901929Y-73680846D01*
X59879407Y-73688904D01*
X59856203Y-73694716D01*
X59832542Y-73698226D01*
X59808650Y-73699400D01*
X58896150Y-73699400D01*
X58872258Y-73698226D01*
X58848597Y-73694716D01*
X58825393Y-73688904D01*
X58802871Y-73680846D01*
X58781247Y-73670618D01*
X58760730Y-73658321D01*
X58741517Y-73644071D01*
X58723793Y-73628007D01*
X58707729Y-73610283D01*
X58693479Y-73591070D01*
X58681182Y-73570553D01*
X58670954Y-73548929D01*
X58662896Y-73526407D01*
X58657084Y-73503203D01*
X58653574Y-73479542D01*
X58652400Y-73455650D01*
X58652400Y-72968150D01*
X58653574Y-72944258D01*
X58657084Y-72920597D01*
X58662896Y-72897393D01*
X58670954Y-72874871D01*
X58681182Y-72853247D01*
X58693479Y-72832730D01*
X58707729Y-72813517D01*
X58723793Y-72795793D01*
X58741517Y-72779729D01*
X58760730Y-72765479D01*
X58781247Y-72753182D01*
X58802871Y-72742954D01*
X58825393Y-72734896D01*
X58848597Y-72729084D01*
X58872258Y-72725574D01*
X58896150Y-72724400D01*
X59808650Y-72724400D01*
X59832542Y-72725574D01*
X59832542Y-72725574D01*
G37*
D14*
X59352400Y-73211900D03*
D13*
G36*
X59832542Y-74600574D02*
G01*
X59856203Y-74604084D01*
X59879407Y-74609896D01*
X59901929Y-74617954D01*
X59923553Y-74628182D01*
X59944070Y-74640479D01*
X59963283Y-74654729D01*
X59981007Y-74670793D01*
X59997071Y-74688517D01*
X60011321Y-74707730D01*
X60023618Y-74728247D01*
X60033846Y-74749871D01*
X60041904Y-74772393D01*
X60047716Y-74795597D01*
X60051226Y-74819258D01*
X60052400Y-74843150D01*
X60052400Y-75330650D01*
X60051226Y-75354542D01*
X60047716Y-75378203D01*
X60041904Y-75401407D01*
X60033846Y-75423929D01*
X60023618Y-75445553D01*
X60011321Y-75466070D01*
X59997071Y-75485283D01*
X59981007Y-75503007D01*
X59963283Y-75519071D01*
X59944070Y-75533321D01*
X59923553Y-75545618D01*
X59901929Y-75555846D01*
X59879407Y-75563904D01*
X59856203Y-75569716D01*
X59832542Y-75573226D01*
X59808650Y-75574400D01*
X58896150Y-75574400D01*
X58872258Y-75573226D01*
X58848597Y-75569716D01*
X58825393Y-75563904D01*
X58802871Y-75555846D01*
X58781247Y-75545618D01*
X58760730Y-75533321D01*
X58741517Y-75519071D01*
X58723793Y-75503007D01*
X58707729Y-75485283D01*
X58693479Y-75466070D01*
X58681182Y-75445553D01*
X58670954Y-75423929D01*
X58662896Y-75401407D01*
X58657084Y-75378203D01*
X58653574Y-75354542D01*
X58652400Y-75330650D01*
X58652400Y-74843150D01*
X58653574Y-74819258D01*
X58657084Y-74795597D01*
X58662896Y-74772393D01*
X58670954Y-74749871D01*
X58681182Y-74728247D01*
X58693479Y-74707730D01*
X58707729Y-74688517D01*
X58723793Y-74670793D01*
X58741517Y-74654729D01*
X58760730Y-74640479D01*
X58781247Y-74628182D01*
X58802871Y-74617954D01*
X58825393Y-74609896D01*
X58848597Y-74604084D01*
X58872258Y-74600574D01*
X58896150Y-74599400D01*
X59808650Y-74599400D01*
X59832542Y-74600574D01*
X59832542Y-74600574D01*
G37*
D14*
X59352400Y-75086900D03*
D13*
G36*
X66766742Y-82324474D02*
G01*
X66790403Y-82327984D01*
X66813607Y-82333796D01*
X66836129Y-82341854D01*
X66857753Y-82352082D01*
X66878270Y-82364379D01*
X66897483Y-82378629D01*
X66915207Y-82394693D01*
X66931271Y-82412417D01*
X66945521Y-82431630D01*
X66957818Y-82452147D01*
X66968046Y-82473771D01*
X66976104Y-82496293D01*
X66981916Y-82519497D01*
X66985426Y-82543158D01*
X66986600Y-82567050D01*
X66986600Y-83054550D01*
X66985426Y-83078442D01*
X66981916Y-83102103D01*
X66976104Y-83125307D01*
X66968046Y-83147829D01*
X66957818Y-83169453D01*
X66945521Y-83189970D01*
X66931271Y-83209183D01*
X66915207Y-83226907D01*
X66897483Y-83242971D01*
X66878270Y-83257221D01*
X66857753Y-83269518D01*
X66836129Y-83279746D01*
X66813607Y-83287804D01*
X66790403Y-83293616D01*
X66766742Y-83297126D01*
X66742850Y-83298300D01*
X65830350Y-83298300D01*
X65806458Y-83297126D01*
X65782797Y-83293616D01*
X65759593Y-83287804D01*
X65737071Y-83279746D01*
X65715447Y-83269518D01*
X65694930Y-83257221D01*
X65675717Y-83242971D01*
X65657993Y-83226907D01*
X65641929Y-83209183D01*
X65627679Y-83189970D01*
X65615382Y-83169453D01*
X65605154Y-83147829D01*
X65597096Y-83125307D01*
X65591284Y-83102103D01*
X65587774Y-83078442D01*
X65586600Y-83054550D01*
X65586600Y-82567050D01*
X65587774Y-82543158D01*
X65591284Y-82519497D01*
X65597096Y-82496293D01*
X65605154Y-82473771D01*
X65615382Y-82452147D01*
X65627679Y-82431630D01*
X65641929Y-82412417D01*
X65657993Y-82394693D01*
X65675717Y-82378629D01*
X65694930Y-82364379D01*
X65715447Y-82352082D01*
X65737071Y-82341854D01*
X65759593Y-82333796D01*
X65782797Y-82327984D01*
X65806458Y-82324474D01*
X65830350Y-82323300D01*
X66742850Y-82323300D01*
X66766742Y-82324474D01*
X66766742Y-82324474D01*
G37*
D14*
X66286600Y-82810800D03*
D13*
G36*
X66766742Y-80449474D02*
G01*
X66790403Y-80452984D01*
X66813607Y-80458796D01*
X66836129Y-80466854D01*
X66857753Y-80477082D01*
X66878270Y-80489379D01*
X66897483Y-80503629D01*
X66915207Y-80519693D01*
X66931271Y-80537417D01*
X66945521Y-80556630D01*
X66957818Y-80577147D01*
X66968046Y-80598771D01*
X66976104Y-80621293D01*
X66981916Y-80644497D01*
X66985426Y-80668158D01*
X66986600Y-80692050D01*
X66986600Y-81179550D01*
X66985426Y-81203442D01*
X66981916Y-81227103D01*
X66976104Y-81250307D01*
X66968046Y-81272829D01*
X66957818Y-81294453D01*
X66945521Y-81314970D01*
X66931271Y-81334183D01*
X66915207Y-81351907D01*
X66897483Y-81367971D01*
X66878270Y-81382221D01*
X66857753Y-81394518D01*
X66836129Y-81404746D01*
X66813607Y-81412804D01*
X66790403Y-81418616D01*
X66766742Y-81422126D01*
X66742850Y-81423300D01*
X65830350Y-81423300D01*
X65806458Y-81422126D01*
X65782797Y-81418616D01*
X65759593Y-81412804D01*
X65737071Y-81404746D01*
X65715447Y-81394518D01*
X65694930Y-81382221D01*
X65675717Y-81367971D01*
X65657993Y-81351907D01*
X65641929Y-81334183D01*
X65627679Y-81314970D01*
X65615382Y-81294453D01*
X65605154Y-81272829D01*
X65597096Y-81250307D01*
X65591284Y-81227103D01*
X65587774Y-81203442D01*
X65586600Y-81179550D01*
X65586600Y-80692050D01*
X65587774Y-80668158D01*
X65591284Y-80644497D01*
X65597096Y-80621293D01*
X65605154Y-80598771D01*
X65615382Y-80577147D01*
X65627679Y-80556630D01*
X65641929Y-80537417D01*
X65657993Y-80519693D01*
X65675717Y-80503629D01*
X65694930Y-80489379D01*
X65715447Y-80477082D01*
X65737071Y-80466854D01*
X65759593Y-80458796D01*
X65782797Y-80452984D01*
X65806458Y-80449474D01*
X65830350Y-80448300D01*
X66742850Y-80448300D01*
X66766742Y-80449474D01*
X66766742Y-80449474D01*
G37*
D14*
X66286600Y-80935800D03*
D13*
G36*
X68824142Y-82347574D02*
G01*
X68847803Y-82351084D01*
X68871007Y-82356896D01*
X68893529Y-82364954D01*
X68915153Y-82375182D01*
X68935670Y-82387479D01*
X68954883Y-82401729D01*
X68972607Y-82417793D01*
X68988671Y-82435517D01*
X69002921Y-82454730D01*
X69015218Y-82475247D01*
X69025446Y-82496871D01*
X69033504Y-82519393D01*
X69039316Y-82542597D01*
X69042826Y-82566258D01*
X69044000Y-82590150D01*
X69044000Y-83077650D01*
X69042826Y-83101542D01*
X69039316Y-83125203D01*
X69033504Y-83148407D01*
X69025446Y-83170929D01*
X69015218Y-83192553D01*
X69002921Y-83213070D01*
X68988671Y-83232283D01*
X68972607Y-83250007D01*
X68954883Y-83266071D01*
X68935670Y-83280321D01*
X68915153Y-83292618D01*
X68893529Y-83302846D01*
X68871007Y-83310904D01*
X68847803Y-83316716D01*
X68824142Y-83320226D01*
X68800250Y-83321400D01*
X67887750Y-83321400D01*
X67863858Y-83320226D01*
X67840197Y-83316716D01*
X67816993Y-83310904D01*
X67794471Y-83302846D01*
X67772847Y-83292618D01*
X67752330Y-83280321D01*
X67733117Y-83266071D01*
X67715393Y-83250007D01*
X67699329Y-83232283D01*
X67685079Y-83213070D01*
X67672782Y-83192553D01*
X67662554Y-83170929D01*
X67654496Y-83148407D01*
X67648684Y-83125203D01*
X67645174Y-83101542D01*
X67644000Y-83077650D01*
X67644000Y-82590150D01*
X67645174Y-82566258D01*
X67648684Y-82542597D01*
X67654496Y-82519393D01*
X67662554Y-82496871D01*
X67672782Y-82475247D01*
X67685079Y-82454730D01*
X67699329Y-82435517D01*
X67715393Y-82417793D01*
X67733117Y-82401729D01*
X67752330Y-82387479D01*
X67772847Y-82375182D01*
X67794471Y-82364954D01*
X67816993Y-82356896D01*
X67840197Y-82351084D01*
X67863858Y-82347574D01*
X67887750Y-82346400D01*
X68800250Y-82346400D01*
X68824142Y-82347574D01*
X68824142Y-82347574D01*
G37*
D14*
X68344000Y-82833900D03*
D13*
G36*
X68824142Y-80472574D02*
G01*
X68847803Y-80476084D01*
X68871007Y-80481896D01*
X68893529Y-80489954D01*
X68915153Y-80500182D01*
X68935670Y-80512479D01*
X68954883Y-80526729D01*
X68972607Y-80542793D01*
X68988671Y-80560517D01*
X69002921Y-80579730D01*
X69015218Y-80600247D01*
X69025446Y-80621871D01*
X69033504Y-80644393D01*
X69039316Y-80667597D01*
X69042826Y-80691258D01*
X69044000Y-80715150D01*
X69044000Y-81202650D01*
X69042826Y-81226542D01*
X69039316Y-81250203D01*
X69033504Y-81273407D01*
X69025446Y-81295929D01*
X69015218Y-81317553D01*
X69002921Y-81338070D01*
X68988671Y-81357283D01*
X68972607Y-81375007D01*
X68954883Y-81391071D01*
X68935670Y-81405321D01*
X68915153Y-81417618D01*
X68893529Y-81427846D01*
X68871007Y-81435904D01*
X68847803Y-81441716D01*
X68824142Y-81445226D01*
X68800250Y-81446400D01*
X67887750Y-81446400D01*
X67863858Y-81445226D01*
X67840197Y-81441716D01*
X67816993Y-81435904D01*
X67794471Y-81427846D01*
X67772847Y-81417618D01*
X67752330Y-81405321D01*
X67733117Y-81391071D01*
X67715393Y-81375007D01*
X67699329Y-81357283D01*
X67685079Y-81338070D01*
X67672782Y-81317553D01*
X67662554Y-81295929D01*
X67654496Y-81273407D01*
X67648684Y-81250203D01*
X67645174Y-81226542D01*
X67644000Y-81202650D01*
X67644000Y-80715150D01*
X67645174Y-80691258D01*
X67648684Y-80667597D01*
X67654496Y-80644393D01*
X67662554Y-80621871D01*
X67672782Y-80600247D01*
X67685079Y-80579730D01*
X67699329Y-80560517D01*
X67715393Y-80542793D01*
X67733117Y-80526729D01*
X67752330Y-80512479D01*
X67772847Y-80500182D01*
X67794471Y-80489954D01*
X67816993Y-80481896D01*
X67840197Y-80476084D01*
X67863858Y-80472574D01*
X67887750Y-80471400D01*
X68800250Y-80471400D01*
X68824142Y-80472574D01*
X68824142Y-80472574D01*
G37*
D14*
X68344000Y-80958900D03*
D13*
G36*
X86230142Y-32451174D02*
G01*
X86253803Y-32454684D01*
X86277007Y-32460496D01*
X86299529Y-32468554D01*
X86321153Y-32478782D01*
X86341670Y-32491079D01*
X86360883Y-32505329D01*
X86378607Y-32521393D01*
X86394671Y-32539117D01*
X86408921Y-32558330D01*
X86421218Y-32578847D01*
X86431446Y-32600471D01*
X86439504Y-32622993D01*
X86445316Y-32646197D01*
X86448826Y-32669858D01*
X86450000Y-32693750D01*
X86450000Y-33181250D01*
X86448826Y-33205142D01*
X86445316Y-33228803D01*
X86439504Y-33252007D01*
X86431446Y-33274529D01*
X86421218Y-33296153D01*
X86408921Y-33316670D01*
X86394671Y-33335883D01*
X86378607Y-33353607D01*
X86360883Y-33369671D01*
X86341670Y-33383921D01*
X86321153Y-33396218D01*
X86299529Y-33406446D01*
X86277007Y-33414504D01*
X86253803Y-33420316D01*
X86230142Y-33423826D01*
X86206250Y-33425000D01*
X85293750Y-33425000D01*
X85269858Y-33423826D01*
X85246197Y-33420316D01*
X85222993Y-33414504D01*
X85200471Y-33406446D01*
X85178847Y-33396218D01*
X85158330Y-33383921D01*
X85139117Y-33369671D01*
X85121393Y-33353607D01*
X85105329Y-33335883D01*
X85091079Y-33316670D01*
X85078782Y-33296153D01*
X85068554Y-33274529D01*
X85060496Y-33252007D01*
X85054684Y-33228803D01*
X85051174Y-33205142D01*
X85050000Y-33181250D01*
X85050000Y-32693750D01*
X85051174Y-32669858D01*
X85054684Y-32646197D01*
X85060496Y-32622993D01*
X85068554Y-32600471D01*
X85078782Y-32578847D01*
X85091079Y-32558330D01*
X85105329Y-32539117D01*
X85121393Y-32521393D01*
X85139117Y-32505329D01*
X85158330Y-32491079D01*
X85178847Y-32478782D01*
X85200471Y-32468554D01*
X85222993Y-32460496D01*
X85246197Y-32454684D01*
X85269858Y-32451174D01*
X85293750Y-32450000D01*
X86206250Y-32450000D01*
X86230142Y-32451174D01*
X86230142Y-32451174D01*
G37*
D14*
X85750000Y-32937500D03*
D13*
G36*
X86230142Y-30576174D02*
G01*
X86253803Y-30579684D01*
X86277007Y-30585496D01*
X86299529Y-30593554D01*
X86321153Y-30603782D01*
X86341670Y-30616079D01*
X86360883Y-30630329D01*
X86378607Y-30646393D01*
X86394671Y-30664117D01*
X86408921Y-30683330D01*
X86421218Y-30703847D01*
X86431446Y-30725471D01*
X86439504Y-30747993D01*
X86445316Y-30771197D01*
X86448826Y-30794858D01*
X86450000Y-30818750D01*
X86450000Y-31306250D01*
X86448826Y-31330142D01*
X86445316Y-31353803D01*
X86439504Y-31377007D01*
X86431446Y-31399529D01*
X86421218Y-31421153D01*
X86408921Y-31441670D01*
X86394671Y-31460883D01*
X86378607Y-31478607D01*
X86360883Y-31494671D01*
X86341670Y-31508921D01*
X86321153Y-31521218D01*
X86299529Y-31531446D01*
X86277007Y-31539504D01*
X86253803Y-31545316D01*
X86230142Y-31548826D01*
X86206250Y-31550000D01*
X85293750Y-31550000D01*
X85269858Y-31548826D01*
X85246197Y-31545316D01*
X85222993Y-31539504D01*
X85200471Y-31531446D01*
X85178847Y-31521218D01*
X85158330Y-31508921D01*
X85139117Y-31494671D01*
X85121393Y-31478607D01*
X85105329Y-31460883D01*
X85091079Y-31441670D01*
X85078782Y-31421153D01*
X85068554Y-31399529D01*
X85060496Y-31377007D01*
X85054684Y-31353803D01*
X85051174Y-31330142D01*
X85050000Y-31306250D01*
X85050000Y-30818750D01*
X85051174Y-30794858D01*
X85054684Y-30771197D01*
X85060496Y-30747993D01*
X85068554Y-30725471D01*
X85078782Y-30703847D01*
X85091079Y-30683330D01*
X85105329Y-30664117D01*
X85121393Y-30646393D01*
X85139117Y-30630329D01*
X85158330Y-30616079D01*
X85178847Y-30603782D01*
X85200471Y-30593554D01*
X85222993Y-30585496D01*
X85246197Y-30579684D01*
X85269858Y-30576174D01*
X85293750Y-30575000D01*
X86206250Y-30575000D01*
X86230142Y-30576174D01*
X86230142Y-30576174D01*
G37*
D14*
X85750000Y-31062500D03*
D13*
G36*
X57484342Y-63360574D02*
G01*
X57508003Y-63364084D01*
X57531207Y-63369896D01*
X57553729Y-63377954D01*
X57575353Y-63388182D01*
X57595870Y-63400479D01*
X57615083Y-63414729D01*
X57632807Y-63430793D01*
X57648871Y-63448517D01*
X57663121Y-63467730D01*
X57675418Y-63488247D01*
X57685646Y-63509871D01*
X57693704Y-63532393D01*
X57699516Y-63555597D01*
X57703026Y-63579258D01*
X57704200Y-63603150D01*
X57704200Y-64090650D01*
X57703026Y-64114542D01*
X57699516Y-64138203D01*
X57693704Y-64161407D01*
X57685646Y-64183929D01*
X57675418Y-64205553D01*
X57663121Y-64226070D01*
X57648871Y-64245283D01*
X57632807Y-64263007D01*
X57615083Y-64279071D01*
X57595870Y-64293321D01*
X57575353Y-64305618D01*
X57553729Y-64315846D01*
X57531207Y-64323904D01*
X57508003Y-64329716D01*
X57484342Y-64333226D01*
X57460450Y-64334400D01*
X56547950Y-64334400D01*
X56524058Y-64333226D01*
X56500397Y-64329716D01*
X56477193Y-64323904D01*
X56454671Y-64315846D01*
X56433047Y-64305618D01*
X56412530Y-64293321D01*
X56393317Y-64279071D01*
X56375593Y-64263007D01*
X56359529Y-64245283D01*
X56345279Y-64226070D01*
X56332982Y-64205553D01*
X56322754Y-64183929D01*
X56314696Y-64161407D01*
X56308884Y-64138203D01*
X56305374Y-64114542D01*
X56304200Y-64090650D01*
X56304200Y-63603150D01*
X56305374Y-63579258D01*
X56308884Y-63555597D01*
X56314696Y-63532393D01*
X56322754Y-63509871D01*
X56332982Y-63488247D01*
X56345279Y-63467730D01*
X56359529Y-63448517D01*
X56375593Y-63430793D01*
X56393317Y-63414729D01*
X56412530Y-63400479D01*
X56433047Y-63388182D01*
X56454671Y-63377954D01*
X56477193Y-63369896D01*
X56500397Y-63364084D01*
X56524058Y-63360574D01*
X56547950Y-63359400D01*
X57460450Y-63359400D01*
X57484342Y-63360574D01*
X57484342Y-63360574D01*
G37*
D14*
X57004200Y-63846900D03*
D13*
G36*
X57484342Y-61485574D02*
G01*
X57508003Y-61489084D01*
X57531207Y-61494896D01*
X57553729Y-61502954D01*
X57575353Y-61513182D01*
X57595870Y-61525479D01*
X57615083Y-61539729D01*
X57632807Y-61555793D01*
X57648871Y-61573517D01*
X57663121Y-61592730D01*
X57675418Y-61613247D01*
X57685646Y-61634871D01*
X57693704Y-61657393D01*
X57699516Y-61680597D01*
X57703026Y-61704258D01*
X57704200Y-61728150D01*
X57704200Y-62215650D01*
X57703026Y-62239542D01*
X57699516Y-62263203D01*
X57693704Y-62286407D01*
X57685646Y-62308929D01*
X57675418Y-62330553D01*
X57663121Y-62351070D01*
X57648871Y-62370283D01*
X57632807Y-62388007D01*
X57615083Y-62404071D01*
X57595870Y-62418321D01*
X57575353Y-62430618D01*
X57553729Y-62440846D01*
X57531207Y-62448904D01*
X57508003Y-62454716D01*
X57484342Y-62458226D01*
X57460450Y-62459400D01*
X56547950Y-62459400D01*
X56524058Y-62458226D01*
X56500397Y-62454716D01*
X56477193Y-62448904D01*
X56454671Y-62440846D01*
X56433047Y-62430618D01*
X56412530Y-62418321D01*
X56393317Y-62404071D01*
X56375593Y-62388007D01*
X56359529Y-62370283D01*
X56345279Y-62351070D01*
X56332982Y-62330553D01*
X56322754Y-62308929D01*
X56314696Y-62286407D01*
X56308884Y-62263203D01*
X56305374Y-62239542D01*
X56304200Y-62215650D01*
X56304200Y-61728150D01*
X56305374Y-61704258D01*
X56308884Y-61680597D01*
X56314696Y-61657393D01*
X56322754Y-61634871D01*
X56332982Y-61613247D01*
X56345279Y-61592730D01*
X56359529Y-61573517D01*
X56375593Y-61555793D01*
X56393317Y-61539729D01*
X56412530Y-61525479D01*
X56433047Y-61513182D01*
X56454671Y-61502954D01*
X56477193Y-61494896D01*
X56500397Y-61489084D01*
X56524058Y-61485574D01*
X56547950Y-61484400D01*
X57460450Y-61484400D01*
X57484342Y-61485574D01*
X57484342Y-61485574D01*
G37*
D14*
X57004200Y-61971900D03*
D13*
G36*
X63404642Y-72713974D02*
G01*
X63428303Y-72717484D01*
X63451507Y-72723296D01*
X63474029Y-72731354D01*
X63495653Y-72741582D01*
X63516170Y-72753879D01*
X63535383Y-72768129D01*
X63553107Y-72784193D01*
X63569171Y-72801917D01*
X63583421Y-72821130D01*
X63595718Y-72841647D01*
X63605946Y-72863271D01*
X63614004Y-72885793D01*
X63619816Y-72908997D01*
X63623326Y-72932658D01*
X63624500Y-72956550D01*
X63624500Y-73869050D01*
X63623326Y-73892942D01*
X63619816Y-73916603D01*
X63614004Y-73939807D01*
X63605946Y-73962329D01*
X63595718Y-73983953D01*
X63583421Y-74004470D01*
X63569171Y-74023683D01*
X63553107Y-74041407D01*
X63535383Y-74057471D01*
X63516170Y-74071721D01*
X63495653Y-74084018D01*
X63474029Y-74094246D01*
X63451507Y-74102304D01*
X63428303Y-74108116D01*
X63404642Y-74111626D01*
X63380750Y-74112800D01*
X62893250Y-74112800D01*
X62869358Y-74111626D01*
X62845697Y-74108116D01*
X62822493Y-74102304D01*
X62799971Y-74094246D01*
X62778347Y-74084018D01*
X62757830Y-74071721D01*
X62738617Y-74057471D01*
X62720893Y-74041407D01*
X62704829Y-74023683D01*
X62690579Y-74004470D01*
X62678282Y-73983953D01*
X62668054Y-73962329D01*
X62659996Y-73939807D01*
X62654184Y-73916603D01*
X62650674Y-73892942D01*
X62649500Y-73869050D01*
X62649500Y-72956550D01*
X62650674Y-72932658D01*
X62654184Y-72908997D01*
X62659996Y-72885793D01*
X62668054Y-72863271D01*
X62678282Y-72841647D01*
X62690579Y-72821130D01*
X62704829Y-72801917D01*
X62720893Y-72784193D01*
X62738617Y-72768129D01*
X62757830Y-72753879D01*
X62778347Y-72741582D01*
X62799971Y-72731354D01*
X62822493Y-72723296D01*
X62845697Y-72717484D01*
X62869358Y-72713974D01*
X62893250Y-72712800D01*
X63380750Y-72712800D01*
X63404642Y-72713974D01*
X63404642Y-72713974D01*
G37*
D14*
X63137000Y-73412800D03*
D13*
G36*
X61529642Y-72713974D02*
G01*
X61553303Y-72717484D01*
X61576507Y-72723296D01*
X61599029Y-72731354D01*
X61620653Y-72741582D01*
X61641170Y-72753879D01*
X61660383Y-72768129D01*
X61678107Y-72784193D01*
X61694171Y-72801917D01*
X61708421Y-72821130D01*
X61720718Y-72841647D01*
X61730946Y-72863271D01*
X61739004Y-72885793D01*
X61744816Y-72908997D01*
X61748326Y-72932658D01*
X61749500Y-72956550D01*
X61749500Y-73869050D01*
X61748326Y-73892942D01*
X61744816Y-73916603D01*
X61739004Y-73939807D01*
X61730946Y-73962329D01*
X61720718Y-73983953D01*
X61708421Y-74004470D01*
X61694171Y-74023683D01*
X61678107Y-74041407D01*
X61660383Y-74057471D01*
X61641170Y-74071721D01*
X61620653Y-74084018D01*
X61599029Y-74094246D01*
X61576507Y-74102304D01*
X61553303Y-74108116D01*
X61529642Y-74111626D01*
X61505750Y-74112800D01*
X61018250Y-74112800D01*
X60994358Y-74111626D01*
X60970697Y-74108116D01*
X60947493Y-74102304D01*
X60924971Y-74094246D01*
X60903347Y-74084018D01*
X60882830Y-74071721D01*
X60863617Y-74057471D01*
X60845893Y-74041407D01*
X60829829Y-74023683D01*
X60815579Y-74004470D01*
X60803282Y-73983953D01*
X60793054Y-73962329D01*
X60784996Y-73939807D01*
X60779184Y-73916603D01*
X60775674Y-73892942D01*
X60774500Y-73869050D01*
X60774500Y-72956550D01*
X60775674Y-72932658D01*
X60779184Y-72908997D01*
X60784996Y-72885793D01*
X60793054Y-72863271D01*
X60803282Y-72841647D01*
X60815579Y-72821130D01*
X60829829Y-72801917D01*
X60845893Y-72784193D01*
X60863617Y-72768129D01*
X60882830Y-72753879D01*
X60903347Y-72741582D01*
X60924971Y-72731354D01*
X60947493Y-72723296D01*
X60970697Y-72717484D01*
X60994358Y-72713974D01*
X61018250Y-72712800D01*
X61505750Y-72712800D01*
X61529642Y-72713974D01*
X61529642Y-72713974D01*
G37*
D14*
X61262000Y-73412800D03*
D13*
G36*
X73204342Y-70140574D02*
G01*
X73228003Y-70144084D01*
X73251207Y-70149896D01*
X73273729Y-70157954D01*
X73295353Y-70168182D01*
X73315870Y-70180479D01*
X73335083Y-70194729D01*
X73352807Y-70210793D01*
X73368871Y-70228517D01*
X73383121Y-70247730D01*
X73395418Y-70268247D01*
X73405646Y-70289871D01*
X73413704Y-70312393D01*
X73419516Y-70335597D01*
X73423026Y-70359258D01*
X73424200Y-70383150D01*
X73424200Y-70870650D01*
X73423026Y-70894542D01*
X73419516Y-70918203D01*
X73413704Y-70941407D01*
X73405646Y-70963929D01*
X73395418Y-70985553D01*
X73383121Y-71006070D01*
X73368871Y-71025283D01*
X73352807Y-71043007D01*
X73335083Y-71059071D01*
X73315870Y-71073321D01*
X73295353Y-71085618D01*
X73273729Y-71095846D01*
X73251207Y-71103904D01*
X73228003Y-71109716D01*
X73204342Y-71113226D01*
X73180450Y-71114400D01*
X72267950Y-71114400D01*
X72244058Y-71113226D01*
X72220397Y-71109716D01*
X72197193Y-71103904D01*
X72174671Y-71095846D01*
X72153047Y-71085618D01*
X72132530Y-71073321D01*
X72113317Y-71059071D01*
X72095593Y-71043007D01*
X72079529Y-71025283D01*
X72065279Y-71006070D01*
X72052982Y-70985553D01*
X72042754Y-70963929D01*
X72034696Y-70941407D01*
X72028884Y-70918203D01*
X72025374Y-70894542D01*
X72024200Y-70870650D01*
X72024200Y-70383150D01*
X72025374Y-70359258D01*
X72028884Y-70335597D01*
X72034696Y-70312393D01*
X72042754Y-70289871D01*
X72052982Y-70268247D01*
X72065279Y-70247730D01*
X72079529Y-70228517D01*
X72095593Y-70210793D01*
X72113317Y-70194729D01*
X72132530Y-70180479D01*
X72153047Y-70168182D01*
X72174671Y-70157954D01*
X72197193Y-70149896D01*
X72220397Y-70144084D01*
X72244058Y-70140574D01*
X72267950Y-70139400D01*
X73180450Y-70139400D01*
X73204342Y-70140574D01*
X73204342Y-70140574D01*
G37*
D14*
X72724200Y-70626900D03*
D13*
G36*
X73204342Y-68265574D02*
G01*
X73228003Y-68269084D01*
X73251207Y-68274896D01*
X73273729Y-68282954D01*
X73295353Y-68293182D01*
X73315870Y-68305479D01*
X73335083Y-68319729D01*
X73352807Y-68335793D01*
X73368871Y-68353517D01*
X73383121Y-68372730D01*
X73395418Y-68393247D01*
X73405646Y-68414871D01*
X73413704Y-68437393D01*
X73419516Y-68460597D01*
X73423026Y-68484258D01*
X73424200Y-68508150D01*
X73424200Y-68995650D01*
X73423026Y-69019542D01*
X73419516Y-69043203D01*
X73413704Y-69066407D01*
X73405646Y-69088929D01*
X73395418Y-69110553D01*
X73383121Y-69131070D01*
X73368871Y-69150283D01*
X73352807Y-69168007D01*
X73335083Y-69184071D01*
X73315870Y-69198321D01*
X73295353Y-69210618D01*
X73273729Y-69220846D01*
X73251207Y-69228904D01*
X73228003Y-69234716D01*
X73204342Y-69238226D01*
X73180450Y-69239400D01*
X72267950Y-69239400D01*
X72244058Y-69238226D01*
X72220397Y-69234716D01*
X72197193Y-69228904D01*
X72174671Y-69220846D01*
X72153047Y-69210618D01*
X72132530Y-69198321D01*
X72113317Y-69184071D01*
X72095593Y-69168007D01*
X72079529Y-69150283D01*
X72065279Y-69131070D01*
X72052982Y-69110553D01*
X72042754Y-69088929D01*
X72034696Y-69066407D01*
X72028884Y-69043203D01*
X72025374Y-69019542D01*
X72024200Y-68995650D01*
X72024200Y-68508150D01*
X72025374Y-68484258D01*
X72028884Y-68460597D01*
X72034696Y-68437393D01*
X72042754Y-68414871D01*
X72052982Y-68393247D01*
X72065279Y-68372730D01*
X72079529Y-68353517D01*
X72095593Y-68335793D01*
X72113317Y-68319729D01*
X72132530Y-68305479D01*
X72153047Y-68293182D01*
X72174671Y-68282954D01*
X72197193Y-68274896D01*
X72220397Y-68269084D01*
X72244058Y-68265574D01*
X72267950Y-68264400D01*
X73180450Y-68264400D01*
X73204342Y-68265574D01*
X73204342Y-68265574D01*
G37*
D14*
X72724200Y-68751900D03*
D13*
G36*
X69331842Y-56340574D02*
G01*
X69355503Y-56344084D01*
X69378707Y-56349896D01*
X69401229Y-56357954D01*
X69422853Y-56368182D01*
X69443370Y-56380479D01*
X69462583Y-56394729D01*
X69480307Y-56410793D01*
X69496371Y-56428517D01*
X69510621Y-56447730D01*
X69522918Y-56468247D01*
X69533146Y-56489871D01*
X69541204Y-56512393D01*
X69547016Y-56535597D01*
X69550526Y-56559258D01*
X69551700Y-56583150D01*
X69551700Y-57495650D01*
X69550526Y-57519542D01*
X69547016Y-57543203D01*
X69541204Y-57566407D01*
X69533146Y-57588929D01*
X69522918Y-57610553D01*
X69510621Y-57631070D01*
X69496371Y-57650283D01*
X69480307Y-57668007D01*
X69462583Y-57684071D01*
X69443370Y-57698321D01*
X69422853Y-57710618D01*
X69401229Y-57720846D01*
X69378707Y-57728904D01*
X69355503Y-57734716D01*
X69331842Y-57738226D01*
X69307950Y-57739400D01*
X68820450Y-57739400D01*
X68796558Y-57738226D01*
X68772897Y-57734716D01*
X68749693Y-57728904D01*
X68727171Y-57720846D01*
X68705547Y-57710618D01*
X68685030Y-57698321D01*
X68665817Y-57684071D01*
X68648093Y-57668007D01*
X68632029Y-57650283D01*
X68617779Y-57631070D01*
X68605482Y-57610553D01*
X68595254Y-57588929D01*
X68587196Y-57566407D01*
X68581384Y-57543203D01*
X68577874Y-57519542D01*
X68576700Y-57495650D01*
X68576700Y-56583150D01*
X68577874Y-56559258D01*
X68581384Y-56535597D01*
X68587196Y-56512393D01*
X68595254Y-56489871D01*
X68605482Y-56468247D01*
X68617779Y-56447730D01*
X68632029Y-56428517D01*
X68648093Y-56410793D01*
X68665817Y-56394729D01*
X68685030Y-56380479D01*
X68705547Y-56368182D01*
X68727171Y-56357954D01*
X68749693Y-56349896D01*
X68772897Y-56344084D01*
X68796558Y-56340574D01*
X68820450Y-56339400D01*
X69307950Y-56339400D01*
X69331842Y-56340574D01*
X69331842Y-56340574D01*
G37*
D14*
X69064200Y-57039400D03*
D13*
G36*
X71206842Y-56340574D02*
G01*
X71230503Y-56344084D01*
X71253707Y-56349896D01*
X71276229Y-56357954D01*
X71297853Y-56368182D01*
X71318370Y-56380479D01*
X71337583Y-56394729D01*
X71355307Y-56410793D01*
X71371371Y-56428517D01*
X71385621Y-56447730D01*
X71397918Y-56468247D01*
X71408146Y-56489871D01*
X71416204Y-56512393D01*
X71422016Y-56535597D01*
X71425526Y-56559258D01*
X71426700Y-56583150D01*
X71426700Y-57495650D01*
X71425526Y-57519542D01*
X71422016Y-57543203D01*
X71416204Y-57566407D01*
X71408146Y-57588929D01*
X71397918Y-57610553D01*
X71385621Y-57631070D01*
X71371371Y-57650283D01*
X71355307Y-57668007D01*
X71337583Y-57684071D01*
X71318370Y-57698321D01*
X71297853Y-57710618D01*
X71276229Y-57720846D01*
X71253707Y-57728904D01*
X71230503Y-57734716D01*
X71206842Y-57738226D01*
X71182950Y-57739400D01*
X70695450Y-57739400D01*
X70671558Y-57738226D01*
X70647897Y-57734716D01*
X70624693Y-57728904D01*
X70602171Y-57720846D01*
X70580547Y-57710618D01*
X70560030Y-57698321D01*
X70540817Y-57684071D01*
X70523093Y-57668007D01*
X70507029Y-57650283D01*
X70492779Y-57631070D01*
X70480482Y-57610553D01*
X70470254Y-57588929D01*
X70462196Y-57566407D01*
X70456384Y-57543203D01*
X70452874Y-57519542D01*
X70451700Y-57495650D01*
X70451700Y-56583150D01*
X70452874Y-56559258D01*
X70456384Y-56535597D01*
X70462196Y-56512393D01*
X70470254Y-56489871D01*
X70480482Y-56468247D01*
X70492779Y-56447730D01*
X70507029Y-56428517D01*
X70523093Y-56410793D01*
X70540817Y-56394729D01*
X70560030Y-56380479D01*
X70580547Y-56368182D01*
X70602171Y-56357954D01*
X70624693Y-56349896D01*
X70647897Y-56344084D01*
X70671558Y-56340574D01*
X70695450Y-56339400D01*
X71182950Y-56339400D01*
X71206842Y-56340574D01*
X71206842Y-56340574D01*
G37*
D14*
X70939200Y-57039400D03*
D13*
G36*
X61139342Y-56300574D02*
G01*
X61163003Y-56304084D01*
X61186207Y-56309896D01*
X61208729Y-56317954D01*
X61230353Y-56328182D01*
X61250870Y-56340479D01*
X61270083Y-56354729D01*
X61287807Y-56370793D01*
X61303871Y-56388517D01*
X61318121Y-56407730D01*
X61330418Y-56428247D01*
X61340646Y-56449871D01*
X61348704Y-56472393D01*
X61354516Y-56495597D01*
X61358026Y-56519258D01*
X61359200Y-56543150D01*
X61359200Y-57455650D01*
X61358026Y-57479542D01*
X61354516Y-57503203D01*
X61348704Y-57526407D01*
X61340646Y-57548929D01*
X61330418Y-57570553D01*
X61318121Y-57591070D01*
X61303871Y-57610283D01*
X61287807Y-57628007D01*
X61270083Y-57644071D01*
X61250870Y-57658321D01*
X61230353Y-57670618D01*
X61208729Y-57680846D01*
X61186207Y-57688904D01*
X61163003Y-57694716D01*
X61139342Y-57698226D01*
X61115450Y-57699400D01*
X60627950Y-57699400D01*
X60604058Y-57698226D01*
X60580397Y-57694716D01*
X60557193Y-57688904D01*
X60534671Y-57680846D01*
X60513047Y-57670618D01*
X60492530Y-57658321D01*
X60473317Y-57644071D01*
X60455593Y-57628007D01*
X60439529Y-57610283D01*
X60425279Y-57591070D01*
X60412982Y-57570553D01*
X60402754Y-57548929D01*
X60394696Y-57526407D01*
X60388884Y-57503203D01*
X60385374Y-57479542D01*
X60384200Y-57455650D01*
X60384200Y-56543150D01*
X60385374Y-56519258D01*
X60388884Y-56495597D01*
X60394696Y-56472393D01*
X60402754Y-56449871D01*
X60412982Y-56428247D01*
X60425279Y-56407730D01*
X60439529Y-56388517D01*
X60455593Y-56370793D01*
X60473317Y-56354729D01*
X60492530Y-56340479D01*
X60513047Y-56328182D01*
X60534671Y-56317954D01*
X60557193Y-56309896D01*
X60580397Y-56304084D01*
X60604058Y-56300574D01*
X60627950Y-56299400D01*
X61115450Y-56299400D01*
X61139342Y-56300574D01*
X61139342Y-56300574D01*
G37*
D14*
X60871700Y-56999400D03*
D13*
G36*
X59264342Y-56300574D02*
G01*
X59288003Y-56304084D01*
X59311207Y-56309896D01*
X59333729Y-56317954D01*
X59355353Y-56328182D01*
X59375870Y-56340479D01*
X59395083Y-56354729D01*
X59412807Y-56370793D01*
X59428871Y-56388517D01*
X59443121Y-56407730D01*
X59455418Y-56428247D01*
X59465646Y-56449871D01*
X59473704Y-56472393D01*
X59479516Y-56495597D01*
X59483026Y-56519258D01*
X59484200Y-56543150D01*
X59484200Y-57455650D01*
X59483026Y-57479542D01*
X59479516Y-57503203D01*
X59473704Y-57526407D01*
X59465646Y-57548929D01*
X59455418Y-57570553D01*
X59443121Y-57591070D01*
X59428871Y-57610283D01*
X59412807Y-57628007D01*
X59395083Y-57644071D01*
X59375870Y-57658321D01*
X59355353Y-57670618D01*
X59333729Y-57680846D01*
X59311207Y-57688904D01*
X59288003Y-57694716D01*
X59264342Y-57698226D01*
X59240450Y-57699400D01*
X58752950Y-57699400D01*
X58729058Y-57698226D01*
X58705397Y-57694716D01*
X58682193Y-57688904D01*
X58659671Y-57680846D01*
X58638047Y-57670618D01*
X58617530Y-57658321D01*
X58598317Y-57644071D01*
X58580593Y-57628007D01*
X58564529Y-57610283D01*
X58550279Y-57591070D01*
X58537982Y-57570553D01*
X58527754Y-57548929D01*
X58519696Y-57526407D01*
X58513884Y-57503203D01*
X58510374Y-57479542D01*
X58509200Y-57455650D01*
X58509200Y-56543150D01*
X58510374Y-56519258D01*
X58513884Y-56495597D01*
X58519696Y-56472393D01*
X58527754Y-56449871D01*
X58537982Y-56428247D01*
X58550279Y-56407730D01*
X58564529Y-56388517D01*
X58580593Y-56370793D01*
X58598317Y-56354729D01*
X58617530Y-56340479D01*
X58638047Y-56328182D01*
X58659671Y-56317954D01*
X58682193Y-56309896D01*
X58705397Y-56304084D01*
X58729058Y-56300574D01*
X58752950Y-56299400D01*
X59240450Y-56299400D01*
X59264342Y-56300574D01*
X59264342Y-56300574D01*
G37*
D14*
X58996700Y-56999400D03*
D13*
G36*
X57495742Y-64927774D02*
G01*
X57519403Y-64931284D01*
X57542607Y-64937096D01*
X57565129Y-64945154D01*
X57586753Y-64955382D01*
X57607270Y-64967679D01*
X57626483Y-64981929D01*
X57644207Y-64997993D01*
X57660271Y-65015717D01*
X57674521Y-65034930D01*
X57686818Y-65055447D01*
X57697046Y-65077071D01*
X57705104Y-65099593D01*
X57710916Y-65122797D01*
X57714426Y-65146458D01*
X57715600Y-65170350D01*
X57715600Y-65657850D01*
X57714426Y-65681742D01*
X57710916Y-65705403D01*
X57705104Y-65728607D01*
X57697046Y-65751129D01*
X57686818Y-65772753D01*
X57674521Y-65793270D01*
X57660271Y-65812483D01*
X57644207Y-65830207D01*
X57626483Y-65846271D01*
X57607270Y-65860521D01*
X57586753Y-65872818D01*
X57565129Y-65883046D01*
X57542607Y-65891104D01*
X57519403Y-65896916D01*
X57495742Y-65900426D01*
X57471850Y-65901600D01*
X56559350Y-65901600D01*
X56535458Y-65900426D01*
X56511797Y-65896916D01*
X56488593Y-65891104D01*
X56466071Y-65883046D01*
X56444447Y-65872818D01*
X56423930Y-65860521D01*
X56404717Y-65846271D01*
X56386993Y-65830207D01*
X56370929Y-65812483D01*
X56356679Y-65793270D01*
X56344382Y-65772753D01*
X56334154Y-65751129D01*
X56326096Y-65728607D01*
X56320284Y-65705403D01*
X56316774Y-65681742D01*
X56315600Y-65657850D01*
X56315600Y-65170350D01*
X56316774Y-65146458D01*
X56320284Y-65122797D01*
X56326096Y-65099593D01*
X56334154Y-65077071D01*
X56344382Y-65055447D01*
X56356679Y-65034930D01*
X56370929Y-65015717D01*
X56386993Y-64997993D01*
X56404717Y-64981929D01*
X56423930Y-64967679D01*
X56444447Y-64955382D01*
X56466071Y-64945154D01*
X56488593Y-64937096D01*
X56511797Y-64931284D01*
X56535458Y-64927774D01*
X56559350Y-64926600D01*
X57471850Y-64926600D01*
X57495742Y-64927774D01*
X57495742Y-64927774D01*
G37*
D14*
X57015600Y-65414100D03*
D13*
G36*
X57495742Y-66802774D02*
G01*
X57519403Y-66806284D01*
X57542607Y-66812096D01*
X57565129Y-66820154D01*
X57586753Y-66830382D01*
X57607270Y-66842679D01*
X57626483Y-66856929D01*
X57644207Y-66872993D01*
X57660271Y-66890717D01*
X57674521Y-66909930D01*
X57686818Y-66930447D01*
X57697046Y-66952071D01*
X57705104Y-66974593D01*
X57710916Y-66997797D01*
X57714426Y-67021458D01*
X57715600Y-67045350D01*
X57715600Y-67532850D01*
X57714426Y-67556742D01*
X57710916Y-67580403D01*
X57705104Y-67603607D01*
X57697046Y-67626129D01*
X57686818Y-67647753D01*
X57674521Y-67668270D01*
X57660271Y-67687483D01*
X57644207Y-67705207D01*
X57626483Y-67721271D01*
X57607270Y-67735521D01*
X57586753Y-67747818D01*
X57565129Y-67758046D01*
X57542607Y-67766104D01*
X57519403Y-67771916D01*
X57495742Y-67775426D01*
X57471850Y-67776600D01*
X56559350Y-67776600D01*
X56535458Y-67775426D01*
X56511797Y-67771916D01*
X56488593Y-67766104D01*
X56466071Y-67758046D01*
X56444447Y-67747818D01*
X56423930Y-67735521D01*
X56404717Y-67721271D01*
X56386993Y-67705207D01*
X56370929Y-67687483D01*
X56356679Y-67668270D01*
X56344382Y-67647753D01*
X56334154Y-67626129D01*
X56326096Y-67603607D01*
X56320284Y-67580403D01*
X56316774Y-67556742D01*
X56315600Y-67532850D01*
X56315600Y-67045350D01*
X56316774Y-67021458D01*
X56320284Y-66997797D01*
X56326096Y-66974593D01*
X56334154Y-66952071D01*
X56344382Y-66930447D01*
X56356679Y-66909930D01*
X56370929Y-66890717D01*
X56386993Y-66872993D01*
X56404717Y-66856929D01*
X56423930Y-66842679D01*
X56444447Y-66830382D01*
X56466071Y-66820154D01*
X56488593Y-66812096D01*
X56511797Y-66806284D01*
X56535458Y-66802774D01*
X56559350Y-66801600D01*
X57471850Y-66801600D01*
X57495742Y-66802774D01*
X57495742Y-66802774D01*
G37*
D14*
X57015600Y-67289100D03*
D13*
G36*
X72202342Y-74371974D02*
G01*
X72226003Y-74375484D01*
X72249207Y-74381296D01*
X72271729Y-74389354D01*
X72293353Y-74399582D01*
X72313870Y-74411879D01*
X72333083Y-74426129D01*
X72350807Y-74442193D01*
X72366871Y-74459917D01*
X72381121Y-74479130D01*
X72393418Y-74499647D01*
X72403646Y-74521271D01*
X72411704Y-74543793D01*
X72417516Y-74566997D01*
X72421026Y-74590658D01*
X72422200Y-74614550D01*
X72422200Y-75102050D01*
X72421026Y-75125942D01*
X72417516Y-75149603D01*
X72411704Y-75172807D01*
X72403646Y-75195329D01*
X72393418Y-75216953D01*
X72381121Y-75237470D01*
X72366871Y-75256683D01*
X72350807Y-75274407D01*
X72333083Y-75290471D01*
X72313870Y-75304721D01*
X72293353Y-75317018D01*
X72271729Y-75327246D01*
X72249207Y-75335304D01*
X72226003Y-75341116D01*
X72202342Y-75344626D01*
X72178450Y-75345800D01*
X71265950Y-75345800D01*
X71242058Y-75344626D01*
X71218397Y-75341116D01*
X71195193Y-75335304D01*
X71172671Y-75327246D01*
X71151047Y-75317018D01*
X71130530Y-75304721D01*
X71111317Y-75290471D01*
X71093593Y-75274407D01*
X71077529Y-75256683D01*
X71063279Y-75237470D01*
X71050982Y-75216953D01*
X71040754Y-75195329D01*
X71032696Y-75172807D01*
X71026884Y-75149603D01*
X71023374Y-75125942D01*
X71022200Y-75102050D01*
X71022200Y-74614550D01*
X71023374Y-74590658D01*
X71026884Y-74566997D01*
X71032696Y-74543793D01*
X71040754Y-74521271D01*
X71050982Y-74499647D01*
X71063279Y-74479130D01*
X71077529Y-74459917D01*
X71093593Y-74442193D01*
X71111317Y-74426129D01*
X71130530Y-74411879D01*
X71151047Y-74399582D01*
X71172671Y-74389354D01*
X71195193Y-74381296D01*
X71218397Y-74375484D01*
X71242058Y-74371974D01*
X71265950Y-74370800D01*
X72178450Y-74370800D01*
X72202342Y-74371974D01*
X72202342Y-74371974D01*
G37*
D14*
X71722200Y-74858300D03*
D13*
G36*
X72202342Y-72496974D02*
G01*
X72226003Y-72500484D01*
X72249207Y-72506296D01*
X72271729Y-72514354D01*
X72293353Y-72524582D01*
X72313870Y-72536879D01*
X72333083Y-72551129D01*
X72350807Y-72567193D01*
X72366871Y-72584917D01*
X72381121Y-72604130D01*
X72393418Y-72624647D01*
X72403646Y-72646271D01*
X72411704Y-72668793D01*
X72417516Y-72691997D01*
X72421026Y-72715658D01*
X72422200Y-72739550D01*
X72422200Y-73227050D01*
X72421026Y-73250942D01*
X72417516Y-73274603D01*
X72411704Y-73297807D01*
X72403646Y-73320329D01*
X72393418Y-73341953D01*
X72381121Y-73362470D01*
X72366871Y-73381683D01*
X72350807Y-73399407D01*
X72333083Y-73415471D01*
X72313870Y-73429721D01*
X72293353Y-73442018D01*
X72271729Y-73452246D01*
X72249207Y-73460304D01*
X72226003Y-73466116D01*
X72202342Y-73469626D01*
X72178450Y-73470800D01*
X71265950Y-73470800D01*
X71242058Y-73469626D01*
X71218397Y-73466116D01*
X71195193Y-73460304D01*
X71172671Y-73452246D01*
X71151047Y-73442018D01*
X71130530Y-73429721D01*
X71111317Y-73415471D01*
X71093593Y-73399407D01*
X71077529Y-73381683D01*
X71063279Y-73362470D01*
X71050982Y-73341953D01*
X71040754Y-73320329D01*
X71032696Y-73297807D01*
X71026884Y-73274603D01*
X71023374Y-73250942D01*
X71022200Y-73227050D01*
X71022200Y-72739550D01*
X71023374Y-72715658D01*
X71026884Y-72691997D01*
X71032696Y-72668793D01*
X71040754Y-72646271D01*
X71050982Y-72624647D01*
X71063279Y-72604130D01*
X71077529Y-72584917D01*
X71093593Y-72567193D01*
X71111317Y-72551129D01*
X71130530Y-72536879D01*
X71151047Y-72524582D01*
X71172671Y-72514354D01*
X71195193Y-72506296D01*
X71218397Y-72500484D01*
X71242058Y-72496974D01*
X71265950Y-72495800D01*
X72178450Y-72495800D01*
X72202342Y-72496974D01*
X72202342Y-72496974D01*
G37*
D14*
X71722200Y-72983300D03*
D13*
G36*
X65695242Y-77362174D02*
G01*
X65718903Y-77365684D01*
X65742107Y-77371496D01*
X65764629Y-77379554D01*
X65786253Y-77389782D01*
X65806770Y-77402079D01*
X65825983Y-77416329D01*
X65843707Y-77432393D01*
X65859771Y-77450117D01*
X65874021Y-77469330D01*
X65886318Y-77489847D01*
X65896546Y-77511471D01*
X65904604Y-77533993D01*
X65910416Y-77557197D01*
X65913926Y-77580858D01*
X65915100Y-77604750D01*
X65915100Y-78517250D01*
X65913926Y-78541142D01*
X65910416Y-78564803D01*
X65904604Y-78588007D01*
X65896546Y-78610529D01*
X65886318Y-78632153D01*
X65874021Y-78652670D01*
X65859771Y-78671883D01*
X65843707Y-78689607D01*
X65825983Y-78705671D01*
X65806770Y-78719921D01*
X65786253Y-78732218D01*
X65764629Y-78742446D01*
X65742107Y-78750504D01*
X65718903Y-78756316D01*
X65695242Y-78759826D01*
X65671350Y-78761000D01*
X65183850Y-78761000D01*
X65159958Y-78759826D01*
X65136297Y-78756316D01*
X65113093Y-78750504D01*
X65090571Y-78742446D01*
X65068947Y-78732218D01*
X65048430Y-78719921D01*
X65029217Y-78705671D01*
X65011493Y-78689607D01*
X64995429Y-78671883D01*
X64981179Y-78652670D01*
X64968882Y-78632153D01*
X64958654Y-78610529D01*
X64950596Y-78588007D01*
X64944784Y-78564803D01*
X64941274Y-78541142D01*
X64940100Y-78517250D01*
X64940100Y-77604750D01*
X64941274Y-77580858D01*
X64944784Y-77557197D01*
X64950596Y-77533993D01*
X64958654Y-77511471D01*
X64968882Y-77489847D01*
X64981179Y-77469330D01*
X64995429Y-77450117D01*
X65011493Y-77432393D01*
X65029217Y-77416329D01*
X65048430Y-77402079D01*
X65068947Y-77389782D01*
X65090571Y-77379554D01*
X65113093Y-77371496D01*
X65136297Y-77365684D01*
X65159958Y-77362174D01*
X65183850Y-77361000D01*
X65671350Y-77361000D01*
X65695242Y-77362174D01*
X65695242Y-77362174D01*
G37*
D14*
X65427600Y-78061000D03*
D13*
G36*
X67570242Y-77362174D02*
G01*
X67593903Y-77365684D01*
X67617107Y-77371496D01*
X67639629Y-77379554D01*
X67661253Y-77389782D01*
X67681770Y-77402079D01*
X67700983Y-77416329D01*
X67718707Y-77432393D01*
X67734771Y-77450117D01*
X67749021Y-77469330D01*
X67761318Y-77489847D01*
X67771546Y-77511471D01*
X67779604Y-77533993D01*
X67785416Y-77557197D01*
X67788926Y-77580858D01*
X67790100Y-77604750D01*
X67790100Y-78517250D01*
X67788926Y-78541142D01*
X67785416Y-78564803D01*
X67779604Y-78588007D01*
X67771546Y-78610529D01*
X67761318Y-78632153D01*
X67749021Y-78652670D01*
X67734771Y-78671883D01*
X67718707Y-78689607D01*
X67700983Y-78705671D01*
X67681770Y-78719921D01*
X67661253Y-78732218D01*
X67639629Y-78742446D01*
X67617107Y-78750504D01*
X67593903Y-78756316D01*
X67570242Y-78759826D01*
X67546350Y-78761000D01*
X67058850Y-78761000D01*
X67034958Y-78759826D01*
X67011297Y-78756316D01*
X66988093Y-78750504D01*
X66965571Y-78742446D01*
X66943947Y-78732218D01*
X66923430Y-78719921D01*
X66904217Y-78705671D01*
X66886493Y-78689607D01*
X66870429Y-78671883D01*
X66856179Y-78652670D01*
X66843882Y-78632153D01*
X66833654Y-78610529D01*
X66825596Y-78588007D01*
X66819784Y-78564803D01*
X66816274Y-78541142D01*
X66815100Y-78517250D01*
X66815100Y-77604750D01*
X66816274Y-77580858D01*
X66819784Y-77557197D01*
X66825596Y-77533993D01*
X66833654Y-77511471D01*
X66843882Y-77489847D01*
X66856179Y-77469330D01*
X66870429Y-77450117D01*
X66886493Y-77432393D01*
X66904217Y-77416329D01*
X66923430Y-77402079D01*
X66943947Y-77389782D01*
X66965571Y-77379554D01*
X66988093Y-77371496D01*
X67011297Y-77365684D01*
X67034958Y-77362174D01*
X67058850Y-77361000D01*
X67546350Y-77361000D01*
X67570242Y-77362174D01*
X67570242Y-77362174D01*
G37*
D14*
X67302600Y-78061000D03*
M02*
