G04 #@! TF.GenerationSoftware,KiCad,Pcbnew,(5.1.4)-1*
G04 #@! TF.CreationDate,2022-06-05T15:27:35-07:00*
G04 #@! TF.ProjectId,Birty,42697274-792e-46b6-9963-61645f706362,rev?*
G04 #@! TF.SameCoordinates,Original*
G04 #@! TF.FileFunction,Soldermask,Top*
G04 #@! TF.FilePolarity,Negative*
%FSLAX46Y46*%
G04 Gerber Fmt 4.6, Leading zero omitted, Abs format (unit mm)*
G04 Created by KiCad (PCBNEW (5.1.4)-1) date 2022-06-05 15:27:35*
%MOMM*%
%LPD*%
G04 APERTURE LIST*
%ADD10C,0.100000*%
G04 APERTURE END LIST*
D10*
G36*
X73687915Y-107457334D02*
G01*
X73796491Y-107490271D01*
X73796494Y-107490272D01*
X73809494Y-107497221D01*
X73896556Y-107543756D01*
X73984264Y-107615736D01*
X74056244Y-107703443D01*
X74079530Y-107747009D01*
X74109728Y-107803505D01*
X74109728Y-107803506D01*
X74109729Y-107803508D01*
X74142666Y-107912084D01*
X74151000Y-107996702D01*
X74151000Y-108903298D01*
X74142666Y-108987916D01*
X74112777Y-109086443D01*
X74109728Y-109096495D01*
X74090429Y-109132601D01*
X74056244Y-109196557D01*
X73984264Y-109284264D01*
X73896557Y-109356244D01*
X73832601Y-109390429D01*
X73796495Y-109409728D01*
X73796492Y-109409729D01*
X73687916Y-109442666D01*
X73575000Y-109453787D01*
X73462085Y-109442666D01*
X73353509Y-109409729D01*
X73353506Y-109409728D01*
X73317400Y-109390429D01*
X73253444Y-109356244D01*
X73165737Y-109284264D01*
X73093757Y-109196557D01*
X73059572Y-109132601D01*
X73040273Y-109096495D01*
X73037224Y-109086443D01*
X73007335Y-108987916D01*
X72999000Y-108903298D01*
X72999000Y-107996703D01*
X73007334Y-107912085D01*
X73040271Y-107803509D01*
X73040272Y-107803506D01*
X73059571Y-107767400D01*
X73093756Y-107703444D01*
X73165736Y-107615736D01*
X73253443Y-107543756D01*
X73340505Y-107497221D01*
X73353505Y-107490272D01*
X73353508Y-107490271D01*
X73462084Y-107457334D01*
X73575000Y-107446213D01*
X73687915Y-107457334D01*
X73687915Y-107457334D01*
G37*
G36*
X66537916Y-107457334D02*
G01*
X66646492Y-107490271D01*
X66646495Y-107490272D01*
X66659495Y-107497221D01*
X66746557Y-107543756D01*
X66834264Y-107615736D01*
X66906244Y-107703443D01*
X66929530Y-107747009D01*
X66959728Y-107803505D01*
X66959728Y-107803506D01*
X66959729Y-107803508D01*
X66992666Y-107912084D01*
X67001000Y-107996702D01*
X67001000Y-108903298D01*
X66992666Y-108987916D01*
X66962777Y-109086443D01*
X66959728Y-109096495D01*
X66940429Y-109132601D01*
X66906244Y-109196557D01*
X66834264Y-109284264D01*
X66746556Y-109356244D01*
X66682600Y-109390429D01*
X66646494Y-109409728D01*
X66646491Y-109409729D01*
X66537915Y-109442666D01*
X66425000Y-109453787D01*
X66312084Y-109442666D01*
X66203508Y-109409729D01*
X66203505Y-109409728D01*
X66167399Y-109390429D01*
X66103443Y-109356244D01*
X66015736Y-109284264D01*
X65943756Y-109196556D01*
X65890273Y-109096495D01*
X65890272Y-109096494D01*
X65887223Y-109086442D01*
X65857334Y-108987915D01*
X65849000Y-108903297D01*
X65849000Y-107996702D01*
X65857335Y-107912084D01*
X65890272Y-107803508D01*
X65890273Y-107803506D01*
X65890273Y-107803505D01*
X65920471Y-107747009D01*
X65943757Y-107703443D01*
X66015737Y-107615736D01*
X66103444Y-107543756D01*
X66190506Y-107497221D01*
X66203506Y-107490272D01*
X66203509Y-107490271D01*
X66312085Y-107457334D01*
X66425000Y-107446213D01*
X66537916Y-107457334D01*
X66537916Y-107457334D01*
G37*
G36*
X72051000Y-109451000D02*
G01*
X70199000Y-109451000D01*
X70199000Y-107449000D01*
X72051000Y-107449000D01*
X72051000Y-109451000D01*
X72051000Y-109451000D01*
G37*
G36*
X69801000Y-109451000D02*
G01*
X67949000Y-109451000D01*
X67949000Y-107449000D01*
X69801000Y-107449000D01*
X69801000Y-109451000D01*
X69801000Y-109451000D01*
G37*
G36*
X31690442Y-107355518D02*
G01*
X31756627Y-107362037D01*
X31926466Y-107413557D01*
X31926468Y-107413558D01*
X31992775Y-107449000D01*
X32082991Y-107497222D01*
X32118729Y-107526552D01*
X32220186Y-107609814D01*
X32297024Y-107703443D01*
X32332778Y-107747009D01*
X32416443Y-107903534D01*
X32467963Y-108073373D01*
X32485359Y-108250000D01*
X32467963Y-108426627D01*
X32416443Y-108596466D01*
X32332778Y-108752991D01*
X32303448Y-108788729D01*
X32220186Y-108890186D01*
X32118729Y-108973448D01*
X32082991Y-109002778D01*
X31926466Y-109086443D01*
X31756627Y-109137963D01*
X31690442Y-109144482D01*
X31624260Y-109151000D01*
X31535740Y-109151000D01*
X31469558Y-109144482D01*
X31403373Y-109137963D01*
X31233534Y-109086443D01*
X31077009Y-109002778D01*
X31041271Y-108973448D01*
X30939814Y-108890186D01*
X30856552Y-108788729D01*
X30827222Y-108752991D01*
X30743557Y-108596466D01*
X30692037Y-108426627D01*
X30674641Y-108250000D01*
X30692037Y-108073373D01*
X30743557Y-107903534D01*
X30827222Y-107747009D01*
X30862976Y-107703443D01*
X30939814Y-107609814D01*
X31041271Y-107526552D01*
X31077009Y-107497222D01*
X31167225Y-107449000D01*
X31233532Y-107413558D01*
X31233534Y-107413557D01*
X31403373Y-107362037D01*
X31469558Y-107355518D01*
X31535740Y-107349000D01*
X31624260Y-107349000D01*
X31690442Y-107355518D01*
X31690442Y-107355518D01*
G37*
G36*
X103610442Y-107355518D02*
G01*
X103676627Y-107362037D01*
X103846466Y-107413557D01*
X103846468Y-107413558D01*
X103912775Y-107449000D01*
X104002991Y-107497222D01*
X104038729Y-107526552D01*
X104140186Y-107609814D01*
X104217024Y-107703443D01*
X104252778Y-107747009D01*
X104336443Y-107903534D01*
X104387963Y-108073373D01*
X104405359Y-108250000D01*
X104387963Y-108426627D01*
X104336443Y-108596466D01*
X104252778Y-108752991D01*
X104223448Y-108788729D01*
X104140186Y-108890186D01*
X104038729Y-108973448D01*
X104002991Y-109002778D01*
X103846466Y-109086443D01*
X103676627Y-109137963D01*
X103610442Y-109144482D01*
X103544260Y-109151000D01*
X103455740Y-109151000D01*
X103389558Y-109144482D01*
X103323373Y-109137963D01*
X103153534Y-109086443D01*
X102997009Y-109002778D01*
X102961271Y-108973448D01*
X102859814Y-108890186D01*
X102776552Y-108788729D01*
X102747222Y-108752991D01*
X102663557Y-108596466D01*
X102612037Y-108426627D01*
X102594641Y-108250000D01*
X102612037Y-108073373D01*
X102663557Y-107903534D01*
X102747222Y-107747009D01*
X102782976Y-107703443D01*
X102859814Y-107609814D01*
X102961271Y-107526552D01*
X102997009Y-107497222D01*
X103087225Y-107449000D01*
X103153532Y-107413558D01*
X103153534Y-107413557D01*
X103323373Y-107362037D01*
X103389558Y-107355518D01*
X103455740Y-107349000D01*
X103544260Y-107349000D01*
X103610442Y-107355518D01*
X103610442Y-107355518D01*
G37*
G36*
X39310442Y-107355518D02*
G01*
X39376627Y-107362037D01*
X39546466Y-107413557D01*
X39546468Y-107413558D01*
X39612775Y-107449000D01*
X39702991Y-107497222D01*
X39738729Y-107526552D01*
X39840186Y-107609814D01*
X39917024Y-107703443D01*
X39952778Y-107747009D01*
X40036443Y-107903534D01*
X40087963Y-108073373D01*
X40105359Y-108250000D01*
X40087963Y-108426627D01*
X40036443Y-108596466D01*
X39952778Y-108752991D01*
X39923448Y-108788729D01*
X39840186Y-108890186D01*
X39738729Y-108973448D01*
X39702991Y-109002778D01*
X39546466Y-109086443D01*
X39376627Y-109137963D01*
X39310442Y-109144482D01*
X39244260Y-109151000D01*
X39155740Y-109151000D01*
X39089558Y-109144482D01*
X39023373Y-109137963D01*
X38853534Y-109086443D01*
X38697009Y-109002778D01*
X38661271Y-108973448D01*
X38559814Y-108890186D01*
X38476552Y-108788729D01*
X38447222Y-108752991D01*
X38363557Y-108596466D01*
X38312037Y-108426627D01*
X38294641Y-108250000D01*
X38312037Y-108073373D01*
X38363557Y-107903534D01*
X38447222Y-107747009D01*
X38482976Y-107703443D01*
X38559814Y-107609814D01*
X38661271Y-107526552D01*
X38697009Y-107497222D01*
X38787225Y-107449000D01*
X38853532Y-107413558D01*
X38853534Y-107413557D01*
X39023373Y-107362037D01*
X39089558Y-107355518D01*
X39155740Y-107349000D01*
X39244260Y-107349000D01*
X39310442Y-107355518D01*
X39310442Y-107355518D01*
G37*
G36*
X34230442Y-107355518D02*
G01*
X34296627Y-107362037D01*
X34466466Y-107413557D01*
X34466468Y-107413558D01*
X34532775Y-107449000D01*
X34622991Y-107497222D01*
X34658729Y-107526552D01*
X34760186Y-107609814D01*
X34837024Y-107703443D01*
X34872778Y-107747009D01*
X34956443Y-107903534D01*
X35007963Y-108073373D01*
X35025359Y-108250000D01*
X35007963Y-108426627D01*
X34956443Y-108596466D01*
X34872778Y-108752991D01*
X34843448Y-108788729D01*
X34760186Y-108890186D01*
X34658729Y-108973448D01*
X34622991Y-109002778D01*
X34466466Y-109086443D01*
X34296627Y-109137963D01*
X34230442Y-109144482D01*
X34164260Y-109151000D01*
X34075740Y-109151000D01*
X34009558Y-109144482D01*
X33943373Y-109137963D01*
X33773534Y-109086443D01*
X33617009Y-109002778D01*
X33581271Y-108973448D01*
X33479814Y-108890186D01*
X33396552Y-108788729D01*
X33367222Y-108752991D01*
X33283557Y-108596466D01*
X33232037Y-108426627D01*
X33214641Y-108250000D01*
X33232037Y-108073373D01*
X33283557Y-107903534D01*
X33367222Y-107747009D01*
X33402976Y-107703443D01*
X33479814Y-107609814D01*
X33581271Y-107526552D01*
X33617009Y-107497222D01*
X33707225Y-107449000D01*
X33773532Y-107413558D01*
X33773534Y-107413557D01*
X33943373Y-107362037D01*
X34009558Y-107355518D01*
X34075740Y-107349000D01*
X34164260Y-107349000D01*
X34230442Y-107355518D01*
X34230442Y-107355518D01*
G37*
G36*
X36770442Y-107355518D02*
G01*
X36836627Y-107362037D01*
X37006466Y-107413557D01*
X37006468Y-107413558D01*
X37072775Y-107449000D01*
X37162991Y-107497222D01*
X37198729Y-107526552D01*
X37300186Y-107609814D01*
X37377024Y-107703443D01*
X37412778Y-107747009D01*
X37496443Y-107903534D01*
X37547963Y-108073373D01*
X37565359Y-108250000D01*
X37547963Y-108426627D01*
X37496443Y-108596466D01*
X37412778Y-108752991D01*
X37383448Y-108788729D01*
X37300186Y-108890186D01*
X37198729Y-108973448D01*
X37162991Y-109002778D01*
X37006466Y-109086443D01*
X36836627Y-109137963D01*
X36770442Y-109144482D01*
X36704260Y-109151000D01*
X36615740Y-109151000D01*
X36549558Y-109144482D01*
X36483373Y-109137963D01*
X36313534Y-109086443D01*
X36157009Y-109002778D01*
X36121271Y-108973448D01*
X36019814Y-108890186D01*
X35936552Y-108788729D01*
X35907222Y-108752991D01*
X35823557Y-108596466D01*
X35772037Y-108426627D01*
X35754641Y-108250000D01*
X35772037Y-108073373D01*
X35823557Y-107903534D01*
X35907222Y-107747009D01*
X35942976Y-107703443D01*
X36019814Y-107609814D01*
X36121271Y-107526552D01*
X36157009Y-107497222D01*
X36247225Y-107449000D01*
X36313532Y-107413558D01*
X36313534Y-107413557D01*
X36483373Y-107362037D01*
X36549558Y-107355518D01*
X36615740Y-107349000D01*
X36704260Y-107349000D01*
X36770442Y-107355518D01*
X36770442Y-107355518D01*
G37*
G36*
X29150442Y-107355518D02*
G01*
X29216627Y-107362037D01*
X29386466Y-107413557D01*
X29386468Y-107413558D01*
X29452775Y-107449000D01*
X29542991Y-107497222D01*
X29578729Y-107526552D01*
X29680186Y-107609814D01*
X29757024Y-107703443D01*
X29792778Y-107747009D01*
X29876443Y-107903534D01*
X29927963Y-108073373D01*
X29945359Y-108250000D01*
X29927963Y-108426627D01*
X29876443Y-108596466D01*
X29792778Y-108752991D01*
X29763448Y-108788729D01*
X29680186Y-108890186D01*
X29578729Y-108973448D01*
X29542991Y-109002778D01*
X29386466Y-109086443D01*
X29216627Y-109137963D01*
X29150442Y-109144482D01*
X29084260Y-109151000D01*
X28995740Y-109151000D01*
X28929558Y-109144482D01*
X28863373Y-109137963D01*
X28693534Y-109086443D01*
X28537009Y-109002778D01*
X28501271Y-108973448D01*
X28399814Y-108890186D01*
X28316552Y-108788729D01*
X28287222Y-108752991D01*
X28203557Y-108596466D01*
X28152037Y-108426627D01*
X28134641Y-108250000D01*
X28152037Y-108073373D01*
X28203557Y-107903534D01*
X28287222Y-107747009D01*
X28322976Y-107703443D01*
X28399814Y-107609814D01*
X28501271Y-107526552D01*
X28537009Y-107497222D01*
X28627225Y-107449000D01*
X28693532Y-107413558D01*
X28693534Y-107413557D01*
X28863373Y-107362037D01*
X28929558Y-107355518D01*
X28995740Y-107349000D01*
X29084260Y-107349000D01*
X29150442Y-107355518D01*
X29150442Y-107355518D01*
G37*
G36*
X95990442Y-107355518D02*
G01*
X96056627Y-107362037D01*
X96226466Y-107413557D01*
X96226468Y-107413558D01*
X96292775Y-107449000D01*
X96382991Y-107497222D01*
X96418729Y-107526552D01*
X96520186Y-107609814D01*
X96597024Y-107703443D01*
X96632778Y-107747009D01*
X96716443Y-107903534D01*
X96767963Y-108073373D01*
X96785359Y-108250000D01*
X96767963Y-108426627D01*
X96716443Y-108596466D01*
X96632778Y-108752991D01*
X96603448Y-108788729D01*
X96520186Y-108890186D01*
X96418729Y-108973448D01*
X96382991Y-109002778D01*
X96226466Y-109086443D01*
X96056627Y-109137963D01*
X95990442Y-109144482D01*
X95924260Y-109151000D01*
X95835740Y-109151000D01*
X95769558Y-109144482D01*
X95703373Y-109137963D01*
X95533534Y-109086443D01*
X95377009Y-109002778D01*
X95341271Y-108973448D01*
X95239814Y-108890186D01*
X95156552Y-108788729D01*
X95127222Y-108752991D01*
X95043557Y-108596466D01*
X94992037Y-108426627D01*
X94974641Y-108250000D01*
X94992037Y-108073373D01*
X95043557Y-107903534D01*
X95127222Y-107747009D01*
X95162976Y-107703443D01*
X95239814Y-107609814D01*
X95341271Y-107526552D01*
X95377009Y-107497222D01*
X95467225Y-107449000D01*
X95533532Y-107413558D01*
X95533534Y-107413557D01*
X95703373Y-107362037D01*
X95769558Y-107355518D01*
X95835740Y-107349000D01*
X95924260Y-107349000D01*
X95990442Y-107355518D01*
X95990442Y-107355518D01*
G37*
G36*
X91701000Y-109151000D02*
G01*
X89899000Y-109151000D01*
X89899000Y-107349000D01*
X91701000Y-107349000D01*
X91701000Y-109151000D01*
X91701000Y-109151000D01*
G37*
G36*
X93450442Y-107355518D02*
G01*
X93516627Y-107362037D01*
X93686466Y-107413557D01*
X93686468Y-107413558D01*
X93752775Y-107449000D01*
X93842991Y-107497222D01*
X93878729Y-107526552D01*
X93980186Y-107609814D01*
X94057024Y-107703443D01*
X94092778Y-107747009D01*
X94176443Y-107903534D01*
X94227963Y-108073373D01*
X94245359Y-108250000D01*
X94227963Y-108426627D01*
X94176443Y-108596466D01*
X94092778Y-108752991D01*
X94063448Y-108788729D01*
X93980186Y-108890186D01*
X93878729Y-108973448D01*
X93842991Y-109002778D01*
X93686466Y-109086443D01*
X93516627Y-109137963D01*
X93450442Y-109144482D01*
X93384260Y-109151000D01*
X93295740Y-109151000D01*
X93229558Y-109144482D01*
X93163373Y-109137963D01*
X92993534Y-109086443D01*
X92837009Y-109002778D01*
X92801271Y-108973448D01*
X92699814Y-108890186D01*
X92616552Y-108788729D01*
X92587222Y-108752991D01*
X92503557Y-108596466D01*
X92452037Y-108426627D01*
X92434641Y-108250000D01*
X92452037Y-108073373D01*
X92503557Y-107903534D01*
X92587222Y-107747009D01*
X92622976Y-107703443D01*
X92699814Y-107609814D01*
X92801271Y-107526552D01*
X92837009Y-107497222D01*
X92927225Y-107449000D01*
X92993532Y-107413558D01*
X92993534Y-107413557D01*
X93163373Y-107362037D01*
X93229558Y-107355518D01*
X93295740Y-107349000D01*
X93384260Y-107349000D01*
X93450442Y-107355518D01*
X93450442Y-107355518D01*
G37*
G36*
X101070442Y-107355518D02*
G01*
X101136627Y-107362037D01*
X101306466Y-107413557D01*
X101306468Y-107413558D01*
X101372775Y-107449000D01*
X101462991Y-107497222D01*
X101498729Y-107526552D01*
X101600186Y-107609814D01*
X101677024Y-107703443D01*
X101712778Y-107747009D01*
X101796443Y-107903534D01*
X101847963Y-108073373D01*
X101865359Y-108250000D01*
X101847963Y-108426627D01*
X101796443Y-108596466D01*
X101712778Y-108752991D01*
X101683448Y-108788729D01*
X101600186Y-108890186D01*
X101498729Y-108973448D01*
X101462991Y-109002778D01*
X101306466Y-109086443D01*
X101136627Y-109137963D01*
X101070442Y-109144482D01*
X101004260Y-109151000D01*
X100915740Y-109151000D01*
X100849558Y-109144482D01*
X100783373Y-109137963D01*
X100613534Y-109086443D01*
X100457009Y-109002778D01*
X100421271Y-108973448D01*
X100319814Y-108890186D01*
X100236552Y-108788729D01*
X100207222Y-108752991D01*
X100123557Y-108596466D01*
X100072037Y-108426627D01*
X100054641Y-108250000D01*
X100072037Y-108073373D01*
X100123557Y-107903534D01*
X100207222Y-107747009D01*
X100242976Y-107703443D01*
X100319814Y-107609814D01*
X100421271Y-107526552D01*
X100457009Y-107497222D01*
X100547225Y-107449000D01*
X100613532Y-107413558D01*
X100613534Y-107413557D01*
X100783373Y-107362037D01*
X100849558Y-107355518D01*
X100915740Y-107349000D01*
X101004260Y-107349000D01*
X101070442Y-107355518D01*
X101070442Y-107355518D01*
G37*
G36*
X98530442Y-107355518D02*
G01*
X98596627Y-107362037D01*
X98766466Y-107413557D01*
X98766468Y-107413558D01*
X98832775Y-107449000D01*
X98922991Y-107497222D01*
X98958729Y-107526552D01*
X99060186Y-107609814D01*
X99137024Y-107703443D01*
X99172778Y-107747009D01*
X99256443Y-107903534D01*
X99307963Y-108073373D01*
X99325359Y-108250000D01*
X99307963Y-108426627D01*
X99256443Y-108596466D01*
X99172778Y-108752991D01*
X99143448Y-108788729D01*
X99060186Y-108890186D01*
X98958729Y-108973448D01*
X98922991Y-109002778D01*
X98766466Y-109086443D01*
X98596627Y-109137963D01*
X98530442Y-109144482D01*
X98464260Y-109151000D01*
X98375740Y-109151000D01*
X98309558Y-109144482D01*
X98243373Y-109137963D01*
X98073534Y-109086443D01*
X97917009Y-109002778D01*
X97881271Y-108973448D01*
X97779814Y-108890186D01*
X97696552Y-108788729D01*
X97667222Y-108752991D01*
X97583557Y-108596466D01*
X97532037Y-108426627D01*
X97514641Y-108250000D01*
X97532037Y-108073373D01*
X97583557Y-107903534D01*
X97667222Y-107747009D01*
X97702976Y-107703443D01*
X97779814Y-107609814D01*
X97881271Y-107526552D01*
X97917009Y-107497222D01*
X98007225Y-107449000D01*
X98073532Y-107413558D01*
X98073534Y-107413557D01*
X98243373Y-107362037D01*
X98309558Y-107355518D01*
X98375740Y-107349000D01*
X98464260Y-107349000D01*
X98530442Y-107355518D01*
X98530442Y-107355518D01*
G37*
G36*
X27401000Y-109151000D02*
G01*
X25599000Y-109151000D01*
X25599000Y-107349000D01*
X27401000Y-107349000D01*
X27401000Y-109151000D01*
X27401000Y-109151000D01*
G37*
G36*
X71551000Y-105319001D02*
G01*
X71553402Y-105343387D01*
X71560515Y-105366836D01*
X71572066Y-105388447D01*
X71587611Y-105407389D01*
X71606553Y-105422934D01*
X71628164Y-105434485D01*
X71651613Y-105441598D01*
X71675999Y-105444000D01*
X72946000Y-105444000D01*
X72946000Y-106996000D01*
X71694000Y-106996000D01*
X71694000Y-106675999D01*
X71691598Y-106651613D01*
X71684485Y-106628164D01*
X71672934Y-106606553D01*
X71657389Y-106587611D01*
X71638447Y-106572066D01*
X71616836Y-106560515D01*
X71593387Y-106553402D01*
X71569001Y-106551000D01*
X68430999Y-106551000D01*
X68406613Y-106553402D01*
X68383164Y-106560515D01*
X68361553Y-106572066D01*
X68342611Y-106587611D01*
X68327066Y-106606553D01*
X68315515Y-106628164D01*
X68308402Y-106651613D01*
X68306000Y-106675999D01*
X68306000Y-106996000D01*
X67054000Y-106996000D01*
X67054000Y-105444000D01*
X68324001Y-105444000D01*
X68348387Y-105441598D01*
X68371836Y-105434485D01*
X68393447Y-105422934D01*
X68412389Y-105407389D01*
X68427934Y-105388447D01*
X68439485Y-105366836D01*
X68446598Y-105343387D01*
X68449000Y-105319001D01*
X68449000Y-105049000D01*
X71551000Y-105049000D01*
X71551000Y-105319001D01*
X71551000Y-105319001D01*
G37*
G36*
X60277892Y-104083911D02*
G01*
X60413752Y-104140186D01*
X60451273Y-104155728D01*
X60607311Y-104259989D01*
X60740011Y-104392689D01*
X60745564Y-104401000D01*
X60844273Y-104548729D01*
X60916089Y-104722108D01*
X60952700Y-104906166D01*
X60952700Y-105093834D01*
X60916089Y-105277892D01*
X60856011Y-105422934D01*
X60844272Y-105451273D01*
X60740011Y-105607311D01*
X60607311Y-105740011D01*
X60451273Y-105844272D01*
X60451272Y-105844273D01*
X60451271Y-105844273D01*
X60277892Y-105916089D01*
X60093834Y-105952700D01*
X59906166Y-105952700D01*
X59722108Y-105916089D01*
X59548729Y-105844273D01*
X59548728Y-105844273D01*
X59548727Y-105844272D01*
X59392689Y-105740011D01*
X59259989Y-105607311D01*
X59155728Y-105451273D01*
X59143990Y-105422934D01*
X59083911Y-105277892D01*
X59047300Y-105093834D01*
X59047300Y-104906166D01*
X59083911Y-104722108D01*
X59155727Y-104548729D01*
X59254436Y-104401000D01*
X59259989Y-104392689D01*
X59392689Y-104259989D01*
X59548727Y-104155728D01*
X59586249Y-104140186D01*
X59722108Y-104083911D01*
X59906166Y-104047300D01*
X60093834Y-104047300D01*
X60277892Y-104083911D01*
X60277892Y-104083911D01*
G37*
G36*
X57737892Y-104083911D02*
G01*
X57873752Y-104140186D01*
X57911273Y-104155728D01*
X58067311Y-104259989D01*
X58200011Y-104392689D01*
X58205564Y-104401000D01*
X58304273Y-104548729D01*
X58376089Y-104722108D01*
X58412700Y-104906166D01*
X58412700Y-105093834D01*
X58376089Y-105277892D01*
X58316011Y-105422934D01*
X58304272Y-105451273D01*
X58200011Y-105607311D01*
X58067311Y-105740011D01*
X57911273Y-105844272D01*
X57911272Y-105844273D01*
X57911271Y-105844273D01*
X57737892Y-105916089D01*
X57553834Y-105952700D01*
X57366166Y-105952700D01*
X57182108Y-105916089D01*
X57008729Y-105844273D01*
X57008728Y-105844273D01*
X57008727Y-105844272D01*
X56852689Y-105740011D01*
X56719989Y-105607311D01*
X56615728Y-105451273D01*
X56603990Y-105422934D01*
X56543911Y-105277892D01*
X56507300Y-105093834D01*
X56507300Y-104906166D01*
X56543911Y-104722108D01*
X56615727Y-104548729D01*
X56714436Y-104401000D01*
X56719989Y-104392689D01*
X56852689Y-104259989D01*
X57008727Y-104155728D01*
X57046249Y-104140186D01*
X57182108Y-104083911D01*
X57366166Y-104047300D01*
X57553834Y-104047300D01*
X57737892Y-104083911D01*
X57737892Y-104083911D01*
G37*
G36*
X109151000Y-104401000D02*
G01*
X107349000Y-104401000D01*
X107349000Y-102599000D01*
X109151000Y-102599000D01*
X109151000Y-104401000D01*
X109151000Y-104401000D01*
G37*
G36*
X21860443Y-102605519D02*
G01*
X21926627Y-102612037D01*
X22096466Y-102663557D01*
X22252991Y-102747222D01*
X22288729Y-102776552D01*
X22390186Y-102859814D01*
X22473448Y-102961271D01*
X22502778Y-102997009D01*
X22586443Y-103153534D01*
X22637963Y-103323373D01*
X22655359Y-103500000D01*
X22637963Y-103676627D01*
X22586443Y-103846466D01*
X22502778Y-104002991D01*
X22473448Y-104038729D01*
X22390186Y-104140186D01*
X22288729Y-104223448D01*
X22252991Y-104252778D01*
X22096466Y-104336443D01*
X21926627Y-104387963D01*
X21878642Y-104392689D01*
X21794260Y-104401000D01*
X21705740Y-104401000D01*
X21621358Y-104392689D01*
X21573373Y-104387963D01*
X21403534Y-104336443D01*
X21247009Y-104252778D01*
X21211271Y-104223448D01*
X21109814Y-104140186D01*
X21026552Y-104038729D01*
X20997222Y-104002991D01*
X20913557Y-103846466D01*
X20862037Y-103676627D01*
X20844641Y-103500000D01*
X20862037Y-103323373D01*
X20913557Y-103153534D01*
X20997222Y-102997009D01*
X21026552Y-102961271D01*
X21109814Y-102859814D01*
X21211271Y-102776552D01*
X21247009Y-102747222D01*
X21403534Y-102663557D01*
X21573373Y-102612037D01*
X21639557Y-102605519D01*
X21705740Y-102599000D01*
X21794260Y-102599000D01*
X21860443Y-102605519D01*
X21860443Y-102605519D01*
G37*
G36*
X21860442Y-100065518D02*
G01*
X21926627Y-100072037D01*
X22096466Y-100123557D01*
X22252991Y-100207222D01*
X22288729Y-100236552D01*
X22390186Y-100319814D01*
X22473448Y-100421271D01*
X22502778Y-100457009D01*
X22586443Y-100613534D01*
X22637963Y-100783373D01*
X22655359Y-100960000D01*
X22637963Y-101136627D01*
X22586443Y-101306466D01*
X22502778Y-101462991D01*
X22473448Y-101498729D01*
X22390186Y-101600186D01*
X22288729Y-101683448D01*
X22252991Y-101712778D01*
X22096466Y-101796443D01*
X21926627Y-101847963D01*
X21860442Y-101854482D01*
X21794260Y-101861000D01*
X21705740Y-101861000D01*
X21639558Y-101854482D01*
X21573373Y-101847963D01*
X21403534Y-101796443D01*
X21247009Y-101712778D01*
X21211271Y-101683448D01*
X21109814Y-101600186D01*
X21026552Y-101498729D01*
X20997222Y-101462991D01*
X20913557Y-101306466D01*
X20862037Y-101136627D01*
X20844641Y-100960000D01*
X20862037Y-100783373D01*
X20913557Y-100613534D01*
X20997222Y-100457009D01*
X21026552Y-100421271D01*
X21109814Y-100319814D01*
X21211271Y-100236552D01*
X21247009Y-100207222D01*
X21403534Y-100123557D01*
X21573373Y-100072037D01*
X21639558Y-100065518D01*
X21705740Y-100059000D01*
X21794260Y-100059000D01*
X21860442Y-100065518D01*
X21860442Y-100065518D01*
G37*
G36*
X108360442Y-100065518D02*
G01*
X108426627Y-100072037D01*
X108596466Y-100123557D01*
X108752991Y-100207222D01*
X108788729Y-100236552D01*
X108890186Y-100319814D01*
X108973448Y-100421271D01*
X109002778Y-100457009D01*
X109086443Y-100613534D01*
X109137963Y-100783373D01*
X109155359Y-100960000D01*
X109137963Y-101136627D01*
X109086443Y-101306466D01*
X109002778Y-101462991D01*
X108973448Y-101498729D01*
X108890186Y-101600186D01*
X108788729Y-101683448D01*
X108752991Y-101712778D01*
X108596466Y-101796443D01*
X108426627Y-101847963D01*
X108360442Y-101854482D01*
X108294260Y-101861000D01*
X108205740Y-101861000D01*
X108139558Y-101854482D01*
X108073373Y-101847963D01*
X107903534Y-101796443D01*
X107747009Y-101712778D01*
X107711271Y-101683448D01*
X107609814Y-101600186D01*
X107526552Y-101498729D01*
X107497222Y-101462991D01*
X107413557Y-101306466D01*
X107362037Y-101136627D01*
X107344641Y-100960000D01*
X107362037Y-100783373D01*
X107413557Y-100613534D01*
X107497222Y-100457009D01*
X107526552Y-100421271D01*
X107609814Y-100319814D01*
X107711271Y-100236552D01*
X107747009Y-100207222D01*
X107903534Y-100123557D01*
X108073373Y-100072037D01*
X108139557Y-100065519D01*
X108205740Y-100059000D01*
X108294260Y-100059000D01*
X108360442Y-100065518D01*
X108360442Y-100065518D01*
G37*
G36*
X72974549Y-97121116D02*
G01*
X73085734Y-97143232D01*
X73295203Y-97229997D01*
X73483720Y-97355960D01*
X73644040Y-97516280D01*
X73770003Y-97704797D01*
X73856768Y-97914266D01*
X73857314Y-97917011D01*
X73901000Y-98136635D01*
X73901000Y-98363365D01*
X73878884Y-98474549D01*
X73856768Y-98585734D01*
X73852256Y-98596627D01*
X73781906Y-98766468D01*
X73770003Y-98795203D01*
X73644040Y-98983720D01*
X73483720Y-99144040D01*
X73295203Y-99270003D01*
X73085734Y-99356768D01*
X72974549Y-99378884D01*
X72863365Y-99401000D01*
X72636635Y-99401000D01*
X72525451Y-99378884D01*
X72414266Y-99356768D01*
X72204797Y-99270003D01*
X72016280Y-99144040D01*
X71855960Y-98983720D01*
X71729997Y-98795203D01*
X71718095Y-98766468D01*
X71647744Y-98596627D01*
X71643232Y-98585734D01*
X71621116Y-98474549D01*
X71599000Y-98363365D01*
X71599000Y-98136635D01*
X71642686Y-97917011D01*
X71643232Y-97914266D01*
X71729997Y-97704797D01*
X71855960Y-97516280D01*
X72016280Y-97355960D01*
X72204797Y-97229997D01*
X72414266Y-97143232D01*
X72525451Y-97121116D01*
X72636635Y-97099000D01*
X72863365Y-97099000D01*
X72974549Y-97121116D01*
X72974549Y-97121116D01*
G37*
G36*
X57474549Y-97121116D02*
G01*
X57585734Y-97143232D01*
X57795203Y-97229997D01*
X57983720Y-97355960D01*
X58144040Y-97516280D01*
X58270003Y-97704797D01*
X58356768Y-97914266D01*
X58357314Y-97917011D01*
X58401000Y-98136635D01*
X58401000Y-98363365D01*
X58378884Y-98474549D01*
X58356768Y-98585734D01*
X58352256Y-98596627D01*
X58281906Y-98766468D01*
X58270003Y-98795203D01*
X58144040Y-98983720D01*
X57983720Y-99144040D01*
X57795203Y-99270003D01*
X57585734Y-99356768D01*
X57474549Y-99378884D01*
X57363365Y-99401000D01*
X57136635Y-99401000D01*
X57025451Y-99378884D01*
X56914266Y-99356768D01*
X56704797Y-99270003D01*
X56516280Y-99144040D01*
X56355960Y-98983720D01*
X56229997Y-98795203D01*
X56218095Y-98766468D01*
X56147744Y-98596627D01*
X56143232Y-98585734D01*
X56121116Y-98474549D01*
X56099000Y-98363365D01*
X56099000Y-98136635D01*
X56142686Y-97917011D01*
X56143232Y-97914266D01*
X56229997Y-97704797D01*
X56355960Y-97516280D01*
X56516280Y-97355960D01*
X56704797Y-97229997D01*
X56914266Y-97143232D01*
X57025451Y-97121116D01*
X57136635Y-97099000D01*
X57363365Y-97099000D01*
X57474549Y-97121116D01*
X57474549Y-97121116D01*
G37*
G36*
X108360442Y-97525518D02*
G01*
X108426627Y-97532037D01*
X108596466Y-97583557D01*
X108752991Y-97667222D01*
X108788729Y-97696552D01*
X108890186Y-97779814D01*
X108973448Y-97881271D01*
X109002778Y-97917009D01*
X109086443Y-98073534D01*
X109137963Y-98243373D01*
X109155359Y-98420000D01*
X109137963Y-98596627D01*
X109086443Y-98766466D01*
X109002778Y-98922991D01*
X108973448Y-98958729D01*
X108890186Y-99060186D01*
X108788729Y-99143448D01*
X108752991Y-99172778D01*
X108596466Y-99256443D01*
X108426627Y-99307963D01*
X108360442Y-99314482D01*
X108294260Y-99321000D01*
X108205740Y-99321000D01*
X108139558Y-99314482D01*
X108073373Y-99307963D01*
X107903534Y-99256443D01*
X107747009Y-99172778D01*
X107711271Y-99143448D01*
X107609814Y-99060186D01*
X107526552Y-98958729D01*
X107497222Y-98922991D01*
X107413557Y-98766466D01*
X107362037Y-98596627D01*
X107344641Y-98420000D01*
X107362037Y-98243373D01*
X107413557Y-98073534D01*
X107497222Y-97917009D01*
X107526552Y-97881271D01*
X107609814Y-97779814D01*
X107711271Y-97696552D01*
X107747009Y-97667222D01*
X107903534Y-97583557D01*
X108073373Y-97532037D01*
X108139558Y-97525518D01*
X108205740Y-97519000D01*
X108294260Y-97519000D01*
X108360442Y-97525518D01*
X108360442Y-97525518D01*
G37*
G36*
X21860442Y-97525518D02*
G01*
X21926627Y-97532037D01*
X22096466Y-97583557D01*
X22252991Y-97667222D01*
X22288729Y-97696552D01*
X22390186Y-97779814D01*
X22473448Y-97881271D01*
X22502778Y-97917009D01*
X22586443Y-98073534D01*
X22637963Y-98243373D01*
X22655359Y-98420000D01*
X22637963Y-98596627D01*
X22586443Y-98766466D01*
X22502778Y-98922991D01*
X22473448Y-98958729D01*
X22390186Y-99060186D01*
X22288729Y-99143448D01*
X22252991Y-99172778D01*
X22096466Y-99256443D01*
X21926627Y-99307963D01*
X21860442Y-99314482D01*
X21794260Y-99321000D01*
X21705740Y-99321000D01*
X21639558Y-99314482D01*
X21573373Y-99307963D01*
X21403534Y-99256443D01*
X21247009Y-99172778D01*
X21211271Y-99143448D01*
X21109814Y-99060186D01*
X21026552Y-98958729D01*
X20997222Y-98922991D01*
X20913557Y-98766466D01*
X20862037Y-98596627D01*
X20844641Y-98420000D01*
X20862037Y-98243373D01*
X20913557Y-98073534D01*
X20997222Y-97917009D01*
X21026552Y-97881271D01*
X21109814Y-97779814D01*
X21211271Y-97696552D01*
X21247009Y-97667222D01*
X21403534Y-97583557D01*
X21573373Y-97532037D01*
X21639558Y-97525518D01*
X21705740Y-97519000D01*
X21794260Y-97519000D01*
X21860442Y-97525518D01*
X21860442Y-97525518D01*
G37*
G36*
X108360443Y-94985519D02*
G01*
X108426627Y-94992037D01*
X108596466Y-95043557D01*
X108752991Y-95127222D01*
X108788729Y-95156552D01*
X108890186Y-95239814D01*
X108973448Y-95341271D01*
X109002778Y-95377009D01*
X109086443Y-95533534D01*
X109137963Y-95703373D01*
X109155359Y-95880000D01*
X109137963Y-96056627D01*
X109086443Y-96226466D01*
X109002778Y-96382991D01*
X108973448Y-96418729D01*
X108890186Y-96520186D01*
X108788729Y-96603448D01*
X108752991Y-96632778D01*
X108596466Y-96716443D01*
X108426627Y-96767963D01*
X108360443Y-96774481D01*
X108294260Y-96781000D01*
X108205740Y-96781000D01*
X108139558Y-96774482D01*
X108073373Y-96767963D01*
X107903534Y-96716443D01*
X107747009Y-96632778D01*
X107711271Y-96603448D01*
X107609814Y-96520186D01*
X107526552Y-96418729D01*
X107497222Y-96382991D01*
X107413557Y-96226466D01*
X107362037Y-96056627D01*
X107344641Y-95880000D01*
X107362037Y-95703373D01*
X107413557Y-95533534D01*
X107497222Y-95377009D01*
X107526552Y-95341271D01*
X107609814Y-95239814D01*
X107711271Y-95156552D01*
X107747009Y-95127222D01*
X107903534Y-95043557D01*
X108073373Y-94992037D01*
X108139557Y-94985519D01*
X108205740Y-94979000D01*
X108294260Y-94979000D01*
X108360443Y-94985519D01*
X108360443Y-94985519D01*
G37*
G36*
X21860443Y-94985519D02*
G01*
X21926627Y-94992037D01*
X22096466Y-95043557D01*
X22252991Y-95127222D01*
X22288729Y-95156552D01*
X22390186Y-95239814D01*
X22473448Y-95341271D01*
X22502778Y-95377009D01*
X22586443Y-95533534D01*
X22637963Y-95703373D01*
X22655359Y-95880000D01*
X22637963Y-96056627D01*
X22586443Y-96226466D01*
X22502778Y-96382991D01*
X22473448Y-96418729D01*
X22390186Y-96520186D01*
X22288729Y-96603448D01*
X22252991Y-96632778D01*
X22096466Y-96716443D01*
X21926627Y-96767963D01*
X21860442Y-96774482D01*
X21794260Y-96781000D01*
X21705740Y-96781000D01*
X21639558Y-96774482D01*
X21573373Y-96767963D01*
X21403534Y-96716443D01*
X21247009Y-96632778D01*
X21211271Y-96603448D01*
X21109814Y-96520186D01*
X21026552Y-96418729D01*
X20997222Y-96382991D01*
X20913557Y-96226466D01*
X20862037Y-96056627D01*
X20844641Y-95880000D01*
X20862037Y-95703373D01*
X20913557Y-95533534D01*
X20997222Y-95377009D01*
X21026552Y-95341271D01*
X21109814Y-95239814D01*
X21211271Y-95156552D01*
X21247009Y-95127222D01*
X21403534Y-95043557D01*
X21573373Y-94992037D01*
X21639557Y-94985519D01*
X21705740Y-94979000D01*
X21794260Y-94979000D01*
X21860443Y-94985519D01*
X21860443Y-94985519D01*
G37*
G36*
X40346868Y-92931965D02*
G01*
X40385538Y-92943696D01*
X40421177Y-92962746D01*
X40452417Y-92988383D01*
X40478054Y-93019623D01*
X40497104Y-93055262D01*
X40508835Y-93093932D01*
X40513400Y-93140288D01*
X40513400Y-94216512D01*
X40508835Y-94262868D01*
X40497104Y-94301538D01*
X40478054Y-94337177D01*
X40452417Y-94368417D01*
X40421177Y-94394054D01*
X40385538Y-94413104D01*
X40346868Y-94424835D01*
X40300512Y-94429400D01*
X39649288Y-94429400D01*
X39602932Y-94424835D01*
X39564262Y-94413104D01*
X39528623Y-94394054D01*
X39497383Y-94368417D01*
X39471746Y-94337177D01*
X39452696Y-94301538D01*
X39440965Y-94262868D01*
X39436400Y-94216512D01*
X39436400Y-93140288D01*
X39440965Y-93093932D01*
X39452696Y-93055262D01*
X39471746Y-93019623D01*
X39497383Y-92988383D01*
X39528623Y-92962746D01*
X39564262Y-92943696D01*
X39602932Y-92931965D01*
X39649288Y-92927400D01*
X40300512Y-92927400D01*
X40346868Y-92931965D01*
X40346868Y-92931965D01*
G37*
G36*
X38471868Y-92931965D02*
G01*
X38510538Y-92943696D01*
X38546177Y-92962746D01*
X38577417Y-92988383D01*
X38603054Y-93019623D01*
X38622104Y-93055262D01*
X38633835Y-93093932D01*
X38638400Y-93140288D01*
X38638400Y-94216512D01*
X38633835Y-94262868D01*
X38622104Y-94301538D01*
X38603054Y-94337177D01*
X38577417Y-94368417D01*
X38546177Y-94394054D01*
X38510538Y-94413104D01*
X38471868Y-94424835D01*
X38425512Y-94429400D01*
X37774288Y-94429400D01*
X37727932Y-94424835D01*
X37689262Y-94413104D01*
X37653623Y-94394054D01*
X37622383Y-94368417D01*
X37596746Y-94337177D01*
X37577696Y-94301538D01*
X37565965Y-94262868D01*
X37561400Y-94216512D01*
X37561400Y-93140288D01*
X37565965Y-93093932D01*
X37577696Y-93055262D01*
X37596746Y-93019623D01*
X37622383Y-92988383D01*
X37653623Y-92962746D01*
X37689262Y-92943696D01*
X37727932Y-92931965D01*
X37774288Y-92927400D01*
X38425512Y-92927400D01*
X38471868Y-92931965D01*
X38471868Y-92931965D01*
G37*
G36*
X108360442Y-92445518D02*
G01*
X108426627Y-92452037D01*
X108596466Y-92503557D01*
X108752991Y-92587222D01*
X108788729Y-92616552D01*
X108890186Y-92699814D01*
X108973448Y-92801271D01*
X109002778Y-92837009D01*
X109086443Y-92993534D01*
X109137963Y-93163373D01*
X109155359Y-93340000D01*
X109137963Y-93516627D01*
X109086443Y-93686466D01*
X109002778Y-93842991D01*
X108973448Y-93878729D01*
X108890186Y-93980186D01*
X108788729Y-94063448D01*
X108752991Y-94092778D01*
X108596466Y-94176443D01*
X108426627Y-94227963D01*
X108360443Y-94234481D01*
X108294260Y-94241000D01*
X108205740Y-94241000D01*
X108139557Y-94234481D01*
X108073373Y-94227963D01*
X107903534Y-94176443D01*
X107747009Y-94092778D01*
X107711271Y-94063448D01*
X107609814Y-93980186D01*
X107526552Y-93878729D01*
X107497222Y-93842991D01*
X107413557Y-93686466D01*
X107362037Y-93516627D01*
X107344641Y-93340000D01*
X107362037Y-93163373D01*
X107413557Y-92993534D01*
X107497222Y-92837009D01*
X107526552Y-92801271D01*
X107609814Y-92699814D01*
X107711271Y-92616552D01*
X107747009Y-92587222D01*
X107903534Y-92503557D01*
X108073373Y-92452037D01*
X108139558Y-92445518D01*
X108205740Y-92439000D01*
X108294260Y-92439000D01*
X108360442Y-92445518D01*
X108360442Y-92445518D01*
G37*
G36*
X21860442Y-92445518D02*
G01*
X21926627Y-92452037D01*
X22096466Y-92503557D01*
X22252991Y-92587222D01*
X22288729Y-92616552D01*
X22390186Y-92699814D01*
X22473448Y-92801271D01*
X22502778Y-92837009D01*
X22586443Y-92993534D01*
X22637963Y-93163373D01*
X22655359Y-93340000D01*
X22637963Y-93516627D01*
X22586443Y-93686466D01*
X22502778Y-93842991D01*
X22473448Y-93878729D01*
X22390186Y-93980186D01*
X22288729Y-94063448D01*
X22252991Y-94092778D01*
X22096466Y-94176443D01*
X21926627Y-94227963D01*
X21860443Y-94234481D01*
X21794260Y-94241000D01*
X21705740Y-94241000D01*
X21639557Y-94234481D01*
X21573373Y-94227963D01*
X21403534Y-94176443D01*
X21247009Y-94092778D01*
X21211271Y-94063448D01*
X21109814Y-93980186D01*
X21026552Y-93878729D01*
X20997222Y-93842991D01*
X20913557Y-93686466D01*
X20862037Y-93516627D01*
X20844641Y-93340000D01*
X20862037Y-93163373D01*
X20913557Y-92993534D01*
X20997222Y-92837009D01*
X21026552Y-92801271D01*
X21109814Y-92699814D01*
X21211271Y-92616552D01*
X21247009Y-92587222D01*
X21403534Y-92503557D01*
X21573373Y-92452037D01*
X21639558Y-92445518D01*
X21705740Y-92439000D01*
X21794260Y-92439000D01*
X21860442Y-92445518D01*
X21860442Y-92445518D01*
G37*
G36*
X38497268Y-90899965D02*
G01*
X38535938Y-90911696D01*
X38571577Y-90930746D01*
X38602817Y-90956383D01*
X38628454Y-90987623D01*
X38647504Y-91023262D01*
X38659235Y-91061932D01*
X38663800Y-91108288D01*
X38663800Y-92184512D01*
X38659235Y-92230868D01*
X38647504Y-92269538D01*
X38628454Y-92305177D01*
X38602817Y-92336417D01*
X38571577Y-92362054D01*
X38535938Y-92381104D01*
X38497268Y-92392835D01*
X38450912Y-92397400D01*
X37799688Y-92397400D01*
X37753332Y-92392835D01*
X37714662Y-92381104D01*
X37679023Y-92362054D01*
X37647783Y-92336417D01*
X37622146Y-92305177D01*
X37603096Y-92269538D01*
X37591365Y-92230868D01*
X37586800Y-92184512D01*
X37586800Y-91108288D01*
X37591365Y-91061932D01*
X37603096Y-91023262D01*
X37622146Y-90987623D01*
X37647783Y-90956383D01*
X37679023Y-90930746D01*
X37714662Y-90911696D01*
X37753332Y-90899965D01*
X37799688Y-90895400D01*
X38450912Y-90895400D01*
X38497268Y-90899965D01*
X38497268Y-90899965D01*
G37*
G36*
X40372268Y-90899965D02*
G01*
X40410938Y-90911696D01*
X40446577Y-90930746D01*
X40477817Y-90956383D01*
X40503454Y-90987623D01*
X40522504Y-91023262D01*
X40534235Y-91061932D01*
X40538800Y-91108288D01*
X40538800Y-92184512D01*
X40534235Y-92230868D01*
X40522504Y-92269538D01*
X40503454Y-92305177D01*
X40477817Y-92336417D01*
X40446577Y-92362054D01*
X40410938Y-92381104D01*
X40372268Y-92392835D01*
X40325912Y-92397400D01*
X39674688Y-92397400D01*
X39628332Y-92392835D01*
X39589662Y-92381104D01*
X39554023Y-92362054D01*
X39522783Y-92336417D01*
X39497146Y-92305177D01*
X39478096Y-92269538D01*
X39466365Y-92230868D01*
X39461800Y-92184512D01*
X39461800Y-91108288D01*
X39466365Y-91061932D01*
X39478096Y-91023262D01*
X39497146Y-90987623D01*
X39522783Y-90956383D01*
X39554023Y-90930746D01*
X39589662Y-90911696D01*
X39628332Y-90899965D01*
X39674688Y-90895400D01*
X40325912Y-90895400D01*
X40372268Y-90899965D01*
X40372268Y-90899965D01*
G37*
G36*
X26112697Y-88888800D02*
G01*
X26231579Y-88912447D01*
X26532042Y-89036903D01*
X26802451Y-89217585D01*
X27032415Y-89447549D01*
X27213097Y-89717958D01*
X27337553Y-90018421D01*
X27348426Y-90073082D01*
X27399494Y-90329817D01*
X27401000Y-90337391D01*
X27401000Y-90662609D01*
X27337553Y-90981579D01*
X27213097Y-91282042D01*
X27032415Y-91552451D01*
X26802451Y-91782415D01*
X26532042Y-91963097D01*
X26231579Y-92087553D01*
X26125256Y-92108702D01*
X25912611Y-92151000D01*
X25587389Y-92151000D01*
X25374744Y-92108702D01*
X25268421Y-92087553D01*
X24967958Y-91963097D01*
X24697549Y-91782415D01*
X24467585Y-91552451D01*
X24286903Y-91282042D01*
X24162447Y-90981579D01*
X24099000Y-90662609D01*
X24099000Y-90337391D01*
X24100507Y-90329817D01*
X24151574Y-90073082D01*
X24162447Y-90018421D01*
X24286903Y-89717958D01*
X24467585Y-89447549D01*
X24697549Y-89217585D01*
X24967958Y-89036903D01*
X25268421Y-88912447D01*
X25387303Y-88888800D01*
X25587389Y-88849000D01*
X25912611Y-88849000D01*
X26112697Y-88888800D01*
X26112697Y-88888800D01*
G37*
G36*
X104612697Y-88888800D02*
G01*
X104731579Y-88912447D01*
X105032042Y-89036903D01*
X105302451Y-89217585D01*
X105532415Y-89447549D01*
X105713097Y-89717958D01*
X105837553Y-90018421D01*
X105848426Y-90073082D01*
X105899494Y-90329817D01*
X105901000Y-90337391D01*
X105901000Y-90662609D01*
X105837553Y-90981579D01*
X105713097Y-91282042D01*
X105532415Y-91552451D01*
X105302451Y-91782415D01*
X105032042Y-91963097D01*
X104731579Y-92087553D01*
X104625256Y-92108702D01*
X104412611Y-92151000D01*
X104087389Y-92151000D01*
X103874744Y-92108702D01*
X103768421Y-92087553D01*
X103467958Y-91963097D01*
X103197549Y-91782415D01*
X102967585Y-91552451D01*
X102786903Y-91282042D01*
X102662447Y-90981579D01*
X102599000Y-90662609D01*
X102599000Y-90337391D01*
X102600507Y-90329817D01*
X102651574Y-90073082D01*
X102662447Y-90018421D01*
X102786903Y-89717958D01*
X102967585Y-89447549D01*
X103197549Y-89217585D01*
X103467958Y-89036903D01*
X103768421Y-88912447D01*
X103887303Y-88888800D01*
X104087389Y-88849000D01*
X104412611Y-88849000D01*
X104612697Y-88888800D01*
X104612697Y-88888800D01*
G37*
G36*
X108360443Y-89905519D02*
G01*
X108426627Y-89912037D01*
X108596466Y-89963557D01*
X108752991Y-90047222D01*
X108784500Y-90073081D01*
X108890186Y-90159814D01*
X108973448Y-90261271D01*
X109002778Y-90297009D01*
X109086443Y-90453534D01*
X109137963Y-90623373D01*
X109155359Y-90800000D01*
X109137963Y-90976627D01*
X109086443Y-91146466D01*
X109002778Y-91302991D01*
X108973448Y-91338729D01*
X108890186Y-91440186D01*
X108788729Y-91523448D01*
X108752991Y-91552778D01*
X108596466Y-91636443D01*
X108426627Y-91687963D01*
X108360442Y-91694482D01*
X108294260Y-91701000D01*
X108205740Y-91701000D01*
X108139558Y-91694482D01*
X108073373Y-91687963D01*
X107903534Y-91636443D01*
X107747009Y-91552778D01*
X107711271Y-91523448D01*
X107609814Y-91440186D01*
X107526552Y-91338729D01*
X107497222Y-91302991D01*
X107413557Y-91146466D01*
X107362037Y-90976627D01*
X107344641Y-90800000D01*
X107362037Y-90623373D01*
X107413557Y-90453534D01*
X107497222Y-90297009D01*
X107526552Y-90261271D01*
X107609814Y-90159814D01*
X107715500Y-90073081D01*
X107747009Y-90047222D01*
X107903534Y-89963557D01*
X108073373Y-89912037D01*
X108139557Y-89905519D01*
X108205740Y-89899000D01*
X108294260Y-89899000D01*
X108360443Y-89905519D01*
X108360443Y-89905519D01*
G37*
G36*
X22651000Y-91701000D02*
G01*
X20849000Y-91701000D01*
X20849000Y-89899000D01*
X22651000Y-89899000D01*
X22651000Y-91701000D01*
X22651000Y-91701000D01*
G37*
G36*
X74073650Y-85972888D02*
G01*
X74384869Y-86067296D01*
X74671682Y-86220601D01*
X74671684Y-86220602D01*
X74671683Y-86220602D01*
X74923082Y-86426918D01*
X75129398Y-86678316D01*
X75129401Y-86678320D01*
X75282704Y-86965130D01*
X75377112Y-87276349D01*
X75401000Y-87518893D01*
X75401000Y-88981107D01*
X75377112Y-89223651D01*
X75282704Y-89534870D01*
X75129401Y-89821680D01*
X75129399Y-89821683D01*
X75129398Y-89821684D01*
X74923082Y-90073082D01*
X74681750Y-90271137D01*
X74671680Y-90279401D01*
X74384870Y-90432704D01*
X74073651Y-90527112D01*
X73750000Y-90558988D01*
X73426350Y-90527112D01*
X73115131Y-90432704D01*
X72828321Y-90279401D01*
X72818251Y-90271137D01*
X72576919Y-90073082D01*
X72370603Y-89821684D01*
X72370602Y-89821683D01*
X72370600Y-89821680D01*
X72217295Y-89534867D01*
X72122888Y-89223654D01*
X72099000Y-88981107D01*
X72099000Y-87518894D01*
X72122888Y-87276350D01*
X72217296Y-86965131D01*
X72370601Y-86678318D01*
X72576916Y-86426921D01*
X72576918Y-86426918D01*
X72828316Y-86220602D01*
X72828317Y-86220601D01*
X72828320Y-86220599D01*
X73115130Y-86067296D01*
X73426349Y-85972888D01*
X73750000Y-85941012D01*
X74073650Y-85972888D01*
X74073650Y-85972888D01*
G37*
G36*
X80573650Y-85972888D02*
G01*
X80884869Y-86067296D01*
X81171682Y-86220601D01*
X81171684Y-86220602D01*
X81171683Y-86220602D01*
X81423082Y-86426918D01*
X81629398Y-86678316D01*
X81629401Y-86678320D01*
X81782704Y-86965130D01*
X81877112Y-87276349D01*
X81901000Y-87518893D01*
X81901000Y-88981107D01*
X81877112Y-89223651D01*
X81782704Y-89534870D01*
X81629401Y-89821680D01*
X81629399Y-89821683D01*
X81629398Y-89821684D01*
X81423082Y-90073082D01*
X81181750Y-90271137D01*
X81171680Y-90279401D01*
X80884870Y-90432704D01*
X80573651Y-90527112D01*
X80250000Y-90558988D01*
X79926350Y-90527112D01*
X79615131Y-90432704D01*
X79328321Y-90279401D01*
X79318251Y-90271137D01*
X79076919Y-90073082D01*
X78870603Y-89821684D01*
X78870602Y-89821683D01*
X78870600Y-89821680D01*
X78717295Y-89534867D01*
X78622888Y-89223654D01*
X78599000Y-88981107D01*
X78599000Y-87518894D01*
X78622888Y-87276350D01*
X78717296Y-86965131D01*
X78870601Y-86678318D01*
X79076916Y-86426921D01*
X79076918Y-86426918D01*
X79328316Y-86220602D01*
X79328317Y-86220601D01*
X79328320Y-86220599D01*
X79615130Y-86067296D01*
X79926349Y-85972888D01*
X80250000Y-85941012D01*
X80573650Y-85972888D01*
X80573650Y-85972888D01*
G37*
G36*
X56573650Y-85972888D02*
G01*
X56884869Y-86067296D01*
X57171682Y-86220601D01*
X57171684Y-86220602D01*
X57171683Y-86220602D01*
X57423082Y-86426918D01*
X57629398Y-86678316D01*
X57629401Y-86678320D01*
X57782704Y-86965130D01*
X57877112Y-87276349D01*
X57901000Y-87518893D01*
X57901000Y-88981107D01*
X57877112Y-89223651D01*
X57782704Y-89534870D01*
X57629401Y-89821680D01*
X57629399Y-89821683D01*
X57629398Y-89821684D01*
X57423082Y-90073082D01*
X57181750Y-90271137D01*
X57171680Y-90279401D01*
X56884870Y-90432704D01*
X56573651Y-90527112D01*
X56250000Y-90558988D01*
X55926350Y-90527112D01*
X55615131Y-90432704D01*
X55328321Y-90279401D01*
X55318251Y-90271137D01*
X55076919Y-90073082D01*
X54870603Y-89821684D01*
X54870602Y-89821683D01*
X54870600Y-89821680D01*
X54717295Y-89534867D01*
X54622888Y-89223654D01*
X54599000Y-88981107D01*
X54599000Y-87518894D01*
X54622888Y-87276350D01*
X54717296Y-86965131D01*
X54870601Y-86678318D01*
X55076916Y-86426921D01*
X55076918Y-86426918D01*
X55328316Y-86220602D01*
X55328317Y-86220601D01*
X55328320Y-86220599D01*
X55615130Y-86067296D01*
X55926349Y-85972888D01*
X56250000Y-85941012D01*
X56573650Y-85972888D01*
X56573650Y-85972888D01*
G37*
G36*
X50073650Y-85972888D02*
G01*
X50384869Y-86067296D01*
X50671682Y-86220601D01*
X50671684Y-86220602D01*
X50671683Y-86220602D01*
X50923082Y-86426918D01*
X51129398Y-86678316D01*
X51129401Y-86678320D01*
X51282704Y-86965130D01*
X51377112Y-87276349D01*
X51401000Y-87518893D01*
X51401000Y-88981107D01*
X51377112Y-89223651D01*
X51282704Y-89534870D01*
X51129401Y-89821680D01*
X51129399Y-89821683D01*
X51129398Y-89821684D01*
X50923082Y-90073082D01*
X50681750Y-90271137D01*
X50671680Y-90279401D01*
X50384870Y-90432704D01*
X50073651Y-90527112D01*
X49750000Y-90558988D01*
X49426350Y-90527112D01*
X49115131Y-90432704D01*
X48828321Y-90279401D01*
X48818251Y-90271137D01*
X48576919Y-90073082D01*
X48370603Y-89821684D01*
X48370602Y-89821683D01*
X48370600Y-89821680D01*
X48217295Y-89534867D01*
X48122888Y-89223654D01*
X48099000Y-88981107D01*
X48099000Y-87518894D01*
X48122888Y-87276350D01*
X48217296Y-86965131D01*
X48370601Y-86678318D01*
X48576916Y-86426921D01*
X48576918Y-86426918D01*
X48828316Y-86220602D01*
X48828317Y-86220601D01*
X48828320Y-86220599D01*
X49115130Y-86067296D01*
X49426349Y-85972888D01*
X49750000Y-85941012D01*
X50073650Y-85972888D01*
X50073650Y-85972888D01*
G37*
G36*
X40372268Y-88893365D02*
G01*
X40410938Y-88905096D01*
X40446577Y-88924146D01*
X40477817Y-88949783D01*
X40503454Y-88981023D01*
X40522504Y-89016662D01*
X40534235Y-89055332D01*
X40538800Y-89101688D01*
X40538800Y-90177912D01*
X40534235Y-90224268D01*
X40522504Y-90262938D01*
X40503454Y-90298577D01*
X40477817Y-90329817D01*
X40446577Y-90355454D01*
X40410938Y-90374504D01*
X40372268Y-90386235D01*
X40325912Y-90390800D01*
X39674688Y-90390800D01*
X39628332Y-90386235D01*
X39589662Y-90374504D01*
X39554023Y-90355454D01*
X39522783Y-90329817D01*
X39497146Y-90298577D01*
X39478096Y-90262938D01*
X39466365Y-90224268D01*
X39461800Y-90177912D01*
X39461800Y-89101688D01*
X39466365Y-89055332D01*
X39478096Y-89016662D01*
X39497146Y-88981023D01*
X39522783Y-88949783D01*
X39554023Y-88924146D01*
X39589662Y-88905096D01*
X39628332Y-88893365D01*
X39674688Y-88888800D01*
X40325912Y-88888800D01*
X40372268Y-88893365D01*
X40372268Y-88893365D01*
G37*
G36*
X38497268Y-88893365D02*
G01*
X38535938Y-88905096D01*
X38571577Y-88924146D01*
X38602817Y-88949783D01*
X38628454Y-88981023D01*
X38647504Y-89016662D01*
X38659235Y-89055332D01*
X38663800Y-89101688D01*
X38663800Y-90177912D01*
X38659235Y-90224268D01*
X38647504Y-90262938D01*
X38628454Y-90298577D01*
X38602817Y-90329817D01*
X38571577Y-90355454D01*
X38535938Y-90374504D01*
X38497268Y-90386235D01*
X38450912Y-90390800D01*
X37799688Y-90390800D01*
X37753332Y-90386235D01*
X37714662Y-90374504D01*
X37679023Y-90355454D01*
X37647783Y-90329817D01*
X37622146Y-90298577D01*
X37603096Y-90262938D01*
X37591365Y-90224268D01*
X37586800Y-90177912D01*
X37586800Y-89101688D01*
X37591365Y-89055332D01*
X37603096Y-89016662D01*
X37622146Y-88981023D01*
X37647783Y-88949783D01*
X37679023Y-88924146D01*
X37714662Y-88905096D01*
X37753332Y-88893365D01*
X37799688Y-88888800D01*
X38450912Y-88888800D01*
X38497268Y-88893365D01*
X38497268Y-88893365D01*
G37*
G36*
X97723651Y-81872888D02*
G01*
X98034870Y-81967296D01*
X98321680Y-82120599D01*
X98321683Y-82120601D01*
X98321684Y-82120602D01*
X98573082Y-82326918D01*
X98779398Y-82578316D01*
X98779401Y-82578320D01*
X98932704Y-82865130D01*
X99027112Y-83176349D01*
X99058988Y-83500000D01*
X99027112Y-83823651D01*
X98932704Y-84134870D01*
X98779401Y-84421680D01*
X98779399Y-84421683D01*
X98779398Y-84421684D01*
X98573082Y-84673082D01*
X98321684Y-84879398D01*
X98321680Y-84879401D01*
X98034870Y-85032704D01*
X97723651Y-85127112D01*
X97481107Y-85151000D01*
X96018893Y-85151000D01*
X95776349Y-85127112D01*
X95465130Y-85032704D01*
X95178320Y-84879401D01*
X95178316Y-84879398D01*
X94926918Y-84673082D01*
X94720602Y-84421684D01*
X94720601Y-84421683D01*
X94720599Y-84421680D01*
X94567296Y-84134870D01*
X94472888Y-83823651D01*
X94441012Y-83500000D01*
X94472888Y-83176349D01*
X94567296Y-82865130D01*
X94720599Y-82578320D01*
X94720602Y-82578316D01*
X94926918Y-82326918D01*
X95178316Y-82120602D01*
X95178317Y-82120601D01*
X95178320Y-82120599D01*
X95465130Y-81967296D01*
X95776349Y-81872888D01*
X96018893Y-81849000D01*
X97481107Y-81849000D01*
X97723651Y-81872888D01*
X97723651Y-81872888D01*
G37*
G36*
X34223651Y-81872888D02*
G01*
X34534870Y-81967296D01*
X34821680Y-82120599D01*
X34821683Y-82120601D01*
X34821684Y-82120602D01*
X35073082Y-82326918D01*
X35279398Y-82578316D01*
X35279401Y-82578320D01*
X35432704Y-82865130D01*
X35527112Y-83176349D01*
X35558988Y-83500000D01*
X35527112Y-83823651D01*
X35432704Y-84134870D01*
X35279401Y-84421680D01*
X35279399Y-84421683D01*
X35279398Y-84421684D01*
X35073082Y-84673082D01*
X34821684Y-84879398D01*
X34821680Y-84879401D01*
X34534870Y-85032704D01*
X34223651Y-85127112D01*
X33981107Y-85151000D01*
X32518893Y-85151000D01*
X32276349Y-85127112D01*
X31965130Y-85032704D01*
X31678320Y-84879401D01*
X31678316Y-84879398D01*
X31426918Y-84673082D01*
X31220602Y-84421684D01*
X31220601Y-84421683D01*
X31220599Y-84421680D01*
X31067296Y-84134870D01*
X30972888Y-83823651D01*
X30941012Y-83500000D01*
X30972888Y-83176349D01*
X31067296Y-82865130D01*
X31220599Y-82578320D01*
X31220602Y-82578316D01*
X31426918Y-82326918D01*
X31678316Y-82120602D01*
X31678317Y-82120601D01*
X31678320Y-82120599D01*
X31965130Y-81967296D01*
X32276349Y-81872888D01*
X32518893Y-81849000D01*
X33981107Y-81849000D01*
X34223651Y-81872888D01*
X34223651Y-81872888D01*
G37*
G36*
X68928468Y-82299965D02*
G01*
X68967138Y-82311696D01*
X69002777Y-82330746D01*
X69034017Y-82356383D01*
X69059654Y-82387623D01*
X69078704Y-82423262D01*
X69090435Y-82461932D01*
X69095000Y-82508288D01*
X69095000Y-83159512D01*
X69090435Y-83205868D01*
X69078704Y-83244538D01*
X69059654Y-83280177D01*
X69034017Y-83311417D01*
X69002777Y-83337054D01*
X68967138Y-83356104D01*
X68928468Y-83367835D01*
X68882112Y-83372400D01*
X67805888Y-83372400D01*
X67759532Y-83367835D01*
X67720862Y-83356104D01*
X67685223Y-83337054D01*
X67653983Y-83311417D01*
X67628346Y-83280177D01*
X67609296Y-83244538D01*
X67597565Y-83205868D01*
X67593000Y-83159512D01*
X67593000Y-82508288D01*
X67597565Y-82461932D01*
X67609296Y-82423262D01*
X67628346Y-82387623D01*
X67653983Y-82356383D01*
X67685223Y-82330746D01*
X67720862Y-82311696D01*
X67759532Y-82299965D01*
X67805888Y-82295400D01*
X68882112Y-82295400D01*
X68928468Y-82299965D01*
X68928468Y-82299965D01*
G37*
G36*
X66871068Y-82276865D02*
G01*
X66909738Y-82288596D01*
X66945377Y-82307646D01*
X66976617Y-82333283D01*
X67002254Y-82364523D01*
X67021304Y-82400162D01*
X67033035Y-82438832D01*
X67037600Y-82485188D01*
X67037600Y-83136412D01*
X67033035Y-83182768D01*
X67021304Y-83221438D01*
X67002254Y-83257077D01*
X66976617Y-83288317D01*
X66945377Y-83313954D01*
X66909738Y-83333004D01*
X66871068Y-83344735D01*
X66824712Y-83349300D01*
X65748488Y-83349300D01*
X65702132Y-83344735D01*
X65663462Y-83333004D01*
X65627823Y-83313954D01*
X65596583Y-83288317D01*
X65570946Y-83257077D01*
X65551896Y-83221438D01*
X65540165Y-83182768D01*
X65535600Y-83136412D01*
X65535600Y-82485188D01*
X65540165Y-82438832D01*
X65551896Y-82400162D01*
X65570946Y-82364523D01*
X65596583Y-82333283D01*
X65627823Y-82307646D01*
X65663462Y-82288596D01*
X65702132Y-82276865D01*
X65748488Y-82272300D01*
X66824712Y-82272300D01*
X66871068Y-82276865D01*
X66871068Y-82276865D01*
G37*
G36*
X60246400Y-82263000D02*
G01*
X59144400Y-82263000D01*
X59144400Y-81261000D01*
X60246400Y-81261000D01*
X60246400Y-82263000D01*
X60246400Y-82263000D01*
G37*
G36*
X61846400Y-82263000D02*
G01*
X60744400Y-82263000D01*
X60744400Y-81261000D01*
X61846400Y-81261000D01*
X61846400Y-82263000D01*
X61846400Y-82263000D01*
G37*
G36*
X68928468Y-80424965D02*
G01*
X68967138Y-80436696D01*
X69002777Y-80455746D01*
X69034017Y-80481383D01*
X69059654Y-80512623D01*
X69078704Y-80548262D01*
X69090435Y-80586932D01*
X69095000Y-80633288D01*
X69095000Y-81284512D01*
X69090435Y-81330868D01*
X69078704Y-81369538D01*
X69059654Y-81405177D01*
X69034017Y-81436417D01*
X69002777Y-81462054D01*
X68967138Y-81481104D01*
X68928468Y-81492835D01*
X68882112Y-81497400D01*
X67805888Y-81497400D01*
X67759532Y-81492835D01*
X67720862Y-81481104D01*
X67685223Y-81462054D01*
X67653983Y-81436417D01*
X67628346Y-81405177D01*
X67609296Y-81369538D01*
X67597565Y-81330868D01*
X67593000Y-81284512D01*
X67593000Y-80633288D01*
X67597565Y-80586932D01*
X67609296Y-80548262D01*
X67628346Y-80512623D01*
X67653983Y-80481383D01*
X67685223Y-80455746D01*
X67720862Y-80436696D01*
X67759532Y-80424965D01*
X67805888Y-80420400D01*
X68882112Y-80420400D01*
X68928468Y-80424965D01*
X68928468Y-80424965D01*
G37*
G36*
X66871068Y-80401865D02*
G01*
X66909738Y-80413596D01*
X66945377Y-80432646D01*
X66976617Y-80458283D01*
X67002254Y-80489523D01*
X67021304Y-80525162D01*
X67033035Y-80563832D01*
X67037600Y-80610188D01*
X67037600Y-81261412D01*
X67033035Y-81307768D01*
X67021304Y-81346438D01*
X67002254Y-81382077D01*
X66976617Y-81413317D01*
X66945377Y-81438954D01*
X66909738Y-81458004D01*
X66871068Y-81469735D01*
X66824712Y-81474300D01*
X65748488Y-81474300D01*
X65702132Y-81469735D01*
X65663462Y-81458004D01*
X65627823Y-81438954D01*
X65596583Y-81413317D01*
X65570946Y-81382077D01*
X65551896Y-81346438D01*
X65540165Y-81307768D01*
X65535600Y-81261412D01*
X65535600Y-80610188D01*
X65540165Y-80563832D01*
X65551896Y-80525162D01*
X65570946Y-80489523D01*
X65596583Y-80458283D01*
X65627823Y-80432646D01*
X65663462Y-80413596D01*
X65702132Y-80401865D01*
X65748488Y-80397300D01*
X66824712Y-80397300D01*
X66871068Y-80401865D01*
X66871068Y-80401865D01*
G37*
G36*
X62246400Y-80613000D02*
G01*
X61594400Y-80613000D01*
X61594400Y-78811000D01*
X62246400Y-78811000D01*
X62246400Y-80613000D01*
X62246400Y-80613000D01*
G37*
G36*
X67674568Y-77314565D02*
G01*
X67713238Y-77326296D01*
X67748877Y-77345346D01*
X67780117Y-77370983D01*
X67805754Y-77402223D01*
X67824804Y-77437862D01*
X67836535Y-77476532D01*
X67841100Y-77522888D01*
X67841100Y-78599112D01*
X67836535Y-78645468D01*
X67824804Y-78684138D01*
X67805754Y-78719777D01*
X67780117Y-78751017D01*
X67748877Y-78776654D01*
X67713238Y-78795704D01*
X67674568Y-78807435D01*
X67628212Y-78812000D01*
X66976988Y-78812000D01*
X66930632Y-78807435D01*
X66891962Y-78795704D01*
X66856323Y-78776654D01*
X66825083Y-78751017D01*
X66799446Y-78719777D01*
X66780396Y-78684138D01*
X66768665Y-78645468D01*
X66764100Y-78599112D01*
X66764100Y-77522888D01*
X66768665Y-77476532D01*
X66780396Y-77437862D01*
X66799446Y-77402223D01*
X66825083Y-77370983D01*
X66856323Y-77345346D01*
X66891962Y-77326296D01*
X66930632Y-77314565D01*
X66976988Y-77310000D01*
X67628212Y-77310000D01*
X67674568Y-77314565D01*
X67674568Y-77314565D01*
G37*
G36*
X65799568Y-77314565D02*
G01*
X65838238Y-77326296D01*
X65873877Y-77345346D01*
X65905117Y-77370983D01*
X65930754Y-77402223D01*
X65949804Y-77437862D01*
X65961535Y-77476532D01*
X65966100Y-77522888D01*
X65966100Y-78599112D01*
X65961535Y-78645468D01*
X65949804Y-78684138D01*
X65930754Y-78719777D01*
X65905117Y-78751017D01*
X65873877Y-78776654D01*
X65838238Y-78795704D01*
X65799568Y-78807435D01*
X65753212Y-78812000D01*
X65101988Y-78812000D01*
X65055632Y-78807435D01*
X65016962Y-78795704D01*
X64981323Y-78776654D01*
X64950083Y-78751017D01*
X64924446Y-78719777D01*
X64905396Y-78684138D01*
X64893665Y-78645468D01*
X64889100Y-78599112D01*
X64889100Y-77522888D01*
X64893665Y-77476532D01*
X64905396Y-77437862D01*
X64924446Y-77402223D01*
X64950083Y-77370983D01*
X64981323Y-77345346D01*
X65016962Y-77326296D01*
X65055632Y-77314565D01*
X65101988Y-77310000D01*
X65753212Y-77310000D01*
X65799568Y-77314565D01*
X65799568Y-77314565D01*
G37*
G36*
X97723651Y-75372888D02*
G01*
X98034870Y-75467296D01*
X98321680Y-75620599D01*
X98321683Y-75620601D01*
X98321684Y-75620602D01*
X98573082Y-75826918D01*
X98760253Y-76054988D01*
X98779401Y-76078320D01*
X98932704Y-76365130D01*
X99027112Y-76676349D01*
X99058988Y-77000000D01*
X99027112Y-77323651D01*
X98932704Y-77634870D01*
X98779401Y-77921680D01*
X98779399Y-77921683D01*
X98779398Y-77921684D01*
X98573082Y-78173082D01*
X98321684Y-78379398D01*
X98321680Y-78379401D01*
X98034870Y-78532704D01*
X97723651Y-78627112D01*
X97481107Y-78651000D01*
X96018893Y-78651000D01*
X95776349Y-78627112D01*
X95465130Y-78532704D01*
X95178320Y-78379401D01*
X95178316Y-78379398D01*
X94926918Y-78173082D01*
X94720602Y-77921684D01*
X94720601Y-77921683D01*
X94720599Y-77921680D01*
X94567296Y-77634870D01*
X94472888Y-77323651D01*
X94441012Y-77000000D01*
X94472888Y-76676349D01*
X94567296Y-76365130D01*
X94720599Y-76078320D01*
X94739747Y-76054988D01*
X94926918Y-75826918D01*
X95178316Y-75620602D01*
X95178317Y-75620601D01*
X95178320Y-75620599D01*
X95465130Y-75467296D01*
X95776349Y-75372888D01*
X96018893Y-75349000D01*
X97481107Y-75349000D01*
X97723651Y-75372888D01*
X97723651Y-75372888D01*
G37*
G36*
X34223651Y-75372888D02*
G01*
X34534870Y-75467296D01*
X34821680Y-75620599D01*
X34821683Y-75620601D01*
X34821684Y-75620602D01*
X35073082Y-75826918D01*
X35260253Y-76054988D01*
X35279401Y-76078320D01*
X35432704Y-76365130D01*
X35527112Y-76676349D01*
X35558988Y-77000000D01*
X35527112Y-77323651D01*
X35432704Y-77634870D01*
X35279401Y-77921680D01*
X35279399Y-77921683D01*
X35279398Y-77921684D01*
X35073082Y-78173082D01*
X34821684Y-78379398D01*
X34821680Y-78379401D01*
X34534870Y-78532704D01*
X34223651Y-78627112D01*
X33981107Y-78651000D01*
X32518893Y-78651000D01*
X32276349Y-78627112D01*
X31965130Y-78532704D01*
X31678320Y-78379401D01*
X31678316Y-78379398D01*
X31426918Y-78173082D01*
X31220602Y-77921684D01*
X31220601Y-77921683D01*
X31220599Y-77921680D01*
X31067296Y-77634870D01*
X30972888Y-77323651D01*
X30941012Y-77000000D01*
X30972888Y-76676349D01*
X31067296Y-76365130D01*
X31220599Y-76078320D01*
X31239747Y-76054988D01*
X31426918Y-75826918D01*
X31678316Y-75620602D01*
X31678317Y-75620601D01*
X31678320Y-75620599D01*
X31965130Y-75467296D01*
X32276349Y-75372888D01*
X32518893Y-75349000D01*
X33981107Y-75349000D01*
X34223651Y-75372888D01*
X34223651Y-75372888D01*
G37*
G36*
X60246400Y-78163000D02*
G01*
X59144400Y-78163000D01*
X59144400Y-77161000D01*
X60246400Y-77161000D01*
X60246400Y-78163000D01*
X60246400Y-78163000D01*
G37*
G36*
X61846400Y-78163000D02*
G01*
X60744400Y-78163000D01*
X60744400Y-77161000D01*
X61846400Y-77161000D01*
X61846400Y-78163000D01*
X61846400Y-78163000D01*
G37*
G36*
X67131400Y-76631400D02*
G01*
X64929400Y-76631400D01*
X64929400Y-74729400D01*
X67131400Y-74729400D01*
X67131400Y-76631400D01*
X67131400Y-76631400D01*
G37*
G36*
X70031400Y-76631400D02*
G01*
X67829400Y-76631400D01*
X67829400Y-74729400D01*
X70031400Y-74729400D01*
X70031400Y-76631400D01*
X70031400Y-76631400D01*
G37*
G36*
X63508968Y-74723765D02*
G01*
X63547638Y-74735496D01*
X63583277Y-74754546D01*
X63614517Y-74780183D01*
X63640154Y-74811423D01*
X63659204Y-74847062D01*
X63670935Y-74885732D01*
X63675500Y-74932088D01*
X63675500Y-76008312D01*
X63670935Y-76054668D01*
X63659204Y-76093338D01*
X63640154Y-76128977D01*
X63614517Y-76160217D01*
X63583277Y-76185854D01*
X63547638Y-76204904D01*
X63508968Y-76216635D01*
X63462612Y-76221200D01*
X62811388Y-76221200D01*
X62765032Y-76216635D01*
X62726362Y-76204904D01*
X62690723Y-76185854D01*
X62659483Y-76160217D01*
X62633846Y-76128977D01*
X62614796Y-76093338D01*
X62603065Y-76054668D01*
X62598500Y-76008312D01*
X62598500Y-74932088D01*
X62603065Y-74885732D01*
X62614796Y-74847062D01*
X62633846Y-74811423D01*
X62659483Y-74780183D01*
X62690723Y-74754546D01*
X62726362Y-74735496D01*
X62765032Y-74723765D01*
X62811388Y-74719200D01*
X63462612Y-74719200D01*
X63508968Y-74723765D01*
X63508968Y-74723765D01*
G37*
G36*
X61633968Y-74723765D02*
G01*
X61672638Y-74735496D01*
X61708277Y-74754546D01*
X61739517Y-74780183D01*
X61765154Y-74811423D01*
X61784204Y-74847062D01*
X61795935Y-74885732D01*
X61800500Y-74932088D01*
X61800500Y-76008312D01*
X61795935Y-76054668D01*
X61784204Y-76093338D01*
X61765154Y-76128977D01*
X61739517Y-76160217D01*
X61708277Y-76185854D01*
X61672638Y-76204904D01*
X61633968Y-76216635D01*
X61587612Y-76221200D01*
X60936388Y-76221200D01*
X60890032Y-76216635D01*
X60851362Y-76204904D01*
X60815723Y-76185854D01*
X60784483Y-76160217D01*
X60758846Y-76128977D01*
X60739796Y-76093338D01*
X60728065Y-76054668D01*
X60723500Y-76008312D01*
X60723500Y-74932088D01*
X60728065Y-74885732D01*
X60739796Y-74847062D01*
X60758846Y-74811423D01*
X60784483Y-74780183D01*
X60815723Y-74754546D01*
X60851362Y-74735496D01*
X60890032Y-74723765D01*
X60936388Y-74719200D01*
X61587612Y-74719200D01*
X61633968Y-74723765D01*
X61633968Y-74723765D01*
G37*
G36*
X59936868Y-74552965D02*
G01*
X59975538Y-74564696D01*
X60011177Y-74583746D01*
X60042417Y-74609383D01*
X60068054Y-74640623D01*
X60087104Y-74676262D01*
X60098835Y-74714932D01*
X60103400Y-74761288D01*
X60103400Y-75412512D01*
X60098835Y-75458868D01*
X60087104Y-75497538D01*
X60068054Y-75533177D01*
X60042417Y-75564417D01*
X60011177Y-75590054D01*
X59975538Y-75609104D01*
X59936868Y-75620835D01*
X59890512Y-75625400D01*
X58814288Y-75625400D01*
X58767932Y-75620835D01*
X58729262Y-75609104D01*
X58693623Y-75590054D01*
X58662383Y-75564417D01*
X58636746Y-75533177D01*
X58617696Y-75497538D01*
X58605965Y-75458868D01*
X58601400Y-75412512D01*
X58601400Y-74761288D01*
X58605965Y-74714932D01*
X58617696Y-74676262D01*
X58636746Y-74640623D01*
X58662383Y-74609383D01*
X58693623Y-74583746D01*
X58729262Y-74564696D01*
X58767932Y-74552965D01*
X58814288Y-74548400D01*
X59890512Y-74548400D01*
X59936868Y-74552965D01*
X59936868Y-74552965D01*
G37*
G36*
X72306668Y-74324365D02*
G01*
X72345338Y-74336096D01*
X72380977Y-74355146D01*
X72412217Y-74380783D01*
X72437854Y-74412023D01*
X72456904Y-74447662D01*
X72468635Y-74486332D01*
X72473200Y-74532688D01*
X72473200Y-75183912D01*
X72468635Y-75230268D01*
X72456904Y-75268938D01*
X72437854Y-75304577D01*
X72412217Y-75335817D01*
X72380977Y-75361454D01*
X72345338Y-75380504D01*
X72306668Y-75392235D01*
X72260312Y-75396800D01*
X71184088Y-75396800D01*
X71137732Y-75392235D01*
X71099062Y-75380504D01*
X71063423Y-75361454D01*
X71032183Y-75335817D01*
X71006546Y-75304577D01*
X70987496Y-75268938D01*
X70975765Y-75230268D01*
X70971200Y-75183912D01*
X70971200Y-74532688D01*
X70975765Y-74486332D01*
X70987496Y-74447662D01*
X71006546Y-74412023D01*
X71032183Y-74380783D01*
X71063423Y-74355146D01*
X71099062Y-74336096D01*
X71137732Y-74324365D01*
X71184088Y-74319800D01*
X72260312Y-74319800D01*
X72306668Y-74324365D01*
X72306668Y-74324365D01*
G37*
G36*
X105974549Y-72871116D02*
G01*
X106085734Y-72893232D01*
X106205039Y-72942650D01*
X106273483Y-72971000D01*
X106295203Y-72979997D01*
X106483720Y-73105960D01*
X106644040Y-73266280D01*
X106770003Y-73454797D01*
X106856768Y-73664266D01*
X106861771Y-73689417D01*
X106901000Y-73886635D01*
X106901000Y-74113365D01*
X106894209Y-74147504D01*
X106856768Y-74335734D01*
X106770003Y-74545203D01*
X106644040Y-74733720D01*
X106483720Y-74894040D01*
X106295203Y-75020003D01*
X106085734Y-75106768D01*
X105981255Y-75127550D01*
X105863365Y-75151000D01*
X105636635Y-75151000D01*
X105518745Y-75127550D01*
X105414266Y-75106768D01*
X105204797Y-75020003D01*
X105016280Y-74894040D01*
X104855960Y-74733720D01*
X104729997Y-74545203D01*
X104643232Y-74335734D01*
X104605791Y-74147504D01*
X104599000Y-74113365D01*
X104599000Y-73886635D01*
X104638229Y-73689417D01*
X104643232Y-73664266D01*
X104729997Y-73454797D01*
X104855960Y-73266280D01*
X105016280Y-73105960D01*
X105204797Y-72979997D01*
X105226518Y-72971000D01*
X105294961Y-72942650D01*
X105414266Y-72893232D01*
X105525451Y-72871116D01*
X105636635Y-72849000D01*
X105863365Y-72849000D01*
X105974549Y-72871116D01*
X105974549Y-72871116D01*
G37*
G36*
X24474549Y-72871116D02*
G01*
X24585734Y-72893232D01*
X24705039Y-72942650D01*
X24773483Y-72971000D01*
X24795203Y-72979997D01*
X24983720Y-73105960D01*
X25144040Y-73266280D01*
X25270003Y-73454797D01*
X25356768Y-73664266D01*
X25361771Y-73689417D01*
X25401000Y-73886635D01*
X25401000Y-74113365D01*
X25394209Y-74147504D01*
X25356768Y-74335734D01*
X25270003Y-74545203D01*
X25144040Y-74733720D01*
X24983720Y-74894040D01*
X24795203Y-75020003D01*
X24585734Y-75106768D01*
X24481255Y-75127550D01*
X24363365Y-75151000D01*
X24136635Y-75151000D01*
X24018745Y-75127550D01*
X23914266Y-75106768D01*
X23704797Y-75020003D01*
X23516280Y-74894040D01*
X23355960Y-74733720D01*
X23229997Y-74545203D01*
X23143232Y-74335734D01*
X23105791Y-74147504D01*
X23099000Y-74113365D01*
X23099000Y-73886635D01*
X23138229Y-73689417D01*
X23143232Y-73664266D01*
X23229997Y-73454797D01*
X23355960Y-73266280D01*
X23516280Y-73105960D01*
X23704797Y-72979997D01*
X23726518Y-72971000D01*
X23794961Y-72942650D01*
X23914266Y-72893232D01*
X24025451Y-72871116D01*
X24136635Y-72849000D01*
X24363365Y-72849000D01*
X24474549Y-72871116D01*
X24474549Y-72871116D01*
G37*
G36*
X70031400Y-74331400D02*
G01*
X67829400Y-74331400D01*
X67829400Y-72429400D01*
X70031400Y-72429400D01*
X70031400Y-74331400D01*
X70031400Y-74331400D01*
G37*
G36*
X67131400Y-74331400D02*
G01*
X64929400Y-74331400D01*
X64929400Y-72429400D01*
X67131400Y-72429400D01*
X67131400Y-74331400D01*
X67131400Y-74331400D01*
G37*
G36*
X63508968Y-72666365D02*
G01*
X63547638Y-72678096D01*
X63583277Y-72697146D01*
X63614517Y-72722783D01*
X63640154Y-72754023D01*
X63659204Y-72789662D01*
X63670935Y-72828332D01*
X63675500Y-72874688D01*
X63675500Y-73950912D01*
X63670935Y-73997268D01*
X63659204Y-74035938D01*
X63640154Y-74071577D01*
X63614517Y-74102817D01*
X63583277Y-74128454D01*
X63547638Y-74147504D01*
X63508968Y-74159235D01*
X63462612Y-74163800D01*
X62811388Y-74163800D01*
X62765032Y-74159235D01*
X62726362Y-74147504D01*
X62690723Y-74128454D01*
X62659483Y-74102817D01*
X62633846Y-74071577D01*
X62614796Y-74035938D01*
X62603065Y-73997268D01*
X62598500Y-73950912D01*
X62598500Y-72874688D01*
X62603065Y-72828332D01*
X62614796Y-72789662D01*
X62633846Y-72754023D01*
X62659483Y-72722783D01*
X62690723Y-72697146D01*
X62726362Y-72678096D01*
X62765032Y-72666365D01*
X62811388Y-72661800D01*
X63462612Y-72661800D01*
X63508968Y-72666365D01*
X63508968Y-72666365D01*
G37*
G36*
X61633968Y-72666365D02*
G01*
X61672638Y-72678096D01*
X61708277Y-72697146D01*
X61739517Y-72722783D01*
X61765154Y-72754023D01*
X61784204Y-72789662D01*
X61795935Y-72828332D01*
X61800500Y-72874688D01*
X61800500Y-73950912D01*
X61795935Y-73997268D01*
X61784204Y-74035938D01*
X61765154Y-74071577D01*
X61739517Y-74102817D01*
X61708277Y-74128454D01*
X61672638Y-74147504D01*
X61633968Y-74159235D01*
X61587612Y-74163800D01*
X60936388Y-74163800D01*
X60890032Y-74159235D01*
X60851362Y-74147504D01*
X60815723Y-74128454D01*
X60784483Y-74102817D01*
X60758846Y-74071577D01*
X60739796Y-74035938D01*
X60728065Y-73997268D01*
X60723500Y-73950912D01*
X60723500Y-72874688D01*
X60728065Y-72828332D01*
X60739796Y-72789662D01*
X60758846Y-72754023D01*
X60784483Y-72722783D01*
X60815723Y-72697146D01*
X60851362Y-72678096D01*
X60890032Y-72666365D01*
X60936388Y-72661800D01*
X61587612Y-72661800D01*
X61633968Y-72666365D01*
X61633968Y-72666365D01*
G37*
G36*
X59936868Y-72677965D02*
G01*
X59975538Y-72689696D01*
X60011177Y-72708746D01*
X60042417Y-72734383D01*
X60068054Y-72765623D01*
X60087104Y-72801262D01*
X60098835Y-72839932D01*
X60103400Y-72886288D01*
X60103400Y-73537512D01*
X60098835Y-73583868D01*
X60087104Y-73622538D01*
X60068054Y-73658177D01*
X60042417Y-73689417D01*
X60011177Y-73715054D01*
X59975538Y-73734104D01*
X59936868Y-73745835D01*
X59890512Y-73750400D01*
X58814288Y-73750400D01*
X58767932Y-73745835D01*
X58729262Y-73734104D01*
X58693623Y-73715054D01*
X58662383Y-73689417D01*
X58636746Y-73658177D01*
X58617696Y-73622538D01*
X58605965Y-73583868D01*
X58601400Y-73537512D01*
X58601400Y-72886288D01*
X58605965Y-72839932D01*
X58617696Y-72801262D01*
X58636746Y-72765623D01*
X58662383Y-72734383D01*
X58693623Y-72708746D01*
X58729262Y-72689696D01*
X58767932Y-72677965D01*
X58814288Y-72673400D01*
X59890512Y-72673400D01*
X59936868Y-72677965D01*
X59936868Y-72677965D01*
G37*
G36*
X72306668Y-72449365D02*
G01*
X72345338Y-72461096D01*
X72380977Y-72480146D01*
X72412217Y-72505783D01*
X72437854Y-72537023D01*
X72456904Y-72572662D01*
X72468635Y-72611332D01*
X72473200Y-72657688D01*
X72473200Y-73308912D01*
X72468635Y-73355268D01*
X72456904Y-73393938D01*
X72437854Y-73429577D01*
X72412217Y-73460817D01*
X72380977Y-73486454D01*
X72345338Y-73505504D01*
X72306668Y-73517235D01*
X72260312Y-73521800D01*
X71184088Y-73521800D01*
X71137732Y-73517235D01*
X71099062Y-73505504D01*
X71063423Y-73486454D01*
X71032183Y-73460817D01*
X71006546Y-73429577D01*
X70987496Y-73393938D01*
X70975765Y-73355268D01*
X70971200Y-73308912D01*
X70971200Y-72657688D01*
X70975765Y-72611332D01*
X70987496Y-72572662D01*
X71006546Y-72537023D01*
X71032183Y-72505783D01*
X71063423Y-72480146D01*
X71099062Y-72461096D01*
X71137732Y-72449365D01*
X71184088Y-72444800D01*
X72260312Y-72444800D01*
X72306668Y-72449365D01*
X72306668Y-72449365D01*
G37*
G36*
X37632223Y-71531313D02*
G01*
X37792642Y-71579976D01*
X37914147Y-71644922D01*
X37940478Y-71658996D01*
X38070059Y-71765341D01*
X38176404Y-71894922D01*
X38176405Y-71894924D01*
X38255424Y-72042758D01*
X38304087Y-72203177D01*
X38320517Y-72370000D01*
X38304087Y-72536823D01*
X38255424Y-72697242D01*
X38199824Y-72801262D01*
X38176404Y-72845078D01*
X38070059Y-72974659D01*
X37940478Y-73081004D01*
X37940476Y-73081005D01*
X37792642Y-73160024D01*
X37632223Y-73208687D01*
X37507204Y-73221000D01*
X37423596Y-73221000D01*
X37298577Y-73208687D01*
X37138158Y-73160024D01*
X36990324Y-73081005D01*
X36990322Y-73081004D01*
X36860741Y-72974659D01*
X36754396Y-72845078D01*
X36730976Y-72801262D01*
X36675376Y-72697242D01*
X36626713Y-72536823D01*
X36610283Y-72370000D01*
X36626713Y-72203177D01*
X36675376Y-72042758D01*
X36754395Y-71894924D01*
X36754396Y-71894922D01*
X36860741Y-71765341D01*
X36990322Y-71658996D01*
X37016653Y-71644922D01*
X37138158Y-71579976D01*
X37298577Y-71531313D01*
X37423596Y-71519000D01*
X37507204Y-71519000D01*
X37632223Y-71531313D01*
X37632223Y-71531313D01*
G37*
G36*
X45252223Y-71531313D02*
G01*
X45412642Y-71579976D01*
X45534147Y-71644922D01*
X45560478Y-71658996D01*
X45690059Y-71765341D01*
X45796404Y-71894922D01*
X45796405Y-71894924D01*
X45875424Y-72042758D01*
X45924087Y-72203177D01*
X45940517Y-72370000D01*
X45924087Y-72536823D01*
X45875424Y-72697242D01*
X45819824Y-72801262D01*
X45796404Y-72845078D01*
X45690059Y-72974659D01*
X45560478Y-73081004D01*
X45560476Y-73081005D01*
X45412642Y-73160024D01*
X45252223Y-73208687D01*
X45127204Y-73221000D01*
X45043596Y-73221000D01*
X44918577Y-73208687D01*
X44758158Y-73160024D01*
X44610324Y-73081005D01*
X44610322Y-73081004D01*
X44480741Y-72974659D01*
X44374396Y-72845078D01*
X44350976Y-72801262D01*
X44295376Y-72697242D01*
X44246713Y-72536823D01*
X44230283Y-72370000D01*
X44246713Y-72203177D01*
X44295376Y-72042758D01*
X44374395Y-71894924D01*
X44374396Y-71894922D01*
X44480741Y-71765341D01*
X44610322Y-71658996D01*
X44636653Y-71644922D01*
X44758158Y-71579976D01*
X44918577Y-71531313D01*
X45043596Y-71519000D01*
X45127204Y-71519000D01*
X45252223Y-71531313D01*
X45252223Y-71531313D01*
G37*
G36*
X93385600Y-72971000D02*
G01*
X91683600Y-72971000D01*
X91683600Y-71269000D01*
X93385600Y-71269000D01*
X93385600Y-72971000D01*
X93385600Y-72971000D01*
G37*
G36*
X85081423Y-71281313D02*
G01*
X85241842Y-71329976D01*
X85374506Y-71400886D01*
X85389678Y-71408996D01*
X85519259Y-71515341D01*
X85625604Y-71644922D01*
X85625605Y-71644924D01*
X85704624Y-71792758D01*
X85753287Y-71953177D01*
X85769717Y-72120000D01*
X85753287Y-72286823D01*
X85704624Y-72447242D01*
X85673333Y-72505783D01*
X85625604Y-72595078D01*
X85519259Y-72724659D01*
X85389678Y-72831004D01*
X85389676Y-72831005D01*
X85241842Y-72910024D01*
X85081423Y-72958687D01*
X84956404Y-72971000D01*
X84872796Y-72971000D01*
X84747777Y-72958687D01*
X84587358Y-72910024D01*
X84439524Y-72831005D01*
X84439522Y-72831004D01*
X84309941Y-72724659D01*
X84203596Y-72595078D01*
X84155867Y-72505783D01*
X84124576Y-72447242D01*
X84075913Y-72286823D01*
X84059483Y-72120000D01*
X84075913Y-71953177D01*
X84124576Y-71792758D01*
X84203595Y-71644924D01*
X84203596Y-71644922D01*
X84309941Y-71515341D01*
X84439522Y-71408996D01*
X84454694Y-71400886D01*
X84587358Y-71329976D01*
X84747777Y-71281313D01*
X84872796Y-71269000D01*
X84956404Y-71269000D01*
X85081423Y-71281313D01*
X85081423Y-71281313D01*
G37*
G36*
X30027892Y-70533911D02*
G01*
X30201273Y-70605728D01*
X30357311Y-70709989D01*
X30490011Y-70842689D01*
X30594272Y-70998727D01*
X30594273Y-70998729D01*
X30666089Y-71172108D01*
X30702700Y-71356166D01*
X30702700Y-71543834D01*
X30682592Y-71644924D01*
X30666089Y-71727892D01*
X30594272Y-71901273D01*
X30490011Y-72057311D01*
X30357311Y-72190011D01*
X30201273Y-72294272D01*
X30201272Y-72294273D01*
X30201271Y-72294273D01*
X30027892Y-72366089D01*
X29843834Y-72402700D01*
X29656166Y-72402700D01*
X29472108Y-72366089D01*
X29298729Y-72294273D01*
X29298728Y-72294273D01*
X29298727Y-72294272D01*
X29142689Y-72190011D01*
X29009989Y-72057311D01*
X28905728Y-71901273D01*
X28833911Y-71727892D01*
X28817408Y-71644924D01*
X28797300Y-71543834D01*
X28797300Y-71356166D01*
X28833911Y-71172108D01*
X28905727Y-70998729D01*
X28905728Y-70998727D01*
X29009989Y-70842689D01*
X29142689Y-70709989D01*
X29298727Y-70605728D01*
X29472108Y-70533911D01*
X29656166Y-70497300D01*
X29843834Y-70497300D01*
X30027892Y-70533911D01*
X30027892Y-70533911D01*
G37*
G36*
X100383158Y-70305122D02*
G01*
X100527892Y-70333911D01*
X100701273Y-70405728D01*
X100857311Y-70509989D01*
X100990011Y-70642689D01*
X101034979Y-70709989D01*
X101094273Y-70798729D01*
X101166089Y-70972108D01*
X101202700Y-71156166D01*
X101202700Y-71343834D01*
X101166089Y-71527892D01*
X101117614Y-71644922D01*
X101094272Y-71701273D01*
X100990011Y-71857311D01*
X100857311Y-71990011D01*
X100701273Y-72094272D01*
X100701272Y-72094273D01*
X100701271Y-72094273D01*
X100527892Y-72166089D01*
X100343834Y-72202700D01*
X100156166Y-72202700D01*
X99972108Y-72166089D01*
X99798729Y-72094273D01*
X99798728Y-72094273D01*
X99798727Y-72094272D01*
X99642689Y-71990011D01*
X99509989Y-71857311D01*
X99405728Y-71701273D01*
X99382387Y-71644922D01*
X99333911Y-71527892D01*
X99297300Y-71343834D01*
X99297300Y-71156166D01*
X99333911Y-70972108D01*
X99405727Y-70798729D01*
X99465021Y-70709989D01*
X99509989Y-70642689D01*
X99642689Y-70509989D01*
X99798727Y-70405728D01*
X99972108Y-70333911D01*
X100116842Y-70305122D01*
X100156166Y-70297300D01*
X100343834Y-70297300D01*
X100383158Y-70305122D01*
X100383158Y-70305122D01*
G37*
G36*
X69280200Y-71490400D02*
G01*
X60628200Y-71490400D01*
X60628200Y-69888400D01*
X69280200Y-69888400D01*
X69280200Y-71490400D01*
X69280200Y-71490400D01*
G37*
G36*
X73308668Y-70092965D02*
G01*
X73347338Y-70104696D01*
X73382977Y-70123746D01*
X73414217Y-70149383D01*
X73439854Y-70180623D01*
X73458904Y-70216262D01*
X73470635Y-70254932D01*
X73475200Y-70301288D01*
X73475200Y-70952512D01*
X73470635Y-70998868D01*
X73458904Y-71037538D01*
X73439854Y-71073177D01*
X73414217Y-71104417D01*
X73382977Y-71130054D01*
X73347338Y-71149104D01*
X73308668Y-71160835D01*
X73262312Y-71165400D01*
X72186088Y-71165400D01*
X72139732Y-71160835D01*
X72101062Y-71149104D01*
X72065423Y-71130054D01*
X72034183Y-71104417D01*
X72008546Y-71073177D01*
X71989496Y-71037538D01*
X71977765Y-70998868D01*
X71973200Y-70952512D01*
X71973200Y-70301288D01*
X71977765Y-70254932D01*
X71989496Y-70216262D01*
X72008546Y-70180623D01*
X72034183Y-70149383D01*
X72065423Y-70123746D01*
X72101062Y-70104696D01*
X72139732Y-70092965D01*
X72186088Y-70088400D01*
X73262312Y-70088400D01*
X73308668Y-70092965D01*
X73308668Y-70092965D01*
G37*
G36*
X45252223Y-68991313D02*
G01*
X45412642Y-69039976D01*
X45534147Y-69104922D01*
X45560478Y-69118996D01*
X45690059Y-69225341D01*
X45796404Y-69354922D01*
X45796405Y-69354924D01*
X45875424Y-69502758D01*
X45924087Y-69663177D01*
X45940517Y-69830000D01*
X45924087Y-69996823D01*
X45875424Y-70157242D01*
X45804514Y-70289906D01*
X45796404Y-70305078D01*
X45690059Y-70434659D01*
X45560478Y-70541004D01*
X45560476Y-70541005D01*
X45412642Y-70620024D01*
X45252223Y-70668687D01*
X45127204Y-70681000D01*
X45043596Y-70681000D01*
X44918577Y-70668687D01*
X44758158Y-70620024D01*
X44610324Y-70541005D01*
X44610322Y-70541004D01*
X44480741Y-70434659D01*
X44374396Y-70305078D01*
X44366286Y-70289906D01*
X44295376Y-70157242D01*
X44246713Y-69996823D01*
X44230283Y-69830000D01*
X44246713Y-69663177D01*
X44295376Y-69502758D01*
X44374395Y-69354924D01*
X44374396Y-69354922D01*
X44480741Y-69225341D01*
X44610322Y-69118996D01*
X44636653Y-69104922D01*
X44758158Y-69039976D01*
X44918577Y-68991313D01*
X45043596Y-68979000D01*
X45127204Y-68979000D01*
X45252223Y-68991313D01*
X45252223Y-68991313D01*
G37*
G36*
X37632223Y-68991313D02*
G01*
X37792642Y-69039976D01*
X37914147Y-69104922D01*
X37940478Y-69118996D01*
X38070059Y-69225341D01*
X38176404Y-69354922D01*
X38176405Y-69354924D01*
X38255424Y-69502758D01*
X38304087Y-69663177D01*
X38320517Y-69830000D01*
X38304087Y-69996823D01*
X38255424Y-70157242D01*
X38184514Y-70289906D01*
X38176404Y-70305078D01*
X38070059Y-70434659D01*
X37940478Y-70541004D01*
X37940476Y-70541005D01*
X37792642Y-70620024D01*
X37632223Y-70668687D01*
X37507204Y-70681000D01*
X37423596Y-70681000D01*
X37298577Y-70668687D01*
X37138158Y-70620024D01*
X36990324Y-70541005D01*
X36990322Y-70541004D01*
X36860741Y-70434659D01*
X36754396Y-70305078D01*
X36746286Y-70289906D01*
X36675376Y-70157242D01*
X36626713Y-69996823D01*
X36610283Y-69830000D01*
X36626713Y-69663177D01*
X36675376Y-69502758D01*
X36754395Y-69354924D01*
X36754396Y-69354922D01*
X36860741Y-69225341D01*
X36990322Y-69118996D01*
X37016653Y-69104922D01*
X37138158Y-69039976D01*
X37298577Y-68991313D01*
X37423596Y-68979000D01*
X37507204Y-68979000D01*
X37632223Y-68991313D01*
X37632223Y-68991313D01*
G37*
G36*
X92701423Y-68741313D02*
G01*
X92861842Y-68789976D01*
X92994506Y-68860886D01*
X93009678Y-68868996D01*
X93139259Y-68975341D01*
X93245604Y-69104922D01*
X93245605Y-69104924D01*
X93324624Y-69252758D01*
X93324625Y-69252761D01*
X93329826Y-69269905D01*
X93373287Y-69413177D01*
X93389717Y-69580000D01*
X93373287Y-69746823D01*
X93324624Y-69907242D01*
X93276742Y-69996823D01*
X93245604Y-70055078D01*
X93139259Y-70184659D01*
X93009678Y-70291004D01*
X93009676Y-70291005D01*
X92861842Y-70370024D01*
X92701423Y-70418687D01*
X92576404Y-70431000D01*
X92492796Y-70431000D01*
X92367777Y-70418687D01*
X92207358Y-70370024D01*
X92059524Y-70291005D01*
X92059522Y-70291004D01*
X91929941Y-70184659D01*
X91823596Y-70055078D01*
X91792458Y-69996823D01*
X91744576Y-69907242D01*
X91695913Y-69746823D01*
X91679483Y-69580000D01*
X91695913Y-69413177D01*
X91739374Y-69269905D01*
X91744575Y-69252761D01*
X91744576Y-69252758D01*
X91823595Y-69104924D01*
X91823596Y-69104922D01*
X91929941Y-68975341D01*
X92059522Y-68868996D01*
X92074694Y-68860886D01*
X92207358Y-68789976D01*
X92367777Y-68741313D01*
X92492796Y-68729000D01*
X92576404Y-68729000D01*
X92701423Y-68741313D01*
X92701423Y-68741313D01*
G37*
G36*
X85081423Y-68741313D02*
G01*
X85241842Y-68789976D01*
X85374506Y-68860886D01*
X85389678Y-68868996D01*
X85519259Y-68975341D01*
X85625604Y-69104922D01*
X85625605Y-69104924D01*
X85704624Y-69252758D01*
X85704625Y-69252761D01*
X85709826Y-69269905D01*
X85753287Y-69413177D01*
X85769717Y-69580000D01*
X85753287Y-69746823D01*
X85704624Y-69907242D01*
X85656742Y-69996823D01*
X85625604Y-70055078D01*
X85519259Y-70184659D01*
X85389678Y-70291004D01*
X85389676Y-70291005D01*
X85241842Y-70370024D01*
X85081423Y-70418687D01*
X84956404Y-70431000D01*
X84872796Y-70431000D01*
X84747777Y-70418687D01*
X84587358Y-70370024D01*
X84439524Y-70291005D01*
X84439522Y-70291004D01*
X84309941Y-70184659D01*
X84203596Y-70055078D01*
X84172458Y-69996823D01*
X84124576Y-69907242D01*
X84075913Y-69746823D01*
X84059483Y-69580000D01*
X84075913Y-69413177D01*
X84119374Y-69269905D01*
X84124575Y-69252761D01*
X84124576Y-69252758D01*
X84203595Y-69104924D01*
X84203596Y-69104922D01*
X84309941Y-68975341D01*
X84439522Y-68868996D01*
X84454694Y-68860886D01*
X84587358Y-68789976D01*
X84747777Y-68741313D01*
X84872796Y-68729000D01*
X84956404Y-68729000D01*
X85081423Y-68741313D01*
X85081423Y-68741313D01*
G37*
G36*
X30027892Y-67993911D02*
G01*
X30201273Y-68065728D01*
X30357311Y-68169989D01*
X30490011Y-68302689D01*
X30594272Y-68458727D01*
X30594273Y-68458729D01*
X30666089Y-68632108D01*
X30702700Y-68816166D01*
X30702700Y-69003834D01*
X30666089Y-69187892D01*
X30638270Y-69255054D01*
X30594272Y-69361273D01*
X30490011Y-69517311D01*
X30357311Y-69650011D01*
X30201273Y-69754272D01*
X30201272Y-69754273D01*
X30201271Y-69754273D01*
X30027892Y-69826089D01*
X29843834Y-69862700D01*
X29656166Y-69862700D01*
X29472108Y-69826089D01*
X29298729Y-69754273D01*
X29298728Y-69754273D01*
X29298727Y-69754272D01*
X29142689Y-69650011D01*
X29009989Y-69517311D01*
X28905728Y-69361273D01*
X28861731Y-69255054D01*
X28833911Y-69187892D01*
X28797300Y-69003834D01*
X28797300Y-68816166D01*
X28833911Y-68632108D01*
X28905727Y-68458729D01*
X28905728Y-68458727D01*
X29009989Y-68302689D01*
X29142689Y-68169989D01*
X29298727Y-68065728D01*
X29472108Y-67993911D01*
X29656166Y-67957300D01*
X29843834Y-67957300D01*
X30027892Y-67993911D01*
X30027892Y-67993911D01*
G37*
G36*
X100519562Y-67792254D02*
G01*
X100527892Y-67793911D01*
X100701273Y-67865728D01*
X100857311Y-67969989D01*
X100990011Y-68102689D01*
X101087603Y-68248746D01*
X101094273Y-68258729D01*
X101166089Y-68432108D01*
X101202700Y-68616166D01*
X101202700Y-68803834D01*
X101166089Y-68987892D01*
X101117614Y-69104922D01*
X101094272Y-69161273D01*
X100990011Y-69317311D01*
X100857311Y-69450011D01*
X100701273Y-69554272D01*
X100701272Y-69554273D01*
X100701271Y-69554273D01*
X100527892Y-69626089D01*
X100343834Y-69662700D01*
X100156166Y-69662700D01*
X99972108Y-69626089D01*
X99798729Y-69554273D01*
X99798728Y-69554273D01*
X99798727Y-69554272D01*
X99642689Y-69450011D01*
X99509989Y-69317311D01*
X99405728Y-69161273D01*
X99382387Y-69104922D01*
X99333911Y-68987892D01*
X99297300Y-68803834D01*
X99297300Y-68616166D01*
X99333911Y-68432108D01*
X99405727Y-68258729D01*
X99412397Y-68248746D01*
X99509989Y-68102689D01*
X99642689Y-67969989D01*
X99798727Y-67865728D01*
X99972108Y-67793911D01*
X99980438Y-67792254D01*
X100156166Y-67757300D01*
X100343834Y-67757300D01*
X100519562Y-67792254D01*
X100519562Y-67792254D01*
G37*
G36*
X60055200Y-69315400D02*
G01*
X58453200Y-69315400D01*
X58453200Y-60663400D01*
X60055200Y-60663400D01*
X60055200Y-69315400D01*
X60055200Y-69315400D01*
G37*
G36*
X71455200Y-69315400D02*
G01*
X69853200Y-69315400D01*
X69853200Y-60663400D01*
X71455200Y-60663400D01*
X71455200Y-69315400D01*
X71455200Y-69315400D01*
G37*
G36*
X73308668Y-68217965D02*
G01*
X73347338Y-68229696D01*
X73382977Y-68248746D01*
X73414217Y-68274383D01*
X73439854Y-68305623D01*
X73458904Y-68341262D01*
X73470635Y-68379932D01*
X73475200Y-68426288D01*
X73475200Y-69077512D01*
X73470635Y-69123868D01*
X73458904Y-69162538D01*
X73439854Y-69198177D01*
X73414217Y-69229417D01*
X73382977Y-69255054D01*
X73347338Y-69274104D01*
X73308668Y-69285835D01*
X73262312Y-69290400D01*
X72186088Y-69290400D01*
X72139732Y-69285835D01*
X72101062Y-69274104D01*
X72065423Y-69255054D01*
X72034183Y-69229417D01*
X72008546Y-69198177D01*
X71989496Y-69162538D01*
X71977765Y-69123868D01*
X71973200Y-69077512D01*
X71973200Y-68426288D01*
X71977765Y-68379932D01*
X71989496Y-68341262D01*
X72008546Y-68305623D01*
X72034183Y-68274383D01*
X72065423Y-68248746D01*
X72101062Y-68229696D01*
X72139732Y-68217965D01*
X72186088Y-68213400D01*
X73262312Y-68213400D01*
X73308668Y-68217965D01*
X73308668Y-68217965D01*
G37*
G36*
X37632223Y-66451313D02*
G01*
X37792642Y-66499976D01*
X37914147Y-66564922D01*
X37940478Y-66578996D01*
X38070059Y-66685341D01*
X38176404Y-66814922D01*
X38176405Y-66814924D01*
X38255424Y-66962758D01*
X38255425Y-66962761D01*
X38259838Y-66977310D01*
X38304087Y-67123177D01*
X38320517Y-67290000D01*
X38304087Y-67456823D01*
X38304086Y-67456825D01*
X38256192Y-67614712D01*
X38255424Y-67617242D01*
X38240769Y-67644659D01*
X38176404Y-67765078D01*
X38070059Y-67894659D01*
X37940478Y-68001004D01*
X37940476Y-68001005D01*
X37792642Y-68080024D01*
X37632223Y-68128687D01*
X37507204Y-68141000D01*
X37423596Y-68141000D01*
X37298577Y-68128687D01*
X37138158Y-68080024D01*
X36990324Y-68001005D01*
X36990322Y-68001004D01*
X36860741Y-67894659D01*
X36754396Y-67765078D01*
X36690031Y-67644659D01*
X36675376Y-67617242D01*
X36674609Y-67614712D01*
X36626714Y-67456825D01*
X36626713Y-67456823D01*
X36610283Y-67290000D01*
X36626713Y-67123177D01*
X36670962Y-66977310D01*
X36675375Y-66962761D01*
X36675376Y-66962758D01*
X36754395Y-66814924D01*
X36754396Y-66814922D01*
X36860741Y-66685341D01*
X36990322Y-66578996D01*
X37016653Y-66564922D01*
X37138158Y-66499976D01*
X37298577Y-66451313D01*
X37423596Y-66439000D01*
X37507204Y-66439000D01*
X37632223Y-66451313D01*
X37632223Y-66451313D01*
G37*
G36*
X45252223Y-66451313D02*
G01*
X45412642Y-66499976D01*
X45534147Y-66564922D01*
X45560478Y-66578996D01*
X45690059Y-66685341D01*
X45796404Y-66814922D01*
X45796405Y-66814924D01*
X45875424Y-66962758D01*
X45875425Y-66962761D01*
X45879838Y-66977310D01*
X45924087Y-67123177D01*
X45940517Y-67290000D01*
X45924087Y-67456823D01*
X45924086Y-67456825D01*
X45876192Y-67614712D01*
X45875424Y-67617242D01*
X45860769Y-67644659D01*
X45796404Y-67765078D01*
X45690059Y-67894659D01*
X45560478Y-68001004D01*
X45560476Y-68001005D01*
X45412642Y-68080024D01*
X45252223Y-68128687D01*
X45127204Y-68141000D01*
X45043596Y-68141000D01*
X44918577Y-68128687D01*
X44758158Y-68080024D01*
X44610324Y-68001005D01*
X44610322Y-68001004D01*
X44480741Y-67894659D01*
X44374396Y-67765078D01*
X44310031Y-67644659D01*
X44295376Y-67617242D01*
X44294609Y-67614712D01*
X44246714Y-67456825D01*
X44246713Y-67456823D01*
X44230283Y-67290000D01*
X44246713Y-67123177D01*
X44290962Y-66977310D01*
X44295375Y-66962761D01*
X44295376Y-66962758D01*
X44374395Y-66814924D01*
X44374396Y-66814922D01*
X44480741Y-66685341D01*
X44610322Y-66578996D01*
X44636653Y-66564922D01*
X44758158Y-66499976D01*
X44918577Y-66451313D01*
X45043596Y-66439000D01*
X45127204Y-66439000D01*
X45252223Y-66451313D01*
X45252223Y-66451313D01*
G37*
G36*
X92701423Y-66201313D02*
G01*
X92861842Y-66249976D01*
X92994506Y-66320886D01*
X93009678Y-66328996D01*
X93139259Y-66435341D01*
X93245604Y-66564922D01*
X93245605Y-66564924D01*
X93324624Y-66712758D01*
X93373287Y-66873177D01*
X93389717Y-67040000D01*
X93373287Y-67206823D01*
X93324624Y-67367242D01*
X93276742Y-67456823D01*
X93245604Y-67515078D01*
X93139259Y-67644659D01*
X93009678Y-67751004D01*
X93009676Y-67751005D01*
X92861842Y-67830024D01*
X92701423Y-67878687D01*
X92576404Y-67891000D01*
X92492796Y-67891000D01*
X92367777Y-67878687D01*
X92207358Y-67830024D01*
X92059524Y-67751005D01*
X92059522Y-67751004D01*
X91929941Y-67644659D01*
X91823596Y-67515078D01*
X91792458Y-67456823D01*
X91744576Y-67367242D01*
X91695913Y-67206823D01*
X91679483Y-67040000D01*
X91695913Y-66873177D01*
X91744576Y-66712758D01*
X91823595Y-66564924D01*
X91823596Y-66564922D01*
X91929941Y-66435341D01*
X92059522Y-66328996D01*
X92074694Y-66320886D01*
X92207358Y-66249976D01*
X92367777Y-66201313D01*
X92492796Y-66189000D01*
X92576404Y-66189000D01*
X92701423Y-66201313D01*
X92701423Y-66201313D01*
G37*
G36*
X85081423Y-66201313D02*
G01*
X85241842Y-66249976D01*
X85374506Y-66320886D01*
X85389678Y-66328996D01*
X85519259Y-66435341D01*
X85625604Y-66564922D01*
X85625605Y-66564924D01*
X85704624Y-66712758D01*
X85753287Y-66873177D01*
X85769717Y-67040000D01*
X85753287Y-67206823D01*
X85704624Y-67367242D01*
X85656742Y-67456823D01*
X85625604Y-67515078D01*
X85519259Y-67644659D01*
X85389678Y-67751004D01*
X85389676Y-67751005D01*
X85241842Y-67830024D01*
X85081423Y-67878687D01*
X84956404Y-67891000D01*
X84872796Y-67891000D01*
X84747777Y-67878687D01*
X84587358Y-67830024D01*
X84439524Y-67751005D01*
X84439522Y-67751004D01*
X84309941Y-67644659D01*
X84203596Y-67515078D01*
X84172458Y-67456823D01*
X84124576Y-67367242D01*
X84075913Y-67206823D01*
X84059483Y-67040000D01*
X84075913Y-66873177D01*
X84124576Y-66712758D01*
X84203595Y-66564924D01*
X84203596Y-66564922D01*
X84309941Y-66435341D01*
X84439522Y-66328996D01*
X84454694Y-66320886D01*
X84587358Y-66249976D01*
X84747777Y-66201313D01*
X84872796Y-66189000D01*
X84956404Y-66189000D01*
X85081423Y-66201313D01*
X85081423Y-66201313D01*
G37*
G36*
X57600068Y-66755165D02*
G01*
X57638738Y-66766896D01*
X57674377Y-66785946D01*
X57705617Y-66811583D01*
X57731254Y-66842823D01*
X57750304Y-66878462D01*
X57762035Y-66917132D01*
X57766600Y-66963488D01*
X57766600Y-67614712D01*
X57762035Y-67661068D01*
X57750304Y-67699738D01*
X57731254Y-67735377D01*
X57705617Y-67766617D01*
X57674377Y-67792254D01*
X57638738Y-67811304D01*
X57600068Y-67823035D01*
X57553712Y-67827600D01*
X56477488Y-67827600D01*
X56431132Y-67823035D01*
X56392462Y-67811304D01*
X56356823Y-67792254D01*
X56325583Y-67766617D01*
X56299946Y-67735377D01*
X56280896Y-67699738D01*
X56269165Y-67661068D01*
X56264600Y-67614712D01*
X56264600Y-66963488D01*
X56269165Y-66917132D01*
X56280896Y-66878462D01*
X56299946Y-66842823D01*
X56325583Y-66811583D01*
X56356823Y-66785946D01*
X56392462Y-66766896D01*
X56431132Y-66755165D01*
X56477488Y-66750600D01*
X57553712Y-66750600D01*
X57600068Y-66755165D01*
X57600068Y-66755165D01*
G37*
G36*
X30027892Y-65453911D02*
G01*
X30201273Y-65525728D01*
X30357311Y-65629989D01*
X30490011Y-65762689D01*
X30594272Y-65918727D01*
X30594273Y-65918729D01*
X30666089Y-66092108D01*
X30702700Y-66276166D01*
X30702700Y-66463834D01*
X30666089Y-66647892D01*
X30615057Y-66771095D01*
X30594272Y-66821273D01*
X30490011Y-66977311D01*
X30357311Y-67110011D01*
X30201273Y-67214272D01*
X30201272Y-67214273D01*
X30201271Y-67214273D01*
X30027892Y-67286089D01*
X29843834Y-67322700D01*
X29656166Y-67322700D01*
X29472108Y-67286089D01*
X29298729Y-67214273D01*
X29298728Y-67214273D01*
X29298727Y-67214272D01*
X29142689Y-67110011D01*
X29009989Y-66977311D01*
X28905728Y-66821273D01*
X28884944Y-66771095D01*
X28833911Y-66647892D01*
X28797300Y-66463834D01*
X28797300Y-66276166D01*
X28833911Y-66092108D01*
X28905727Y-65918729D01*
X28905728Y-65918727D01*
X29009989Y-65762689D01*
X29142689Y-65629989D01*
X29298727Y-65525728D01*
X29472108Y-65453911D01*
X29656166Y-65417300D01*
X29843834Y-65417300D01*
X30027892Y-65453911D01*
X30027892Y-65453911D01*
G37*
G36*
X100527892Y-65253911D02*
G01*
X100701273Y-65325728D01*
X100857311Y-65429989D01*
X100990011Y-65562689D01*
X101094272Y-65718727D01*
X101094273Y-65718729D01*
X101166089Y-65892108D01*
X101202700Y-66076166D01*
X101202700Y-66263834D01*
X101166089Y-66447892D01*
X101117614Y-66564922D01*
X101094272Y-66621273D01*
X100990011Y-66777311D01*
X100857311Y-66910011D01*
X100701273Y-67014272D01*
X100701272Y-67014273D01*
X100701271Y-67014273D01*
X100527892Y-67086089D01*
X100343834Y-67122700D01*
X100156166Y-67122700D01*
X99972108Y-67086089D01*
X99798729Y-67014273D01*
X99798728Y-67014273D01*
X99798727Y-67014272D01*
X99642689Y-66910011D01*
X99509989Y-66777311D01*
X99405728Y-66621273D01*
X99382387Y-66564922D01*
X99333911Y-66447892D01*
X99297300Y-66263834D01*
X99297300Y-66076166D01*
X99333911Y-65892108D01*
X99405727Y-65718729D01*
X99405728Y-65718727D01*
X99509989Y-65562689D01*
X99642689Y-65429989D01*
X99798727Y-65325728D01*
X99972108Y-65253911D01*
X100156166Y-65217300D01*
X100343834Y-65217300D01*
X100527892Y-65253911D01*
X100527892Y-65253911D01*
G37*
G36*
X57600068Y-64880165D02*
G01*
X57638738Y-64891896D01*
X57674377Y-64910946D01*
X57705617Y-64936583D01*
X57731254Y-64967823D01*
X57750304Y-65003462D01*
X57762035Y-65042132D01*
X57766600Y-65088488D01*
X57766600Y-65739712D01*
X57762035Y-65786068D01*
X57750304Y-65824738D01*
X57731254Y-65860377D01*
X57705617Y-65891617D01*
X57674377Y-65917254D01*
X57638738Y-65936304D01*
X57600068Y-65948035D01*
X57553712Y-65952600D01*
X56477488Y-65952600D01*
X56431132Y-65948035D01*
X56392462Y-65936304D01*
X56356823Y-65917254D01*
X56325583Y-65891617D01*
X56299946Y-65860377D01*
X56280896Y-65824738D01*
X56269165Y-65786068D01*
X56264600Y-65739712D01*
X56264600Y-65088488D01*
X56269165Y-65042132D01*
X56280896Y-65003462D01*
X56299946Y-64967823D01*
X56325583Y-64936583D01*
X56356823Y-64910946D01*
X56392462Y-64891896D01*
X56431132Y-64880165D01*
X56477488Y-64875600D01*
X57553712Y-64875600D01*
X57600068Y-64880165D01*
X57600068Y-64880165D01*
G37*
G36*
X38316400Y-65601000D02*
G01*
X36614400Y-65601000D01*
X36614400Y-63899000D01*
X38316400Y-63899000D01*
X38316400Y-65601000D01*
X38316400Y-65601000D01*
G37*
G36*
X45252223Y-63911313D02*
G01*
X45412642Y-63959976D01*
X45534147Y-64024922D01*
X45560478Y-64038996D01*
X45690059Y-64145341D01*
X45796404Y-64274922D01*
X45796405Y-64274924D01*
X45875424Y-64422758D01*
X45924087Y-64583177D01*
X45940517Y-64750000D01*
X45924087Y-64916823D01*
X45875424Y-65077242D01*
X45804514Y-65209906D01*
X45796404Y-65225078D01*
X45690059Y-65354659D01*
X45560478Y-65461004D01*
X45560476Y-65461005D01*
X45412642Y-65540024D01*
X45252223Y-65588687D01*
X45127204Y-65601000D01*
X45043596Y-65601000D01*
X44918577Y-65588687D01*
X44758158Y-65540024D01*
X44610324Y-65461005D01*
X44610322Y-65461004D01*
X44480741Y-65354659D01*
X44374396Y-65225078D01*
X44366286Y-65209906D01*
X44295376Y-65077242D01*
X44246713Y-64916823D01*
X44230283Y-64750000D01*
X44246713Y-64583177D01*
X44295376Y-64422758D01*
X44374395Y-64274924D01*
X44374396Y-64274922D01*
X44480741Y-64145341D01*
X44610322Y-64038996D01*
X44636653Y-64024922D01*
X44758158Y-63959976D01*
X44918577Y-63911313D01*
X45043596Y-63899000D01*
X45127204Y-63899000D01*
X45252223Y-63911313D01*
X45252223Y-63911313D01*
G37*
G36*
X85081423Y-63661313D02*
G01*
X85241842Y-63709976D01*
X85374506Y-63780886D01*
X85389678Y-63788996D01*
X85519259Y-63895341D01*
X85625604Y-64024922D01*
X85625605Y-64024924D01*
X85704624Y-64172758D01*
X85753287Y-64333177D01*
X85769717Y-64500000D01*
X85753287Y-64666823D01*
X85704624Y-64827242D01*
X85646180Y-64936583D01*
X85625604Y-64975078D01*
X85519259Y-65104659D01*
X85389678Y-65211004D01*
X85389676Y-65211005D01*
X85241842Y-65290024D01*
X85081423Y-65338687D01*
X84956404Y-65351000D01*
X84872796Y-65351000D01*
X84747777Y-65338687D01*
X84587358Y-65290024D01*
X84439524Y-65211005D01*
X84439522Y-65211004D01*
X84309941Y-65104659D01*
X84203596Y-64975078D01*
X84183020Y-64936583D01*
X84124576Y-64827242D01*
X84075913Y-64666823D01*
X84059483Y-64500000D01*
X84075913Y-64333177D01*
X84124576Y-64172758D01*
X84203595Y-64024924D01*
X84203596Y-64024922D01*
X84309941Y-63895341D01*
X84439522Y-63788996D01*
X84454694Y-63780886D01*
X84587358Y-63709976D01*
X84747777Y-63661313D01*
X84872796Y-63649000D01*
X84956404Y-63649000D01*
X85081423Y-63661313D01*
X85081423Y-63661313D01*
G37*
G36*
X92701423Y-63661313D02*
G01*
X92861842Y-63709976D01*
X92994506Y-63780886D01*
X93009678Y-63788996D01*
X93139259Y-63895341D01*
X93245604Y-64024922D01*
X93245605Y-64024924D01*
X93324624Y-64172758D01*
X93373287Y-64333177D01*
X93389717Y-64500000D01*
X93373287Y-64666823D01*
X93324624Y-64827242D01*
X93266180Y-64936583D01*
X93245604Y-64975078D01*
X93139259Y-65104659D01*
X93009678Y-65211004D01*
X93009676Y-65211005D01*
X92861842Y-65290024D01*
X92701423Y-65338687D01*
X92576404Y-65351000D01*
X92492796Y-65351000D01*
X92367777Y-65338687D01*
X92207358Y-65290024D01*
X92059524Y-65211005D01*
X92059522Y-65211004D01*
X91929941Y-65104659D01*
X91823596Y-64975078D01*
X91803020Y-64936583D01*
X91744576Y-64827242D01*
X91695913Y-64666823D01*
X91679483Y-64500000D01*
X91695913Y-64333177D01*
X91744576Y-64172758D01*
X91823595Y-64024924D01*
X91823596Y-64024922D01*
X91929941Y-63895341D01*
X92059522Y-63788996D01*
X92074694Y-63780886D01*
X92207358Y-63709976D01*
X92367777Y-63661313D01*
X92492796Y-63649000D01*
X92576404Y-63649000D01*
X92701423Y-63661313D01*
X92701423Y-63661313D01*
G37*
G36*
X30027892Y-62913911D02*
G01*
X30201273Y-62985728D01*
X30357311Y-63089989D01*
X30490011Y-63222689D01*
X30594272Y-63378727D01*
X30594273Y-63378729D01*
X30666089Y-63552108D01*
X30702700Y-63736166D01*
X30702700Y-63923834D01*
X30666089Y-64107892D01*
X30604104Y-64257538D01*
X30594272Y-64281273D01*
X30490011Y-64437311D01*
X30357311Y-64570011D01*
X30201273Y-64674272D01*
X30201272Y-64674273D01*
X30201271Y-64674273D01*
X30027892Y-64746089D01*
X29843834Y-64782700D01*
X29656166Y-64782700D01*
X29472108Y-64746089D01*
X29298729Y-64674273D01*
X29298728Y-64674273D01*
X29298727Y-64674272D01*
X29142689Y-64570011D01*
X29009989Y-64437311D01*
X28905728Y-64281273D01*
X28895897Y-64257538D01*
X28833911Y-64107892D01*
X28797300Y-63923834D01*
X28797300Y-63736166D01*
X28833911Y-63552108D01*
X28905727Y-63378729D01*
X28905728Y-63378727D01*
X29009989Y-63222689D01*
X29142689Y-63089989D01*
X29298727Y-62985728D01*
X29472108Y-62913911D01*
X29656166Y-62877300D01*
X29843834Y-62877300D01*
X30027892Y-62913911D01*
X30027892Y-62913911D01*
G37*
G36*
X100527892Y-62713911D02*
G01*
X100701273Y-62785728D01*
X100857311Y-62889989D01*
X100990011Y-63022689D01*
X101017213Y-63063400D01*
X101094273Y-63178729D01*
X101166089Y-63352108D01*
X101202700Y-63536166D01*
X101202700Y-63723834D01*
X101166089Y-63907892D01*
X101117614Y-64024922D01*
X101094272Y-64081273D01*
X100990011Y-64237311D01*
X100857311Y-64370011D01*
X100701273Y-64474272D01*
X100701272Y-64474273D01*
X100701271Y-64474273D01*
X100527892Y-64546089D01*
X100343834Y-64582700D01*
X100156166Y-64582700D01*
X99972108Y-64546089D01*
X99798729Y-64474273D01*
X99798728Y-64474273D01*
X99798727Y-64474272D01*
X99642689Y-64370011D01*
X99509989Y-64237311D01*
X99405728Y-64081273D01*
X99382387Y-64024922D01*
X99333911Y-63907892D01*
X99297300Y-63723834D01*
X99297300Y-63536166D01*
X99333911Y-63352108D01*
X99405727Y-63178729D01*
X99482787Y-63063400D01*
X99509989Y-63022689D01*
X99642689Y-62889989D01*
X99798727Y-62785728D01*
X99972108Y-62713911D01*
X100156166Y-62677300D01*
X100343834Y-62677300D01*
X100527892Y-62713911D01*
X100527892Y-62713911D01*
G37*
G36*
X57588668Y-63312965D02*
G01*
X57627338Y-63324696D01*
X57662977Y-63343746D01*
X57694217Y-63369383D01*
X57719854Y-63400623D01*
X57738904Y-63436262D01*
X57750635Y-63474932D01*
X57755200Y-63521288D01*
X57755200Y-64172512D01*
X57750635Y-64218868D01*
X57738904Y-64257538D01*
X57719854Y-64293177D01*
X57694217Y-64324417D01*
X57662977Y-64350054D01*
X57627338Y-64369104D01*
X57588668Y-64380835D01*
X57542312Y-64385400D01*
X56466088Y-64385400D01*
X56419732Y-64380835D01*
X56381062Y-64369104D01*
X56345423Y-64350054D01*
X56314183Y-64324417D01*
X56288546Y-64293177D01*
X56269496Y-64257538D01*
X56257765Y-64218868D01*
X56253200Y-64172512D01*
X56253200Y-63521288D01*
X56257765Y-63474932D01*
X56269496Y-63436262D01*
X56288546Y-63400623D01*
X56314183Y-63369383D01*
X56345423Y-63343746D01*
X56381062Y-63324696D01*
X56419732Y-63312965D01*
X56466088Y-63308400D01*
X57542312Y-63308400D01*
X57588668Y-63312965D01*
X57588668Y-63312965D01*
G37*
G36*
X57588668Y-61437965D02*
G01*
X57627338Y-61449696D01*
X57662977Y-61468746D01*
X57694217Y-61494383D01*
X57719854Y-61525623D01*
X57738904Y-61561262D01*
X57750635Y-61599932D01*
X57755200Y-61646288D01*
X57755200Y-62297512D01*
X57750635Y-62343868D01*
X57738904Y-62382538D01*
X57719854Y-62418177D01*
X57694217Y-62449417D01*
X57662977Y-62475054D01*
X57627338Y-62494104D01*
X57588668Y-62505835D01*
X57542312Y-62510400D01*
X56466088Y-62510400D01*
X56419732Y-62505835D01*
X56381062Y-62494104D01*
X56345423Y-62475054D01*
X56314183Y-62449417D01*
X56288546Y-62418177D01*
X56269496Y-62382538D01*
X56257765Y-62343868D01*
X56253200Y-62297512D01*
X56253200Y-61646288D01*
X56257765Y-61599932D01*
X56269496Y-61561262D01*
X56288546Y-61525623D01*
X56314183Y-61494383D01*
X56345423Y-61468746D01*
X56381062Y-61449696D01*
X56419732Y-61437965D01*
X56466088Y-61433400D01*
X57542312Y-61433400D01*
X57588668Y-61437965D01*
X57588668Y-61437965D01*
G37*
G36*
X30027892Y-60373911D02*
G01*
X30131491Y-60416823D01*
X30201273Y-60445728D01*
X30357311Y-60549989D01*
X30490011Y-60682689D01*
X30594272Y-60838727D01*
X30594273Y-60838729D01*
X30666089Y-61012108D01*
X30702700Y-61196166D01*
X30702700Y-61383834D01*
X30685810Y-61468746D01*
X30666089Y-61567892D01*
X30594272Y-61741273D01*
X30490011Y-61897311D01*
X30357311Y-62030011D01*
X30201273Y-62134272D01*
X30201272Y-62134273D01*
X30201271Y-62134273D01*
X30027892Y-62206089D01*
X29843834Y-62242700D01*
X29656166Y-62242700D01*
X29472108Y-62206089D01*
X29298729Y-62134273D01*
X29298728Y-62134273D01*
X29298727Y-62134272D01*
X29142689Y-62030011D01*
X29009989Y-61897311D01*
X28905728Y-61741273D01*
X28833911Y-61567892D01*
X28814190Y-61468746D01*
X28797300Y-61383834D01*
X28797300Y-61196166D01*
X28833911Y-61012108D01*
X28905727Y-60838729D01*
X28905728Y-60838727D01*
X29009989Y-60682689D01*
X29142689Y-60549989D01*
X29298727Y-60445728D01*
X29368510Y-60416823D01*
X29472108Y-60373911D01*
X29656166Y-60337300D01*
X29843834Y-60337300D01*
X30027892Y-60373911D01*
X30027892Y-60373911D01*
G37*
G36*
X100527892Y-60173911D02*
G01*
X100701273Y-60245728D01*
X100857311Y-60349989D01*
X100990011Y-60482689D01*
X101034979Y-60549989D01*
X101094273Y-60638729D01*
X101166089Y-60812108D01*
X101202700Y-60996166D01*
X101202700Y-61183834D01*
X101166089Y-61367892D01*
X101100755Y-61525623D01*
X101094272Y-61541273D01*
X100990011Y-61697311D01*
X100857311Y-61830011D01*
X100701273Y-61934272D01*
X100701272Y-61934273D01*
X100701271Y-61934273D01*
X100527892Y-62006089D01*
X100343834Y-62042700D01*
X100156166Y-62042700D01*
X99972108Y-62006089D01*
X99798729Y-61934273D01*
X99798728Y-61934273D01*
X99798727Y-61934272D01*
X99642689Y-61830011D01*
X99509989Y-61697311D01*
X99405728Y-61541273D01*
X99399246Y-61525623D01*
X99333911Y-61367892D01*
X99297300Y-61183834D01*
X99297300Y-60996166D01*
X99333911Y-60812108D01*
X99405727Y-60638729D01*
X99465021Y-60549989D01*
X99509989Y-60482689D01*
X99642689Y-60349989D01*
X99798727Y-60245728D01*
X99972108Y-60173911D01*
X100156166Y-60137300D01*
X100343834Y-60137300D01*
X100527892Y-60173911D01*
X100527892Y-60173911D01*
G37*
G36*
X73449668Y-60178865D02*
G01*
X73488338Y-60190596D01*
X73523977Y-60209646D01*
X73555217Y-60235283D01*
X73580854Y-60266523D01*
X73599904Y-60302162D01*
X73611635Y-60340832D01*
X73616200Y-60387188D01*
X73616200Y-61038412D01*
X73611635Y-61084768D01*
X73599904Y-61123438D01*
X73580854Y-61159077D01*
X73555217Y-61190317D01*
X73523977Y-61215954D01*
X73488338Y-61235004D01*
X73449668Y-61246735D01*
X73403312Y-61251300D01*
X72327088Y-61251300D01*
X72280732Y-61246735D01*
X72242062Y-61235004D01*
X72206423Y-61215954D01*
X72175183Y-61190317D01*
X72149546Y-61159077D01*
X72130496Y-61123438D01*
X72118765Y-61084768D01*
X72114200Y-61038412D01*
X72114200Y-60387188D01*
X72118765Y-60340832D01*
X72130496Y-60302162D01*
X72149546Y-60266523D01*
X72175183Y-60235283D01*
X72206423Y-60209646D01*
X72242062Y-60190596D01*
X72280732Y-60178865D01*
X72327088Y-60174300D01*
X73403312Y-60174300D01*
X73449668Y-60178865D01*
X73449668Y-60178865D01*
G37*
G36*
X37632223Y-59411313D02*
G01*
X37792642Y-59459976D01*
X37925306Y-59530886D01*
X37940478Y-59538996D01*
X38070059Y-59645341D01*
X38176404Y-59774922D01*
X38176405Y-59774924D01*
X38255424Y-59922758D01*
X38304087Y-60083177D01*
X38320517Y-60250000D01*
X38304087Y-60416823D01*
X38255424Y-60577242D01*
X38199061Y-60682689D01*
X38176404Y-60725078D01*
X38070059Y-60854659D01*
X37940478Y-60961004D01*
X37940476Y-60961005D01*
X37792642Y-61040024D01*
X37632223Y-61088687D01*
X37507204Y-61101000D01*
X37423596Y-61101000D01*
X37298577Y-61088687D01*
X37138158Y-61040024D01*
X36990324Y-60961005D01*
X36990322Y-60961004D01*
X36860741Y-60854659D01*
X36754396Y-60725078D01*
X36731739Y-60682689D01*
X36675376Y-60577242D01*
X36626713Y-60416823D01*
X36610283Y-60250000D01*
X36626713Y-60083177D01*
X36675376Y-59922758D01*
X36754395Y-59774924D01*
X36754396Y-59774922D01*
X36860741Y-59645341D01*
X36990322Y-59538996D01*
X37005494Y-59530886D01*
X37138158Y-59459976D01*
X37298577Y-59411313D01*
X37423596Y-59399000D01*
X37507204Y-59399000D01*
X37632223Y-59411313D01*
X37632223Y-59411313D01*
G37*
G36*
X85081423Y-59411313D02*
G01*
X85241842Y-59459976D01*
X85374506Y-59530886D01*
X85389678Y-59538996D01*
X85519259Y-59645341D01*
X85625604Y-59774922D01*
X85625605Y-59774924D01*
X85704624Y-59922758D01*
X85753287Y-60083177D01*
X85769717Y-60250000D01*
X85753287Y-60416823D01*
X85704624Y-60577242D01*
X85648261Y-60682689D01*
X85625604Y-60725078D01*
X85519259Y-60854659D01*
X85389678Y-60961004D01*
X85389676Y-60961005D01*
X85241842Y-61040024D01*
X85081423Y-61088687D01*
X84956404Y-61101000D01*
X84872796Y-61101000D01*
X84747777Y-61088687D01*
X84587358Y-61040024D01*
X84439524Y-60961005D01*
X84439522Y-60961004D01*
X84309941Y-60854659D01*
X84203596Y-60725078D01*
X84180939Y-60682689D01*
X84124576Y-60577242D01*
X84075913Y-60416823D01*
X84059483Y-60250000D01*
X84075913Y-60083177D01*
X84124576Y-59922758D01*
X84203595Y-59774924D01*
X84203596Y-59774922D01*
X84309941Y-59645341D01*
X84439522Y-59538996D01*
X84454694Y-59530886D01*
X84587358Y-59459976D01*
X84747777Y-59411313D01*
X84872796Y-59399000D01*
X84956404Y-59399000D01*
X85081423Y-59411313D01*
X85081423Y-59411313D01*
G37*
G36*
X93385600Y-61101000D02*
G01*
X91683600Y-61101000D01*
X91683600Y-59399000D01*
X93385600Y-59399000D01*
X93385600Y-61101000D01*
X93385600Y-61101000D01*
G37*
G36*
X45252223Y-59411313D02*
G01*
X45412642Y-59459976D01*
X45545306Y-59530886D01*
X45560478Y-59538996D01*
X45690059Y-59645341D01*
X45796404Y-59774922D01*
X45796405Y-59774924D01*
X45875424Y-59922758D01*
X45924087Y-60083177D01*
X45940517Y-60250000D01*
X45924087Y-60416823D01*
X45875424Y-60577242D01*
X45819061Y-60682689D01*
X45796404Y-60725078D01*
X45690059Y-60854659D01*
X45560478Y-60961004D01*
X45560476Y-60961005D01*
X45412642Y-61040024D01*
X45252223Y-61088687D01*
X45127204Y-61101000D01*
X45043596Y-61101000D01*
X44918577Y-61088687D01*
X44758158Y-61040024D01*
X44610324Y-60961005D01*
X44610322Y-60961004D01*
X44480741Y-60854659D01*
X44374396Y-60725078D01*
X44351739Y-60682689D01*
X44295376Y-60577242D01*
X44246713Y-60416823D01*
X44230283Y-60250000D01*
X44246713Y-60083177D01*
X44295376Y-59922758D01*
X44374395Y-59774924D01*
X44374396Y-59774922D01*
X44480741Y-59645341D01*
X44610322Y-59538996D01*
X44625494Y-59530886D01*
X44758158Y-59459976D01*
X44918577Y-59411313D01*
X45043596Y-59399000D01*
X45127204Y-59399000D01*
X45252223Y-59411313D01*
X45252223Y-59411313D01*
G37*
G36*
X69280200Y-60090400D02*
G01*
X60628200Y-60090400D01*
X60628200Y-58488400D01*
X69280200Y-58488400D01*
X69280200Y-60090400D01*
X69280200Y-60090400D01*
G37*
G36*
X30027892Y-57833911D02*
G01*
X30131491Y-57876823D01*
X30201273Y-57905728D01*
X30357311Y-58009989D01*
X30490011Y-58142689D01*
X30594272Y-58298727D01*
X30594273Y-58298729D01*
X30666089Y-58472108D01*
X30683771Y-58561000D01*
X30702700Y-58656167D01*
X30702700Y-58843833D01*
X30666089Y-59027892D01*
X30594272Y-59201273D01*
X30490011Y-59357311D01*
X30357311Y-59490011D01*
X30201273Y-59594272D01*
X30201272Y-59594273D01*
X30201271Y-59594273D01*
X30027892Y-59666089D01*
X29843834Y-59702700D01*
X29656166Y-59702700D01*
X29472108Y-59666089D01*
X29298729Y-59594273D01*
X29298728Y-59594273D01*
X29298727Y-59594272D01*
X29142689Y-59490011D01*
X29009989Y-59357311D01*
X28905728Y-59201273D01*
X28833911Y-59027892D01*
X28797300Y-58843833D01*
X28797300Y-58656167D01*
X28816230Y-58561000D01*
X28833911Y-58472108D01*
X28905727Y-58298729D01*
X28905728Y-58298727D01*
X29009989Y-58142689D01*
X29142689Y-58009989D01*
X29298727Y-57905728D01*
X29368510Y-57876823D01*
X29472108Y-57833911D01*
X29656166Y-57797300D01*
X29843834Y-57797300D01*
X30027892Y-57833911D01*
X30027892Y-57833911D01*
G37*
G36*
X100527892Y-57633911D02*
G01*
X100683044Y-57698177D01*
X100701273Y-57705728D01*
X100857311Y-57809989D01*
X100990011Y-57942689D01*
X101094272Y-58098727D01*
X101166089Y-58272108D01*
X101202700Y-58456167D01*
X101202700Y-58643833D01*
X101166089Y-58827892D01*
X101094272Y-59001273D01*
X100990011Y-59157311D01*
X100857311Y-59290011D01*
X100701273Y-59394272D01*
X100701272Y-59394273D01*
X100701271Y-59394273D01*
X100527892Y-59466089D01*
X100343834Y-59502700D01*
X100156166Y-59502700D01*
X99972108Y-59466089D01*
X99798729Y-59394273D01*
X99798728Y-59394273D01*
X99798727Y-59394272D01*
X99642689Y-59290011D01*
X99509989Y-59157311D01*
X99405728Y-59001273D01*
X99333911Y-58827892D01*
X99297300Y-58643833D01*
X99297300Y-58456167D01*
X99333911Y-58272108D01*
X99405728Y-58098727D01*
X99509989Y-57942689D01*
X99642689Y-57809989D01*
X99798727Y-57705728D01*
X99816957Y-57698177D01*
X99972108Y-57633911D01*
X100156166Y-57597300D01*
X100343834Y-57597300D01*
X100527892Y-57633911D01*
X100527892Y-57633911D01*
G37*
G36*
X73449668Y-58303865D02*
G01*
X73488338Y-58315596D01*
X73523977Y-58334646D01*
X73555217Y-58360283D01*
X73580854Y-58391523D01*
X73599904Y-58427162D01*
X73611635Y-58465832D01*
X73616200Y-58512188D01*
X73616200Y-59163412D01*
X73611635Y-59209768D01*
X73599904Y-59248438D01*
X73580854Y-59284077D01*
X73555217Y-59315317D01*
X73523977Y-59340954D01*
X73488338Y-59360004D01*
X73449668Y-59371735D01*
X73403312Y-59376300D01*
X72327088Y-59376300D01*
X72280732Y-59371735D01*
X72242062Y-59360004D01*
X72206423Y-59340954D01*
X72175183Y-59315317D01*
X72149546Y-59284077D01*
X72130496Y-59248438D01*
X72118765Y-59209768D01*
X72114200Y-59163412D01*
X72114200Y-58512188D01*
X72118765Y-58465832D01*
X72130496Y-58427162D01*
X72149546Y-58391523D01*
X72175183Y-58360283D01*
X72206423Y-58334646D01*
X72242062Y-58315596D01*
X72280732Y-58303865D01*
X72327088Y-58299300D01*
X73403312Y-58299300D01*
X73449668Y-58303865D01*
X73449668Y-58303865D01*
G37*
G36*
X45252223Y-56871313D02*
G01*
X45412642Y-56919976D01*
X45545306Y-56990886D01*
X45560478Y-56998996D01*
X45690059Y-57105341D01*
X45796404Y-57234922D01*
X45796405Y-57234924D01*
X45875424Y-57382758D01*
X45924087Y-57543177D01*
X45940517Y-57710000D01*
X45924087Y-57876823D01*
X45875424Y-58037242D01*
X45842558Y-58098729D01*
X45796404Y-58185078D01*
X45690059Y-58314659D01*
X45560478Y-58421004D01*
X45560476Y-58421005D01*
X45412642Y-58500024D01*
X45252223Y-58548687D01*
X45127204Y-58561000D01*
X45043596Y-58561000D01*
X44918577Y-58548687D01*
X44758158Y-58500024D01*
X44610324Y-58421005D01*
X44610322Y-58421004D01*
X44480741Y-58314659D01*
X44374396Y-58185078D01*
X44328242Y-58098729D01*
X44295376Y-58037242D01*
X44246713Y-57876823D01*
X44230283Y-57710000D01*
X44246713Y-57543177D01*
X44295376Y-57382758D01*
X44374395Y-57234924D01*
X44374396Y-57234922D01*
X44480741Y-57105341D01*
X44610322Y-56998996D01*
X44625494Y-56990886D01*
X44758158Y-56919976D01*
X44918577Y-56871313D01*
X45043596Y-56859000D01*
X45127204Y-56859000D01*
X45252223Y-56871313D01*
X45252223Y-56871313D01*
G37*
G36*
X37632223Y-56871313D02*
G01*
X37792642Y-56919976D01*
X37925306Y-56990886D01*
X37940478Y-56998996D01*
X38070059Y-57105341D01*
X38176404Y-57234922D01*
X38176405Y-57234924D01*
X38255424Y-57382758D01*
X38304087Y-57543177D01*
X38320517Y-57710000D01*
X38304087Y-57876823D01*
X38255424Y-58037242D01*
X38222558Y-58098729D01*
X38176404Y-58185078D01*
X38070059Y-58314659D01*
X37940478Y-58421004D01*
X37940476Y-58421005D01*
X37792642Y-58500024D01*
X37632223Y-58548687D01*
X37507204Y-58561000D01*
X37423596Y-58561000D01*
X37298577Y-58548687D01*
X37138158Y-58500024D01*
X36990324Y-58421005D01*
X36990322Y-58421004D01*
X36860741Y-58314659D01*
X36754396Y-58185078D01*
X36708242Y-58098729D01*
X36675376Y-58037242D01*
X36626713Y-57876823D01*
X36610283Y-57710000D01*
X36626713Y-57543177D01*
X36675376Y-57382758D01*
X36754395Y-57234924D01*
X36754396Y-57234922D01*
X36860741Y-57105341D01*
X36990322Y-56998996D01*
X37005494Y-56990886D01*
X37138158Y-56919976D01*
X37298577Y-56871313D01*
X37423596Y-56859000D01*
X37507204Y-56859000D01*
X37632223Y-56871313D01*
X37632223Y-56871313D01*
G37*
G36*
X85081423Y-56871313D02*
G01*
X85241842Y-56919976D01*
X85374506Y-56990886D01*
X85389678Y-56998996D01*
X85519259Y-57105341D01*
X85625604Y-57234922D01*
X85625605Y-57234924D01*
X85704624Y-57382758D01*
X85753287Y-57543177D01*
X85769717Y-57710000D01*
X85753287Y-57876823D01*
X85704624Y-58037242D01*
X85671758Y-58098729D01*
X85625604Y-58185078D01*
X85519259Y-58314659D01*
X85389678Y-58421004D01*
X85389676Y-58421005D01*
X85241842Y-58500024D01*
X85081423Y-58548687D01*
X84956404Y-58561000D01*
X84872796Y-58561000D01*
X84747777Y-58548687D01*
X84587358Y-58500024D01*
X84439524Y-58421005D01*
X84439522Y-58421004D01*
X84309941Y-58314659D01*
X84203596Y-58185078D01*
X84157442Y-58098729D01*
X84124576Y-58037242D01*
X84075913Y-57876823D01*
X84059483Y-57710000D01*
X84075913Y-57543177D01*
X84124576Y-57382758D01*
X84203595Y-57234924D01*
X84203596Y-57234922D01*
X84309941Y-57105341D01*
X84439522Y-56998996D01*
X84454694Y-56990886D01*
X84587358Y-56919976D01*
X84747777Y-56871313D01*
X84872796Y-56859000D01*
X84956404Y-56859000D01*
X85081423Y-56871313D01*
X85081423Y-56871313D01*
G37*
G36*
X92701423Y-56871313D02*
G01*
X92861842Y-56919976D01*
X92994506Y-56990886D01*
X93009678Y-56998996D01*
X93139259Y-57105341D01*
X93245604Y-57234922D01*
X93245605Y-57234924D01*
X93324624Y-57382758D01*
X93373287Y-57543177D01*
X93389717Y-57710000D01*
X93373287Y-57876823D01*
X93324624Y-58037242D01*
X93291758Y-58098729D01*
X93245604Y-58185078D01*
X93139259Y-58314659D01*
X93009678Y-58421004D01*
X93009676Y-58421005D01*
X92861842Y-58500024D01*
X92701423Y-58548687D01*
X92576404Y-58561000D01*
X92492796Y-58561000D01*
X92367777Y-58548687D01*
X92207358Y-58500024D01*
X92059524Y-58421005D01*
X92059522Y-58421004D01*
X91929941Y-58314659D01*
X91823596Y-58185078D01*
X91777442Y-58098729D01*
X91744576Y-58037242D01*
X91695913Y-57876823D01*
X91679483Y-57710000D01*
X91695913Y-57543177D01*
X91744576Y-57382758D01*
X91823595Y-57234924D01*
X91823596Y-57234922D01*
X91929941Y-57105341D01*
X92059522Y-56998996D01*
X92074694Y-56990886D01*
X92207358Y-56919976D01*
X92367777Y-56871313D01*
X92492796Y-56859000D01*
X92576404Y-56859000D01*
X92701423Y-56871313D01*
X92701423Y-56871313D01*
G37*
G36*
X71311168Y-56292965D02*
G01*
X71349838Y-56304696D01*
X71385477Y-56323746D01*
X71416717Y-56349383D01*
X71442354Y-56380623D01*
X71461404Y-56416262D01*
X71473135Y-56454932D01*
X71477700Y-56501288D01*
X71477700Y-57577512D01*
X71473135Y-57623868D01*
X71461404Y-57662538D01*
X71442354Y-57698177D01*
X71416717Y-57729417D01*
X71385477Y-57755054D01*
X71349838Y-57774104D01*
X71311168Y-57785835D01*
X71264812Y-57790400D01*
X70613588Y-57790400D01*
X70567232Y-57785835D01*
X70528562Y-57774104D01*
X70492923Y-57755054D01*
X70461683Y-57729417D01*
X70436046Y-57698177D01*
X70416996Y-57662538D01*
X70405265Y-57623868D01*
X70400700Y-57577512D01*
X70400700Y-56501288D01*
X70405265Y-56454932D01*
X70416996Y-56416262D01*
X70436046Y-56380623D01*
X70461683Y-56349383D01*
X70492923Y-56323746D01*
X70528562Y-56304696D01*
X70567232Y-56292965D01*
X70613588Y-56288400D01*
X71264812Y-56288400D01*
X71311168Y-56292965D01*
X71311168Y-56292965D01*
G37*
G36*
X69436168Y-56292965D02*
G01*
X69474838Y-56304696D01*
X69510477Y-56323746D01*
X69541717Y-56349383D01*
X69567354Y-56380623D01*
X69586404Y-56416262D01*
X69598135Y-56454932D01*
X69602700Y-56501288D01*
X69602700Y-57577512D01*
X69598135Y-57623868D01*
X69586404Y-57662538D01*
X69567354Y-57698177D01*
X69541717Y-57729417D01*
X69510477Y-57755054D01*
X69474838Y-57774104D01*
X69436168Y-57785835D01*
X69389812Y-57790400D01*
X68738588Y-57790400D01*
X68692232Y-57785835D01*
X68653562Y-57774104D01*
X68617923Y-57755054D01*
X68586683Y-57729417D01*
X68561046Y-57698177D01*
X68541996Y-57662538D01*
X68530265Y-57623868D01*
X68525700Y-57577512D01*
X68525700Y-56501288D01*
X68530265Y-56454932D01*
X68541996Y-56416262D01*
X68561046Y-56380623D01*
X68586683Y-56349383D01*
X68617923Y-56323746D01*
X68653562Y-56304696D01*
X68692232Y-56292965D01*
X68738588Y-56288400D01*
X69389812Y-56288400D01*
X69436168Y-56292965D01*
X69436168Y-56292965D01*
G37*
G36*
X59368668Y-56252965D02*
G01*
X59407338Y-56264696D01*
X59442977Y-56283746D01*
X59474217Y-56309383D01*
X59499854Y-56340623D01*
X59518904Y-56376262D01*
X59530635Y-56414932D01*
X59535200Y-56461288D01*
X59535200Y-57537512D01*
X59530635Y-57583868D01*
X59518904Y-57622538D01*
X59499854Y-57658177D01*
X59474217Y-57689417D01*
X59442977Y-57715054D01*
X59407338Y-57734104D01*
X59368668Y-57745835D01*
X59322312Y-57750400D01*
X58671088Y-57750400D01*
X58624732Y-57745835D01*
X58586062Y-57734104D01*
X58550423Y-57715054D01*
X58519183Y-57689417D01*
X58493546Y-57658177D01*
X58474496Y-57622538D01*
X58462765Y-57583868D01*
X58458200Y-57537512D01*
X58458200Y-56461288D01*
X58462765Y-56414932D01*
X58474496Y-56376262D01*
X58493546Y-56340623D01*
X58519183Y-56309383D01*
X58550423Y-56283746D01*
X58586062Y-56264696D01*
X58624732Y-56252965D01*
X58671088Y-56248400D01*
X59322312Y-56248400D01*
X59368668Y-56252965D01*
X59368668Y-56252965D01*
G37*
G36*
X61243668Y-56252965D02*
G01*
X61282338Y-56264696D01*
X61317977Y-56283746D01*
X61349217Y-56309383D01*
X61374854Y-56340623D01*
X61393904Y-56376262D01*
X61405635Y-56414932D01*
X61410200Y-56461288D01*
X61410200Y-57537512D01*
X61405635Y-57583868D01*
X61393904Y-57622538D01*
X61374854Y-57658177D01*
X61349217Y-57689417D01*
X61317977Y-57715054D01*
X61282338Y-57734104D01*
X61243668Y-57745835D01*
X61197312Y-57750400D01*
X60546088Y-57750400D01*
X60499732Y-57745835D01*
X60461062Y-57734104D01*
X60425423Y-57715054D01*
X60394183Y-57689417D01*
X60368546Y-57658177D01*
X60349496Y-57622538D01*
X60337765Y-57583868D01*
X60333200Y-57537512D01*
X60333200Y-56461288D01*
X60337765Y-56414932D01*
X60349496Y-56376262D01*
X60368546Y-56340623D01*
X60394183Y-56309383D01*
X60425423Y-56283746D01*
X60461062Y-56264696D01*
X60499732Y-56252965D01*
X60546088Y-56248400D01*
X61197312Y-56248400D01*
X61243668Y-56252965D01*
X61243668Y-56252965D01*
G37*
G36*
X24474549Y-54871116D02*
G01*
X24585734Y-54893232D01*
X24795203Y-54979997D01*
X24983720Y-55105960D01*
X25144040Y-55266280D01*
X25270003Y-55454797D01*
X25356768Y-55664266D01*
X25401000Y-55886636D01*
X25401000Y-56113364D01*
X25356768Y-56335734D01*
X25270003Y-56545203D01*
X25144040Y-56733720D01*
X24983720Y-56894040D01*
X24795203Y-57020003D01*
X24585734Y-57106768D01*
X24474549Y-57128884D01*
X24363365Y-57151000D01*
X24136635Y-57151000D01*
X24025451Y-57128884D01*
X23914266Y-57106768D01*
X23704797Y-57020003D01*
X23516280Y-56894040D01*
X23355960Y-56733720D01*
X23229997Y-56545203D01*
X23143232Y-56335734D01*
X23099000Y-56113364D01*
X23099000Y-55886636D01*
X23143232Y-55664266D01*
X23229997Y-55454797D01*
X23355960Y-55266280D01*
X23516280Y-55105960D01*
X23704797Y-54979997D01*
X23914266Y-54893232D01*
X24025451Y-54871116D01*
X24136635Y-54849000D01*
X24363365Y-54849000D01*
X24474549Y-54871116D01*
X24474549Y-54871116D01*
G37*
G36*
X105974549Y-54871116D02*
G01*
X106085734Y-54893232D01*
X106295203Y-54979997D01*
X106483720Y-55105960D01*
X106644040Y-55266280D01*
X106770003Y-55454797D01*
X106856768Y-55664266D01*
X106901000Y-55886636D01*
X106901000Y-56113364D01*
X106856768Y-56335734D01*
X106770003Y-56545203D01*
X106644040Y-56733720D01*
X106483720Y-56894040D01*
X106295203Y-57020003D01*
X106085734Y-57106768D01*
X105974549Y-57128884D01*
X105863365Y-57151000D01*
X105636635Y-57151000D01*
X105525451Y-57128884D01*
X105414266Y-57106768D01*
X105204797Y-57020003D01*
X105016280Y-56894040D01*
X104855960Y-56733720D01*
X104729997Y-56545203D01*
X104643232Y-56335734D01*
X104599000Y-56113364D01*
X104599000Y-55886636D01*
X104643232Y-55664266D01*
X104729997Y-55454797D01*
X104855960Y-55266280D01*
X105016280Y-55105960D01*
X105204797Y-54979997D01*
X105414266Y-54893232D01*
X105525451Y-54871116D01*
X105636635Y-54849000D01*
X105863365Y-54849000D01*
X105974549Y-54871116D01*
X105974549Y-54871116D01*
G37*
G36*
X45252223Y-54331313D02*
G01*
X45412642Y-54379976D01*
X45545306Y-54450886D01*
X45560478Y-54458996D01*
X45690059Y-54565341D01*
X45796404Y-54694922D01*
X45796405Y-54694924D01*
X45875424Y-54842758D01*
X45924087Y-55003177D01*
X45940517Y-55170000D01*
X45924087Y-55336823D01*
X45875424Y-55497242D01*
X45804514Y-55629906D01*
X45796404Y-55645078D01*
X45690059Y-55774659D01*
X45560478Y-55881004D01*
X45560476Y-55881005D01*
X45412642Y-55960024D01*
X45252223Y-56008687D01*
X45127204Y-56021000D01*
X45043596Y-56021000D01*
X44918577Y-56008687D01*
X44758158Y-55960024D01*
X44610324Y-55881005D01*
X44610322Y-55881004D01*
X44480741Y-55774659D01*
X44374396Y-55645078D01*
X44366286Y-55629906D01*
X44295376Y-55497242D01*
X44246713Y-55336823D01*
X44230283Y-55170000D01*
X44246713Y-55003177D01*
X44295376Y-54842758D01*
X44374395Y-54694924D01*
X44374396Y-54694922D01*
X44480741Y-54565341D01*
X44610322Y-54458996D01*
X44625494Y-54450886D01*
X44758158Y-54379976D01*
X44918577Y-54331313D01*
X45043596Y-54319000D01*
X45127204Y-54319000D01*
X45252223Y-54331313D01*
X45252223Y-54331313D01*
G37*
G36*
X92701423Y-54331313D02*
G01*
X92861842Y-54379976D01*
X92994506Y-54450886D01*
X93009678Y-54458996D01*
X93139259Y-54565341D01*
X93245604Y-54694922D01*
X93245605Y-54694924D01*
X93324624Y-54842758D01*
X93373287Y-55003177D01*
X93389717Y-55170000D01*
X93373287Y-55336823D01*
X93324624Y-55497242D01*
X93253714Y-55629906D01*
X93245604Y-55645078D01*
X93139259Y-55774659D01*
X93009678Y-55881004D01*
X93009676Y-55881005D01*
X92861842Y-55960024D01*
X92701423Y-56008687D01*
X92576404Y-56021000D01*
X92492796Y-56021000D01*
X92367777Y-56008687D01*
X92207358Y-55960024D01*
X92059524Y-55881005D01*
X92059522Y-55881004D01*
X91929941Y-55774659D01*
X91823596Y-55645078D01*
X91815486Y-55629906D01*
X91744576Y-55497242D01*
X91695913Y-55336823D01*
X91679483Y-55170000D01*
X91695913Y-55003177D01*
X91744576Y-54842758D01*
X91823595Y-54694924D01*
X91823596Y-54694922D01*
X91929941Y-54565341D01*
X92059522Y-54458996D01*
X92074694Y-54450886D01*
X92207358Y-54379976D01*
X92367777Y-54331313D01*
X92492796Y-54319000D01*
X92576404Y-54319000D01*
X92701423Y-54331313D01*
X92701423Y-54331313D01*
G37*
G36*
X85081423Y-54331313D02*
G01*
X85241842Y-54379976D01*
X85374506Y-54450886D01*
X85389678Y-54458996D01*
X85519259Y-54565341D01*
X85625604Y-54694922D01*
X85625605Y-54694924D01*
X85704624Y-54842758D01*
X85753287Y-55003177D01*
X85769717Y-55170000D01*
X85753287Y-55336823D01*
X85704624Y-55497242D01*
X85633714Y-55629906D01*
X85625604Y-55645078D01*
X85519259Y-55774659D01*
X85389678Y-55881004D01*
X85389676Y-55881005D01*
X85241842Y-55960024D01*
X85081423Y-56008687D01*
X84956404Y-56021000D01*
X84872796Y-56021000D01*
X84747777Y-56008687D01*
X84587358Y-55960024D01*
X84439524Y-55881005D01*
X84439522Y-55881004D01*
X84309941Y-55774659D01*
X84203596Y-55645078D01*
X84195486Y-55629906D01*
X84124576Y-55497242D01*
X84075913Y-55336823D01*
X84059483Y-55170000D01*
X84075913Y-55003177D01*
X84124576Y-54842758D01*
X84203595Y-54694924D01*
X84203596Y-54694922D01*
X84309941Y-54565341D01*
X84439522Y-54458996D01*
X84454694Y-54450886D01*
X84587358Y-54379976D01*
X84747777Y-54331313D01*
X84872796Y-54319000D01*
X84956404Y-54319000D01*
X85081423Y-54331313D01*
X85081423Y-54331313D01*
G37*
G36*
X37632223Y-54331313D02*
G01*
X37792642Y-54379976D01*
X37925306Y-54450886D01*
X37940478Y-54458996D01*
X38070059Y-54565341D01*
X38176404Y-54694922D01*
X38176405Y-54694924D01*
X38255424Y-54842758D01*
X38304087Y-55003177D01*
X38320517Y-55170000D01*
X38304087Y-55336823D01*
X38255424Y-55497242D01*
X38184514Y-55629906D01*
X38176404Y-55645078D01*
X38070059Y-55774659D01*
X37940478Y-55881004D01*
X37940476Y-55881005D01*
X37792642Y-55960024D01*
X37632223Y-56008687D01*
X37507204Y-56021000D01*
X37423596Y-56021000D01*
X37298577Y-56008687D01*
X37138158Y-55960024D01*
X36990324Y-55881005D01*
X36990322Y-55881004D01*
X36860741Y-55774659D01*
X36754396Y-55645078D01*
X36746286Y-55629906D01*
X36675376Y-55497242D01*
X36626713Y-55336823D01*
X36610283Y-55170000D01*
X36626713Y-55003177D01*
X36675376Y-54842758D01*
X36754395Y-54694924D01*
X36754396Y-54694922D01*
X36860741Y-54565341D01*
X36990322Y-54458996D01*
X37005494Y-54450886D01*
X37138158Y-54379976D01*
X37298577Y-54331313D01*
X37423596Y-54319000D01*
X37507204Y-54319000D01*
X37632223Y-54331313D01*
X37632223Y-54331313D01*
G37*
G36*
X85081423Y-51791313D02*
G01*
X85241842Y-51839976D01*
X85374506Y-51910886D01*
X85389678Y-51918996D01*
X85519259Y-52025341D01*
X85625604Y-52154922D01*
X85625605Y-52154924D01*
X85704624Y-52302758D01*
X85753287Y-52463177D01*
X85769717Y-52630000D01*
X85753287Y-52796823D01*
X85704624Y-52957242D01*
X85633714Y-53089906D01*
X85625604Y-53105078D01*
X85519259Y-53234659D01*
X85389678Y-53341004D01*
X85389676Y-53341005D01*
X85241842Y-53420024D01*
X85081423Y-53468687D01*
X84956404Y-53481000D01*
X84872796Y-53481000D01*
X84747777Y-53468687D01*
X84587358Y-53420024D01*
X84439524Y-53341005D01*
X84439522Y-53341004D01*
X84309941Y-53234659D01*
X84203596Y-53105078D01*
X84195486Y-53089906D01*
X84124576Y-52957242D01*
X84075913Y-52796823D01*
X84059483Y-52630000D01*
X84075913Y-52463177D01*
X84124576Y-52302758D01*
X84203595Y-52154924D01*
X84203596Y-52154922D01*
X84309941Y-52025341D01*
X84439522Y-51918996D01*
X84454694Y-51910886D01*
X84587358Y-51839976D01*
X84747777Y-51791313D01*
X84872796Y-51779000D01*
X84956404Y-51779000D01*
X85081423Y-51791313D01*
X85081423Y-51791313D01*
G37*
G36*
X92701423Y-51791313D02*
G01*
X92861842Y-51839976D01*
X92994506Y-51910886D01*
X93009678Y-51918996D01*
X93139259Y-52025341D01*
X93245604Y-52154922D01*
X93245605Y-52154924D01*
X93324624Y-52302758D01*
X93373287Y-52463177D01*
X93389717Y-52630000D01*
X93373287Y-52796823D01*
X93324624Y-52957242D01*
X93253714Y-53089906D01*
X93245604Y-53105078D01*
X93139259Y-53234659D01*
X93009678Y-53341004D01*
X93009676Y-53341005D01*
X92861842Y-53420024D01*
X92701423Y-53468687D01*
X92576404Y-53481000D01*
X92492796Y-53481000D01*
X92367777Y-53468687D01*
X92207358Y-53420024D01*
X92059524Y-53341005D01*
X92059522Y-53341004D01*
X91929941Y-53234659D01*
X91823596Y-53105078D01*
X91815486Y-53089906D01*
X91744576Y-52957242D01*
X91695913Y-52796823D01*
X91679483Y-52630000D01*
X91695913Y-52463177D01*
X91744576Y-52302758D01*
X91823595Y-52154924D01*
X91823596Y-52154922D01*
X91929941Y-52025341D01*
X92059522Y-51918996D01*
X92074694Y-51910886D01*
X92207358Y-51839976D01*
X92367777Y-51791313D01*
X92492796Y-51779000D01*
X92576404Y-51779000D01*
X92701423Y-51791313D01*
X92701423Y-51791313D01*
G37*
G36*
X38316400Y-53481000D02*
G01*
X36614400Y-53481000D01*
X36614400Y-51779000D01*
X38316400Y-51779000D01*
X38316400Y-53481000D01*
X38316400Y-53481000D01*
G37*
G36*
X45252223Y-51791313D02*
G01*
X45412642Y-51839976D01*
X45545306Y-51910886D01*
X45560478Y-51918996D01*
X45690059Y-52025341D01*
X45796404Y-52154922D01*
X45796405Y-52154924D01*
X45875424Y-52302758D01*
X45924087Y-52463177D01*
X45940517Y-52630000D01*
X45924087Y-52796823D01*
X45875424Y-52957242D01*
X45804514Y-53089906D01*
X45796404Y-53105078D01*
X45690059Y-53234659D01*
X45560478Y-53341004D01*
X45560476Y-53341005D01*
X45412642Y-53420024D01*
X45252223Y-53468687D01*
X45127204Y-53481000D01*
X45043596Y-53481000D01*
X44918577Y-53468687D01*
X44758158Y-53420024D01*
X44610324Y-53341005D01*
X44610322Y-53341004D01*
X44480741Y-53234659D01*
X44374396Y-53105078D01*
X44366286Y-53089906D01*
X44295376Y-52957242D01*
X44246713Y-52796823D01*
X44230283Y-52630000D01*
X44246713Y-52463177D01*
X44295376Y-52302758D01*
X44374395Y-52154924D01*
X44374396Y-52154922D01*
X44480741Y-52025341D01*
X44610322Y-51918996D01*
X44625494Y-51910886D01*
X44758158Y-51839976D01*
X44918577Y-51791313D01*
X45043596Y-51779000D01*
X45127204Y-51779000D01*
X45252223Y-51791313D01*
X45252223Y-51791313D01*
G37*
G36*
X48323650Y-42972888D02*
G01*
X48634869Y-43067296D01*
X48921682Y-43220601D01*
X48921684Y-43220602D01*
X48921683Y-43220602D01*
X49173082Y-43426918D01*
X49379398Y-43678316D01*
X49379401Y-43678320D01*
X49532704Y-43965130D01*
X49627112Y-44276349D01*
X49651000Y-44518893D01*
X49651000Y-45981107D01*
X49627112Y-46223651D01*
X49532704Y-46534870D01*
X49379401Y-46821680D01*
X49379399Y-46821683D01*
X49379398Y-46821684D01*
X49173082Y-47073082D01*
X48921684Y-47279398D01*
X48921680Y-47279401D01*
X48634870Y-47432704D01*
X48323651Y-47527112D01*
X48000000Y-47558988D01*
X47676350Y-47527112D01*
X47365131Y-47432704D01*
X47078321Y-47279401D01*
X47078317Y-47279398D01*
X46826919Y-47073082D01*
X46620603Y-46821684D01*
X46620602Y-46821683D01*
X46620600Y-46821680D01*
X46467295Y-46534867D01*
X46372888Y-46223654D01*
X46349000Y-45981107D01*
X46349000Y-44518894D01*
X46372888Y-44276350D01*
X46467296Y-43965131D01*
X46620601Y-43678318D01*
X46826916Y-43426921D01*
X46826918Y-43426918D01*
X47078316Y-43220602D01*
X47078317Y-43220601D01*
X47078320Y-43220599D01*
X47365130Y-43067296D01*
X47676349Y-42972888D01*
X48000000Y-42941012D01*
X48323650Y-42972888D01*
X48323650Y-42972888D01*
G37*
G36*
X41823650Y-42972888D02*
G01*
X42134869Y-43067296D01*
X42421682Y-43220601D01*
X42421684Y-43220602D01*
X42421683Y-43220602D01*
X42673082Y-43426918D01*
X42879398Y-43678316D01*
X42879401Y-43678320D01*
X43032704Y-43965130D01*
X43127112Y-44276349D01*
X43151000Y-44518893D01*
X43151000Y-45981107D01*
X43127112Y-46223651D01*
X43032704Y-46534870D01*
X42879401Y-46821680D01*
X42879399Y-46821683D01*
X42879398Y-46821684D01*
X42673082Y-47073082D01*
X42421684Y-47279398D01*
X42421680Y-47279401D01*
X42134870Y-47432704D01*
X41823651Y-47527112D01*
X41500000Y-47558988D01*
X41176350Y-47527112D01*
X40865131Y-47432704D01*
X40578321Y-47279401D01*
X40578317Y-47279398D01*
X40326919Y-47073082D01*
X40120603Y-46821684D01*
X40120602Y-46821683D01*
X40120600Y-46821680D01*
X39967295Y-46534867D01*
X39872888Y-46223654D01*
X39849000Y-45981107D01*
X39849000Y-44518894D01*
X39872888Y-44276350D01*
X39967296Y-43965131D01*
X40120601Y-43678318D01*
X40326916Y-43426921D01*
X40326918Y-43426918D01*
X40578316Y-43220602D01*
X40578317Y-43220601D01*
X40578320Y-43220599D01*
X40865130Y-43067296D01*
X41176349Y-42972888D01*
X41500000Y-42941012D01*
X41823650Y-42972888D01*
X41823650Y-42972888D01*
G37*
G36*
X82323650Y-42972888D02*
G01*
X82634869Y-43067296D01*
X82921682Y-43220601D01*
X82921684Y-43220602D01*
X82921683Y-43220602D01*
X83173082Y-43426918D01*
X83379398Y-43678316D01*
X83379401Y-43678320D01*
X83532704Y-43965130D01*
X83627112Y-44276349D01*
X83651000Y-44518893D01*
X83651000Y-45981107D01*
X83627112Y-46223651D01*
X83532704Y-46534870D01*
X83379401Y-46821680D01*
X83379399Y-46821683D01*
X83379398Y-46821684D01*
X83173082Y-47073082D01*
X82921684Y-47279398D01*
X82921680Y-47279401D01*
X82634870Y-47432704D01*
X82323651Y-47527112D01*
X82000000Y-47558988D01*
X81676350Y-47527112D01*
X81365131Y-47432704D01*
X81078321Y-47279401D01*
X81078317Y-47279398D01*
X80826919Y-47073082D01*
X80620603Y-46821684D01*
X80620602Y-46821683D01*
X80620600Y-46821680D01*
X80467295Y-46534867D01*
X80372888Y-46223654D01*
X80349000Y-45981107D01*
X80349000Y-44518894D01*
X80372888Y-44276350D01*
X80467296Y-43965131D01*
X80620601Y-43678318D01*
X80826916Y-43426921D01*
X80826918Y-43426918D01*
X81078316Y-43220602D01*
X81078317Y-43220601D01*
X81078320Y-43220599D01*
X81365130Y-43067296D01*
X81676349Y-42972888D01*
X82000000Y-42941012D01*
X82323650Y-42972888D01*
X82323650Y-42972888D01*
G37*
G36*
X88823650Y-42972888D02*
G01*
X89134869Y-43067296D01*
X89421682Y-43220601D01*
X89421684Y-43220602D01*
X89421683Y-43220602D01*
X89673082Y-43426918D01*
X89879398Y-43678316D01*
X89879401Y-43678320D01*
X90032704Y-43965130D01*
X90127112Y-44276349D01*
X90151000Y-44518893D01*
X90151000Y-45981107D01*
X90127112Y-46223651D01*
X90032704Y-46534870D01*
X89879401Y-46821680D01*
X89879399Y-46821683D01*
X89879398Y-46821684D01*
X89673082Y-47073082D01*
X89421684Y-47279398D01*
X89421680Y-47279401D01*
X89134870Y-47432704D01*
X88823651Y-47527112D01*
X88500000Y-47558988D01*
X88176350Y-47527112D01*
X87865131Y-47432704D01*
X87578321Y-47279401D01*
X87578317Y-47279398D01*
X87326919Y-47073082D01*
X87120603Y-46821684D01*
X87120602Y-46821683D01*
X87120600Y-46821680D01*
X86967295Y-46534867D01*
X86872888Y-46223654D01*
X86849000Y-45981107D01*
X86849000Y-44518894D01*
X86872888Y-44276350D01*
X86967296Y-43965131D01*
X87120601Y-43678318D01*
X87326916Y-43426921D01*
X87326918Y-43426918D01*
X87578316Y-43220602D01*
X87578317Y-43220601D01*
X87578320Y-43220599D01*
X87865130Y-43067296D01*
X88176349Y-42972888D01*
X88500000Y-42941012D01*
X88823650Y-42972888D01*
X88823650Y-42972888D01*
G37*
G36*
X104746162Y-37864368D02*
G01*
X105055724Y-37992593D01*
X105055725Y-37992594D01*
X105334324Y-38178747D01*
X105571253Y-38415676D01*
X105592331Y-38447222D01*
X105757407Y-38694276D01*
X105885632Y-39003838D01*
X105951000Y-39332465D01*
X105951000Y-39667535D01*
X105885632Y-39996162D01*
X105757407Y-40305724D01*
X105757406Y-40305725D01*
X105571253Y-40584324D01*
X105334324Y-40821253D01*
X105148170Y-40945637D01*
X105055724Y-41007407D01*
X104746162Y-41135632D01*
X104417535Y-41201000D01*
X104082465Y-41201000D01*
X103753838Y-41135632D01*
X103444276Y-41007407D01*
X103351830Y-40945637D01*
X103165676Y-40821253D01*
X102928747Y-40584324D01*
X102742594Y-40305725D01*
X102742593Y-40305724D01*
X102614368Y-39996162D01*
X102549000Y-39667535D01*
X102549000Y-39332465D01*
X102614368Y-39003838D01*
X102742593Y-38694276D01*
X102907669Y-38447222D01*
X102928747Y-38415676D01*
X103165676Y-38178747D01*
X103444275Y-37992594D01*
X103444276Y-37992593D01*
X103753838Y-37864368D01*
X104082465Y-37799000D01*
X104417535Y-37799000D01*
X104746162Y-37864368D01*
X104746162Y-37864368D01*
G37*
G36*
X26246162Y-37864368D02*
G01*
X26555724Y-37992593D01*
X26555725Y-37992594D01*
X26834324Y-38178747D01*
X27071253Y-38415676D01*
X27092331Y-38447222D01*
X27257407Y-38694276D01*
X27385632Y-39003838D01*
X27451000Y-39332465D01*
X27451000Y-39667535D01*
X27385632Y-39996162D01*
X27257407Y-40305724D01*
X27257406Y-40305725D01*
X27071253Y-40584324D01*
X26834324Y-40821253D01*
X26648170Y-40945637D01*
X26555724Y-41007407D01*
X26246162Y-41135632D01*
X25917535Y-41201000D01*
X25582465Y-41201000D01*
X25253838Y-41135632D01*
X24944276Y-41007407D01*
X24851830Y-40945637D01*
X24665676Y-40821253D01*
X24428747Y-40584324D01*
X24242594Y-40305725D01*
X24242593Y-40305724D01*
X24114368Y-39996162D01*
X24049000Y-39667535D01*
X24049000Y-39332465D01*
X24114368Y-39003838D01*
X24242593Y-38694276D01*
X24407669Y-38447222D01*
X24428747Y-38415676D01*
X24665676Y-38178747D01*
X24944275Y-37992594D01*
X24944276Y-37992593D01*
X25253838Y-37864368D01*
X25582465Y-37799000D01*
X25917535Y-37799000D01*
X26246162Y-37864368D01*
X26246162Y-37864368D01*
G37*
G36*
X21860442Y-38305518D02*
G01*
X21926627Y-38312037D01*
X22096466Y-38363557D01*
X22252991Y-38447222D01*
X22288729Y-38476552D01*
X22390186Y-38559814D01*
X22473448Y-38661271D01*
X22502778Y-38697009D01*
X22586443Y-38853534D01*
X22637963Y-39023373D01*
X22655359Y-39200000D01*
X22637963Y-39376627D01*
X22586443Y-39546466D01*
X22502778Y-39702991D01*
X22473448Y-39738729D01*
X22390186Y-39840186D01*
X22288729Y-39923448D01*
X22252991Y-39952778D01*
X22096466Y-40036443D01*
X21926627Y-40087963D01*
X21860442Y-40094482D01*
X21794260Y-40101000D01*
X21705740Y-40101000D01*
X21639558Y-40094482D01*
X21573373Y-40087963D01*
X21403534Y-40036443D01*
X21247009Y-39952778D01*
X21211271Y-39923448D01*
X21109814Y-39840186D01*
X21026552Y-39738729D01*
X20997222Y-39702991D01*
X20913557Y-39546466D01*
X20862037Y-39376627D01*
X20844641Y-39200000D01*
X20862037Y-39023373D01*
X20913557Y-38853534D01*
X20997222Y-38697009D01*
X21026552Y-38661271D01*
X21109814Y-38559814D01*
X21211271Y-38476552D01*
X21247009Y-38447222D01*
X21403534Y-38363557D01*
X21573373Y-38312037D01*
X21639558Y-38305518D01*
X21705740Y-38299000D01*
X21794260Y-38299000D01*
X21860442Y-38305518D01*
X21860442Y-38305518D01*
G37*
G36*
X109151000Y-40101000D02*
G01*
X107349000Y-40101000D01*
X107349000Y-38299000D01*
X109151000Y-38299000D01*
X109151000Y-40101000D01*
X109151000Y-40101000D01*
G37*
G36*
X108360443Y-35765519D02*
G01*
X108426627Y-35772037D01*
X108596466Y-35823557D01*
X108752991Y-35907222D01*
X108788729Y-35936552D01*
X108890186Y-36019814D01*
X108973448Y-36121271D01*
X109002778Y-36157009D01*
X109086443Y-36313534D01*
X109137963Y-36483373D01*
X109155359Y-36660000D01*
X109137963Y-36836627D01*
X109086443Y-37006466D01*
X109002778Y-37162991D01*
X108973448Y-37198729D01*
X108890186Y-37300186D01*
X108788729Y-37383448D01*
X108752991Y-37412778D01*
X108596466Y-37496443D01*
X108426627Y-37547963D01*
X108360443Y-37554481D01*
X108294260Y-37561000D01*
X108205740Y-37561000D01*
X108139557Y-37554481D01*
X108073373Y-37547963D01*
X107903534Y-37496443D01*
X107747009Y-37412778D01*
X107711271Y-37383448D01*
X107609814Y-37300186D01*
X107526552Y-37198729D01*
X107497222Y-37162991D01*
X107413557Y-37006466D01*
X107362037Y-36836627D01*
X107344641Y-36660000D01*
X107362037Y-36483373D01*
X107413557Y-36313534D01*
X107497222Y-36157009D01*
X107526552Y-36121271D01*
X107609814Y-36019814D01*
X107711271Y-35936552D01*
X107747009Y-35907222D01*
X107903534Y-35823557D01*
X108073373Y-35772037D01*
X108139557Y-35765519D01*
X108205740Y-35759000D01*
X108294260Y-35759000D01*
X108360443Y-35765519D01*
X108360443Y-35765519D01*
G37*
G36*
X21860443Y-35765519D02*
G01*
X21926627Y-35772037D01*
X22096466Y-35823557D01*
X22252991Y-35907222D01*
X22288729Y-35936552D01*
X22390186Y-36019814D01*
X22473448Y-36121271D01*
X22502778Y-36157009D01*
X22586443Y-36313534D01*
X22637963Y-36483373D01*
X22655359Y-36660000D01*
X22637963Y-36836627D01*
X22586443Y-37006466D01*
X22502778Y-37162991D01*
X22473448Y-37198729D01*
X22390186Y-37300186D01*
X22288729Y-37383448D01*
X22252991Y-37412778D01*
X22096466Y-37496443D01*
X21926627Y-37547963D01*
X21860443Y-37554481D01*
X21794260Y-37561000D01*
X21705740Y-37561000D01*
X21639557Y-37554481D01*
X21573373Y-37547963D01*
X21403534Y-37496443D01*
X21247009Y-37412778D01*
X21211271Y-37383448D01*
X21109814Y-37300186D01*
X21026552Y-37198729D01*
X20997222Y-37162991D01*
X20913557Y-37006466D01*
X20862037Y-36836627D01*
X20844641Y-36660000D01*
X20862037Y-36483373D01*
X20913557Y-36313534D01*
X20997222Y-36157009D01*
X21026552Y-36121271D01*
X21109814Y-36019814D01*
X21211271Y-35936552D01*
X21247009Y-35907222D01*
X21403534Y-35823557D01*
X21573373Y-35772037D01*
X21639557Y-35765519D01*
X21705740Y-35759000D01*
X21794260Y-35759000D01*
X21860443Y-35765519D01*
X21860443Y-35765519D01*
G37*
G36*
X36334468Y-34653565D02*
G01*
X36373138Y-34665296D01*
X36408777Y-34684346D01*
X36440017Y-34709983D01*
X36465654Y-34741223D01*
X36484704Y-34776862D01*
X36496435Y-34815532D01*
X36501000Y-34861888D01*
X36501000Y-35513112D01*
X36496435Y-35559468D01*
X36484704Y-35598138D01*
X36465654Y-35633777D01*
X36440017Y-35665017D01*
X36408777Y-35690654D01*
X36373138Y-35709704D01*
X36334468Y-35721435D01*
X36288112Y-35726000D01*
X35211888Y-35726000D01*
X35165532Y-35721435D01*
X35126862Y-35709704D01*
X35091223Y-35690654D01*
X35059983Y-35665017D01*
X35034346Y-35633777D01*
X35015296Y-35598138D01*
X35003565Y-35559468D01*
X34999000Y-35513112D01*
X34999000Y-34861888D01*
X35003565Y-34815532D01*
X35015296Y-34776862D01*
X35034346Y-34741223D01*
X35059983Y-34709983D01*
X35091223Y-34684346D01*
X35126862Y-34665296D01*
X35165532Y-34653565D01*
X35211888Y-34649000D01*
X36288112Y-34649000D01*
X36334468Y-34653565D01*
X36334468Y-34653565D01*
G37*
G36*
X88270400Y-35505400D02*
G01*
X87609600Y-35505400D01*
X87609600Y-33942900D01*
X88270400Y-33942900D01*
X88270400Y-35505400D01*
X88270400Y-35505400D01*
G37*
G36*
X95890400Y-35505400D02*
G01*
X95229600Y-35505400D01*
X95229600Y-33942900D01*
X95890400Y-33942900D01*
X95890400Y-35505400D01*
X95890400Y-35505400D01*
G37*
G36*
X94620400Y-35505400D02*
G01*
X93959600Y-35505400D01*
X93959600Y-33942900D01*
X94620400Y-33942900D01*
X94620400Y-35505400D01*
X94620400Y-35505400D01*
G37*
G36*
X93350400Y-35505400D02*
G01*
X92689600Y-35505400D01*
X92689600Y-33942900D01*
X93350400Y-33942900D01*
X93350400Y-35505400D01*
X93350400Y-35505400D01*
G37*
G36*
X89540400Y-35505400D02*
G01*
X88879600Y-35505400D01*
X88879600Y-33942900D01*
X89540400Y-33942900D01*
X89540400Y-35505400D01*
X89540400Y-35505400D01*
G37*
G36*
X90810400Y-35505400D02*
G01*
X90149600Y-35505400D01*
X90149600Y-33942900D01*
X90810400Y-33942900D01*
X90810400Y-35505400D01*
X90810400Y-35505400D01*
G37*
G36*
X92080400Y-35505400D02*
G01*
X91419600Y-35505400D01*
X91419600Y-33942900D01*
X92080400Y-33942900D01*
X92080400Y-35505400D01*
X92080400Y-35505400D01*
G37*
G36*
X21860442Y-33225518D02*
G01*
X21926627Y-33232037D01*
X22096466Y-33283557D01*
X22252991Y-33367222D01*
X22273163Y-33383777D01*
X22390186Y-33479814D01*
X22473448Y-33581271D01*
X22502778Y-33617009D01*
X22586443Y-33773534D01*
X22637963Y-33943373D01*
X22655359Y-34120000D01*
X22637963Y-34296627D01*
X22586443Y-34466466D01*
X22502778Y-34622991D01*
X22481433Y-34649000D01*
X22390186Y-34760186D01*
X22288729Y-34843448D01*
X22252991Y-34872778D01*
X22096466Y-34956443D01*
X21926627Y-35007963D01*
X21860442Y-35014482D01*
X21794260Y-35021000D01*
X21705740Y-35021000D01*
X21639558Y-35014482D01*
X21573373Y-35007963D01*
X21403534Y-34956443D01*
X21247009Y-34872778D01*
X21211271Y-34843448D01*
X21109814Y-34760186D01*
X21018567Y-34649000D01*
X20997222Y-34622991D01*
X20913557Y-34466466D01*
X20862037Y-34296627D01*
X20844641Y-34120000D01*
X20862037Y-33943373D01*
X20913557Y-33773534D01*
X20997222Y-33617009D01*
X21026552Y-33581271D01*
X21109814Y-33479814D01*
X21226837Y-33383777D01*
X21247009Y-33367222D01*
X21403534Y-33283557D01*
X21573373Y-33232037D01*
X21639558Y-33225518D01*
X21705740Y-33219000D01*
X21794260Y-33219000D01*
X21860442Y-33225518D01*
X21860442Y-33225518D01*
G37*
G36*
X108360442Y-33225518D02*
G01*
X108426627Y-33232037D01*
X108596466Y-33283557D01*
X108752991Y-33367222D01*
X108773163Y-33383777D01*
X108890186Y-33479814D01*
X108973448Y-33581271D01*
X109002778Y-33617009D01*
X109086443Y-33773534D01*
X109137963Y-33943373D01*
X109155359Y-34120000D01*
X109137963Y-34296627D01*
X109086443Y-34466466D01*
X109002778Y-34622991D01*
X108981433Y-34649000D01*
X108890186Y-34760186D01*
X108788729Y-34843448D01*
X108752991Y-34872778D01*
X108596466Y-34956443D01*
X108426627Y-35007963D01*
X108360442Y-35014482D01*
X108294260Y-35021000D01*
X108205740Y-35021000D01*
X108139558Y-35014482D01*
X108073373Y-35007963D01*
X107903534Y-34956443D01*
X107747009Y-34872778D01*
X107711271Y-34843448D01*
X107609814Y-34760186D01*
X107518567Y-34649000D01*
X107497222Y-34622991D01*
X107413557Y-34466466D01*
X107362037Y-34296627D01*
X107344641Y-34120000D01*
X107362037Y-33943373D01*
X107413557Y-33773534D01*
X107497222Y-33617009D01*
X107526552Y-33581271D01*
X107609814Y-33479814D01*
X107726837Y-33383777D01*
X107747009Y-33367222D01*
X107903534Y-33283557D01*
X108073373Y-33232037D01*
X108139558Y-33225518D01*
X108205740Y-33219000D01*
X108294260Y-33219000D01*
X108360442Y-33225518D01*
X108360442Y-33225518D01*
G37*
G36*
X36334468Y-32778565D02*
G01*
X36373138Y-32790296D01*
X36408777Y-32809346D01*
X36440017Y-32834983D01*
X36465654Y-32866223D01*
X36484704Y-32901862D01*
X36496435Y-32940532D01*
X36501000Y-32986888D01*
X36501000Y-33638112D01*
X36496435Y-33684468D01*
X36484704Y-33723138D01*
X36465654Y-33758777D01*
X36440017Y-33790017D01*
X36408777Y-33815654D01*
X36373138Y-33834704D01*
X36334468Y-33846435D01*
X36288112Y-33851000D01*
X35211888Y-33851000D01*
X35165532Y-33846435D01*
X35126862Y-33834704D01*
X35091223Y-33815654D01*
X35059983Y-33790017D01*
X35034346Y-33758777D01*
X35015296Y-33723138D01*
X35003565Y-33684468D01*
X34999000Y-33638112D01*
X34999000Y-32986888D01*
X35003565Y-32940532D01*
X35015296Y-32901862D01*
X35034346Y-32866223D01*
X35059983Y-32834983D01*
X35091223Y-32809346D01*
X35126862Y-32790296D01*
X35165532Y-32778565D01*
X35211888Y-32774000D01*
X36288112Y-32774000D01*
X36334468Y-32778565D01*
X36334468Y-32778565D01*
G37*
G36*
X86334468Y-32403565D02*
G01*
X86373138Y-32415296D01*
X86408777Y-32434346D01*
X86440017Y-32459983D01*
X86465654Y-32491223D01*
X86484704Y-32526862D01*
X86496435Y-32565532D01*
X86501000Y-32611888D01*
X86501000Y-33263112D01*
X86496435Y-33309468D01*
X86484704Y-33348138D01*
X86465654Y-33383777D01*
X86440017Y-33415017D01*
X86408777Y-33440654D01*
X86373138Y-33459704D01*
X86334468Y-33471435D01*
X86288112Y-33476000D01*
X85211888Y-33476000D01*
X85165532Y-33471435D01*
X85126862Y-33459704D01*
X85091223Y-33440654D01*
X85059983Y-33415017D01*
X85034346Y-33383777D01*
X85015296Y-33348138D01*
X85003565Y-33309468D01*
X84999000Y-33263112D01*
X84999000Y-32611888D01*
X85003565Y-32565532D01*
X85015296Y-32526862D01*
X85034346Y-32491223D01*
X85059983Y-32459983D01*
X85091223Y-32434346D01*
X85126862Y-32415296D01*
X85165532Y-32403565D01*
X85211888Y-32399000D01*
X86288112Y-32399000D01*
X86334468Y-32403565D01*
X86334468Y-32403565D01*
G37*
G36*
X57474549Y-31121116D02*
G01*
X57585734Y-31143232D01*
X57795203Y-31229997D01*
X57983720Y-31355960D01*
X58144040Y-31516280D01*
X58200648Y-31601000D01*
X58270004Y-31704799D01*
X58356768Y-31914267D01*
X58401000Y-32136635D01*
X58401000Y-32363365D01*
X58390670Y-32415296D01*
X58356768Y-32585734D01*
X58322589Y-32668250D01*
X58276643Y-32779174D01*
X58270003Y-32795203D01*
X58144040Y-32983720D01*
X57983720Y-33144040D01*
X57795203Y-33270003D01*
X57795202Y-33270004D01*
X57795201Y-33270004D01*
X57733850Y-33295416D01*
X57585734Y-33356768D01*
X57474549Y-33378884D01*
X57363365Y-33401000D01*
X57136635Y-33401000D01*
X57025451Y-33378884D01*
X56914266Y-33356768D01*
X56766150Y-33295416D01*
X56704799Y-33270004D01*
X56704798Y-33270004D01*
X56704797Y-33270003D01*
X56516280Y-33144040D01*
X56355960Y-32983720D01*
X56229997Y-32795203D01*
X56223358Y-32779174D01*
X56177411Y-32668250D01*
X56143232Y-32585734D01*
X56109330Y-32415296D01*
X56099000Y-32363365D01*
X56099000Y-32136635D01*
X56143232Y-31914267D01*
X56229996Y-31704799D01*
X56299352Y-31601000D01*
X56355960Y-31516280D01*
X56516280Y-31355960D01*
X56704797Y-31229997D01*
X56914266Y-31143232D01*
X57025451Y-31121116D01*
X57136635Y-31099000D01*
X57363365Y-31099000D01*
X57474549Y-31121116D01*
X57474549Y-31121116D01*
G37*
G36*
X72974549Y-31121116D02*
G01*
X73085734Y-31143232D01*
X73295203Y-31229997D01*
X73483720Y-31355960D01*
X73644040Y-31516280D01*
X73700648Y-31601000D01*
X73770004Y-31704799D01*
X73856768Y-31914267D01*
X73901000Y-32136635D01*
X73901000Y-32363365D01*
X73890670Y-32415296D01*
X73856768Y-32585734D01*
X73822589Y-32668250D01*
X73776643Y-32779174D01*
X73770003Y-32795203D01*
X73644040Y-32983720D01*
X73483720Y-33144040D01*
X73295203Y-33270003D01*
X73295202Y-33270004D01*
X73295201Y-33270004D01*
X73233850Y-33295416D01*
X73085734Y-33356768D01*
X72974549Y-33378884D01*
X72863365Y-33401000D01*
X72636635Y-33401000D01*
X72525451Y-33378884D01*
X72414266Y-33356768D01*
X72266150Y-33295416D01*
X72204799Y-33270004D01*
X72204798Y-33270004D01*
X72204797Y-33270003D01*
X72016280Y-33144040D01*
X71855960Y-32983720D01*
X71729997Y-32795203D01*
X71723358Y-32779174D01*
X71677411Y-32668250D01*
X71643232Y-32585734D01*
X71609330Y-32415296D01*
X71599000Y-32363365D01*
X71599000Y-32136635D01*
X71643232Y-31914267D01*
X71729996Y-31704799D01*
X71799352Y-31601000D01*
X71855960Y-31516280D01*
X72016280Y-31355960D01*
X72204797Y-31229997D01*
X72414266Y-31143232D01*
X72525451Y-31121116D01*
X72636635Y-31099000D01*
X72863365Y-31099000D01*
X72974549Y-31121116D01*
X72974549Y-31121116D01*
G37*
G36*
X108360442Y-30685518D02*
G01*
X108426627Y-30692037D01*
X108596466Y-30743557D01*
X108752991Y-30827222D01*
X108769247Y-30840563D01*
X108890186Y-30939814D01*
X108973448Y-31041271D01*
X109002778Y-31077009D01*
X109086443Y-31233534D01*
X109137963Y-31403373D01*
X109155359Y-31580000D01*
X109137963Y-31756627D01*
X109086443Y-31926466D01*
X109002778Y-32082991D01*
X108973448Y-32118729D01*
X108890186Y-32220186D01*
X108788729Y-32303448D01*
X108752991Y-32332778D01*
X108596466Y-32416443D01*
X108426627Y-32467963D01*
X108360443Y-32474481D01*
X108294260Y-32481000D01*
X108205740Y-32481000D01*
X108139557Y-32474481D01*
X108073373Y-32467963D01*
X107903534Y-32416443D01*
X107747009Y-32332778D01*
X107711271Y-32303448D01*
X107609814Y-32220186D01*
X107526552Y-32118729D01*
X107497222Y-32082991D01*
X107413557Y-31926466D01*
X107362037Y-31756627D01*
X107344641Y-31580000D01*
X107362037Y-31403373D01*
X107413557Y-31233534D01*
X107497222Y-31077009D01*
X107526552Y-31041271D01*
X107609814Y-30939814D01*
X107730753Y-30840563D01*
X107747009Y-30827222D01*
X107903534Y-30743557D01*
X108073373Y-30692037D01*
X108139558Y-30685518D01*
X108205740Y-30679000D01*
X108294260Y-30679000D01*
X108360442Y-30685518D01*
X108360442Y-30685518D01*
G37*
G36*
X21860442Y-30685518D02*
G01*
X21926627Y-30692037D01*
X22096466Y-30743557D01*
X22252991Y-30827222D01*
X22269247Y-30840563D01*
X22390186Y-30939814D01*
X22473448Y-31041271D01*
X22502778Y-31077009D01*
X22586443Y-31233534D01*
X22637963Y-31403373D01*
X22655359Y-31580000D01*
X22637963Y-31756627D01*
X22586443Y-31926466D01*
X22502778Y-32082991D01*
X22473448Y-32118729D01*
X22390186Y-32220186D01*
X22288729Y-32303448D01*
X22252991Y-32332778D01*
X22096466Y-32416443D01*
X21926627Y-32467963D01*
X21860443Y-32474481D01*
X21794260Y-32481000D01*
X21705740Y-32481000D01*
X21639557Y-32474481D01*
X21573373Y-32467963D01*
X21403534Y-32416443D01*
X21247009Y-32332778D01*
X21211271Y-32303448D01*
X21109814Y-32220186D01*
X21026552Y-32118729D01*
X20997222Y-32082991D01*
X20913557Y-31926466D01*
X20862037Y-31756627D01*
X20844641Y-31580000D01*
X20862037Y-31403373D01*
X20913557Y-31233534D01*
X20997222Y-31077009D01*
X21026552Y-31041271D01*
X21109814Y-30939814D01*
X21230753Y-30840563D01*
X21247009Y-30827222D01*
X21403534Y-30743557D01*
X21573373Y-30692037D01*
X21639558Y-30685518D01*
X21705740Y-30679000D01*
X21794260Y-30679000D01*
X21860442Y-30685518D01*
X21860442Y-30685518D01*
G37*
G36*
X86334468Y-30528565D02*
G01*
X86373138Y-30540296D01*
X86408777Y-30559346D01*
X86440017Y-30584983D01*
X86465654Y-30616223D01*
X86484704Y-30651862D01*
X86496435Y-30690532D01*
X86501000Y-30736888D01*
X86501000Y-31388112D01*
X86496435Y-31434468D01*
X86484704Y-31473138D01*
X86465654Y-31508777D01*
X86440017Y-31540017D01*
X86408777Y-31565654D01*
X86373138Y-31584704D01*
X86334468Y-31596435D01*
X86288112Y-31601000D01*
X85211888Y-31601000D01*
X85165532Y-31596435D01*
X85126862Y-31584704D01*
X85091223Y-31565654D01*
X85059983Y-31540017D01*
X85034346Y-31508777D01*
X85015296Y-31473138D01*
X85003565Y-31434468D01*
X84999000Y-31388112D01*
X84999000Y-30736888D01*
X85003565Y-30690532D01*
X85015296Y-30651862D01*
X85034346Y-30616223D01*
X85059983Y-30584983D01*
X85091223Y-30559346D01*
X85126862Y-30540296D01*
X85165532Y-30528565D01*
X85211888Y-30524000D01*
X86288112Y-30524000D01*
X86334468Y-30528565D01*
X86334468Y-30528565D01*
G37*
G36*
X60030442Y-29105518D02*
G01*
X60096627Y-29112037D01*
X60266466Y-29163557D01*
X60422991Y-29247222D01*
X60458729Y-29276552D01*
X60560186Y-29359814D01*
X60633878Y-29449609D01*
X60672778Y-29497009D01*
X60756443Y-29653534D01*
X60807963Y-29823373D01*
X60825359Y-30000000D01*
X60807963Y-30176627D01*
X60756443Y-30346466D01*
X60672778Y-30502991D01*
X60655536Y-30524000D01*
X60560186Y-30640186D01*
X60458729Y-30723448D01*
X60422991Y-30752778D01*
X60266466Y-30836443D01*
X60096627Y-30887963D01*
X60030442Y-30894482D01*
X59964260Y-30901000D01*
X59875740Y-30901000D01*
X59809558Y-30894482D01*
X59743373Y-30887963D01*
X59573534Y-30836443D01*
X59417009Y-30752778D01*
X59381271Y-30723448D01*
X59279814Y-30640186D01*
X59184464Y-30524000D01*
X59167222Y-30502991D01*
X59083557Y-30346466D01*
X59032037Y-30176627D01*
X59014641Y-30000000D01*
X59032037Y-29823373D01*
X59083557Y-29653534D01*
X59167222Y-29497009D01*
X59206122Y-29449609D01*
X59279814Y-29359814D01*
X59381271Y-29276552D01*
X59417009Y-29247222D01*
X59573534Y-29163557D01*
X59743373Y-29112037D01*
X59809558Y-29105518D01*
X59875740Y-29099000D01*
X59964260Y-29099000D01*
X60030442Y-29105518D01*
X60030442Y-29105518D01*
G37*
G36*
X70981000Y-30901000D02*
G01*
X69179000Y-30901000D01*
X69179000Y-29099000D01*
X70981000Y-29099000D01*
X70981000Y-30901000D01*
X70981000Y-30901000D01*
G37*
G36*
X67650442Y-29105518D02*
G01*
X67716627Y-29112037D01*
X67886466Y-29163557D01*
X68042991Y-29247222D01*
X68078729Y-29276552D01*
X68180186Y-29359814D01*
X68253878Y-29449609D01*
X68292778Y-29497009D01*
X68376443Y-29653534D01*
X68427963Y-29823373D01*
X68445359Y-30000000D01*
X68427963Y-30176627D01*
X68376443Y-30346466D01*
X68292778Y-30502991D01*
X68275536Y-30524000D01*
X68180186Y-30640186D01*
X68078729Y-30723448D01*
X68042991Y-30752778D01*
X67886466Y-30836443D01*
X67716627Y-30887963D01*
X67650442Y-30894482D01*
X67584260Y-30901000D01*
X67495740Y-30901000D01*
X67429558Y-30894482D01*
X67363373Y-30887963D01*
X67193534Y-30836443D01*
X67037009Y-30752778D01*
X67001271Y-30723448D01*
X66899814Y-30640186D01*
X66804464Y-30524000D01*
X66787222Y-30502991D01*
X66703557Y-30346466D01*
X66652037Y-30176627D01*
X66634641Y-30000000D01*
X66652037Y-29823373D01*
X66703557Y-29653534D01*
X66787222Y-29497009D01*
X66826122Y-29449609D01*
X66899814Y-29359814D01*
X67001271Y-29276552D01*
X67037009Y-29247222D01*
X67193534Y-29163557D01*
X67363373Y-29112037D01*
X67429558Y-29105518D01*
X67495740Y-29099000D01*
X67584260Y-29099000D01*
X67650442Y-29105518D01*
X67650442Y-29105518D01*
G37*
G36*
X62570442Y-29105518D02*
G01*
X62636627Y-29112037D01*
X62806466Y-29163557D01*
X62962991Y-29247222D01*
X62998729Y-29276552D01*
X63100186Y-29359814D01*
X63173878Y-29449609D01*
X63212778Y-29497009D01*
X63296443Y-29653534D01*
X63347963Y-29823373D01*
X63365359Y-30000000D01*
X63347963Y-30176627D01*
X63296443Y-30346466D01*
X63212778Y-30502991D01*
X63195536Y-30524000D01*
X63100186Y-30640186D01*
X62998729Y-30723448D01*
X62962991Y-30752778D01*
X62806466Y-30836443D01*
X62636627Y-30887963D01*
X62570442Y-30894482D01*
X62504260Y-30901000D01*
X62415740Y-30901000D01*
X62349558Y-30894482D01*
X62283373Y-30887963D01*
X62113534Y-30836443D01*
X61957009Y-30752778D01*
X61921271Y-30723448D01*
X61819814Y-30640186D01*
X61724464Y-30524000D01*
X61707222Y-30502991D01*
X61623557Y-30346466D01*
X61572037Y-30176627D01*
X61554641Y-30000000D01*
X61572037Y-29823373D01*
X61623557Y-29653534D01*
X61707222Y-29497009D01*
X61746122Y-29449609D01*
X61819814Y-29359814D01*
X61921271Y-29276552D01*
X61957009Y-29247222D01*
X62113534Y-29163557D01*
X62283373Y-29112037D01*
X62349558Y-29105518D01*
X62415740Y-29099000D01*
X62504260Y-29099000D01*
X62570442Y-29105518D01*
X62570442Y-29105518D01*
G37*
G36*
X65110442Y-29105518D02*
G01*
X65176627Y-29112037D01*
X65346466Y-29163557D01*
X65502991Y-29247222D01*
X65538729Y-29276552D01*
X65640186Y-29359814D01*
X65713878Y-29449609D01*
X65752778Y-29497009D01*
X65836443Y-29653534D01*
X65887963Y-29823373D01*
X65905359Y-30000000D01*
X65887963Y-30176627D01*
X65836443Y-30346466D01*
X65752778Y-30502991D01*
X65735536Y-30524000D01*
X65640186Y-30640186D01*
X65538729Y-30723448D01*
X65502991Y-30752778D01*
X65346466Y-30836443D01*
X65176627Y-30887963D01*
X65110442Y-30894482D01*
X65044260Y-30901000D01*
X64955740Y-30901000D01*
X64889558Y-30894482D01*
X64823373Y-30887963D01*
X64653534Y-30836443D01*
X64497009Y-30752778D01*
X64461271Y-30723448D01*
X64359814Y-30640186D01*
X64264464Y-30524000D01*
X64247222Y-30502991D01*
X64163557Y-30346466D01*
X64112037Y-30176627D01*
X64094641Y-30000000D01*
X64112037Y-29823373D01*
X64163557Y-29653534D01*
X64247222Y-29497009D01*
X64286122Y-29449609D01*
X64359814Y-29359814D01*
X64461271Y-29276552D01*
X64497009Y-29247222D01*
X64653534Y-29163557D01*
X64823373Y-29112037D01*
X64889558Y-29105518D01*
X64955740Y-29099000D01*
X65044260Y-29099000D01*
X65110442Y-29105518D01*
X65110442Y-29105518D01*
G37*
G36*
X38311242Y-29058118D02*
G01*
X38377427Y-29064637D01*
X38547266Y-29116157D01*
X38703791Y-29199822D01*
X38739529Y-29229152D01*
X38840986Y-29312414D01*
X38924248Y-29413871D01*
X38953578Y-29449609D01*
X39037243Y-29606134D01*
X39088763Y-29775973D01*
X39106159Y-29952600D01*
X39088763Y-30129227D01*
X39037243Y-30299066D01*
X38953578Y-30455591D01*
X38924248Y-30491329D01*
X38840986Y-30592786D01*
X38739529Y-30676048D01*
X38703791Y-30705378D01*
X38547266Y-30789043D01*
X38377427Y-30840563D01*
X38311242Y-30847082D01*
X38245060Y-30853600D01*
X38156540Y-30853600D01*
X38090358Y-30847082D01*
X38024173Y-30840563D01*
X37854334Y-30789043D01*
X37697809Y-30705378D01*
X37662071Y-30676048D01*
X37560614Y-30592786D01*
X37477352Y-30491329D01*
X37448022Y-30455591D01*
X37364357Y-30299066D01*
X37312837Y-30129227D01*
X37295441Y-29952600D01*
X37312837Y-29775973D01*
X37364357Y-29606134D01*
X37448022Y-29449609D01*
X37477352Y-29413871D01*
X37560614Y-29312414D01*
X37662071Y-29229152D01*
X37697809Y-29199822D01*
X37854334Y-29116157D01*
X38024173Y-29064637D01*
X38090358Y-29058118D01*
X38156540Y-29051600D01*
X38245060Y-29051600D01*
X38311242Y-29058118D01*
X38311242Y-29058118D01*
G37*
G36*
X43391242Y-29058118D02*
G01*
X43457427Y-29064637D01*
X43627266Y-29116157D01*
X43783791Y-29199822D01*
X43819529Y-29229152D01*
X43920986Y-29312414D01*
X44004248Y-29413871D01*
X44033578Y-29449609D01*
X44117243Y-29606134D01*
X44168763Y-29775973D01*
X44186159Y-29952600D01*
X44168763Y-30129227D01*
X44117243Y-30299066D01*
X44033578Y-30455591D01*
X44004248Y-30491329D01*
X43920986Y-30592786D01*
X43819529Y-30676048D01*
X43783791Y-30705378D01*
X43627266Y-30789043D01*
X43457427Y-30840563D01*
X43391242Y-30847082D01*
X43325060Y-30853600D01*
X43236540Y-30853600D01*
X43170358Y-30847082D01*
X43104173Y-30840563D01*
X42934334Y-30789043D01*
X42777809Y-30705378D01*
X42742071Y-30676048D01*
X42640614Y-30592786D01*
X42557352Y-30491329D01*
X42528022Y-30455591D01*
X42444357Y-30299066D01*
X42392837Y-30129227D01*
X42375441Y-29952600D01*
X42392837Y-29775973D01*
X42444357Y-29606134D01*
X42528022Y-29449609D01*
X42557352Y-29413871D01*
X42640614Y-29312414D01*
X42742071Y-29229152D01*
X42777809Y-29199822D01*
X42934334Y-29116157D01*
X43104173Y-29064637D01*
X43170358Y-29058118D01*
X43236540Y-29051600D01*
X43325060Y-29051600D01*
X43391242Y-29058118D01*
X43391242Y-29058118D01*
G37*
G36*
X40851242Y-29058118D02*
G01*
X40917427Y-29064637D01*
X41087266Y-29116157D01*
X41243791Y-29199822D01*
X41279529Y-29229152D01*
X41380986Y-29312414D01*
X41464248Y-29413871D01*
X41493578Y-29449609D01*
X41577243Y-29606134D01*
X41628763Y-29775973D01*
X41646159Y-29952600D01*
X41628763Y-30129227D01*
X41577243Y-30299066D01*
X41493578Y-30455591D01*
X41464248Y-30491329D01*
X41380986Y-30592786D01*
X41279529Y-30676048D01*
X41243791Y-30705378D01*
X41087266Y-30789043D01*
X40917427Y-30840563D01*
X40851242Y-30847082D01*
X40785060Y-30853600D01*
X40696540Y-30853600D01*
X40630358Y-30847082D01*
X40564173Y-30840563D01*
X40394334Y-30789043D01*
X40237809Y-30705378D01*
X40202071Y-30676048D01*
X40100614Y-30592786D01*
X40017352Y-30491329D01*
X39988022Y-30455591D01*
X39904357Y-30299066D01*
X39852837Y-30129227D01*
X39835441Y-29952600D01*
X39852837Y-29775973D01*
X39904357Y-29606134D01*
X39988022Y-29449609D01*
X40017352Y-29413871D01*
X40100614Y-29312414D01*
X40202071Y-29229152D01*
X40237809Y-29199822D01*
X40394334Y-29116157D01*
X40564173Y-29064637D01*
X40630358Y-29058118D01*
X40696540Y-29051600D01*
X40785060Y-29051600D01*
X40851242Y-29058118D01*
X40851242Y-29058118D01*
G37*
G36*
X45931242Y-29058118D02*
G01*
X45997427Y-29064637D01*
X46167266Y-29116157D01*
X46323791Y-29199822D01*
X46359529Y-29229152D01*
X46460986Y-29312414D01*
X46544248Y-29413871D01*
X46573578Y-29449609D01*
X46657243Y-29606134D01*
X46708763Y-29775973D01*
X46726159Y-29952600D01*
X46708763Y-30129227D01*
X46657243Y-30299066D01*
X46573578Y-30455591D01*
X46544248Y-30491329D01*
X46460986Y-30592786D01*
X46359529Y-30676048D01*
X46323791Y-30705378D01*
X46167266Y-30789043D01*
X45997427Y-30840563D01*
X45931242Y-30847082D01*
X45865060Y-30853600D01*
X45776540Y-30853600D01*
X45710358Y-30847082D01*
X45644173Y-30840563D01*
X45474334Y-30789043D01*
X45317809Y-30705378D01*
X45282071Y-30676048D01*
X45180614Y-30592786D01*
X45097352Y-30491329D01*
X45068022Y-30455591D01*
X44984357Y-30299066D01*
X44932837Y-30129227D01*
X44915441Y-29952600D01*
X44932837Y-29775973D01*
X44984357Y-29606134D01*
X45068022Y-29449609D01*
X45097352Y-29413871D01*
X45180614Y-29312414D01*
X45282071Y-29229152D01*
X45317809Y-29199822D01*
X45474334Y-29116157D01*
X45644173Y-29064637D01*
X45710358Y-29058118D01*
X45776540Y-29051600D01*
X45865060Y-29051600D01*
X45931242Y-29058118D01*
X45931242Y-29058118D01*
G37*
G36*
X35771242Y-29058118D02*
G01*
X35837427Y-29064637D01*
X36007266Y-29116157D01*
X36163791Y-29199822D01*
X36199529Y-29229152D01*
X36300986Y-29312414D01*
X36384248Y-29413871D01*
X36413578Y-29449609D01*
X36497243Y-29606134D01*
X36548763Y-29775973D01*
X36566159Y-29952600D01*
X36548763Y-30129227D01*
X36497243Y-30299066D01*
X36413578Y-30455591D01*
X36384248Y-30491329D01*
X36300986Y-30592786D01*
X36199529Y-30676048D01*
X36163791Y-30705378D01*
X36007266Y-30789043D01*
X35837427Y-30840563D01*
X35771242Y-30847082D01*
X35705060Y-30853600D01*
X35616540Y-30853600D01*
X35550358Y-30847082D01*
X35484173Y-30840563D01*
X35314334Y-30789043D01*
X35157809Y-30705378D01*
X35122071Y-30676048D01*
X35020614Y-30592786D01*
X34937352Y-30491329D01*
X34908022Y-30455591D01*
X34824357Y-30299066D01*
X34772837Y-30129227D01*
X34755441Y-29952600D01*
X34772837Y-29775973D01*
X34824357Y-29606134D01*
X34908022Y-29449609D01*
X34937352Y-29413871D01*
X35020614Y-29312414D01*
X35122071Y-29229152D01*
X35157809Y-29199822D01*
X35314334Y-29116157D01*
X35484173Y-29064637D01*
X35550358Y-29058118D01*
X35616540Y-29051600D01*
X35705060Y-29051600D01*
X35771242Y-29058118D01*
X35771242Y-29058118D01*
G37*
G36*
X34021800Y-30853600D02*
G01*
X32219800Y-30853600D01*
X32219800Y-29051600D01*
X34021800Y-29051600D01*
X34021800Y-30853600D01*
X34021800Y-30853600D01*
G37*
G36*
X92080400Y-30057100D02*
G01*
X91419600Y-30057100D01*
X91419600Y-28494600D01*
X92080400Y-28494600D01*
X92080400Y-30057100D01*
X92080400Y-30057100D01*
G37*
G36*
X90810400Y-30057100D02*
G01*
X90149600Y-30057100D01*
X90149600Y-28494600D01*
X90810400Y-28494600D01*
X90810400Y-30057100D01*
X90810400Y-30057100D01*
G37*
G36*
X89540400Y-30057100D02*
G01*
X88879600Y-30057100D01*
X88879600Y-28494600D01*
X89540400Y-28494600D01*
X89540400Y-30057100D01*
X89540400Y-30057100D01*
G37*
G36*
X88270400Y-30057100D02*
G01*
X87609600Y-30057100D01*
X87609600Y-28494600D01*
X88270400Y-28494600D01*
X88270400Y-30057100D01*
X88270400Y-30057100D01*
G37*
G36*
X94620400Y-30057100D02*
G01*
X93959600Y-30057100D01*
X93959600Y-28494600D01*
X94620400Y-28494600D01*
X94620400Y-30057100D01*
X94620400Y-30057100D01*
G37*
G36*
X93350400Y-30057100D02*
G01*
X92689600Y-30057100D01*
X92689600Y-28494600D01*
X93350400Y-28494600D01*
X93350400Y-30057100D01*
X93350400Y-30057100D01*
G37*
G36*
X95890400Y-30057100D02*
G01*
X95229600Y-30057100D01*
X95229600Y-28494600D01*
X95890400Y-28494600D01*
X95890400Y-30057100D01*
X95890400Y-30057100D01*
G37*
G36*
X21860443Y-28145519D02*
G01*
X21926627Y-28152037D01*
X22096466Y-28203557D01*
X22252991Y-28287222D01*
X22288729Y-28316552D01*
X22390186Y-28399814D01*
X22467974Y-28494600D01*
X22502778Y-28537009D01*
X22586443Y-28693534D01*
X22637963Y-28863373D01*
X22655359Y-29040000D01*
X22637963Y-29216627D01*
X22586443Y-29386466D01*
X22502778Y-29542991D01*
X22473448Y-29578729D01*
X22390186Y-29680186D01*
X22288729Y-29763448D01*
X22252991Y-29792778D01*
X22096466Y-29876443D01*
X21926627Y-29927963D01*
X21860442Y-29934482D01*
X21794260Y-29941000D01*
X21705740Y-29941000D01*
X21639558Y-29934482D01*
X21573373Y-29927963D01*
X21403534Y-29876443D01*
X21247009Y-29792778D01*
X21211271Y-29763448D01*
X21109814Y-29680186D01*
X21026552Y-29578729D01*
X20997222Y-29542991D01*
X20913557Y-29386466D01*
X20862037Y-29216627D01*
X20844641Y-29040000D01*
X20862037Y-28863373D01*
X20913557Y-28693534D01*
X20997222Y-28537009D01*
X21032026Y-28494600D01*
X21109814Y-28399814D01*
X21211271Y-28316552D01*
X21247009Y-28287222D01*
X21403534Y-28203557D01*
X21573373Y-28152037D01*
X21639557Y-28145519D01*
X21705740Y-28139000D01*
X21794260Y-28139000D01*
X21860443Y-28145519D01*
X21860443Y-28145519D01*
G37*
G36*
X108360443Y-28145519D02*
G01*
X108426627Y-28152037D01*
X108596466Y-28203557D01*
X108752991Y-28287222D01*
X108788729Y-28316552D01*
X108890186Y-28399814D01*
X108967974Y-28494600D01*
X109002778Y-28537009D01*
X109086443Y-28693534D01*
X109137963Y-28863373D01*
X109155359Y-29040000D01*
X109137963Y-29216627D01*
X109086443Y-29386466D01*
X109002778Y-29542991D01*
X108973448Y-29578729D01*
X108890186Y-29680186D01*
X108788729Y-29763448D01*
X108752991Y-29792778D01*
X108596466Y-29876443D01*
X108426627Y-29927963D01*
X108360442Y-29934482D01*
X108294260Y-29941000D01*
X108205740Y-29941000D01*
X108139558Y-29934482D01*
X108073373Y-29927963D01*
X107903534Y-29876443D01*
X107747009Y-29792778D01*
X107711271Y-29763448D01*
X107609814Y-29680186D01*
X107526552Y-29578729D01*
X107497222Y-29542991D01*
X107413557Y-29386466D01*
X107362037Y-29216627D01*
X107344641Y-29040000D01*
X107362037Y-28863373D01*
X107413557Y-28693534D01*
X107497222Y-28537009D01*
X107532026Y-28494600D01*
X107609814Y-28399814D01*
X107711271Y-28316552D01*
X107747009Y-28287222D01*
X107903534Y-28203557D01*
X108073373Y-28152037D01*
X108139557Y-28145519D01*
X108205740Y-28139000D01*
X108294260Y-28139000D01*
X108360443Y-28145519D01*
X108360443Y-28145519D01*
G37*
G36*
X22651000Y-27401000D02*
G01*
X20849000Y-27401000D01*
X20849000Y-25599000D01*
X22651000Y-25599000D01*
X22651000Y-27401000D01*
X22651000Y-27401000D01*
G37*
G36*
X108360442Y-25605518D02*
G01*
X108426627Y-25612037D01*
X108596466Y-25663557D01*
X108752991Y-25747222D01*
X108788729Y-25776552D01*
X108890186Y-25859814D01*
X108973448Y-25961271D01*
X109002778Y-25997009D01*
X109086443Y-26153534D01*
X109137963Y-26323373D01*
X109155359Y-26500000D01*
X109137963Y-26676627D01*
X109086443Y-26846466D01*
X109002778Y-27002991D01*
X108973448Y-27038729D01*
X108890186Y-27140186D01*
X108788729Y-27223448D01*
X108752991Y-27252778D01*
X108596466Y-27336443D01*
X108426627Y-27387963D01*
X108360443Y-27394481D01*
X108294260Y-27401000D01*
X108205740Y-27401000D01*
X108139557Y-27394481D01*
X108073373Y-27387963D01*
X107903534Y-27336443D01*
X107747009Y-27252778D01*
X107711271Y-27223448D01*
X107609814Y-27140186D01*
X107526552Y-27038729D01*
X107497222Y-27002991D01*
X107413557Y-26846466D01*
X107362037Y-26676627D01*
X107344641Y-26500000D01*
X107362037Y-26323373D01*
X107413557Y-26153534D01*
X107497222Y-25997009D01*
X107526552Y-25961271D01*
X107609814Y-25859814D01*
X107711271Y-25776552D01*
X107747009Y-25747222D01*
X107903534Y-25663557D01*
X108073373Y-25612037D01*
X108139557Y-25605519D01*
X108205740Y-25599000D01*
X108294260Y-25599000D01*
X108360442Y-25605518D01*
X108360442Y-25605518D01*
G37*
G36*
X40101000Y-22651000D02*
G01*
X38299000Y-22651000D01*
X38299000Y-20849000D01*
X40101000Y-20849000D01*
X40101000Y-22651000D01*
X40101000Y-22651000D01*
G37*
G36*
X36770443Y-20855519D02*
G01*
X36836627Y-20862037D01*
X37006466Y-20913557D01*
X37162991Y-20997222D01*
X37198729Y-21026552D01*
X37300186Y-21109814D01*
X37383448Y-21211271D01*
X37412778Y-21247009D01*
X37496443Y-21403534D01*
X37547963Y-21573373D01*
X37565359Y-21750000D01*
X37547963Y-21926627D01*
X37496443Y-22096466D01*
X37412778Y-22252991D01*
X37383448Y-22288729D01*
X37300186Y-22390186D01*
X37198729Y-22473448D01*
X37162991Y-22502778D01*
X37006466Y-22586443D01*
X36836627Y-22637963D01*
X36770442Y-22644482D01*
X36704260Y-22651000D01*
X36615740Y-22651000D01*
X36549558Y-22644482D01*
X36483373Y-22637963D01*
X36313534Y-22586443D01*
X36157009Y-22502778D01*
X36121271Y-22473448D01*
X36019814Y-22390186D01*
X35936552Y-22288729D01*
X35907222Y-22252991D01*
X35823557Y-22096466D01*
X35772037Y-21926627D01*
X35754641Y-21750000D01*
X35772037Y-21573373D01*
X35823557Y-21403534D01*
X35907222Y-21247009D01*
X35936552Y-21211271D01*
X36019814Y-21109814D01*
X36121271Y-21026552D01*
X36157009Y-20997222D01*
X36313534Y-20913557D01*
X36483373Y-20862037D01*
X36549557Y-20855519D01*
X36615740Y-20849000D01*
X36704260Y-20849000D01*
X36770443Y-20855519D01*
X36770443Y-20855519D01*
G37*
G36*
X34230443Y-20855519D02*
G01*
X34296627Y-20862037D01*
X34466466Y-20913557D01*
X34622991Y-20997222D01*
X34658729Y-21026552D01*
X34760186Y-21109814D01*
X34843448Y-21211271D01*
X34872778Y-21247009D01*
X34956443Y-21403534D01*
X35007963Y-21573373D01*
X35025359Y-21750000D01*
X35007963Y-21926627D01*
X34956443Y-22096466D01*
X34872778Y-22252991D01*
X34843448Y-22288729D01*
X34760186Y-22390186D01*
X34658729Y-22473448D01*
X34622991Y-22502778D01*
X34466466Y-22586443D01*
X34296627Y-22637963D01*
X34230442Y-22644482D01*
X34164260Y-22651000D01*
X34075740Y-22651000D01*
X34009558Y-22644482D01*
X33943373Y-22637963D01*
X33773534Y-22586443D01*
X33617009Y-22502778D01*
X33581271Y-22473448D01*
X33479814Y-22390186D01*
X33396552Y-22288729D01*
X33367222Y-22252991D01*
X33283557Y-22096466D01*
X33232037Y-21926627D01*
X33214641Y-21750000D01*
X33232037Y-21573373D01*
X33283557Y-21403534D01*
X33367222Y-21247009D01*
X33396552Y-21211271D01*
X33479814Y-21109814D01*
X33581271Y-21026552D01*
X33617009Y-20997222D01*
X33773534Y-20913557D01*
X33943373Y-20862037D01*
X34009557Y-20855519D01*
X34075740Y-20849000D01*
X34164260Y-20849000D01*
X34230443Y-20855519D01*
X34230443Y-20855519D01*
G37*
G36*
X31690443Y-20855519D02*
G01*
X31756627Y-20862037D01*
X31926466Y-20913557D01*
X32082991Y-20997222D01*
X32118729Y-21026552D01*
X32220186Y-21109814D01*
X32303448Y-21211271D01*
X32332778Y-21247009D01*
X32416443Y-21403534D01*
X32467963Y-21573373D01*
X32485359Y-21750000D01*
X32467963Y-21926627D01*
X32416443Y-22096466D01*
X32332778Y-22252991D01*
X32303448Y-22288729D01*
X32220186Y-22390186D01*
X32118729Y-22473448D01*
X32082991Y-22502778D01*
X31926466Y-22586443D01*
X31756627Y-22637963D01*
X31690442Y-22644482D01*
X31624260Y-22651000D01*
X31535740Y-22651000D01*
X31469558Y-22644482D01*
X31403373Y-22637963D01*
X31233534Y-22586443D01*
X31077009Y-22502778D01*
X31041271Y-22473448D01*
X30939814Y-22390186D01*
X30856552Y-22288729D01*
X30827222Y-22252991D01*
X30743557Y-22096466D01*
X30692037Y-21926627D01*
X30674641Y-21750000D01*
X30692037Y-21573373D01*
X30743557Y-21403534D01*
X30827222Y-21247009D01*
X30856552Y-21211271D01*
X30939814Y-21109814D01*
X31041271Y-21026552D01*
X31077009Y-20997222D01*
X31233534Y-20913557D01*
X31403373Y-20862037D01*
X31469557Y-20855519D01*
X31535740Y-20849000D01*
X31624260Y-20849000D01*
X31690443Y-20855519D01*
X31690443Y-20855519D01*
G37*
G36*
X29150443Y-20855519D02*
G01*
X29216627Y-20862037D01*
X29386466Y-20913557D01*
X29542991Y-20997222D01*
X29578729Y-21026552D01*
X29680186Y-21109814D01*
X29763448Y-21211271D01*
X29792778Y-21247009D01*
X29876443Y-21403534D01*
X29927963Y-21573373D01*
X29945359Y-21750000D01*
X29927963Y-21926627D01*
X29876443Y-22096466D01*
X29792778Y-22252991D01*
X29763448Y-22288729D01*
X29680186Y-22390186D01*
X29578729Y-22473448D01*
X29542991Y-22502778D01*
X29386466Y-22586443D01*
X29216627Y-22637963D01*
X29150442Y-22644482D01*
X29084260Y-22651000D01*
X28995740Y-22651000D01*
X28929558Y-22644482D01*
X28863373Y-22637963D01*
X28693534Y-22586443D01*
X28537009Y-22502778D01*
X28501271Y-22473448D01*
X28399814Y-22390186D01*
X28316552Y-22288729D01*
X28287222Y-22252991D01*
X28203557Y-22096466D01*
X28152037Y-21926627D01*
X28134641Y-21750000D01*
X28152037Y-21573373D01*
X28203557Y-21403534D01*
X28287222Y-21247009D01*
X28316552Y-21211271D01*
X28399814Y-21109814D01*
X28501271Y-21026552D01*
X28537009Y-20997222D01*
X28693534Y-20913557D01*
X28863373Y-20862037D01*
X28929557Y-20855519D01*
X28995740Y-20849000D01*
X29084260Y-20849000D01*
X29150443Y-20855519D01*
X29150443Y-20855519D01*
G37*
G36*
X90910443Y-20855519D02*
G01*
X90976627Y-20862037D01*
X91146466Y-20913557D01*
X91302991Y-20997222D01*
X91338729Y-21026552D01*
X91440186Y-21109814D01*
X91523448Y-21211271D01*
X91552778Y-21247009D01*
X91636443Y-21403534D01*
X91687963Y-21573373D01*
X91705359Y-21750000D01*
X91687963Y-21926627D01*
X91636443Y-22096466D01*
X91552778Y-22252991D01*
X91523448Y-22288729D01*
X91440186Y-22390186D01*
X91338729Y-22473448D01*
X91302991Y-22502778D01*
X91146466Y-22586443D01*
X90976627Y-22637963D01*
X90910443Y-22644481D01*
X90844260Y-22651000D01*
X90755740Y-22651000D01*
X90689558Y-22644482D01*
X90623373Y-22637963D01*
X90453534Y-22586443D01*
X90297009Y-22502778D01*
X90261271Y-22473448D01*
X90159814Y-22390186D01*
X90076552Y-22288729D01*
X90047222Y-22252991D01*
X89963557Y-22096466D01*
X89912037Y-21926627D01*
X89894641Y-21750000D01*
X89912037Y-21573373D01*
X89963557Y-21403534D01*
X90047222Y-21247009D01*
X90076552Y-21211271D01*
X90159814Y-21109814D01*
X90261271Y-21026552D01*
X90297009Y-20997222D01*
X90453534Y-20913557D01*
X90623373Y-20862037D01*
X90689558Y-20855518D01*
X90755740Y-20849000D01*
X90844260Y-20849000D01*
X90910443Y-20855519D01*
X90910443Y-20855519D01*
G37*
G36*
X93450443Y-20855519D02*
G01*
X93516627Y-20862037D01*
X93686466Y-20913557D01*
X93842991Y-20997222D01*
X93878729Y-21026552D01*
X93980186Y-21109814D01*
X94063448Y-21211271D01*
X94092778Y-21247009D01*
X94176443Y-21403534D01*
X94227963Y-21573373D01*
X94245359Y-21750000D01*
X94227963Y-21926627D01*
X94176443Y-22096466D01*
X94092778Y-22252991D01*
X94063448Y-22288729D01*
X93980186Y-22390186D01*
X93878729Y-22473448D01*
X93842991Y-22502778D01*
X93686466Y-22586443D01*
X93516627Y-22637963D01*
X93450443Y-22644481D01*
X93384260Y-22651000D01*
X93295740Y-22651000D01*
X93229558Y-22644482D01*
X93163373Y-22637963D01*
X92993534Y-22586443D01*
X92837009Y-22502778D01*
X92801271Y-22473448D01*
X92699814Y-22390186D01*
X92616552Y-22288729D01*
X92587222Y-22252991D01*
X92503557Y-22096466D01*
X92452037Y-21926627D01*
X92434641Y-21750000D01*
X92452037Y-21573373D01*
X92503557Y-21403534D01*
X92587222Y-21247009D01*
X92616552Y-21211271D01*
X92699814Y-21109814D01*
X92801271Y-21026552D01*
X92837009Y-20997222D01*
X92993534Y-20913557D01*
X93163373Y-20862037D01*
X93229558Y-20855518D01*
X93295740Y-20849000D01*
X93384260Y-20849000D01*
X93450443Y-20855519D01*
X93450443Y-20855519D01*
G37*
G36*
X95990443Y-20855519D02*
G01*
X96056627Y-20862037D01*
X96226466Y-20913557D01*
X96382991Y-20997222D01*
X96418729Y-21026552D01*
X96520186Y-21109814D01*
X96603448Y-21211271D01*
X96632778Y-21247009D01*
X96716443Y-21403534D01*
X96767963Y-21573373D01*
X96785359Y-21750000D01*
X96767963Y-21926627D01*
X96716443Y-22096466D01*
X96632778Y-22252991D01*
X96603448Y-22288729D01*
X96520186Y-22390186D01*
X96418729Y-22473448D01*
X96382991Y-22502778D01*
X96226466Y-22586443D01*
X96056627Y-22637963D01*
X95990443Y-22644481D01*
X95924260Y-22651000D01*
X95835740Y-22651000D01*
X95769558Y-22644482D01*
X95703373Y-22637963D01*
X95533534Y-22586443D01*
X95377009Y-22502778D01*
X95341271Y-22473448D01*
X95239814Y-22390186D01*
X95156552Y-22288729D01*
X95127222Y-22252991D01*
X95043557Y-22096466D01*
X94992037Y-21926627D01*
X94974641Y-21750000D01*
X94992037Y-21573373D01*
X95043557Y-21403534D01*
X95127222Y-21247009D01*
X95156552Y-21211271D01*
X95239814Y-21109814D01*
X95341271Y-21026552D01*
X95377009Y-20997222D01*
X95533534Y-20913557D01*
X95703373Y-20862037D01*
X95769558Y-20855518D01*
X95835740Y-20849000D01*
X95924260Y-20849000D01*
X95990443Y-20855519D01*
X95990443Y-20855519D01*
G37*
G36*
X98530443Y-20855519D02*
G01*
X98596627Y-20862037D01*
X98766466Y-20913557D01*
X98922991Y-20997222D01*
X98958729Y-21026552D01*
X99060186Y-21109814D01*
X99143448Y-21211271D01*
X99172778Y-21247009D01*
X99256443Y-21403534D01*
X99307963Y-21573373D01*
X99325359Y-21750000D01*
X99307963Y-21926627D01*
X99256443Y-22096466D01*
X99172778Y-22252991D01*
X99143448Y-22288729D01*
X99060186Y-22390186D01*
X98958729Y-22473448D01*
X98922991Y-22502778D01*
X98766466Y-22586443D01*
X98596627Y-22637963D01*
X98530443Y-22644481D01*
X98464260Y-22651000D01*
X98375740Y-22651000D01*
X98309558Y-22644482D01*
X98243373Y-22637963D01*
X98073534Y-22586443D01*
X97917009Y-22502778D01*
X97881271Y-22473448D01*
X97779814Y-22390186D01*
X97696552Y-22288729D01*
X97667222Y-22252991D01*
X97583557Y-22096466D01*
X97532037Y-21926627D01*
X97514641Y-21750000D01*
X97532037Y-21573373D01*
X97583557Y-21403534D01*
X97667222Y-21247009D01*
X97696552Y-21211271D01*
X97779814Y-21109814D01*
X97881271Y-21026552D01*
X97917009Y-20997222D01*
X98073534Y-20913557D01*
X98243373Y-20862037D01*
X98309558Y-20855518D01*
X98375740Y-20849000D01*
X98464260Y-20849000D01*
X98530443Y-20855519D01*
X98530443Y-20855519D01*
G37*
G36*
X101070443Y-20855519D02*
G01*
X101136627Y-20862037D01*
X101306466Y-20913557D01*
X101462991Y-20997222D01*
X101498729Y-21026552D01*
X101600186Y-21109814D01*
X101683448Y-21211271D01*
X101712778Y-21247009D01*
X101796443Y-21403534D01*
X101847963Y-21573373D01*
X101865359Y-21750000D01*
X101847963Y-21926627D01*
X101796443Y-22096466D01*
X101712778Y-22252991D01*
X101683448Y-22288729D01*
X101600186Y-22390186D01*
X101498729Y-22473448D01*
X101462991Y-22502778D01*
X101306466Y-22586443D01*
X101136627Y-22637963D01*
X101070443Y-22644481D01*
X101004260Y-22651000D01*
X100915740Y-22651000D01*
X100849558Y-22644482D01*
X100783373Y-22637963D01*
X100613534Y-22586443D01*
X100457009Y-22502778D01*
X100421271Y-22473448D01*
X100319814Y-22390186D01*
X100236552Y-22288729D01*
X100207222Y-22252991D01*
X100123557Y-22096466D01*
X100072037Y-21926627D01*
X100054641Y-21750000D01*
X100072037Y-21573373D01*
X100123557Y-21403534D01*
X100207222Y-21247009D01*
X100236552Y-21211271D01*
X100319814Y-21109814D01*
X100421271Y-21026552D01*
X100457009Y-20997222D01*
X100613534Y-20913557D01*
X100783373Y-20862037D01*
X100849558Y-20855518D01*
X100915740Y-20849000D01*
X101004260Y-20849000D01*
X101070443Y-20855519D01*
X101070443Y-20855519D01*
G37*
G36*
X104401000Y-22651000D02*
G01*
X102599000Y-22651000D01*
X102599000Y-20849000D01*
X104401000Y-20849000D01*
X104401000Y-22651000D01*
X104401000Y-22651000D01*
G37*
G36*
X26610443Y-20855519D02*
G01*
X26676627Y-20862037D01*
X26846466Y-20913557D01*
X27002991Y-20997222D01*
X27038729Y-21026552D01*
X27140186Y-21109814D01*
X27223448Y-21211271D01*
X27252778Y-21247009D01*
X27336443Y-21403534D01*
X27387963Y-21573373D01*
X27405359Y-21750000D01*
X27387963Y-21926627D01*
X27336443Y-22096466D01*
X27252778Y-22252991D01*
X27223448Y-22288729D01*
X27140186Y-22390186D01*
X27038729Y-22473448D01*
X27002991Y-22502778D01*
X26846466Y-22586443D01*
X26676627Y-22637963D01*
X26610442Y-22644482D01*
X26544260Y-22651000D01*
X26455740Y-22651000D01*
X26389558Y-22644482D01*
X26323373Y-22637963D01*
X26153534Y-22586443D01*
X25997009Y-22502778D01*
X25961271Y-22473448D01*
X25859814Y-22390186D01*
X25776552Y-22288729D01*
X25747222Y-22252991D01*
X25663557Y-22096466D01*
X25612037Y-21926627D01*
X25594641Y-21750000D01*
X25612037Y-21573373D01*
X25663557Y-21403534D01*
X25747222Y-21247009D01*
X25776552Y-21211271D01*
X25859814Y-21109814D01*
X25961271Y-21026552D01*
X25997009Y-20997222D01*
X26153534Y-20913557D01*
X26323373Y-20862037D01*
X26389557Y-20855519D01*
X26455740Y-20849000D01*
X26544260Y-20849000D01*
X26610443Y-20855519D01*
X26610443Y-20855519D01*
G37*
M02*
