M48
; DRILL file {KiCad (5.1.4)-1} date 6/5/2022 3:26:45 PM
; FORMAT={-:-/ absolute / metric / decimal}
; #@! TF.CreationDate,2022-06-05T15:26:45-07:00
; #@! TF.GenerationSoftware,Kicad,Pcbnew,(5.1.4)-1
; #@! TF.FileFunction,NonPlated,1,2,NPTH
FMAT,2
METRIC
T1C2.200
T2C3.200
T3C3.300
%
G90
G05
T1
X105.75Y-56.0
X57.25Y-98.25
X72.75Y-98.25
X57.25Y-32.25
X72.75Y-32.25
X24.25Y-56.0
X24.25Y-74.0
X105.75Y-74.0
T2
X25.75Y-90.5
X104.25Y-90.5
T3
X25.75Y-39.5
X104.25Y-39.5
T2
G00X96.1Y-77.0
M15
G01X97.4Y-77.0
M16
G05
G00X96.1Y-83.5
M15
G01X97.4Y-83.5
M16
G05
G00X49.75Y-88.9
M15
G01X49.75Y-87.6
M16
G05
G00X56.25Y-88.9
M15
G01X56.25Y-87.6
M16
G05
G00X73.75Y-88.9
M15
G01X73.75Y-87.6
M16
G05
G00X80.25Y-88.9
M15
G01X80.25Y-87.6
M16
G05
G00X82.0Y-45.9
M15
G01X82.0Y-44.6
M16
G05
G00X88.5Y-45.9
M15
G01X88.5Y-44.6
M16
G05
G00X41.5Y-45.9
M15
G01X41.5Y-44.6
M16
G05
G00X48.0Y-45.9
M15
G01X48.0Y-44.6
M16
G05
G00X32.6Y-77.0
M15
G01X33.9Y-77.0
M16
G05
G00X32.6Y-83.5
M15
G01X33.9Y-83.5
M16
G05
T0
M30
