M48
; DRILL file {KiCad (5.1.4)-1} date 6/5/2022 3:26:45 PM
; FORMAT={-:-/ absolute / metric / decimal}
; #@! TF.CreationDate,2022-06-05T15:26:45-07:00
; #@! TF.GenerationSoftware,Kicad,Pcbnew,(5.1.4)-1
; #@! TF.FileFunction,Plated,1,2,PTH
FMAT,2
METRIC
T1C0.300
T2C0.400
T3C0.450
T4C1.270
T5C1.295
%
G90
G05
T1
X23.375Y-97.0
X24.0Y-99.045
X24.625Y-97.0
X24.743Y-100.757
X24.845Y-99.125
X24.942Y-104.942
X25.223Y-103.777
X25.75Y-34.25
X25.875Y-35.25
X27.125Y-35.25
X27.243Y-26.493
X27.363Y-89.156
X27.448Y-88.25
X27.448Y-92.0
X27.448Y-97.0
X27.868Y-35.875
X28.567Y-23.933
X28.683Y-25.817
X28.698Y-89.0
X28.698Y-90.0
X28.698Y-97.0
X28.75Y-92.0
X28.942Y-27.942
X29.138Y-102.612
X29.508Y-28.567
X29.558Y-24.924
X30.397Y-102.103
X31.897Y-103.603
X35.683Y-95.933
X35.95Y-93.053
X35.95Y-95.328
X36.688Y-90.25
X36.75Y-93.053
X36.75Y-95.328
X37.362Y-95.953
X38.125Y-89.64
X38.75Y-24.205
X38.75Y-25.125
X38.75Y-26.825
X44.5Y-78.533
X45.592Y-79.158
X46.25Y-80.0
X46.9Y-80.625
X47.768Y-77.498
X48.452Y-77.912
X48.86Y-51.39
X48.879Y-48.121
X49.25Y-77.85
X49.449Y-55.301
X49.679Y-51.571
X49.754Y-48.996
X50.25Y-77.85
X51.208Y-55.292
X51.824Y-57.676
X52.735Y-55.265
X53.15Y-95.45
X53.15Y-96.25
X53.333Y-57.417
X54.85Y-95.25
X54.85Y-96.25
X54.86Y-57.39
X55.756Y-55.244
X56.506Y-55.994
X56.909Y-68.409
X58.995Y-60.005
X59.254Y-62.589
X59.254Y-67.389
X59.434Y-70.934
X60.0Y-71.5
X60.899Y-63.351
X62.166Y-63.733
X62.264Y-69.264
X62.889Y-68.639
X64.98Y-66.547
X65.1Y-55.85
X65.546Y-65.982
X65.725Y-55.177
X66.25Y-81.0
X66.5Y-92.636
X66.5Y-94.518
X67.552Y-55.802
X67.75Y-25.125
X67.75Y-26.825
X68.179Y-55.175
X68.25Y-81.0
X68.25Y-92.636
X68.25Y-94.518
X68.73Y-63.932
X68.954Y-64.7
X68.954Y-65.5
X69.0Y-97.0
X69.4Y-104.5
X69.641Y-96.521
X70.25Y-23.708
X70.25Y-25.125
X70.25Y-26.825
X70.25Y-104.5
X71.0Y-31.875
X71.5Y-30.5
X71.75Y-23.708
X71.75Y-26.825
X72.0Y-65.0
X72.27Y-93.893
X72.5Y-63.5
X72.761Y-93.261
X72.778Y-64.814
X73.0Y-67.5
X73.125Y-72.0
X73.5Y-63.564
X74.375Y-67.75
X74.658Y-93.908
X74.825Y-72.0
X75.25Y-63.564
X75.25Y-64.814
X75.604Y-93.104
X75.875Y-66.0
X76.75Y-63.564
X77.0Y-62.75
X87.708Y-24.958
X88.274Y-24.333
X89.5Y-25.0
X90.092Y-24.342
X94.5Y-23.717
X95.165Y-25.266
X95.972Y-26.227
X96.058Y-99.308
X96.691Y-25.875
X97.25Y-24.175
X97.987Y-97.237
X98.5Y-99.5
X98.75Y-26.5
X100.594Y-97.344
X103.325Y-97.25
X105.225Y-97.25
X109.25Y-41.0
T2
X56.54Y-59.21
X57.004Y-63.847
X57.46Y-79.825
X57.5Y-75.25
X57.5Y-77.75
X58.997Y-56.999
X59.352Y-75.087
X60.957Y-57.137
X61.25Y-77.75
X63.137Y-75.47
X65.25Y-73.5
X66.0Y-103.0
X67.0Y-103.25
X68.25Y-100.75
X68.5Y-101.75
X69.0Y-75.75
X69.024Y-56.999
X71.5Y-104.25
X71.75Y-74.75
X72.724Y-70.627
X72.75Y-58.75
X83.775Y-31.25
X85.75Y-31.062
X85.75Y-32.75
X88.061Y-29.276
X89.25Y-34.75
X89.25Y-36.504
X90.75Y-30.5
X93.5Y-36.25
X94.29Y-29.276
X94.919Y-32.675
X95.5Y-29.25
X95.5Y-34.75
X102.6Y-99.5
X103.775Y-94.75
X105.225Y-94.75
X105.225Y-99.5
T4
X33.121Y-29.953
X35.661Y-29.953
X38.201Y-29.953
X40.741Y-29.953
X43.281Y-29.953
X45.821Y-29.953
X21.75Y-26.5
X21.75Y-29.04
X21.75Y-31.58
X21.75Y-34.12
X21.75Y-36.66
X21.75Y-39.2
X37.465Y-64.75
X37.465Y-67.29
X37.465Y-69.83
X37.465Y-72.37
X45.085Y-64.75
X45.085Y-67.29
X45.085Y-69.83
X45.085Y-72.37
X59.92Y-30.0
X62.46Y-30.0
X65.0Y-30.0
X67.54Y-30.0
X70.08Y-30.0
X26.5Y-108.25
X29.04Y-108.25
X31.58Y-108.25
X34.12Y-108.25
X36.66Y-108.25
X39.2Y-108.25
X84.915Y-52.63
X84.915Y-55.17
X84.915Y-57.71
X84.915Y-60.25
X92.535Y-52.63
X92.535Y-55.17
X92.535Y-57.71
X92.535Y-60.25
X84.915Y-64.5
X84.915Y-67.04
X84.915Y-69.58
X84.915Y-72.12
X92.535Y-64.5
X92.535Y-67.04
X92.535Y-69.58
X92.535Y-72.12
X108.25Y-90.8
X108.25Y-93.34
X108.25Y-95.88
X108.25Y-98.42
X108.25Y-100.96
X108.25Y-103.5
X26.5Y-21.75
X29.04Y-21.75
X31.58Y-21.75
X34.12Y-21.75
X36.66Y-21.75
X39.2Y-21.75
X90.8Y-21.75
X93.34Y-21.75
X95.88Y-21.75
X98.42Y-21.75
X100.96Y-21.75
X103.5Y-21.75
X90.8Y-108.25
X93.34Y-108.25
X95.88Y-108.25
X98.42Y-108.25
X100.96Y-108.25
X103.5Y-108.25
X37.465Y-52.63
X37.465Y-55.17
X37.465Y-57.71
X37.465Y-60.25
X45.085Y-52.63
X45.085Y-55.17
X45.085Y-57.71
X45.085Y-60.25
X21.75Y-90.8
X21.75Y-93.34
X21.75Y-95.88
X21.75Y-98.42
X21.75Y-100.96
X21.75Y-103.5
X108.25Y-26.5
X108.25Y-29.04
X108.25Y-31.58
X108.25Y-34.12
X108.25Y-36.66
X108.25Y-39.2
T5
X57.46Y-105.0
X60.0Y-105.0
X100.25Y-58.55
X100.25Y-61.09
X100.25Y-63.63
X100.25Y-66.17
X100.25Y-68.71
X100.25Y-71.25
X29.75Y-58.75
X29.75Y-61.29
X29.75Y-63.83
X29.75Y-66.37
X29.75Y-68.91
X29.75Y-71.45
T3
G00X66.425Y-108.85
M15
G01X66.425Y-108.05
M16
G05
G00X73.575Y-108.05
M15
G01X73.575Y-108.85
M16
G05
T0
M30
