G04 #@! TF.GenerationSoftware,KiCad,Pcbnew,(5.1.4)-1*
G04 #@! TF.CreationDate,2022-06-05T15:27:35-07:00*
G04 #@! TF.ProjectId,Birty,42697274-792e-46b6-9963-61645f706362,rev?*
G04 #@! TF.SameCoordinates,Original*
G04 #@! TF.FileFunction,Legend,Top*
G04 #@! TF.FilePolarity,Positive*
%FSLAX46Y46*%
G04 Gerber Fmt 4.6, Leading zero omitted, Abs format (unit mm)*
G04 Created by KiCad (PCBNEW (5.1.4)-1) date 2022-06-05 15:27:35*
%MOMM*%
%LPD*%
G04 APERTURE LIST*
%ADD10C,0.300000*%
%ADD11C,0.120000*%
%ADD12C,0.100000*%
%ADD13C,0.150000*%
%ADD14C,0.127000*%
%ADD15C,0.200000*%
G04 APERTURE END LIST*
D10*
X59785714Y-44928571D02*
X59785714Y-46000000D01*
X59714285Y-46214285D01*
X59571428Y-46357142D01*
X59357142Y-46428571D01*
X59214285Y-46428571D01*
X61142857Y-46428571D02*
X61142857Y-45642857D01*
X61071428Y-45500000D01*
X60928571Y-45428571D01*
X60642857Y-45428571D01*
X60500000Y-45500000D01*
X61142857Y-46357142D02*
X61000000Y-46428571D01*
X60642857Y-46428571D01*
X60500000Y-46357142D01*
X60428571Y-46214285D01*
X60428571Y-46071428D01*
X60500000Y-45928571D01*
X60642857Y-45857142D01*
X61000000Y-45857142D01*
X61142857Y-45785714D01*
X62500000Y-46357142D02*
X62357142Y-46428571D01*
X62071428Y-46428571D01*
X61928571Y-46357142D01*
X61857142Y-46285714D01*
X61785714Y-46142857D01*
X61785714Y-45714285D01*
X61857142Y-45571428D01*
X61928571Y-45500000D01*
X62071428Y-45428571D01*
X62357142Y-45428571D01*
X62500000Y-45500000D01*
X63142857Y-46428571D02*
X63142857Y-44928571D01*
X63285714Y-45857142D02*
X63714285Y-46428571D01*
X63714285Y-45428571D02*
X63142857Y-46000000D01*
X64285714Y-45071428D02*
X64357142Y-45000000D01*
X64500000Y-44928571D01*
X64857142Y-44928571D01*
X65000000Y-45000000D01*
X65071428Y-45071428D01*
X65142857Y-45214285D01*
X65142857Y-45357142D01*
X65071428Y-45571428D01*
X64214285Y-46428571D01*
X65142857Y-46428571D01*
X65785714Y-46428571D02*
X65785714Y-44928571D01*
X65785714Y-45500000D02*
X65928571Y-45428571D01*
X66214285Y-45428571D01*
X66357142Y-45500000D01*
X66428571Y-45571428D01*
X66500000Y-45714285D01*
X66500000Y-46142857D01*
X66428571Y-46285714D01*
X66357142Y-46357142D01*
X66214285Y-46428571D01*
X65928571Y-46428571D01*
X65785714Y-46357142D01*
X67071428Y-46357142D02*
X67214285Y-46428571D01*
X67500000Y-46428571D01*
X67642857Y-46357142D01*
X67714285Y-46214285D01*
X67714285Y-46142857D01*
X67642857Y-46000000D01*
X67500000Y-45928571D01*
X67285714Y-45928571D01*
X67142857Y-45857142D01*
X67071428Y-45714285D01*
X67071428Y-45642857D01*
X67142857Y-45500000D01*
X67285714Y-45428571D01*
X67500000Y-45428571D01*
X67642857Y-45500000D01*
X59571428Y-42535714D02*
X60000000Y-42678571D01*
X60142857Y-42821428D01*
X60285714Y-43107142D01*
X60285714Y-43535714D01*
X60142857Y-43821428D01*
X60000000Y-43964285D01*
X59714285Y-44107142D01*
X58571428Y-44107142D01*
X58571428Y-41107142D01*
X59571428Y-41107142D01*
X59857142Y-41250000D01*
X60000000Y-41392857D01*
X60142857Y-41678571D01*
X60142857Y-41964285D01*
X60000000Y-42250000D01*
X59857142Y-42392857D01*
X59571428Y-42535714D01*
X58571428Y-42535714D01*
X61571428Y-44107142D02*
X61571428Y-41107142D01*
X64714285Y-44107142D02*
X63714285Y-42678571D01*
X63000000Y-44107142D02*
X63000000Y-41107142D01*
X64142857Y-41107142D01*
X64428571Y-41250000D01*
X64571428Y-41392857D01*
X64714285Y-41678571D01*
X64714285Y-42107142D01*
X64571428Y-42392857D01*
X64428571Y-42535714D01*
X64142857Y-42678571D01*
X63000000Y-42678571D01*
X65571428Y-41107142D02*
X67285714Y-41107142D01*
X66428571Y-44107142D02*
X66428571Y-41107142D01*
X68857142Y-42678571D02*
X68857142Y-44107142D01*
X67857142Y-41107142D02*
X68857142Y-42678571D01*
X69857142Y-41107142D01*
D11*
X71500000Y-90750000D02*
X71500000Y-85750000D01*
X71500000Y-85750000D02*
X82500000Y-85750000D01*
X82500000Y-85750000D02*
X82500000Y-90750000D01*
X82500000Y-90750000D02*
X71500000Y-90750000D01*
X90750000Y-47750000D02*
X79750000Y-47750000D01*
X90750000Y-42750000D02*
X90750000Y-47750000D01*
X79750000Y-42750000D02*
X90750000Y-42750000D01*
X79750000Y-47750000D02*
X79750000Y-42750000D01*
X50250000Y-47750000D02*
X39250000Y-47750000D01*
X50250000Y-42750000D02*
X50250000Y-47750000D01*
X39250000Y-42750000D02*
X50250000Y-42750000D01*
X39250000Y-47750000D02*
X39250000Y-42750000D01*
X94250000Y-85750000D02*
X94250000Y-74750000D01*
X99250000Y-85750000D02*
X94250000Y-85750000D01*
X99250000Y-74750000D02*
X99250000Y-85750000D01*
X94250000Y-74750000D02*
X99250000Y-74750000D01*
X30750000Y-85750000D02*
X30750000Y-74750000D01*
X35750000Y-85750000D02*
X30750000Y-85750000D01*
X35750000Y-74750000D02*
X35750000Y-85750000D01*
X30750000Y-74750000D02*
X35750000Y-74750000D01*
X58500000Y-90750000D02*
X47500000Y-90750000D01*
X58500000Y-85750000D02*
X58500000Y-90750000D01*
X47500000Y-85750000D02*
X58500000Y-85750000D01*
X47500000Y-90750000D02*
X47500000Y-85750000D01*
X55750000Y-33750000D02*
X55750000Y-30750000D01*
X74250000Y-33750000D02*
X55750000Y-33750000D01*
X74250000Y-33500000D02*
X74250000Y-33750000D01*
X74250000Y-30750000D02*
X74250000Y-33500000D01*
X55750000Y-30750000D02*
X74250000Y-30750000D01*
X55858276Y-108382599D02*
X61801876Y-108382599D01*
X61801876Y-108382599D02*
X61801876Y-101422999D01*
X61801876Y-101422999D02*
X55858276Y-101422999D01*
X55858276Y-101422999D02*
X55858276Y-108382599D01*
X54461276Y-105000000D02*
G75*
G03X54461276Y-105000000I-381000J0D01*
G01*
X55750000Y-99750000D02*
X55750000Y-96750000D01*
X74250000Y-99750000D02*
X55750000Y-99750000D01*
X74250000Y-99500000D02*
X74250000Y-99750000D01*
X74250000Y-96750000D02*
X74250000Y-99500000D01*
X55750000Y-96750000D02*
X74250000Y-96750000D01*
X102250000Y-48250000D02*
X102250000Y-37250000D01*
X106250000Y-37250000D02*
X106250000Y-48250000D01*
X102250000Y-37250000D02*
X106250000Y-37250000D01*
X102250000Y-48250000D02*
X102250000Y-92750000D01*
X106250000Y-48250000D02*
X106250000Y-92750000D01*
X106250000Y-92750000D02*
X102250000Y-92750000D01*
X27750000Y-92750000D02*
X23750000Y-92750000D01*
X27750000Y-48250000D02*
X27750000Y-92750000D01*
X23750000Y-48250000D02*
X23750000Y-92750000D01*
X23750000Y-37250000D02*
X27750000Y-37250000D01*
X27750000Y-37250000D02*
X27750000Y-48250000D01*
X23750000Y-48250000D02*
X23750000Y-37250000D01*
X96245800Y-34120900D02*
X96245800Y-29879100D01*
X87254200Y-29879100D02*
X87254200Y-34120900D01*
D12*
G36*
X92829500Y-28037600D02*
G01*
X93210500Y-28037600D01*
X93210500Y-28291600D01*
X92829500Y-28291600D01*
X92829500Y-28037600D01*
G37*
X92829500Y-28037600D02*
X93210500Y-28037600D01*
X93210500Y-28291600D01*
X92829500Y-28291600D01*
X92829500Y-28037600D01*
D13*
X59779200Y-60389400D02*
X58504200Y-60389400D01*
X70129200Y-59814400D02*
X69454200Y-59814400D01*
X70129200Y-70164400D02*
X69454200Y-70164400D01*
X59779200Y-70164400D02*
X60454200Y-70164400D01*
X59779200Y-59814400D02*
X60454200Y-59814400D01*
X59779200Y-70164400D02*
X59779200Y-69489400D01*
X70129200Y-70164400D02*
X70129200Y-69489400D01*
X70129200Y-59814400D02*
X70129200Y-60489400D01*
X59779200Y-59814400D02*
X59779200Y-60389400D01*
D11*
X39295978Y-92968400D02*
X38778822Y-92968400D01*
X39295978Y-94388400D02*
X38778822Y-94388400D01*
X103750000Y-54000000D02*
X103750000Y-76000000D01*
X103750000Y-76000000D02*
X107750000Y-76000000D01*
X107750000Y-76000000D02*
X107750000Y-54000000D01*
X107750000Y-54000000D02*
X103750000Y-54000000D01*
X22250000Y-54000000D02*
X22250000Y-76000000D01*
X22250000Y-76000000D02*
X26250000Y-76000000D01*
X26250000Y-76000000D02*
X26250000Y-54000000D01*
X26250000Y-54000000D02*
X22250000Y-54000000D01*
X26320601Y-57149800D02*
X26320601Y-73050200D01*
X26320601Y-73050200D02*
X33077001Y-73050200D01*
X33077001Y-73050200D02*
X33077001Y-57149800D01*
X33077001Y-57149800D02*
X26320601Y-57149800D01*
X30131000Y-55371800D02*
G75*
G03X30131000Y-55371800I-381000J0D01*
G01*
X35040000Y-33991422D02*
X35040000Y-34508578D01*
X36460000Y-33991422D02*
X36460000Y-34508578D01*
X34390800Y-28622600D02*
X47150800Y-28622600D01*
X31790800Y-28622600D02*
X33120800Y-28622600D01*
X31790800Y-29952600D02*
X31790800Y-28622600D01*
X47150800Y-31282600D02*
X47150800Y-28622600D01*
X34390800Y-31282600D02*
X47150800Y-31282600D01*
X34390800Y-31282600D02*
X34390800Y-28622600D01*
X68240000Y-104840000D02*
X68240000Y-105230000D01*
X68240000Y-104840000D02*
X68690000Y-104840000D01*
X73810000Y-105540000D02*
X73160000Y-105540000D01*
X73810000Y-107270000D02*
X73810000Y-105540000D01*
X66190000Y-109840000D02*
X66190000Y-109630000D01*
X73810000Y-109840000D02*
X73810000Y-109630000D01*
X66190000Y-107270000D02*
X66190000Y-105540000D01*
X66190000Y-105540000D02*
X66850000Y-105540000D01*
X38804222Y-90349800D02*
X39321378Y-90349800D01*
X38804222Y-88929800D02*
X39321378Y-88929800D01*
X61940922Y-76180200D02*
X62458078Y-76180200D01*
X61940922Y-74760200D02*
X62458078Y-74760200D01*
X70180400Y-72280400D02*
X64780400Y-72280400D01*
X70180400Y-76780400D02*
X70180400Y-72280400D01*
X86074600Y-51300000D02*
X86074600Y-61580000D01*
X89724600Y-61580000D02*
X91374600Y-61580000D01*
X86074600Y-61580000D02*
X87724600Y-61580000D01*
X83584600Y-61640000D02*
X93864600Y-61640000D01*
X93864600Y-51240000D02*
X83584600Y-51240000D01*
X91374600Y-51300000D02*
X86074600Y-51300000D01*
X91374600Y-61580000D02*
X91374600Y-51300000D01*
X93864600Y-61640000D02*
X93864600Y-51240000D01*
X83584600Y-51240000D02*
X83584600Y-61640000D01*
X87724600Y-61580000D02*
G75*
G02X89724600Y-61580000I1000000J0D01*
G01*
X43925400Y-73700000D02*
X43925400Y-63420000D01*
X40275400Y-63420000D02*
X38625400Y-63420000D01*
X43925400Y-63420000D02*
X42275400Y-63420000D01*
X46415400Y-63360000D02*
X36135400Y-63360000D01*
X36135400Y-73760000D02*
X46415400Y-73760000D01*
X38625400Y-73700000D02*
X43925400Y-73700000D01*
X38625400Y-63420000D02*
X38625400Y-73700000D01*
X36135400Y-63360000D02*
X36135400Y-73760000D01*
X46415400Y-73760000D02*
X46415400Y-63360000D01*
X42275400Y-63420000D02*
G75*
G02X40275400Y-63420000I-1000000J0D01*
G01*
X86074600Y-63170000D02*
X86074600Y-73450000D01*
X89724600Y-73450000D02*
X91374600Y-73450000D01*
X86074600Y-73450000D02*
X87724600Y-73450000D01*
X83584600Y-73510000D02*
X93864600Y-73510000D01*
X93864600Y-63110000D02*
X83584600Y-63110000D01*
X91374600Y-63170000D02*
X86074600Y-63170000D01*
X91374600Y-73450000D02*
X91374600Y-63170000D01*
X93864600Y-73510000D02*
X93864600Y-63110000D01*
X83584600Y-63110000D02*
X83584600Y-73510000D01*
X87724600Y-73450000D02*
G75*
G02X89724600Y-73450000I1000000J0D01*
G01*
X43925400Y-61580000D02*
X43925400Y-51300000D01*
X40275400Y-51300000D02*
X38625400Y-51300000D01*
X43925400Y-51300000D02*
X42275400Y-51300000D01*
X46415400Y-51240000D02*
X36135400Y-51240000D01*
X36135400Y-61640000D02*
X46415400Y-61640000D01*
X38625400Y-61580000D02*
X43925400Y-61580000D01*
X38625400Y-51300000D02*
X38625400Y-61580000D01*
X36135400Y-51240000D02*
X36135400Y-61640000D01*
X46415400Y-61640000D02*
X46415400Y-51240000D01*
X42275400Y-51300000D02*
G75*
G02X40275400Y-51300000I-1000000J0D01*
G01*
D14*
X59095400Y-78312000D02*
X59095400Y-81112000D01*
D15*
X62195400Y-76912000D02*
G75*
G03X62195400Y-76912000I-100000J0D01*
G01*
D11*
X39321378Y-90936400D02*
X38804222Y-90936400D01*
X39321378Y-92356400D02*
X38804222Y-92356400D01*
X72155200Y-59516722D02*
X72155200Y-60033878D01*
X73575200Y-59516722D02*
X73575200Y-60033878D01*
X60062400Y-74407978D02*
X60062400Y-73890822D01*
X58642400Y-74407978D02*
X58642400Y-73890822D01*
X65576600Y-81614722D02*
X65576600Y-82131878D01*
X66996600Y-81614722D02*
X66996600Y-82131878D01*
X67634000Y-81637822D02*
X67634000Y-82154978D01*
X69054000Y-81637822D02*
X69054000Y-82154978D01*
X71410000Y-30000000D02*
X71410000Y-31330000D01*
X68810000Y-31330000D02*
X58590000Y-31330000D01*
X68810000Y-28670000D02*
X68810000Y-31330000D01*
X58590000Y-28670000D02*
X58590000Y-31330000D01*
X71410000Y-31330000D02*
X70080000Y-31330000D01*
X68810000Y-28670000D02*
X58590000Y-28670000D01*
X103679399Y-72850200D02*
X103679399Y-56949800D01*
X103679399Y-56949800D02*
X96922999Y-56949800D01*
X96922999Y-56949800D02*
X96922999Y-72850200D01*
X96922999Y-72850200D02*
X103679399Y-72850200D01*
X100631000Y-74628200D02*
G75*
G03X100631000Y-74628200I-381000J0D01*
G01*
X92070000Y-109580000D02*
X92070000Y-106920000D01*
X92070000Y-109580000D02*
X104830000Y-109580000D01*
X104830000Y-109580000D02*
X104830000Y-106920000D01*
X89470000Y-108250000D02*
X89470000Y-106920000D01*
X89470000Y-106920000D02*
X90800000Y-106920000D01*
X92070000Y-106920000D02*
X104830000Y-106920000D01*
X27770000Y-109580000D02*
X27770000Y-106920000D01*
X27770000Y-109580000D02*
X40530000Y-109580000D01*
X40530000Y-109580000D02*
X40530000Y-106920000D01*
X25170000Y-108250000D02*
X25170000Y-106920000D01*
X25170000Y-106920000D02*
X26500000Y-106920000D01*
X27770000Y-106920000D02*
X40530000Y-106920000D01*
X109580000Y-102230000D02*
X106920000Y-102230000D01*
X109580000Y-102230000D02*
X109580000Y-89470000D01*
X109580000Y-89470000D02*
X106920000Y-89470000D01*
X108250000Y-104830000D02*
X106920000Y-104830000D01*
X106920000Y-104830000D02*
X106920000Y-103500000D01*
X106920000Y-102230000D02*
X106920000Y-89470000D01*
X109580000Y-37930000D02*
X106920000Y-37930000D01*
X109580000Y-37930000D02*
X109580000Y-25170000D01*
X109580000Y-25170000D02*
X106920000Y-25170000D01*
X108250000Y-40530000D02*
X106920000Y-40530000D01*
X106920000Y-40530000D02*
X106920000Y-39200000D01*
X106920000Y-37930000D02*
X106920000Y-25170000D01*
X20420000Y-92070000D02*
X23080000Y-92070000D01*
X20420000Y-92070000D02*
X20420000Y-104830000D01*
X20420000Y-104830000D02*
X23080000Y-104830000D01*
X21750000Y-89470000D02*
X23080000Y-89470000D01*
X23080000Y-89470000D02*
X23080000Y-90800000D01*
X23080000Y-92070000D02*
X23080000Y-104830000D01*
X20420000Y-27770000D02*
X23080000Y-27770000D01*
X20420000Y-27770000D02*
X20420000Y-40530000D01*
X20420000Y-40530000D02*
X23080000Y-40530000D01*
X21750000Y-25170000D02*
X23080000Y-25170000D01*
X23080000Y-25170000D02*
X23080000Y-26500000D01*
X23080000Y-27770000D02*
X23080000Y-40530000D01*
X102230000Y-20420000D02*
X102230000Y-23080000D01*
X102230000Y-20420000D02*
X89470000Y-20420000D01*
X89470000Y-20420000D02*
X89470000Y-23080000D01*
X104830000Y-21750000D02*
X104830000Y-23080000D01*
X104830000Y-23080000D02*
X103500000Y-23080000D01*
X102230000Y-23080000D02*
X89470000Y-23080000D01*
X37930000Y-20420000D02*
X37930000Y-23080000D01*
X37930000Y-20420000D02*
X25170000Y-20420000D01*
X25170000Y-20420000D02*
X25170000Y-23080000D01*
X40530000Y-21750000D02*
X40530000Y-23080000D01*
X40530000Y-23080000D02*
X39200000Y-23080000D01*
X37930000Y-23080000D02*
X25170000Y-23080000D01*
X85040000Y-31741422D02*
X85040000Y-32258578D01*
X86460000Y-31741422D02*
X86460000Y-32258578D01*
X56294200Y-62650822D02*
X56294200Y-63167978D01*
X57714200Y-62650822D02*
X57714200Y-63167978D01*
X61940922Y-74122800D02*
X62458078Y-74122800D01*
X61940922Y-72702800D02*
X62458078Y-72702800D01*
X72014200Y-69430822D02*
X72014200Y-69947978D01*
X73434200Y-69430822D02*
X73434200Y-69947978D01*
X70260278Y-56329400D02*
X69743122Y-56329400D01*
X70260278Y-57749400D02*
X69743122Y-57749400D01*
X59675622Y-57709400D02*
X60192778Y-57709400D01*
X59675622Y-56289400D02*
X60192778Y-56289400D01*
X57725600Y-66610178D02*
X57725600Y-66093022D01*
X56305600Y-66610178D02*
X56305600Y-66093022D01*
X71012200Y-73662222D02*
X71012200Y-74179378D01*
X72432200Y-73662222D02*
X72432200Y-74179378D01*
X66623678Y-77351000D02*
X66106522Y-77351000D01*
X66623678Y-78771000D02*
X66106522Y-78771000D01*
D13*
X57895076Y-106738380D02*
X57895076Y-107452666D01*
X57847457Y-107595523D01*
X57752219Y-107690761D01*
X57609361Y-107738380D01*
X57514123Y-107738380D01*
X58799838Y-107071714D02*
X58799838Y-107738380D01*
X58561742Y-106690761D02*
X58323647Y-107405047D01*
X58942695Y-107405047D01*
X59514123Y-106738380D02*
X59609361Y-106738380D01*
X59704600Y-106786000D01*
X59752219Y-106833619D01*
X59799838Y-106928857D01*
X59847457Y-107119333D01*
X59847457Y-107357428D01*
X59799838Y-107547904D01*
X59752219Y-107643142D01*
X59704600Y-107690761D01*
X59609361Y-107738380D01*
X59514123Y-107738380D01*
X59418885Y-107690761D01*
X59371266Y-107643142D01*
X59323647Y-107547904D01*
X59276028Y-107357428D01*
X59276028Y-107119333D01*
X59323647Y-106928857D01*
X59371266Y-106833619D01*
X59418885Y-106786000D01*
X59514123Y-106738380D01*
X57460000Y-104452380D02*
X57460000Y-104690476D01*
X57221904Y-104595238D02*
X57460000Y-104690476D01*
X57698095Y-104595238D01*
X57317142Y-104880952D02*
X57460000Y-104690476D01*
X57602857Y-104880952D01*
X96702380Y-33238095D02*
X97511904Y-33238095D01*
X97607142Y-33190476D01*
X97654761Y-33142857D01*
X97702380Y-33047619D01*
X97702380Y-32857142D01*
X97654761Y-32761904D01*
X97607142Y-32714285D01*
X97511904Y-32666666D01*
X96702380Y-32666666D01*
X97702380Y-31666666D02*
X97702380Y-32238095D01*
X97702380Y-31952380D02*
X96702380Y-31952380D01*
X96845238Y-32047619D01*
X96940476Y-32142857D01*
X96988095Y-32238095D01*
X96702380Y-31047619D02*
X96702380Y-30952380D01*
X96750000Y-30857142D01*
X96797619Y-30809523D01*
X96892857Y-30761904D01*
X97083333Y-30714285D01*
X97321428Y-30714285D01*
X97511904Y-30761904D01*
X97607142Y-30809523D01*
X97654761Y-30857142D01*
X97702380Y-30952380D01*
X97702380Y-31047619D01*
X97654761Y-31142857D01*
X97607142Y-31190476D01*
X97511904Y-31238095D01*
X97321428Y-31285714D01*
X97083333Y-31285714D01*
X96892857Y-31238095D01*
X96797619Y-31190476D01*
X96750000Y-31142857D01*
X96702380Y-31047619D01*
X85690580Y-34978150D02*
X85928676Y-34978150D01*
X85833438Y-35216245D02*
X85928676Y-34978150D01*
X85833438Y-34740054D01*
X86119152Y-35121007D02*
X85928676Y-34978150D01*
X86119152Y-34835292D01*
X85690580Y-34978150D02*
X85928676Y-34978150D01*
X85833438Y-35216245D02*
X85928676Y-34978150D01*
X85833438Y-34740054D01*
X86119152Y-35121007D02*
X85928676Y-34978150D01*
X86119152Y-34835292D01*
X64192295Y-56991780D02*
X64192295Y-57801304D01*
X64239914Y-57896542D01*
X64287533Y-57944161D01*
X64382771Y-57991780D01*
X64573247Y-57991780D01*
X64668485Y-57944161D01*
X64716104Y-57896542D01*
X64763723Y-57801304D01*
X64763723Y-56991780D01*
X65763723Y-57991780D02*
X65192295Y-57991780D01*
X65478009Y-57991780D02*
X65478009Y-56991780D01*
X65382771Y-57134638D01*
X65287533Y-57229876D01*
X65192295Y-57277495D01*
X41357142Y-94202380D02*
X41023809Y-93726190D01*
X40785714Y-94202380D02*
X40785714Y-93202380D01*
X41166666Y-93202380D01*
X41261904Y-93250000D01*
X41309523Y-93297619D01*
X41357142Y-93392857D01*
X41357142Y-93535714D01*
X41309523Y-93630952D01*
X41261904Y-93678571D01*
X41166666Y-93726190D01*
X40785714Y-93726190D01*
X41690476Y-93202380D02*
X42309523Y-93202380D01*
X41976190Y-93583333D01*
X42119047Y-93583333D01*
X42214285Y-93630952D01*
X42261904Y-93678571D01*
X42309523Y-93773809D01*
X42309523Y-94011904D01*
X42261904Y-94107142D01*
X42214285Y-94154761D01*
X42119047Y-94202380D01*
X41833333Y-94202380D01*
X41738095Y-94154761D01*
X41690476Y-94107142D01*
X42690476Y-93297619D02*
X42738095Y-93250000D01*
X42833333Y-93202380D01*
X43071428Y-93202380D01*
X43166666Y-93250000D01*
X43214285Y-93297619D01*
X43261904Y-93392857D01*
X43261904Y-93488095D01*
X43214285Y-93630952D01*
X42642857Y-94202380D01*
X43261904Y-94202380D01*
X31666180Y-59508723D02*
X32380466Y-59508723D01*
X32523323Y-59556342D01*
X32618561Y-59651580D01*
X32666180Y-59794438D01*
X32666180Y-59889676D01*
X31761419Y-59080152D02*
X31713800Y-59032533D01*
X31666180Y-58937295D01*
X31666180Y-58699200D01*
X31713800Y-58603961D01*
X31761419Y-58556342D01*
X31856657Y-58508723D01*
X31951895Y-58508723D01*
X32094752Y-58556342D01*
X32666180Y-59127771D01*
X32666180Y-58508723D01*
X31666180Y-57889676D02*
X31666180Y-57794438D01*
X31713800Y-57699200D01*
X31761419Y-57651580D01*
X31856657Y-57603961D01*
X32047133Y-57556342D01*
X32285228Y-57556342D01*
X32475704Y-57603961D01*
X32570942Y-57651580D01*
X32618561Y-57699200D01*
X32666180Y-57794438D01*
X32666180Y-57889676D01*
X32618561Y-57984914D01*
X32570942Y-58032533D01*
X32475704Y-58080152D01*
X32285228Y-58127771D01*
X32047133Y-58127771D01*
X31856657Y-58080152D01*
X31761419Y-58032533D01*
X31713800Y-57984914D01*
X31666180Y-57889676D01*
X29202380Y-58750000D02*
X29440476Y-58750000D01*
X29345238Y-58988095D02*
X29440476Y-58750000D01*
X29345238Y-58511904D01*
X29630952Y-58892857D02*
X29440476Y-58750000D01*
X29630952Y-58607142D01*
X37852380Y-34892857D02*
X37376190Y-35226190D01*
X37852380Y-35464285D02*
X36852380Y-35464285D01*
X36852380Y-35083333D01*
X36900000Y-34988095D01*
X36947619Y-34940476D01*
X37042857Y-34892857D01*
X37185714Y-34892857D01*
X37280952Y-34940476D01*
X37328571Y-34988095D01*
X37376190Y-35083333D01*
X37376190Y-35464285D01*
X37185714Y-34035714D02*
X37852380Y-34035714D01*
X36804761Y-34273809D02*
X37519047Y-34511904D01*
X37519047Y-33892857D01*
X36852380Y-33321428D02*
X36852380Y-33226190D01*
X36900000Y-33130952D01*
X36947619Y-33083333D01*
X37042857Y-33035714D01*
X37233333Y-32988095D01*
X37471428Y-32988095D01*
X37661904Y-33035714D01*
X37757142Y-33083333D01*
X37804761Y-33130952D01*
X37852380Y-33226190D01*
X37852380Y-33321428D01*
X37804761Y-33416666D01*
X37757142Y-33464285D01*
X37661904Y-33511904D01*
X37471428Y-33559523D01*
X37233333Y-33559523D01*
X37042857Y-33511904D01*
X36947619Y-33464285D01*
X36900000Y-33416666D01*
X36852380Y-33321428D01*
X38537676Y-27293380D02*
X38537676Y-28007666D01*
X38490057Y-28150523D01*
X38394819Y-28245761D01*
X38251961Y-28293380D01*
X38156723Y-28293380D01*
X39490057Y-27293380D02*
X39013866Y-27293380D01*
X38966247Y-27769571D01*
X39013866Y-27721952D01*
X39109104Y-27674333D01*
X39347200Y-27674333D01*
X39442438Y-27721952D01*
X39490057Y-27769571D01*
X39537676Y-27864809D01*
X39537676Y-28102904D01*
X39490057Y-28198142D01*
X39442438Y-28245761D01*
X39347200Y-28293380D01*
X39109104Y-28293380D01*
X39013866Y-28245761D01*
X38966247Y-28198142D01*
X40156723Y-27293380D02*
X40251961Y-27293380D01*
X40347200Y-27341000D01*
X40394819Y-27388619D01*
X40442438Y-27483857D01*
X40490057Y-27674333D01*
X40490057Y-27912428D01*
X40442438Y-28102904D01*
X40394819Y-28198142D01*
X40347200Y-28245761D01*
X40251961Y-28293380D01*
X40156723Y-28293380D01*
X40061485Y-28245761D01*
X40013866Y-28198142D01*
X39966247Y-28102904D01*
X39918628Y-27912428D01*
X39918628Y-27674333D01*
X39966247Y-27483857D01*
X40013866Y-27388619D01*
X40061485Y-27341000D01*
X40156723Y-27293380D01*
X69190476Y-103402380D02*
X69190476Y-104116666D01*
X69142857Y-104259523D01*
X69047619Y-104354761D01*
X68904761Y-104402380D01*
X68809523Y-104402380D01*
X70190476Y-104402380D02*
X69619047Y-104402380D01*
X69904761Y-104402380D02*
X69904761Y-103402380D01*
X69809523Y-103545238D01*
X69714285Y-103640476D01*
X69619047Y-103688095D01*
X70809523Y-103402380D02*
X70904761Y-103402380D01*
X71000000Y-103450000D01*
X71047619Y-103497619D01*
X71095238Y-103592857D01*
X71142857Y-103783333D01*
X71142857Y-104021428D01*
X71095238Y-104211904D01*
X71047619Y-104307142D01*
X71000000Y-104354761D01*
X70904761Y-104402380D01*
X70809523Y-104402380D01*
X70714285Y-104354761D01*
X70666666Y-104307142D01*
X70619047Y-104211904D01*
X70571428Y-104021428D01*
X70571428Y-103783333D01*
X70619047Y-103592857D01*
X70666666Y-103497619D01*
X70714285Y-103450000D01*
X70809523Y-103402380D01*
X41357142Y-90202380D02*
X41023809Y-89726190D01*
X40785714Y-90202380D02*
X40785714Y-89202380D01*
X41166666Y-89202380D01*
X41261904Y-89250000D01*
X41309523Y-89297619D01*
X41357142Y-89392857D01*
X41357142Y-89535714D01*
X41309523Y-89630952D01*
X41261904Y-89678571D01*
X41166666Y-89726190D01*
X40785714Y-89726190D01*
X41690476Y-89202380D02*
X42309523Y-89202380D01*
X41976190Y-89583333D01*
X42119047Y-89583333D01*
X42214285Y-89630952D01*
X42261904Y-89678571D01*
X42309523Y-89773809D01*
X42309523Y-90011904D01*
X42261904Y-90107142D01*
X42214285Y-90154761D01*
X42119047Y-90202380D01*
X41833333Y-90202380D01*
X41738095Y-90154761D01*
X41690476Y-90107142D01*
X42928571Y-89202380D02*
X43023809Y-89202380D01*
X43119047Y-89250000D01*
X43166666Y-89297619D01*
X43214285Y-89392857D01*
X43261904Y-89583333D01*
X43261904Y-89821428D01*
X43214285Y-90011904D01*
X43166666Y-90107142D01*
X43119047Y-90154761D01*
X43023809Y-90202380D01*
X42928571Y-90202380D01*
X42833333Y-90154761D01*
X42785714Y-90107142D01*
X42738095Y-90011904D01*
X42690476Y-89821428D01*
X42690476Y-89583333D01*
X42738095Y-89392857D01*
X42785714Y-89297619D01*
X42833333Y-89250000D01*
X42928571Y-89202380D01*
X62607142Y-77357142D02*
X62559523Y-77404761D01*
X62416666Y-77452380D01*
X62321428Y-77452380D01*
X62178571Y-77404761D01*
X62083333Y-77309523D01*
X62035714Y-77214285D01*
X61988095Y-77023809D01*
X61988095Y-76880952D01*
X62035714Y-76690476D01*
X62083333Y-76595238D01*
X62178571Y-76500000D01*
X62321428Y-76452380D01*
X62416666Y-76452380D01*
X62559523Y-76500000D01*
X62607142Y-76547619D01*
X62988095Y-76547619D02*
X63035714Y-76500000D01*
X63130952Y-76452380D01*
X63369047Y-76452380D01*
X63464285Y-76500000D01*
X63511904Y-76547619D01*
X63559523Y-76642857D01*
X63559523Y-76738095D01*
X63511904Y-76880952D01*
X62940476Y-77452380D01*
X63559523Y-77452380D01*
X63892857Y-76452380D02*
X64559523Y-76452380D01*
X64130952Y-77452380D01*
X68858409Y-77605390D02*
X68858409Y-78081580D01*
X68525076Y-77081580D02*
X68858409Y-77605390D01*
X69191742Y-77081580D01*
X70048885Y-78081580D02*
X69477457Y-78081580D01*
X69763171Y-78081580D02*
X69763171Y-77081580D01*
X69667933Y-77224438D01*
X69572695Y-77319676D01*
X69477457Y-77367295D01*
X87334104Y-49702380D02*
X87334104Y-50511904D01*
X87381723Y-50607142D01*
X87429342Y-50654761D01*
X87524580Y-50702380D01*
X87715057Y-50702380D01*
X87810295Y-50654761D01*
X87857914Y-50607142D01*
X87905533Y-50511904D01*
X87905533Y-49702380D01*
X88334104Y-49797619D02*
X88381723Y-49750000D01*
X88476961Y-49702380D01*
X88715057Y-49702380D01*
X88810295Y-49750000D01*
X88857914Y-49797619D01*
X88905533Y-49892857D01*
X88905533Y-49988095D01*
X88857914Y-50130952D01*
X88286485Y-50702380D01*
X88905533Y-50702380D01*
X89762676Y-50035714D02*
X89762676Y-50702380D01*
X89524580Y-49654761D02*
X89286485Y-50369047D01*
X89905533Y-50369047D01*
X39808704Y-61179780D02*
X39808704Y-61989304D01*
X39856323Y-62084542D01*
X39903942Y-62132161D01*
X39999180Y-62179780D01*
X40189657Y-62179780D01*
X40284895Y-62132161D01*
X40332514Y-62084542D01*
X40380133Y-61989304D01*
X40380133Y-61179780D01*
X40808704Y-61275019D02*
X40856323Y-61227400D01*
X40951561Y-61179780D01*
X41189657Y-61179780D01*
X41284895Y-61227400D01*
X41332514Y-61275019D01*
X41380133Y-61370257D01*
X41380133Y-61465495D01*
X41332514Y-61608352D01*
X40761085Y-62179780D01*
X41380133Y-62179780D01*
X41713466Y-61179780D02*
X42332514Y-61179780D01*
X41999180Y-61560733D01*
X42142038Y-61560733D01*
X42237276Y-61608352D01*
X42284895Y-61655971D01*
X42332514Y-61751209D01*
X42332514Y-61989304D01*
X42284895Y-62084542D01*
X42237276Y-62132161D01*
X42142038Y-62179780D01*
X41856323Y-62179780D01*
X41761085Y-62132161D01*
X41713466Y-62084542D01*
X87334104Y-74036180D02*
X87334104Y-74845704D01*
X87381723Y-74940942D01*
X87429342Y-74988561D01*
X87524580Y-75036180D01*
X87715057Y-75036180D01*
X87810295Y-74988561D01*
X87857914Y-74940942D01*
X87905533Y-74845704D01*
X87905533Y-74036180D01*
X88334104Y-74131419D02*
X88381723Y-74083800D01*
X88476961Y-74036180D01*
X88715057Y-74036180D01*
X88810295Y-74083800D01*
X88857914Y-74131419D01*
X88905533Y-74226657D01*
X88905533Y-74321895D01*
X88857914Y-74464752D01*
X88286485Y-75036180D01*
X88905533Y-75036180D01*
X89286485Y-74131419D02*
X89334104Y-74083800D01*
X89429342Y-74036180D01*
X89667438Y-74036180D01*
X89762676Y-74083800D01*
X89810295Y-74131419D01*
X89857914Y-74226657D01*
X89857914Y-74321895D01*
X89810295Y-74464752D01*
X89238866Y-75036180D01*
X89857914Y-75036180D01*
X40189704Y-49618580D02*
X40189704Y-50428104D01*
X40237323Y-50523342D01*
X40284942Y-50570961D01*
X40380180Y-50618580D01*
X40570657Y-50618580D01*
X40665895Y-50570961D01*
X40713514Y-50523342D01*
X40761133Y-50428104D01*
X40761133Y-49618580D01*
X41189704Y-49713819D02*
X41237323Y-49666200D01*
X41332561Y-49618580D01*
X41570657Y-49618580D01*
X41665895Y-49666200D01*
X41713514Y-49713819D01*
X41761133Y-49809057D01*
X41761133Y-49904295D01*
X41713514Y-50047152D01*
X41142085Y-50618580D01*
X41761133Y-50618580D01*
X42713514Y-50618580D02*
X42142085Y-50618580D01*
X42427800Y-50618580D02*
X42427800Y-49618580D01*
X42332561Y-49761438D01*
X42237323Y-49856676D01*
X42142085Y-49904295D01*
X58574552Y-80569113D02*
X58612734Y-80454565D01*
X58612734Y-80263652D01*
X58574552Y-80187287D01*
X58536369Y-80149104D01*
X58460004Y-80110921D01*
X58383639Y-80110921D01*
X58307273Y-80149104D01*
X58269091Y-80187287D01*
X58230908Y-80263652D01*
X58192726Y-80416382D01*
X58154543Y-80492748D01*
X58116360Y-80530930D01*
X58039995Y-80569113D01*
X57963630Y-80569113D01*
X57887265Y-80530930D01*
X57849082Y-80492748D01*
X57810899Y-80416382D01*
X57810899Y-80225469D01*
X57849082Y-80110921D01*
X57810899Y-79843643D02*
X58612734Y-79652730D01*
X58039995Y-79500000D01*
X58612734Y-79347269D01*
X57810899Y-79156356D01*
X58612734Y-78430886D02*
X58612734Y-78889078D01*
X58612734Y-78659982D02*
X57810899Y-78659982D01*
X57925447Y-78736347D01*
X58001812Y-78812712D01*
X58039995Y-78889078D01*
X41357142Y-92202380D02*
X41023809Y-91726190D01*
X40785714Y-92202380D02*
X40785714Y-91202380D01*
X41166666Y-91202380D01*
X41261904Y-91250000D01*
X41309523Y-91297619D01*
X41357142Y-91392857D01*
X41357142Y-91535714D01*
X41309523Y-91630952D01*
X41261904Y-91678571D01*
X41166666Y-91726190D01*
X40785714Y-91726190D01*
X41690476Y-91202380D02*
X42309523Y-91202380D01*
X41976190Y-91583333D01*
X42119047Y-91583333D01*
X42214285Y-91630952D01*
X42261904Y-91678571D01*
X42309523Y-91773809D01*
X42309523Y-92011904D01*
X42261904Y-92107142D01*
X42214285Y-92154761D01*
X42119047Y-92202380D01*
X41833333Y-92202380D01*
X41738095Y-92154761D01*
X41690476Y-92107142D01*
X43261904Y-92202380D02*
X42690476Y-92202380D01*
X42976190Y-92202380D02*
X42976190Y-91202380D01*
X42880952Y-91345238D01*
X42785714Y-91440476D01*
X42690476Y-91488095D01*
X74967580Y-60418157D02*
X74491390Y-60751490D01*
X74967580Y-60989585D02*
X73967580Y-60989585D01*
X73967580Y-60608633D01*
X74015200Y-60513395D01*
X74062819Y-60465776D01*
X74158057Y-60418157D01*
X74300914Y-60418157D01*
X74396152Y-60465776D01*
X74443771Y-60513395D01*
X74491390Y-60608633D01*
X74491390Y-60989585D01*
X74062819Y-60037204D02*
X74015200Y-59989585D01*
X73967580Y-59894347D01*
X73967580Y-59656252D01*
X74015200Y-59561014D01*
X74062819Y-59513395D01*
X74158057Y-59465776D01*
X74253295Y-59465776D01*
X74396152Y-59513395D01*
X74967580Y-60084823D01*
X74967580Y-59465776D01*
X73967580Y-58846728D02*
X73967580Y-58751490D01*
X74015200Y-58656252D01*
X74062819Y-58608633D01*
X74158057Y-58561014D01*
X74348533Y-58513395D01*
X74586628Y-58513395D01*
X74777104Y-58561014D01*
X74872342Y-58608633D01*
X74919961Y-58656252D01*
X74967580Y-58751490D01*
X74967580Y-58846728D01*
X74919961Y-58941966D01*
X74872342Y-58989585D01*
X74777104Y-59037204D01*
X74586628Y-59084823D01*
X74348533Y-59084823D01*
X74158057Y-59037204D01*
X74062819Y-58989585D01*
X74015200Y-58941966D01*
X73967580Y-58846728D01*
X58154780Y-74792257D02*
X57678590Y-75125590D01*
X58154780Y-75363685D02*
X57154780Y-75363685D01*
X57154780Y-74982733D01*
X57202400Y-74887495D01*
X57250019Y-74839876D01*
X57345257Y-74792257D01*
X57488114Y-74792257D01*
X57583352Y-74839876D01*
X57630971Y-74887495D01*
X57678590Y-74982733D01*
X57678590Y-75363685D01*
X58154780Y-73839876D02*
X58154780Y-74411304D01*
X58154780Y-74125590D02*
X57154780Y-74125590D01*
X57297638Y-74220828D01*
X57392876Y-74316066D01*
X57440495Y-74411304D01*
X57154780Y-73220828D02*
X57154780Y-73125590D01*
X57202400Y-73030352D01*
X57250019Y-72982733D01*
X57345257Y-72935114D01*
X57535733Y-72887495D01*
X57773828Y-72887495D01*
X57964304Y-72935114D01*
X58059542Y-72982733D01*
X58107161Y-73030352D01*
X58154780Y-73125590D01*
X58154780Y-73220828D01*
X58107161Y-73316066D01*
X58059542Y-73363685D01*
X57964304Y-73411304D01*
X57773828Y-73458923D01*
X57535733Y-73458923D01*
X57345257Y-73411304D01*
X57250019Y-73363685D01*
X57202400Y-73316066D01*
X57154780Y-73220828D01*
X65202380Y-81916666D02*
X64726190Y-82250000D01*
X65202380Y-82488095D02*
X64202380Y-82488095D01*
X64202380Y-82107142D01*
X64250000Y-82011904D01*
X64297619Y-81964285D01*
X64392857Y-81916666D01*
X64535714Y-81916666D01*
X64630952Y-81964285D01*
X64678571Y-82011904D01*
X64726190Y-82107142D01*
X64726190Y-82488095D01*
X64297619Y-81535714D02*
X64250000Y-81488095D01*
X64202380Y-81392857D01*
X64202380Y-81154761D01*
X64250000Y-81059523D01*
X64297619Y-81011904D01*
X64392857Y-80964285D01*
X64488095Y-80964285D01*
X64630952Y-81011904D01*
X65202380Y-81583333D01*
X65202380Y-80964285D01*
X70446380Y-82063066D02*
X69970190Y-82396400D01*
X70446380Y-82634495D02*
X69446380Y-82634495D01*
X69446380Y-82253542D01*
X69494000Y-82158304D01*
X69541619Y-82110685D01*
X69636857Y-82063066D01*
X69779714Y-82063066D01*
X69874952Y-82110685D01*
X69922571Y-82158304D01*
X69970190Y-82253542D01*
X69970190Y-82634495D01*
X70446380Y-81110685D02*
X70446380Y-81682114D01*
X70446380Y-81396400D02*
X69446380Y-81396400D01*
X69589238Y-81491638D01*
X69684476Y-81586876D01*
X69732095Y-81682114D01*
X63690476Y-27202380D02*
X63690476Y-27916666D01*
X63642857Y-28059523D01*
X63547619Y-28154761D01*
X63404761Y-28202380D01*
X63309523Y-28202380D01*
X64071428Y-27202380D02*
X64690476Y-27202380D01*
X64357142Y-27583333D01*
X64500000Y-27583333D01*
X64595238Y-27630952D01*
X64642857Y-27678571D01*
X64690476Y-27773809D01*
X64690476Y-28011904D01*
X64642857Y-28107142D01*
X64595238Y-28154761D01*
X64500000Y-28202380D01*
X64214285Y-28202380D01*
X64119047Y-28154761D01*
X64071428Y-28107142D01*
X65309523Y-27202380D02*
X65404761Y-27202380D01*
X65500000Y-27250000D01*
X65547619Y-27297619D01*
X65595238Y-27392857D01*
X65642857Y-27583333D01*
X65642857Y-27821428D01*
X65595238Y-28011904D01*
X65547619Y-28107142D01*
X65500000Y-28154761D01*
X65404761Y-28202380D01*
X65309523Y-28202380D01*
X65214285Y-28154761D01*
X65166666Y-28107142D01*
X65119047Y-28011904D01*
X65071428Y-27821428D01*
X65071428Y-27583333D01*
X65119047Y-27392857D01*
X65166666Y-27297619D01*
X65214285Y-27250000D01*
X65309523Y-27202380D01*
X98940476Y-55452380D02*
X98940476Y-56166666D01*
X98892857Y-56309523D01*
X98797619Y-56404761D01*
X98654761Y-56452380D01*
X98559523Y-56452380D01*
X99369047Y-55547619D02*
X99416666Y-55500000D01*
X99511904Y-55452380D01*
X99750000Y-55452380D01*
X99845238Y-55500000D01*
X99892857Y-55547619D01*
X99940476Y-55642857D01*
X99940476Y-55738095D01*
X99892857Y-55880952D01*
X99321428Y-56452380D01*
X99940476Y-56452380D01*
X100892857Y-56452380D02*
X100321428Y-56452380D01*
X100607142Y-56452380D02*
X100607142Y-55452380D01*
X100511904Y-55595238D01*
X100416666Y-55690476D01*
X100321428Y-55738095D01*
X99702380Y-71250000D02*
X99940476Y-71250000D01*
X99845238Y-71488095D02*
X99940476Y-71250000D01*
X99845238Y-71011904D01*
X100130952Y-71392857D02*
X99940476Y-71250000D01*
X100130952Y-71107142D01*
X87166666Y-107452380D02*
X87166666Y-108166666D01*
X87119047Y-108309523D01*
X87023809Y-108404761D01*
X86880952Y-108452380D01*
X86785714Y-108452380D01*
X87785714Y-107880952D02*
X87690476Y-107833333D01*
X87642857Y-107785714D01*
X87595238Y-107690476D01*
X87595238Y-107642857D01*
X87642857Y-107547619D01*
X87690476Y-107500000D01*
X87785714Y-107452380D01*
X87976190Y-107452380D01*
X88071428Y-107500000D01*
X88119047Y-107547619D01*
X88166666Y-107642857D01*
X88166666Y-107690476D01*
X88119047Y-107785714D01*
X88071428Y-107833333D01*
X87976190Y-107880952D01*
X87785714Y-107880952D01*
X87690476Y-107928571D01*
X87642857Y-107976190D01*
X87595238Y-108071428D01*
X87595238Y-108261904D01*
X87642857Y-108357142D01*
X87690476Y-108404761D01*
X87785714Y-108452380D01*
X87976190Y-108452380D01*
X88071428Y-108404761D01*
X88119047Y-108357142D01*
X88166666Y-108261904D01*
X88166666Y-108071428D01*
X88119047Y-107976190D01*
X88071428Y-107928571D01*
X87976190Y-107880952D01*
X41916666Y-107702380D02*
X41916666Y-108416666D01*
X41869047Y-108559523D01*
X41773809Y-108654761D01*
X41630952Y-108702380D01*
X41535714Y-108702380D01*
X42297619Y-107702380D02*
X42964285Y-107702380D01*
X42535714Y-108702380D01*
X107916666Y-87702380D02*
X107916666Y-88416666D01*
X107869047Y-88559523D01*
X107773809Y-88654761D01*
X107630952Y-88702380D01*
X107535714Y-88702380D01*
X108821428Y-87702380D02*
X108630952Y-87702380D01*
X108535714Y-87750000D01*
X108488095Y-87797619D01*
X108392857Y-87940476D01*
X108345238Y-88130952D01*
X108345238Y-88511904D01*
X108392857Y-88607142D01*
X108440476Y-88654761D01*
X108535714Y-88702380D01*
X108726190Y-88702380D01*
X108821428Y-88654761D01*
X108869047Y-88607142D01*
X108916666Y-88511904D01*
X108916666Y-88273809D01*
X108869047Y-88178571D01*
X108821428Y-88130952D01*
X108726190Y-88083333D01*
X108535714Y-88083333D01*
X108440476Y-88130952D01*
X108392857Y-88178571D01*
X108345238Y-88273809D01*
X107916666Y-41452380D02*
X107916666Y-42166666D01*
X107869047Y-42309523D01*
X107773809Y-42404761D01*
X107630952Y-42452380D01*
X107535714Y-42452380D01*
X108869047Y-41452380D02*
X108392857Y-41452380D01*
X108345238Y-41928571D01*
X108392857Y-41880952D01*
X108488095Y-41833333D01*
X108726190Y-41833333D01*
X108821428Y-41880952D01*
X108869047Y-41928571D01*
X108916666Y-42023809D01*
X108916666Y-42261904D01*
X108869047Y-42357142D01*
X108821428Y-42404761D01*
X108726190Y-42452380D01*
X108488095Y-42452380D01*
X108392857Y-42404761D01*
X108345238Y-42357142D01*
X21166666Y-87452380D02*
X21166666Y-88166666D01*
X21119047Y-88309523D01*
X21023809Y-88404761D01*
X20880952Y-88452380D01*
X20785714Y-88452380D01*
X22071428Y-87785714D02*
X22071428Y-88452380D01*
X21833333Y-87404761D02*
X21595238Y-88119047D01*
X22214285Y-88119047D01*
X21416666Y-41452380D02*
X21416666Y-42166666D01*
X21369047Y-42309523D01*
X21273809Y-42404761D01*
X21130952Y-42452380D01*
X21035714Y-42452380D01*
X21797619Y-41452380D02*
X22416666Y-41452380D01*
X22083333Y-41833333D01*
X22226190Y-41833333D01*
X22321428Y-41880952D01*
X22369047Y-41928571D01*
X22416666Y-42023809D01*
X22416666Y-42261904D01*
X22369047Y-42357142D01*
X22321428Y-42404761D01*
X22226190Y-42452380D01*
X21940476Y-42452380D01*
X21845238Y-42404761D01*
X21797619Y-42357142D01*
X87666666Y-21452380D02*
X87666666Y-22166666D01*
X87619047Y-22309523D01*
X87523809Y-22404761D01*
X87380952Y-22452380D01*
X87285714Y-22452380D01*
X88095238Y-21547619D02*
X88142857Y-21500000D01*
X88238095Y-21452380D01*
X88476190Y-21452380D01*
X88571428Y-21500000D01*
X88619047Y-21547619D01*
X88666666Y-21642857D01*
X88666666Y-21738095D01*
X88619047Y-21880952D01*
X88047619Y-22452380D01*
X88666666Y-22452380D01*
X41916666Y-21202380D02*
X41916666Y-21916666D01*
X41869047Y-22059523D01*
X41773809Y-22154761D01*
X41630952Y-22202380D01*
X41535714Y-22202380D01*
X42916666Y-22202380D02*
X42345238Y-22202380D01*
X42630952Y-22202380D02*
X42630952Y-21202380D01*
X42535714Y-21345238D01*
X42440476Y-21440476D01*
X42345238Y-21488095D01*
X84407142Y-32612857D02*
X84454761Y-32660476D01*
X84502380Y-32803333D01*
X84502380Y-32898571D01*
X84454761Y-33041428D01*
X84359523Y-33136666D01*
X84264285Y-33184285D01*
X84073809Y-33231904D01*
X83930952Y-33231904D01*
X83740476Y-33184285D01*
X83645238Y-33136666D01*
X83550000Y-33041428D01*
X83502380Y-32898571D01*
X83502380Y-32803333D01*
X83550000Y-32660476D01*
X83597619Y-32612857D01*
X83597619Y-32231904D02*
X83550000Y-32184285D01*
X83502380Y-32089047D01*
X83502380Y-31850952D01*
X83550000Y-31755714D01*
X83597619Y-31708095D01*
X83692857Y-31660476D01*
X83788095Y-31660476D01*
X83930952Y-31708095D01*
X84502380Y-32279523D01*
X84502380Y-31660476D01*
X83502380Y-30755714D02*
X83502380Y-31231904D01*
X83978571Y-31279523D01*
X83930952Y-31231904D01*
X83883333Y-31136666D01*
X83883333Y-30898571D01*
X83930952Y-30803333D01*
X83978571Y-30755714D01*
X84073809Y-30708095D01*
X84311904Y-30708095D01*
X84407142Y-30755714D01*
X84454761Y-30803333D01*
X84502380Y-30898571D01*
X84502380Y-31136666D01*
X84454761Y-31231904D01*
X84407142Y-31279523D01*
X55761342Y-63582257D02*
X55808961Y-63629876D01*
X55856580Y-63772733D01*
X55856580Y-63867971D01*
X55808961Y-64010828D01*
X55713723Y-64106066D01*
X55618485Y-64153685D01*
X55428009Y-64201304D01*
X55285152Y-64201304D01*
X55094676Y-64153685D01*
X54999438Y-64106066D01*
X54904200Y-64010828D01*
X54856580Y-63867971D01*
X54856580Y-63772733D01*
X54904200Y-63629876D01*
X54951819Y-63582257D01*
X54951819Y-63201304D02*
X54904200Y-63153685D01*
X54856580Y-63058447D01*
X54856580Y-62820352D01*
X54904200Y-62725114D01*
X54951819Y-62677495D01*
X55047057Y-62629876D01*
X55142295Y-62629876D01*
X55285152Y-62677495D01*
X55856580Y-63248923D01*
X55856580Y-62629876D01*
X55189914Y-61772733D02*
X55856580Y-61772733D01*
X54808961Y-62010828D02*
X55523247Y-62248923D01*
X55523247Y-61629876D01*
X64607142Y-74142857D02*
X64654761Y-74190476D01*
X64702380Y-74333333D01*
X64702380Y-74428571D01*
X64654761Y-74571428D01*
X64559523Y-74666666D01*
X64464285Y-74714285D01*
X64273809Y-74761904D01*
X64130952Y-74761904D01*
X63940476Y-74714285D01*
X63845238Y-74666666D01*
X63750000Y-74571428D01*
X63702380Y-74428571D01*
X63702380Y-74333333D01*
X63750000Y-74190476D01*
X63797619Y-74142857D01*
X63797619Y-73761904D02*
X63750000Y-73714285D01*
X63702380Y-73619047D01*
X63702380Y-73380952D01*
X63750000Y-73285714D01*
X63797619Y-73238095D01*
X63892857Y-73190476D01*
X63988095Y-73190476D01*
X64130952Y-73238095D01*
X64702380Y-73809523D01*
X64702380Y-73190476D01*
X63702380Y-72857142D02*
X63702380Y-72238095D01*
X64083333Y-72571428D01*
X64083333Y-72428571D01*
X64130952Y-72333333D01*
X64178571Y-72285714D01*
X64273809Y-72238095D01*
X64511904Y-72238095D01*
X64607142Y-72285714D01*
X64654761Y-72333333D01*
X64702380Y-72428571D01*
X64702380Y-72714285D01*
X64654761Y-72809523D01*
X64607142Y-72857142D01*
X74731342Y-70332257D02*
X74778961Y-70379876D01*
X74826580Y-70522733D01*
X74826580Y-70617971D01*
X74778961Y-70760828D01*
X74683723Y-70856066D01*
X74588485Y-70903685D01*
X74398009Y-70951304D01*
X74255152Y-70951304D01*
X74064676Y-70903685D01*
X73969438Y-70856066D01*
X73874200Y-70760828D01*
X73826580Y-70617971D01*
X73826580Y-70522733D01*
X73874200Y-70379876D01*
X73921819Y-70332257D01*
X73921819Y-69951304D02*
X73874200Y-69903685D01*
X73826580Y-69808447D01*
X73826580Y-69570352D01*
X73874200Y-69475114D01*
X73921819Y-69427495D01*
X74017057Y-69379876D01*
X74112295Y-69379876D01*
X74255152Y-69427495D01*
X74826580Y-69998923D01*
X74826580Y-69379876D01*
X73921819Y-68998923D02*
X73874200Y-68951304D01*
X73826580Y-68856066D01*
X73826580Y-68617971D01*
X73874200Y-68522733D01*
X73921819Y-68475114D01*
X74017057Y-68427495D01*
X74112295Y-68427495D01*
X74255152Y-68475114D01*
X74826580Y-69046542D01*
X74826580Y-68427495D01*
X69431342Y-55566542D02*
X69383723Y-55614161D01*
X69240866Y-55661780D01*
X69145628Y-55661780D01*
X69002771Y-55614161D01*
X68907533Y-55518923D01*
X68859914Y-55423685D01*
X68812295Y-55233209D01*
X68812295Y-55090352D01*
X68859914Y-54899876D01*
X68907533Y-54804638D01*
X69002771Y-54709400D01*
X69145628Y-54661780D01*
X69240866Y-54661780D01*
X69383723Y-54709400D01*
X69431342Y-54757019D01*
X69812295Y-54757019D02*
X69859914Y-54709400D01*
X69955152Y-54661780D01*
X70193247Y-54661780D01*
X70288485Y-54709400D01*
X70336104Y-54757019D01*
X70383723Y-54852257D01*
X70383723Y-54947495D01*
X70336104Y-55090352D01*
X69764676Y-55661780D01*
X70383723Y-55661780D01*
X71336104Y-55661780D02*
X70764676Y-55661780D01*
X71050390Y-55661780D02*
X71050390Y-54661780D01*
X70955152Y-54804638D01*
X70859914Y-54899876D01*
X70764676Y-54947495D01*
X59291342Y-55706542D02*
X59243723Y-55754161D01*
X59100866Y-55801780D01*
X59005628Y-55801780D01*
X58862771Y-55754161D01*
X58767533Y-55658923D01*
X58719914Y-55563685D01*
X58672295Y-55373209D01*
X58672295Y-55230352D01*
X58719914Y-55039876D01*
X58767533Y-54944638D01*
X58862771Y-54849400D01*
X59005628Y-54801780D01*
X59100866Y-54801780D01*
X59243723Y-54849400D01*
X59291342Y-54897019D01*
X59672295Y-54897019D02*
X59719914Y-54849400D01*
X59815152Y-54801780D01*
X60053247Y-54801780D01*
X60148485Y-54849400D01*
X60196104Y-54897019D01*
X60243723Y-54992257D01*
X60243723Y-55087495D01*
X60196104Y-55230352D01*
X59624676Y-55801780D01*
X60243723Y-55801780D01*
X60862771Y-54801780D02*
X60958009Y-54801780D01*
X61053247Y-54849400D01*
X61100866Y-54897019D01*
X61148485Y-54992257D01*
X61196104Y-55182733D01*
X61196104Y-55420828D01*
X61148485Y-55611304D01*
X61100866Y-55706542D01*
X61053247Y-55754161D01*
X60958009Y-55801780D01*
X60862771Y-55801780D01*
X60767533Y-55754161D01*
X60719914Y-55706542D01*
X60672295Y-55611304D01*
X60624676Y-55420828D01*
X60624676Y-55182733D01*
X60672295Y-54992257D01*
X60719914Y-54897019D01*
X60767533Y-54849400D01*
X60862771Y-54801780D01*
X55722742Y-66994457D02*
X55770361Y-67042076D01*
X55817980Y-67184933D01*
X55817980Y-67280171D01*
X55770361Y-67423028D01*
X55675123Y-67518266D01*
X55579885Y-67565885D01*
X55389409Y-67613504D01*
X55246552Y-67613504D01*
X55056076Y-67565885D01*
X54960838Y-67518266D01*
X54865600Y-67423028D01*
X54817980Y-67280171D01*
X54817980Y-67184933D01*
X54865600Y-67042076D01*
X54913219Y-66994457D01*
X55817980Y-66042076D02*
X55817980Y-66613504D01*
X55817980Y-66327790D02*
X54817980Y-66327790D01*
X54960838Y-66423028D01*
X55056076Y-66518266D01*
X55103695Y-66613504D01*
X54817980Y-65423028D02*
X54817980Y-65327790D01*
X54865600Y-65232552D01*
X54913219Y-65184933D01*
X55008457Y-65137314D01*
X55198933Y-65089695D01*
X55437028Y-65089695D01*
X55627504Y-65137314D01*
X55722742Y-65184933D01*
X55770361Y-65232552D01*
X55817980Y-65327790D01*
X55817980Y-65423028D01*
X55770361Y-65518266D01*
X55722742Y-65565885D01*
X55627504Y-65613504D01*
X55437028Y-65661123D01*
X55198933Y-65661123D01*
X55008457Y-65613504D01*
X54913219Y-65565885D01*
X54865600Y-65518266D01*
X54817980Y-65423028D01*
X73729342Y-74087466D02*
X73776961Y-74135085D01*
X73824580Y-74277942D01*
X73824580Y-74373180D01*
X73776961Y-74516038D01*
X73681723Y-74611276D01*
X73586485Y-74658895D01*
X73396009Y-74706514D01*
X73253152Y-74706514D01*
X73062676Y-74658895D01*
X72967438Y-74611276D01*
X72872200Y-74516038D01*
X72824580Y-74373180D01*
X72824580Y-74277942D01*
X72872200Y-74135085D01*
X72919819Y-74087466D01*
X72919819Y-73706514D02*
X72872200Y-73658895D01*
X72824580Y-73563657D01*
X72824580Y-73325561D01*
X72872200Y-73230323D01*
X72919819Y-73182704D01*
X73015057Y-73135085D01*
X73110295Y-73135085D01*
X73253152Y-73182704D01*
X73824580Y-73754133D01*
X73824580Y-73135085D01*
X66198433Y-80068142D02*
X66150814Y-80115761D01*
X66007957Y-80163380D01*
X65912719Y-80163380D01*
X65769861Y-80115761D01*
X65674623Y-80020523D01*
X65627004Y-79925285D01*
X65579385Y-79734809D01*
X65579385Y-79591952D01*
X65627004Y-79401476D01*
X65674623Y-79306238D01*
X65769861Y-79211000D01*
X65912719Y-79163380D01*
X66007957Y-79163380D01*
X66150814Y-79211000D01*
X66198433Y-79258619D01*
X67150814Y-80163380D02*
X66579385Y-80163380D01*
X66865100Y-80163380D02*
X66865100Y-79163380D01*
X66769861Y-79306238D01*
X66674623Y-79401476D01*
X66579385Y-79449095D01*
M02*
