  0
SECTION
  2
HEADER
  9
$ANGBASE
  50
0.0
  9
$ANGDIR
  70
1
  9
$MEASUREMENT
  70
0
  0
ENDSEC
  0
SECTION
  2
TABLES
  0
TABLE
  2
LTYPE
  70
4
  0
LTYPE
  5
40F
  2
CONTINUOUS
  70
0
  3
Solid line
  72
65
  73
0
  40
0.0
  0
LTYPE
  5
410
  2
DASHDOT
 70
0
  3
Dash Dot ____ _ ____ _
 72
65
 73
4
 40
2.0
 49
1.25
 49
-0.25
 49
0.25
 49
-0.25
  0
LTYPE
  5
411
  2
DASHED
 70
0
  3
Dashed __ __ __ __ __
 72
65
 73
2
 40
0.75
 49
0.5
 49
-0.25
  0
LTYPE
  5
43B
  2
DOTTED
 70
0
  3
Dotted .  .  .  .
 72
65
 73
2
 40
0.2
 49
0.0
 49
-0.2
  0
ENDTAB
  0
TABLE
  2
STYLE
  70
4
  0
STYLE
  2
KICAD
  70
0
  40
0
  41
1
  42
1
  50
0
  71
0
  3
isocp.shx
  0
STYLE
  2
KICADB
  70
0
  40
0
  41
1
  42
1
  50
0
  71
0
  3
isocp.shx
  0
STYLE
  2
KICADI
  70
0
  40
0
  41
1
  42
1
  50
15
  71
0
  3
isocp.shx
  0
STYLE
  2
KICADBI
  70
0
  40
0
  41
1
  42
1
  50
15
  71
0
  3
isocp.shx
  0
ENDTAB
  0
TABLE
  2
LAYER
  70
1
  0
LAYER
  2
BLACK
  70
0
  62
7
  6
CONTINUOUS
  0
ENDTAB
  0
ENDSEC
  0
SECTION
  2
ENTITIES
0
LINE
8
BLACK
6
CONTINUOUS
10
2.11178
20
-4.12859
11
2.11314
21
-4.1253
0
LINE
8
BLACK
6
CONTINUOUS
10
2.11314
20
-4.1253
11
2.11511
21
-4.12234
0
LINE
8
BLACK
6
CONTINUOUS
10
2.11511
20
-4.12234
11
2.11763
21
-4.11983
0
LINE
8
BLACK
6
CONTINUOUS
10
2.11763
20
-4.11983
11
2.12059
21
-4.11785
0
LINE
8
BLACK
6
CONTINUOUS
10
2.12059
20
-4.11785
11
2.12388
21
-4.11649
0
LINE
8
BLACK
6
CONTINUOUS
10
2.12388
20
-4.11649
11
2.12737
21
-4.1158
0
LINE
8
BLACK
6
CONTINUOUS
10
2.12737
20
-4.1158
11
2.13092
21
-4.1158
0
LINE
8
BLACK
6
CONTINUOUS
10
2.13092
20
-4.1158
11
2.13441
21
-4.11649
0
LINE
8
BLACK
6
CONTINUOUS
10
2.13441
20
-4.11649
11
2.1377
21
-4.11785
0
LINE
8
BLACK
6
CONTINUOUS
10
2.1377
20
-4.11785
11
2.14066
21
-4.11983
0
LINE
8
BLACK
6
CONTINUOUS
10
2.14066
20
-4.11983
11
2.14317
21
-4.12234
0
LINE
8
BLACK
6
CONTINUOUS
10
2.14317
20
-4.12234
11
2.14515
21
-4.1253
0
LINE
8
BLACK
6
CONTINUOUS
10
2.14515
20
-4.1253
11
2.14651
21
-4.12859
0
LINE
8
BLACK
6
CONTINUOUS
10
2.14651
20
-4.12859
11
2.14721
21
-4.13208
0
LINE
8
BLACK
6
CONTINUOUS
10
2.14721
20
-4.13208
11
2.14721
21
-4.13564
0
LINE
8
BLACK
6
CONTINUOUS
10
2.14721
20
-4.13564
11
2.14651
21
-4.13913
0
LINE
8
BLACK
6
CONTINUOUS
10
2.14651
20
-4.13913
11
2.14515
21
-4.14241
0
LINE
8
BLACK
6
CONTINUOUS
10
2.14515
20
-4.14241
11
2.14317
21
-4.14537
0
LINE
8
BLACK
6
CONTINUOUS
10
2.14317
20
-4.14537
11
2.14066
21
-4.14789
0
LINE
8
BLACK
6
CONTINUOUS
10
2.14066
20
-4.14789
11
2.1377
21
-4.14986
0
LINE
8
BLACK
6
CONTINUOUS
10
2.1377
20
-4.14986
11
2.13441
21
-4.15123
0
LINE
8
BLACK
6
CONTINUOUS
10
2.13441
20
-4.15123
11
2.13092
21
-4.15192
0
LINE
8
BLACK
6
CONTINUOUS
10
2.13092
20
-4.15192
11
2.12737
21
-4.15192
0
LINE
8
BLACK
6
CONTINUOUS
10
2.12737
20
-4.15192
11
2.12388
21
-4.15123
0
LINE
8
BLACK
6
CONTINUOUS
10
2.12388
20
-4.15123
11
2.12059
21
-4.14986
0
LINE
8
BLACK
6
CONTINUOUS
10
2.12059
20
-4.14986
11
2.11763
21
-4.14789
0
LINE
8
BLACK
6
CONTINUOUS
10
2.11763
20
-4.14789
11
2.11511
21
-4.14537
0
LINE
8
BLACK
6
CONTINUOUS
10
2.11511
20
-4.14537
11
2.11314
21
-4.14241
0
LINE
8
BLACK
6
CONTINUOUS
10
2.11314
20
-4.14241
11
2.11178
21
-4.13913
0
LINE
8
BLACK
6
CONTINUOUS
10
2.11178
20
-4.13913
11
2.11108
21
-4.13564
0
LINE
8
BLACK
6
CONTINUOUS
10
2.11108
20
-4.13564
11
2.11108
21
-4.13208
0
LINE
8
BLACK
6
CONTINUOUS
10
2.11108
20
-4.13208
11
2.11178
21
-4.12859
0
LINE
8
BLACK
6
CONTINUOUS
10
2.11705
20
-4.13753
11
2.118
21
-4.13982
0
LINE
8
BLACK
6
CONTINUOUS
10
2.118
20
-4.13982
11
2.11938
21
-4.14188
0
LINE
8
BLACK
6
CONTINUOUS
10
2.11938
20
-4.14188
11
2.12113
21
-4.14363
0
LINE
8
BLACK
6
CONTINUOUS
10
2.12113
20
-4.14363
11
2.12319
21
-4.145
0
LINE
8
BLACK
6
CONTINUOUS
10
2.12319
20
-4.145
11
2.12548
21
-4.14595
0
LINE
8
BLACK
6
CONTINUOUS
10
2.12548
20
-4.14595
11
2.12791
21
-4.14644
0
LINE
8
BLACK
6
CONTINUOUS
10
2.12791
20
-4.14644
11
2.13038
21
-4.14644
0
LINE
8
BLACK
6
CONTINUOUS
10
2.13038
20
-4.14644
11
2.13281
21
-4.14595
0
LINE
8
BLACK
6
CONTINUOUS
10
2.13281
20
-4.14595
11
2.1351
21
-4.145
0
LINE
8
BLACK
6
CONTINUOUS
10
2.1351
20
-4.145
11
2.13716
21
-4.14363
0
LINE
8
BLACK
6
CONTINUOUS
10
2.13716
20
-4.14363
11
2.13891
21
-4.14188
0
LINE
8
BLACK
6
CONTINUOUS
10
2.13891
20
-4.14188
11
2.14029
21
-4.13982
0
LINE
8
BLACK
6
CONTINUOUS
10
2.14029
20
-4.13982
11
2.14124
21
-4.13753
0
LINE
8
BLACK
6
CONTINUOUS
10
2.14124
20
-4.13753
11
2.14172
21
-4.1351
0
LINE
8
BLACK
6
CONTINUOUS
10
2.14172
20
-4.1351
11
2.14172
21
-4.13262
0
LINE
8
BLACK
6
CONTINUOUS
10
2.14172
20
-4.13262
11
2.14124
21
-4.13019
0
LINE
8
BLACK
6
CONTINUOUS
10
2.14124
20
-4.13019
11
2.14029
21
-4.1279
0
LINE
8
BLACK
6
CONTINUOUS
10
2.14029
20
-4.1279
11
2.13891
21
-4.12584
0
LINE
8
BLACK
6
CONTINUOUS
10
2.13891
20
-4.12584
11
2.13716
21
-4.12409
0
LINE
8
BLACK
6
CONTINUOUS
10
2.13716
20
-4.12409
11
2.1351
21
-4.12271
0
LINE
8
BLACK
6
CONTINUOUS
10
2.1351
20
-4.12271
11
2.13281
21
-4.12176
0
LINE
8
BLACK
6
CONTINUOUS
10
2.13281
20
-4.12176
11
2.13038
21
-4.12128
0
LINE
8
BLACK
6
CONTINUOUS
10
2.13038
20
-4.12128
11
2.12791
21
-4.12128
0
LINE
8
BLACK
6
CONTINUOUS
10
2.12791
20
-4.12128
11
2.12548
21
-4.12176
0
LINE
8
BLACK
6
CONTINUOUS
10
2.12548
20
-4.12176
11
2.12319
21
-4.12271
0
LINE
8
BLACK
6
CONTINUOUS
10
2.12319
20
-4.12271
11
2.12113
21
-4.12409
0
LINE
8
BLACK
6
CONTINUOUS
10
2.12113
20
-4.12409
11
2.11938
21
-4.12584
0
LINE
8
BLACK
6
CONTINUOUS
10
2.11938
20
-4.12584
11
2.118
21
-4.1279
0
LINE
8
BLACK
6
CONTINUOUS
10
2.118
20
-4.1279
11
2.11705
21
-4.13019
0
LINE
8
BLACK
6
CONTINUOUS
10
2.11705
20
-4.13019
11
2.11657
21
-4.13262
0
LINE
8
BLACK
6
CONTINUOUS
10
2.11657
20
-4.13262
11
2.11657
21
-4.1351
0
LINE
8
BLACK
6
CONTINUOUS
10
2.11657
20
-4.1351
11
2.11705
21
-4.13753
0
LINE
8
BLACK
6
CONTINUOUS
10
3.92948
20
-2.93285
11
3.93084
21
-2.92956
0
LINE
8
BLACK
6
CONTINUOUS
10
3.93084
20
-2.92956
11
3.93282
21
-2.9266
0
LINE
8
BLACK
6
CONTINUOUS
10
3.93282
20
-2.9266
11
3.93534
21
-2.92409
0
LINE
8
BLACK
6
CONTINUOUS
10
3.93534
20
-2.92409
11
3.93829
21
-2.92211
0
LINE
8
BLACK
6
CONTINUOUS
10
3.93829
20
-2.92211
11
3.94158
21
-2.92075
0
LINE
8
BLACK
6
CONTINUOUS
10
3.94158
20
-2.92075
11
3.94507
21
-2.92006
0
LINE
8
BLACK
6
CONTINUOUS
10
3.94507
20
-2.92006
11
3.94863
21
-2.92006
0
LINE
8
BLACK
6
CONTINUOUS
10
3.94863
20
-2.92006
11
3.95212
21
-2.92075
0
LINE
8
BLACK
6
CONTINUOUS
10
3.95212
20
-2.92075
11
3.95541
21
-2.92211
0
LINE
8
BLACK
6
CONTINUOUS
10
3.95541
20
-2.92211
11
3.95836
21
-2.92409
0
LINE
8
BLACK
6
CONTINUOUS
10
3.95836
20
-2.92409
11
3.96088
21
-2.9266
0
LINE
8
BLACK
6
CONTINUOUS
10
3.96088
20
-2.9266
11
3.96286
21
-2.92956
0
LINE
8
BLACK
6
CONTINUOUS
10
3.96286
20
-2.92956
11
3.96422
21
-2.93285
0
LINE
8
BLACK
6
CONTINUOUS
10
3.96422
20
-2.93285
11
3.96491
21
-2.93634
0
LINE
8
BLACK
6
CONTINUOUS
10
3.96491
20
-2.93634
11
3.96491
21
-2.9399
0
LINE
8
BLACK
6
CONTINUOUS
10
3.96491
20
-2.9399
11
3.96422
21
-2.94339
0
LINE
8
BLACK
6
CONTINUOUS
10
3.96422
20
-2.94339
11
3.96286
21
-2.94667
0
LINE
8
BLACK
6
CONTINUOUS
10
3.96286
20
-2.94667
11
3.96088
21
-2.94963
0
LINE
8
BLACK
6
CONTINUOUS
10
3.96088
20
-2.94963
11
3.95836
21
-2.95215
0
LINE
8
BLACK
6
CONTINUOUS
10
3.95836
20
-2.95215
11
3.95541
21
-2.95412
0
LINE
8
BLACK
6
CONTINUOUS
10
3.95541
20
-2.95412
11
3.95212
21
-2.95549
0
LINE
8
BLACK
6
CONTINUOUS
10
3.95212
20
-2.95549
11
3.94863
21
-2.95618
0
LINE
8
BLACK
6
CONTINUOUS
10
3.94863
20
-2.95618
11
3.94507
21
-2.95618
0
LINE
8
BLACK
6
CONTINUOUS
10
3.94507
20
-2.95618
11
3.94158
21
-2.95549
0
LINE
8
BLACK
6
CONTINUOUS
10
3.94158
20
-2.95549
11
3.93829
21
-2.95412
0
LINE
8
BLACK
6
CONTINUOUS
10
3.93829
20
-2.95412
11
3.93534
21
-2.95215
0
LINE
8
BLACK
6
CONTINUOUS
10
3.93534
20
-2.95215
11
3.93282
21
-2.94963
0
LINE
8
BLACK
6
CONTINUOUS
10
3.93282
20
-2.94963
11
3.93084
21
-2.94667
0
LINE
8
BLACK
6
CONTINUOUS
10
3.93084
20
-2.94667
11
3.92948
21
-2.94339
0
LINE
8
BLACK
6
CONTINUOUS
10
3.92948
20
-2.94339
11
3.92879
21
-2.9399
0
LINE
8
BLACK
6
CONTINUOUS
10
3.92879
20
-2.9399
11
3.92879
21
-2.93634
0
LINE
8
BLACK
6
CONTINUOUS
10
3.92879
20
-2.93634
11
3.92948
21
-2.93285
0
LINE
8
BLACK
6
CONTINUOUS
10
3.93476
20
-2.94179
11
3.9357
21
-2.94408
0
LINE
8
BLACK
6
CONTINUOUS
10
3.9357
20
-2.94408
11
3.93708
21
-2.94614
0
LINE
8
BLACK
6
CONTINUOUS
10
3.93708
20
-2.94614
11
3.93883
21
-2.94789
0
LINE
8
BLACK
6
CONTINUOUS
10
3.93883
20
-2.94789
11
3.94089
21
-2.94926
0
LINE
8
BLACK
6
CONTINUOUS
10
3.94089
20
-2.94926
11
3.94318
21
-2.95021
0
LINE
8
BLACK
6
CONTINUOUS
10
3.94318
20
-2.95021
11
3.94561
21
-2.9507
0
LINE
8
BLACK
6
CONTINUOUS
10
3.94561
20
-2.9507
11
3.94809
21
-2.9507
0
LINE
8
BLACK
6
CONTINUOUS
10
3.94809
20
-2.9507
11
3.95052
21
-2.95021
0
LINE
8
BLACK
6
CONTINUOUS
10
3.95052
20
-2.95021
11
3.95281
21
-2.94926
0
LINE
8
BLACK
6
CONTINUOUS
10
3.95281
20
-2.94926
11
3.95487
21
-2.94789
0
LINE
8
BLACK
6
CONTINUOUS
10
3.95487
20
-2.94789
11
3.95662
21
-2.94614
0
LINE
8
BLACK
6
CONTINUOUS
10
3.95662
20
-2.94614
11
3.958
21
-2.94408
0
LINE
8
BLACK
6
CONTINUOUS
10
3.958
20
-2.94408
11
3.95894
21
-2.94179
0
LINE
8
BLACK
6
CONTINUOUS
10
3.95894
20
-2.94179
11
3.95943
21
-2.93936
0
LINE
8
BLACK
6
CONTINUOUS
10
3.95943
20
-2.93936
11
3.95943
21
-2.93688
0
LINE
8
BLACK
6
CONTINUOUS
10
3.95943
20
-2.93688
11
3.95894
21
-2.93445
0
LINE
8
BLACK
6
CONTINUOUS
10
3.95894
20
-2.93445
11
3.958
21
-2.93216
0
LINE
8
BLACK
6
CONTINUOUS
10
3.958
20
-2.93216
11
3.95662
21
-2.9301
0
LINE
8
BLACK
6
CONTINUOUS
10
3.95662
20
-2.9301
11
3.95487
21
-2.92835
0
LINE
8
BLACK
6
CONTINUOUS
10
3.95487
20
-2.92835
11
3.95281
21
-2.92697
0
LINE
8
BLACK
6
CONTINUOUS
10
3.95281
20
-2.92697
11
3.95052
21
-2.92602
0
LINE
8
BLACK
6
CONTINUOUS
10
3.95052
20
-2.92602
11
3.94809
21
-2.92554
0
LINE
8
BLACK
6
CONTINUOUS
10
3.94809
20
-2.92554
11
3.94561
21
-2.92554
0
LINE
8
BLACK
6
CONTINUOUS
10
3.94561
20
-2.92554
11
3.94318
21
-2.92602
0
LINE
8
BLACK
6
CONTINUOUS
10
3.94318
20
-2.92602
11
3.94089
21
-2.92697
0
LINE
8
BLACK
6
CONTINUOUS
10
3.94089
20
-2.92697
11
3.93883
21
-2.92835
0
LINE
8
BLACK
6
CONTINUOUS
10
3.93883
20
-2.92835
11
3.93708
21
-2.9301
0
LINE
8
BLACK
6
CONTINUOUS
10
3.93708
20
-2.9301
11
3.9357
21
-2.93216
0
LINE
8
BLACK
6
CONTINUOUS
10
3.9357
20
-2.93216
11
3.93476
21
-2.93445
0
LINE
8
BLACK
6
CONTINUOUS
10
3.93476
20
-2.93445
11
3.93427
21
-2.93688
0
LINE
8
BLACK
6
CONTINUOUS
10
3.93427
20
-2.93688
11
3.93427
21
-2.93936
0
LINE
8
BLACK
6
CONTINUOUS
10
3.93427
20
-2.93936
11
3.93476
21
-2.94179
0
LINE
8
BLACK
6
CONTINUOUS
10
1.15389
20
-2.17472
11
1.15525
21
-2.17144
0
LINE
8
BLACK
6
CONTINUOUS
10
1.15525
20
-2.17144
11
1.15723
21
-2.16848
0
LINE
8
BLACK
6
CONTINUOUS
10
1.15723
20
-2.16848
11
1.15975
21
-2.16596
0
LINE
8
BLACK
6
CONTINUOUS
10
1.15975
20
-2.16596
11
1.1627
21
-2.16399
0
LINE
8
BLACK
6
CONTINUOUS
10
1.1627
20
-2.16399
11
1.16599
21
-2.16262
0
LINE
8
BLACK
6
CONTINUOUS
10
1.16599
20
-2.16262
11
1.16948
21
-2.16193
0
LINE
8
BLACK
6
CONTINUOUS
10
1.16948
20
-2.16193
11
1.17304
21
-2.16193
0
LINE
8
BLACK
6
CONTINUOUS
10
1.17304
20
-2.16193
11
1.17653
21
-2.16262
0
LINE
8
BLACK
6
CONTINUOUS
10
1.17653
20
-2.16262
11
1.17982
21
-2.16399
0
LINE
8
BLACK
6
CONTINUOUS
10
1.17982
20
-2.16399
11
1.18277
21
-2.16596
0
LINE
8
BLACK
6
CONTINUOUS
10
1.18277
20
-2.16596
11
1.18529
21
-2.16848
0
LINE
8
BLACK
6
CONTINUOUS
10
1.18529
20
-2.16848
11
1.18727
21
-2.17144
0
LINE
8
BLACK
6
CONTINUOUS
10
1.18727
20
-2.17144
11
1.18863
21
-2.17472
0
LINE
8
BLACK
6
CONTINUOUS
10
1.18863
20
-2.17472
11
1.18932
21
-2.17821
0
LINE
8
BLACK
6
CONTINUOUS
10
1.18932
20
-2.17821
11
1.18932
21
-2.18177
0
LINE
8
BLACK
6
CONTINUOUS
10
1.18932
20
-2.18177
11
1.18863
21
-2.18526
0
LINE
8
BLACK
6
CONTINUOUS
10
1.18863
20
-2.18526
11
1.18727
21
-2.18855
0
LINE
8
BLACK
6
CONTINUOUS
10
1.18727
20
-2.18855
11
1.18529
21
-2.19151
0
LINE
8
BLACK
6
CONTINUOUS
10
1.18529
20
-2.19151
11
1.18277
21
-2.19402
0
LINE
8
BLACK
6
CONTINUOUS
10
1.18277
20
-2.19402
11
1.17982
21
-2.196
0
LINE
8
BLACK
6
CONTINUOUS
10
1.17982
20
-2.196
11
1.17653
21
-2.19736
0
LINE
8
BLACK
6
CONTINUOUS
10
1.17653
20
-2.19736
11
1.17304
21
-2.19805
0
LINE
8
BLACK
6
CONTINUOUS
10
1.17304
20
-2.19805
11
1.16948
21
-2.19805
0
LINE
8
BLACK
6
CONTINUOUS
10
1.16948
20
-2.19805
11
1.16599
21
-2.19736
0
LINE
8
BLACK
6
CONTINUOUS
10
1.16599
20
-2.19736
11
1.1627
21
-2.196
0
LINE
8
BLACK
6
CONTINUOUS
10
1.1627
20
-2.196
11
1.15975
21
-2.19402
0
LINE
8
BLACK
6
CONTINUOUS
10
1.15975
20
-2.19402
11
1.15723
21
-2.19151
0
LINE
8
BLACK
6
CONTINUOUS
10
1.15723
20
-2.19151
11
1.15525
21
-2.18855
0
LINE
8
BLACK
6
CONTINUOUS
10
1.15525
20
-2.18855
11
1.15389
21
-2.18526
0
LINE
8
BLACK
6
CONTINUOUS
10
1.15389
20
-2.18526
11
1.1532
21
-2.18177
0
LINE
8
BLACK
6
CONTINUOUS
10
1.1532
20
-2.18177
11
1.1532
21
-2.17821
0
LINE
8
BLACK
6
CONTINUOUS
10
1.1532
20
-2.17821
11
1.15389
21
-2.17472
0
LINE
8
BLACK
6
CONTINUOUS
10
1.15917
20
-2.18366
11
1.16011
21
-2.18595
0
LINE
8
BLACK
6
CONTINUOUS
10
1.16011
20
-2.18595
11
1.16149
21
-2.18801
0
LINE
8
BLACK
6
CONTINUOUS
10
1.16149
20
-2.18801
11
1.16324
21
-2.18976
0
LINE
8
BLACK
6
CONTINUOUS
10
1.16324
20
-2.18976
11
1.1653
21
-2.19114
0
LINE
8
BLACK
6
CONTINUOUS
10
1.1653
20
-2.19114
11
1.16759
21
-2.19209
0
LINE
8
BLACK
6
CONTINUOUS
10
1.16759
20
-2.19209
11
1.17002
21
-2.19257
0
LINE
8
BLACK
6
CONTINUOUS
10
1.17002
20
-2.19257
11
1.1725
21
-2.19257
0
LINE
8
BLACK
6
CONTINUOUS
10
1.1725
20
-2.19257
11
1.17493
21
-2.19209
0
LINE
8
BLACK
6
CONTINUOUS
10
1.17493
20
-2.19209
11
1.17722
21
-2.19114
0
LINE
8
BLACK
6
CONTINUOUS
10
1.17722
20
-2.19114
11
1.17928
21
-2.18976
0
LINE
8
BLACK
6
CONTINUOUS
10
1.17928
20
-2.18976
11
1.18103
21
-2.18801
0
LINE
8
BLACK
6
CONTINUOUS
10
1.18103
20
-2.18801
11
1.18241
21
-2.18595
0
LINE
8
BLACK
6
CONTINUOUS
10
1.18241
20
-2.18595
11
1.18335
21
-2.18366
0
LINE
8
BLACK
6
CONTINUOUS
10
1.18335
20
-2.18366
11
1.18384
21
-2.18123
0
LINE
8
BLACK
6
CONTINUOUS
10
1.18384
20
-2.18123
11
1.18384
21
-2.17875
0
LINE
8
BLACK
6
CONTINUOUS
10
1.18384
20
-2.17875
11
1.18335
21
-2.17632
0
LINE
8
BLACK
6
CONTINUOUS
10
1.18335
20
-2.17632
11
1.18241
21
-2.17403
0
LINE
8
BLACK
6
CONTINUOUS
10
1.18241
20
-2.17403
11
1.18103
21
-2.17197
0
LINE
8
BLACK
6
CONTINUOUS
10
1.18103
20
-2.17197
11
1.17928
21
-2.17022
0
LINE
8
BLACK
6
CONTINUOUS
10
1.17928
20
-2.17022
11
1.17722
21
-2.16885
0
LINE
8
BLACK
6
CONTINUOUS
10
1.17722
20
-2.16885
11
1.17493
21
-2.1679
0
LINE
8
BLACK
6
CONTINUOUS
10
1.17493
20
-2.1679
11
1.1725
21
-2.16742
0
LINE
8
BLACK
6
CONTINUOUS
10
1.1725
20
-2.16742
11
1.17002
21
-2.16742
0
LINE
8
BLACK
6
CONTINUOUS
10
1.17002
20
-2.16742
11
1.16759
21
-2.1679
0
LINE
8
BLACK
6
CONTINUOUS
10
1.16759
20
-2.1679
11
1.1653
21
-2.16885
0
LINE
8
BLACK
6
CONTINUOUS
10
1.1653
20
-2.16885
11
1.16324
21
-2.17022
0
LINE
8
BLACK
6
CONTINUOUS
10
1.16324
20
-2.17022
11
1.16149
21
-2.17197
0
LINE
8
BLACK
6
CONTINUOUS
10
1.16149
20
-2.17197
11
1.16011
21
-2.17403
0
LINE
8
BLACK
6
CONTINUOUS
10
1.16011
20
-2.17403
11
1.15917
21
-2.17632
0
LINE
8
BLACK
6
CONTINUOUS
10
1.15917
20
-2.17632
11
1.15868
21
-2.17875
0
LINE
8
BLACK
6
CONTINUOUS
10
1.15868
20
-2.17875
11
1.15868
21
-2.18123
0
LINE
8
BLACK
6
CONTINUOUS
10
1.15868
20
-2.18123
11
1.15917
21
-2.18366
  0
ENDSEC
  0
EOF
