  0
SECTION
  2
HEADER
  9
$ANGBASE
  50
0.0
  9
$ANGDIR
  70
1
  9
$MEASUREMENT
  70
0
  0
ENDSEC
  0
SECTION
  2
TABLES
  0
TABLE
  2
LTYPE
  70
4
  0
LTYPE
  5
40F
  2
CONTINUOUS
  70
0
  3
Solid line
  72
65
  73
0
  40
0.0
  0
LTYPE
  5
410
  2
DASHDOT
 70
0
  3
Dash Dot ____ _ ____ _
 72
65
 73
4
 40
2.0
 49
1.25
 49
-0.25
 49
0.25
 49
-0.25
  0
LTYPE
  5
411
  2
DASHED
 70
0
  3
Dashed __ __ __ __ __
 72
65
 73
2
 40
0.75
 49
0.5
 49
-0.25
  0
LTYPE
  5
43B
  2
DOTTED
 70
0
  3
Dotted .  .  .  .
 72
65
 73
2
 40
0.2
 49
0.0
 49
-0.2
  0
ENDTAB
  0
TABLE
  2
STYLE
  70
4
  0
STYLE
  2
KICAD
  70
0
  40
0
  41
1
  42
1
  50
0
  71
0
  3
isocp.shx
  0
STYLE
  2
KICADB
  70
0
  40
0
  41
1
  42
1
  50
0
  71
0
  3
isocp.shx
  0
STYLE
  2
KICADI
  70
0
  40
0
  41
1
  42
1
  50
15
  71
0
  3
isocp.shx
  0
STYLE
  2
KICADBI
  70
0
  40
0
  41
1
  42
1
  50
15
  71
0
  3
isocp.shx
  0
ENDTAB
  0
TABLE
  2
LAYER
  70
1
  0
LAYER
  2
BLACK
  70
0
  62
7
  6
CONTINUOUS
  0
ENDTAB
  0
ENDSEC
  0
SECTION
  2
ENTITIES
0
LINE
8
BLACK
6
CONTINUOUS
10
2.74606
20
-4.30709
11
2.67717
21
-4.30709
0
LINE
8
BLACK
6
CONTINUOUS
10
2.67717
20
-4.30709
11
2.67717
21
-4.23228
0
LINE
8
BLACK
6
CONTINUOUS
10
2.67717
20
-4.23228
11
2.74606
21
-4.23228
0
LINE
8
BLACK
6
CONTINUOUS
10
2.74606
20
-4.23228
11
2.74606
21
-4.30709
0
LINE
8
BLACK
6
CONTINUOUS
10
2.83465
20
-4.30709
11
2.76575
21
-4.30709
0
LINE
8
BLACK
6
CONTINUOUS
10
2.76575
20
-4.30709
11
2.76575
21
-4.23228
0
LINE
8
BLACK
6
CONTINUOUS
10
2.76575
20
-4.23228
11
2.83465
21
-4.23228
0
LINE
8
BLACK
6
CONTINUOUS
10
2.83465
20
-4.23228
11
2.83465
21
-4.30709
0
LINE
8
BLACK
6
CONTINUOUS
10
2.6872
20
-4.21043
11
2.64193
21
-4.21043
0
LINE
8
BLACK
6
CONTINUOUS
10
2.64193
20
-4.21043
11
2.64193
21
-4.15335
0
LINE
8
BLACK
6
CONTINUOUS
10
2.64193
20
-4.15335
11
2.6872
21
-4.15335
0
LINE
8
BLACK
6
CONTINUOUS
10
2.6872
20
-4.15335
11
2.6872
21
-4.21043
0
LINE
8
BLACK
6
CONTINUOUS
10
2.86988
20
-4.21043
11
2.82461
21
-4.21043
0
LINE
8
BLACK
6
CONTINUOUS
10
2.82461
20
-4.21043
11
2.82461
21
-4.15335
0
LINE
8
BLACK
6
CONTINUOUS
10
2.82461
20
-4.15335
11
2.86988
21
-4.15335
0
LINE
8
BLACK
6
CONTINUOUS
10
2.86988
20
-4.15335
11
2.86988
21
-4.21043
0
LINE
8
BLACK
6
CONTINUOUS
10
2.76378
20
-4.19291
11
2.74803
21
-4.19291
0
LINE
8
BLACK
6
CONTINUOUS
10
2.74803
20
-4.19291
11
2.74803
21
-4.1378
0
LINE
8
BLACK
6
CONTINUOUS
10
2.74803
20
-4.1378
11
2.76378
21
-4.1378
0
LINE
8
BLACK
6
CONTINUOUS
10
2.76378
20
-4.1378
11
2.76378
21
-4.19291
0
LINE
8
BLACK
6
CONTINUOUS
10
2.73819
20
-4.19291
11
2.72244
21
-4.19291
0
LINE
8
BLACK
6
CONTINUOUS
10
2.72244
20
-4.19291
11
2.72244
21
-4.1378
0
LINE
8
BLACK
6
CONTINUOUS
10
2.72244
20
-4.1378
11
2.73819
21
-4.1378
0
LINE
8
BLACK
6
CONTINUOUS
10
2.73819
20
-4.1378
11
2.73819
21
-4.19291
0
LINE
8
BLACK
6
CONTINUOUS
10
2.7126
20
-4.19291
11
2.69685
21
-4.19291
0
LINE
8
BLACK
6
CONTINUOUS
10
2.69685
20
-4.19291
11
2.69685
21
-4.1378
0
LINE
8
BLACK
6
CONTINUOUS
10
2.69685
20
-4.1378
11
2.7126
21
-4.1378
0
LINE
8
BLACK
6
CONTINUOUS
10
2.7126
20
-4.1378
11
2.7126
21
-4.19291
0
LINE
8
BLACK
6
CONTINUOUS
10
2.81496
20
-4.19291
11
2.79921
21
-4.19291
0
LINE
8
BLACK
6
CONTINUOUS
10
2.79921
20
-4.19291
11
2.79921
21
-4.1378
0
LINE
8
BLACK
6
CONTINUOUS
10
2.79921
20
-4.1378
11
2.81496
21
-4.1378
0
LINE
8
BLACK
6
CONTINUOUS
10
2.81496
20
-4.1378
11
2.81496
21
-4.19291
0
LINE
8
BLACK
6
CONTINUOUS
10
2.78937
20
-4.19291
11
2.77362
21
-4.19291
0
LINE
8
BLACK
6
CONTINUOUS
10
2.77362
20
-4.19291
11
2.77362
21
-4.1378
0
LINE
8
BLACK
6
CONTINUOUS
10
2.77362
20
-4.1378
11
2.78937
21
-4.1378
0
LINE
8
BLACK
6
CONTINUOUS
10
2.78937
20
-4.1378
11
2.78937
21
-4.19291
0
LINE
8
BLACK
6
CONTINUOUS
10
1.51146
20
-3.66075
11
1.51326
21
-3.6613
0
LINE
8
BLACK
6
CONTINUOUS
10
1.51326
20
-3.6613
11
1.51492
21
-3.66218
0
LINE
8
BLACK
6
CONTINUOUS
10
1.51492
20
-3.66218
11
1.51638
21
-3.66338
0
LINE
8
BLACK
6
CONTINUOUS
10
1.51638
20
-3.66338
11
1.51757
21
-3.66483
0
LINE
8
BLACK
6
CONTINUOUS
10
1.51757
20
-3.66483
11
1.51846
21
-3.66649
0
LINE
8
BLACK
6
CONTINUOUS
10
1.51846
20
-3.66649
11
1.519
21
-3.66829
0
LINE
8
BLACK
6
CONTINUOUS
10
1.519
20
-3.66829
11
1.51919
21
-3.67016
0
LINE
8
BLACK
6
CONTINUOUS
10
1.51919
20
-3.67016
11
1.51919
21
-3.70609
0
LINE
8
BLACK
6
CONTINUOUS
10
1.51919
20
-3.70609
11
1.519
21
-3.70796
0
LINE
8
BLACK
6
CONTINUOUS
10
1.519
20
-3.70796
11
1.51846
21
-3.70976
0
LINE
8
BLACK
6
CONTINUOUS
10
1.51846
20
-3.70976
11
1.51757
21
-3.71142
0
LINE
8
BLACK
6
CONTINUOUS
10
1.51757
20
-3.71142
11
1.51638
21
-3.71287
0
LINE
8
BLACK
6
CONTINUOUS
10
1.51638
20
-3.71287
11
1.51492
21
-3.71407
0
LINE
8
BLACK
6
CONTINUOUS
10
1.51492
20
-3.71407
11
1.51326
21
-3.71495
0
LINE
8
BLACK
6
CONTINUOUS
10
1.51326
20
-3.71495
11
1.51146
21
-3.7155
0
LINE
8
BLACK
6
CONTINUOUS
10
1.51146
20
-3.7155
11
1.50959
21
-3.71569
0
LINE
8
BLACK
6
CONTINUOUS
10
1.50959
20
-3.71569
11
1.4904
21
-3.71569
0
LINE
8
BLACK
6
CONTINUOUS
10
1.4904
20
-3.71569
11
1.48853
21
-3.7155
0
LINE
8
BLACK
6
CONTINUOUS
10
1.48853
20
-3.7155
11
1.48673
21
-3.71495
0
LINE
8
BLACK
6
CONTINUOUS
10
1.48673
20
-3.71495
11
1.48507
21
-3.71407
0
LINE
8
BLACK
6
CONTINUOUS
10
1.48507
20
-3.71407
11
1.48361
21
-3.71287
0
LINE
8
BLACK
6
CONTINUOUS
10
1.48361
20
-3.71287
11
1.48242
21
-3.71142
0
LINE
8
BLACK
6
CONTINUOUS
10
1.48242
20
-3.71142
11
1.48153
21
-3.70976
0
LINE
8
BLACK
6
CONTINUOUS
10
1.48153
20
-3.70976
11
1.48099
21
-3.70796
0
LINE
8
BLACK
6
CONTINUOUS
10
1.48099
20
-3.70796
11
1.4808
21
-3.70609
0
LINE
8
BLACK
6
CONTINUOUS
10
1.4808
20
-3.70609
11
1.4808
21
-3.67016
0
LINE
8
BLACK
6
CONTINUOUS
10
1.4808
20
-3.67016
11
1.48099
21
-3.66829
0
LINE
8
BLACK
6
CONTINUOUS
10
1.48099
20
-3.66829
11
1.48153
21
-3.66649
0
LINE
8
BLACK
6
CONTINUOUS
10
1.48153
20
-3.66649
11
1.48242
21
-3.66483
0
LINE
8
BLACK
6
CONTINUOUS
10
1.48242
20
-3.66483
11
1.48361
21
-3.66338
0
LINE
8
BLACK
6
CONTINUOUS
10
1.48361
20
-3.66338
11
1.48507
21
-3.66218
0
LINE
8
BLACK
6
CONTINUOUS
10
1.48507
20
-3.66218
11
1.48673
21
-3.6613
0
LINE
8
BLACK
6
CONTINUOUS
10
1.48673
20
-3.6613
11
1.48853
21
-3.66075
0
LINE
8
BLACK
6
CONTINUOUS
10
1.48853
20
-3.66075
11
1.4904
21
-3.66057
0
LINE
8
BLACK
6
CONTINUOUS
10
1.4904
20
-3.66057
11
1.50959
21
-3.66057
0
LINE
8
BLACK
6
CONTINUOUS
10
1.50959
20
-3.66057
11
1.51146
21
-3.66075
0
LINE
8
BLACK
6
CONTINUOUS
10
1.58528
20
-3.66075
11
1.58708
21
-3.6613
0
LINE
8
BLACK
6
CONTINUOUS
10
1.58708
20
-3.6613
11
1.58874
21
-3.66218
0
LINE
8
BLACK
6
CONTINUOUS
10
1.58874
20
-3.66218
11
1.5902
21
-3.66338
0
LINE
8
BLACK
6
CONTINUOUS
10
1.5902
20
-3.66338
11
1.59139
21
-3.66483
0
LINE
8
BLACK
6
CONTINUOUS
10
1.59139
20
-3.66483
11
1.59228
21
-3.66649
0
LINE
8
BLACK
6
CONTINUOUS
10
1.59228
20
-3.66649
11
1.59282
21
-3.66829
0
LINE
8
BLACK
6
CONTINUOUS
10
1.59282
20
-3.66829
11
1.59301
21
-3.67016
0
LINE
8
BLACK
6
CONTINUOUS
10
1.59301
20
-3.67016
11
1.59301
21
-3.70609
0
LINE
8
BLACK
6
CONTINUOUS
10
1.59301
20
-3.70609
11
1.59282
21
-3.70796
0
LINE
8
BLACK
6
CONTINUOUS
10
1.59282
20
-3.70796
11
1.59228
21
-3.70976
0
LINE
8
BLACK
6
CONTINUOUS
10
1.59228
20
-3.70976
11
1.59139
21
-3.71142
0
LINE
8
BLACK
6
CONTINUOUS
10
1.59139
20
-3.71142
11
1.5902
21
-3.71287
0
LINE
8
BLACK
6
CONTINUOUS
10
1.5902
20
-3.71287
11
1.58874
21
-3.71407
0
LINE
8
BLACK
6
CONTINUOUS
10
1.58874
20
-3.71407
11
1.58708
21
-3.71495
0
LINE
8
BLACK
6
CONTINUOUS
10
1.58708
20
-3.71495
11
1.58528
21
-3.7155
0
LINE
8
BLACK
6
CONTINUOUS
10
1.58528
20
-3.7155
11
1.58341
21
-3.71569
0
LINE
8
BLACK
6
CONTINUOUS
10
1.58341
20
-3.71569
11
1.56422
21
-3.71569
0
LINE
8
BLACK
6
CONTINUOUS
10
1.56422
20
-3.71569
11
1.56235
21
-3.7155
0
LINE
8
BLACK
6
CONTINUOUS
10
1.56235
20
-3.7155
11
1.56055
21
-3.71495
0
LINE
8
BLACK
6
CONTINUOUS
10
1.56055
20
-3.71495
11
1.55889
21
-3.71407
0
LINE
8
BLACK
6
CONTINUOUS
10
1.55889
20
-3.71407
11
1.55743
21
-3.71287
0
LINE
8
BLACK
6
CONTINUOUS
10
1.55743
20
-3.71287
11
1.55624
21
-3.71142
0
LINE
8
BLACK
6
CONTINUOUS
10
1.55624
20
-3.71142
11
1.55535
21
-3.70976
0
LINE
8
BLACK
6
CONTINUOUS
10
1.55535
20
-3.70976
11
1.55481
21
-3.70796
0
LINE
8
BLACK
6
CONTINUOUS
10
1.55481
20
-3.70796
11
1.55462
21
-3.70609
0
LINE
8
BLACK
6
CONTINUOUS
10
1.55462
20
-3.70609
11
1.55462
21
-3.67016
0
LINE
8
BLACK
6
CONTINUOUS
10
1.55462
20
-3.67016
11
1.55481
21
-3.66829
0
LINE
8
BLACK
6
CONTINUOUS
10
1.55481
20
-3.66829
11
1.55535
21
-3.66649
0
LINE
8
BLACK
6
CONTINUOUS
10
1.55535
20
-3.66649
11
1.55624
21
-3.66483
0
LINE
8
BLACK
6
CONTINUOUS
10
1.55624
20
-3.66483
11
1.55743
21
-3.66338
0
LINE
8
BLACK
6
CONTINUOUS
10
1.55743
20
-3.66338
11
1.55889
21
-3.66218
0
LINE
8
BLACK
6
CONTINUOUS
10
1.55889
20
-3.66218
11
1.56055
21
-3.6613
0
LINE
8
BLACK
6
CONTINUOUS
10
1.56055
20
-3.6613
11
1.56235
21
-3.66075
0
LINE
8
BLACK
6
CONTINUOUS
10
1.56235
20
-3.66075
11
1.56422
21
-3.66057
0
LINE
8
BLACK
6
CONTINUOUS
10
1.56422
20
-3.66057
11
1.58341
21
-3.66057
0
LINE
8
BLACK
6
CONTINUOUS
10
1.58341
20
-3.66057
11
1.58528
21
-3.66075
0
LINE
8
BLACK
6
CONTINUOUS
10
1.58628
20
-3.58075
11
1.58808
21
-3.5813
0
LINE
8
BLACK
6
CONTINUOUS
10
1.58808
20
-3.5813
11
1.58974
21
-3.58218
0
LINE
8
BLACK
6
CONTINUOUS
10
1.58974
20
-3.58218
11
1.5912
21
-3.58338
0
LINE
8
BLACK
6
CONTINUOUS
10
1.5912
20
-3.58338
11
1.59239
21
-3.58483
0
LINE
8
BLACK
6
CONTINUOUS
10
1.59239
20
-3.58483
11
1.59328
21
-3.58649
0
LINE
8
BLACK
6
CONTINUOUS
10
1.59328
20
-3.58649
11
1.59382
21
-3.58829
0
LINE
8
BLACK
6
CONTINUOUS
10
1.59382
20
-3.58829
11
1.59401
21
-3.59016
0
LINE
8
BLACK
6
CONTINUOUS
10
1.59401
20
-3.59016
11
1.59401
21
-3.62609
0
LINE
8
BLACK
6
CONTINUOUS
10
1.59401
20
-3.62609
11
1.59382
21
-3.62796
0
LINE
8
BLACK
6
CONTINUOUS
10
1.59382
20
-3.62796
11
1.59328
21
-3.62976
0
LINE
8
BLACK
6
CONTINUOUS
10
1.59328
20
-3.62976
11
1.59239
21
-3.63142
0
LINE
8
BLACK
6
CONTINUOUS
10
1.59239
20
-3.63142
11
1.5912
21
-3.63287
0
LINE
8
BLACK
6
CONTINUOUS
10
1.5912
20
-3.63287
11
1.58974
21
-3.63407
0
LINE
8
BLACK
6
CONTINUOUS
10
1.58974
20
-3.63407
11
1.58808
21
-3.63495
0
LINE
8
BLACK
6
CONTINUOUS
10
1.58808
20
-3.63495
11
1.58628
21
-3.6355
0
LINE
8
BLACK
6
CONTINUOUS
10
1.58628
20
-3.6355
11
1.58441
21
-3.63569
0
LINE
8
BLACK
6
CONTINUOUS
10
1.58441
20
-3.63569
11
1.56522
21
-3.63569
0
LINE
8
BLACK
6
CONTINUOUS
10
1.56522
20
-3.63569
11
1.56335
21
-3.6355
0
LINE
8
BLACK
6
CONTINUOUS
10
1.56335
20
-3.6355
11
1.56155
21
-3.63495
0
LINE
8
BLACK
6
CONTINUOUS
10
1.56155
20
-3.63495
11
1.55989
21
-3.63407
0
LINE
8
BLACK
6
CONTINUOUS
10
1.55989
20
-3.63407
11
1.55843
21
-3.63287
0
LINE
8
BLACK
6
CONTINUOUS
10
1.55843
20
-3.63287
11
1.55724
21
-3.63142
0
LINE
8
BLACK
6
CONTINUOUS
10
1.55724
20
-3.63142
11
1.55635
21
-3.62976
0
LINE
8
BLACK
6
CONTINUOUS
10
1.55635
20
-3.62976
11
1.55581
21
-3.62796
0
LINE
8
BLACK
6
CONTINUOUS
10
1.55581
20
-3.62796
11
1.55562
21
-3.62609
0
LINE
8
BLACK
6
CONTINUOUS
10
1.55562
20
-3.62609
11
1.55562
21
-3.59016
0
LINE
8
BLACK
6
CONTINUOUS
10
1.55562
20
-3.59016
11
1.55581
21
-3.58829
0
LINE
8
BLACK
6
CONTINUOUS
10
1.55581
20
-3.58829
11
1.55635
21
-3.58649
0
LINE
8
BLACK
6
CONTINUOUS
10
1.55635
20
-3.58649
11
1.55724
21
-3.58483
0
LINE
8
BLACK
6
CONTINUOUS
10
1.55724
20
-3.58483
11
1.55843
21
-3.58338
0
LINE
8
BLACK
6
CONTINUOUS
10
1.55843
20
-3.58338
11
1.55989
21
-3.58218
0
LINE
8
BLACK
6
CONTINUOUS
10
1.55989
20
-3.58218
11
1.56155
21
-3.5813
0
LINE
8
BLACK
6
CONTINUOUS
10
1.56155
20
-3.5813
11
1.56335
21
-3.58075
0
LINE
8
BLACK
6
CONTINUOUS
10
1.56335
20
-3.58075
11
1.56522
21
-3.58057
0
LINE
8
BLACK
6
CONTINUOUS
10
1.56522
20
-3.58057
11
1.58441
21
-3.58057
0
LINE
8
BLACK
6
CONTINUOUS
10
1.58441
20
-3.58057
11
1.58628
21
-3.58075
0
LINE
8
BLACK
6
CONTINUOUS
10
1.51246
20
-3.58075
11
1.51426
21
-3.5813
0
LINE
8
BLACK
6
CONTINUOUS
10
1.51426
20
-3.5813
11
1.51592
21
-3.58218
0
LINE
8
BLACK
6
CONTINUOUS
10
1.51592
20
-3.58218
11
1.51738
21
-3.58338
0
LINE
8
BLACK
6
CONTINUOUS
10
1.51738
20
-3.58338
11
1.51857
21
-3.58483
0
LINE
8
BLACK
6
CONTINUOUS
10
1.51857
20
-3.58483
11
1.51946
21
-3.58649
0
LINE
8
BLACK
6
CONTINUOUS
10
1.51946
20
-3.58649
11
1.52
21
-3.58829
0
LINE
8
BLACK
6
CONTINUOUS
10
1.52
20
-3.58829
11
1.52019
21
-3.59016
0
LINE
8
BLACK
6
CONTINUOUS
10
1.52019
20
-3.59016
11
1.52019
21
-3.62609
0
LINE
8
BLACK
6
CONTINUOUS
10
1.52019
20
-3.62609
11
1.52
21
-3.62796
0
LINE
8
BLACK
6
CONTINUOUS
10
1.52
20
-3.62796
11
1.51946
21
-3.62976
0
LINE
8
BLACK
6
CONTINUOUS
10
1.51946
20
-3.62976
11
1.51857
21
-3.63142
0
LINE
8
BLACK
6
CONTINUOUS
10
1.51857
20
-3.63142
11
1.51738
21
-3.63287
0
LINE
8
BLACK
6
CONTINUOUS
10
1.51738
20
-3.63287
11
1.51592
21
-3.63407
0
LINE
8
BLACK
6
CONTINUOUS
10
1.51592
20
-3.63407
11
1.51426
21
-3.63495
0
LINE
8
BLACK
6
CONTINUOUS
10
1.51426
20
-3.63495
11
1.51246
21
-3.6355
0
LINE
8
BLACK
6
CONTINUOUS
10
1.51246
20
-3.6355
11
1.51059
21
-3.63569
0
LINE
8
BLACK
6
CONTINUOUS
10
1.51059
20
-3.63569
11
1.4914
21
-3.63569
0
LINE
8
BLACK
6
CONTINUOUS
10
1.4914
20
-3.63569
11
1.48953
21
-3.6355
0
LINE
8
BLACK
6
CONTINUOUS
10
1.48953
20
-3.6355
11
1.48773
21
-3.63495
0
LINE
8
BLACK
6
CONTINUOUS
10
1.48773
20
-3.63495
11
1.48607
21
-3.63407
0
LINE
8
BLACK
6
CONTINUOUS
10
1.48607
20
-3.63407
11
1.48461
21
-3.63287
0
LINE
8
BLACK
6
CONTINUOUS
10
1.48461
20
-3.63287
11
1.48342
21
-3.63142
0
LINE
8
BLACK
6
CONTINUOUS
10
1.48342
20
-3.63142
11
1.48253
21
-3.62976
0
LINE
8
BLACK
6
CONTINUOUS
10
1.48253
20
-3.62976
11
1.48199
21
-3.62796
0
LINE
8
BLACK
6
CONTINUOUS
10
1.48199
20
-3.62796
11
1.4818
21
-3.62609
0
LINE
8
BLACK
6
CONTINUOUS
10
1.4818
20
-3.62609
11
1.4818
21
-3.59016
0
LINE
8
BLACK
6
CONTINUOUS
10
1.4818
20
-3.59016
11
1.48199
21
-3.58829
0
LINE
8
BLACK
6
CONTINUOUS
10
1.48199
20
-3.58829
11
1.48253
21
-3.58649
0
LINE
8
BLACK
6
CONTINUOUS
10
1.48253
20
-3.58649
11
1.48342
21
-3.58483
0
LINE
8
BLACK
6
CONTINUOUS
10
1.48342
20
-3.58483
11
1.48461
21
-3.58338
0
LINE
8
BLACK
6
CONTINUOUS
10
1.48461
20
-3.58338
11
1.48607
21
-3.58218
0
LINE
8
BLACK
6
CONTINUOUS
10
1.48607
20
-3.58218
11
1.48773
21
-3.5813
0
LINE
8
BLACK
6
CONTINUOUS
10
1.48773
20
-3.5813
11
1.48953
21
-3.58075
0
LINE
8
BLACK
6
CONTINUOUS
10
1.48953
20
-3.58075
11
1.4914
21
-3.58057
0
LINE
8
BLACK
6
CONTINUOUS
10
1.4914
20
-3.58057
11
1.51059
21
-3.58057
0
LINE
8
BLACK
6
CONTINUOUS
10
1.51059
20
-3.58057
11
1.51246
21
-3.58075
0
LINE
8
BLACK
6
CONTINUOUS
10
1.58628
20
-3.50175
11
1.58808
21
-3.5023
0
LINE
8
BLACK
6
CONTINUOUS
10
1.58808
20
-3.5023
11
1.58974
21
-3.50318
0
LINE
8
BLACK
6
CONTINUOUS
10
1.58974
20
-3.50318
11
1.5912
21
-3.50438
0
LINE
8
BLACK
6
CONTINUOUS
10
1.5912
20
-3.50438
11
1.59239
21
-3.50583
0
LINE
8
BLACK
6
CONTINUOUS
10
1.59239
20
-3.50583
11
1.59328
21
-3.50749
0
LINE
8
BLACK
6
CONTINUOUS
10
1.59328
20
-3.50749
11
1.59382
21
-3.50929
0
LINE
8
BLACK
6
CONTINUOUS
10
1.59382
20
-3.50929
11
1.59401
21
-3.51116
0
LINE
8
BLACK
6
CONTINUOUS
10
1.59401
20
-3.51116
11
1.59401
21
-3.54709
0
LINE
8
BLACK
6
CONTINUOUS
10
1.59401
20
-3.54709
11
1.59382
21
-3.54896
0
LINE
8
BLACK
6
CONTINUOUS
10
1.59382
20
-3.54896
11
1.59328
21
-3.55076
0
LINE
8
BLACK
6
CONTINUOUS
10
1.59328
20
-3.55076
11
1.59239
21
-3.55242
0
LINE
8
BLACK
6
CONTINUOUS
10
1.59239
20
-3.55242
11
1.5912
21
-3.55387
0
LINE
8
BLACK
6
CONTINUOUS
10
1.5912
20
-3.55387
11
1.58974
21
-3.55507
0
LINE
8
BLACK
6
CONTINUOUS
10
1.58974
20
-3.55507
11
1.58808
21
-3.55595
0
LINE
8
BLACK
6
CONTINUOUS
10
1.58808
20
-3.55595
11
1.58628
21
-3.5565
0
LINE
8
BLACK
6
CONTINUOUS
10
1.58628
20
-3.5565
11
1.58441
21
-3.55669
0
LINE
8
BLACK
6
CONTINUOUS
10
1.58441
20
-3.55669
11
1.56522
21
-3.55669
0
LINE
8
BLACK
6
CONTINUOUS
10
1.56522
20
-3.55669
11
1.56335
21
-3.5565
0
LINE
8
BLACK
6
CONTINUOUS
10
1.56335
20
-3.5565
11
1.56155
21
-3.55595
0
LINE
8
BLACK
6
CONTINUOUS
10
1.56155
20
-3.55595
11
1.55989
21
-3.55507
0
LINE
8
BLACK
6
CONTINUOUS
10
1.55989
20
-3.55507
11
1.55843
21
-3.55387
0
LINE
8
BLACK
6
CONTINUOUS
10
1.55843
20
-3.55387
11
1.55724
21
-3.55242
0
LINE
8
BLACK
6
CONTINUOUS
10
1.55724
20
-3.55242
11
1.55635
21
-3.55076
0
LINE
8
BLACK
6
CONTINUOUS
10
1.55635
20
-3.55076
11
1.55581
21
-3.54896
0
LINE
8
BLACK
6
CONTINUOUS
10
1.55581
20
-3.54896
11
1.55562
21
-3.54709
0
LINE
8
BLACK
6
CONTINUOUS
10
1.55562
20
-3.54709
11
1.55562
21
-3.51116
0
LINE
8
BLACK
6
CONTINUOUS
10
1.55562
20
-3.51116
11
1.55581
21
-3.50929
0
LINE
8
BLACK
6
CONTINUOUS
10
1.55581
20
-3.50929
11
1.55635
21
-3.50749
0
LINE
8
BLACK
6
CONTINUOUS
10
1.55635
20
-3.50749
11
1.55724
21
-3.50583
0
LINE
8
BLACK
6
CONTINUOUS
10
1.55724
20
-3.50583
11
1.55843
21
-3.50438
0
LINE
8
BLACK
6
CONTINUOUS
10
1.55843
20
-3.50438
11
1.55989
21
-3.50318
0
LINE
8
BLACK
6
CONTINUOUS
10
1.55989
20
-3.50318
11
1.56155
21
-3.5023
0
LINE
8
BLACK
6
CONTINUOUS
10
1.56155
20
-3.5023
11
1.56335
21
-3.50175
0
LINE
8
BLACK
6
CONTINUOUS
10
1.56335
20
-3.50175
11
1.56522
21
-3.50157
0
LINE
8
BLACK
6
CONTINUOUS
10
1.56522
20
-3.50157
11
1.58441
21
-3.50157
0
LINE
8
BLACK
6
CONTINUOUS
10
1.58441
20
-3.50157
11
1.58628
21
-3.50175
0
LINE
8
BLACK
6
CONTINUOUS
10
1.51246
20
-3.50175
11
1.51426
21
-3.5023
0
LINE
8
BLACK
6
CONTINUOUS
10
1.51426
20
-3.5023
11
1.51592
21
-3.50318
0
LINE
8
BLACK
6
CONTINUOUS
10
1.51592
20
-3.50318
11
1.51738
21
-3.50438
0
LINE
8
BLACK
6
CONTINUOUS
10
1.51738
20
-3.50438
11
1.51857
21
-3.50583
0
LINE
8
BLACK
6
CONTINUOUS
10
1.51857
20
-3.50583
11
1.51946
21
-3.50749
0
LINE
8
BLACK
6
CONTINUOUS
10
1.51946
20
-3.50749
11
1.52
21
-3.50929
0
LINE
8
BLACK
6
CONTINUOUS
10
1.52
20
-3.50929
11
1.52019
21
-3.51116
0
LINE
8
BLACK
6
CONTINUOUS
10
1.52019
20
-3.51116
11
1.52019
21
-3.54709
0
LINE
8
BLACK
6
CONTINUOUS
10
1.52019
20
-3.54709
11
1.52
21
-3.54896
0
LINE
8
BLACK
6
CONTINUOUS
10
1.52
20
-3.54896
11
1.51946
21
-3.55076
0
LINE
8
BLACK
6
CONTINUOUS
10
1.51946
20
-3.55076
11
1.51857
21
-3.55242
0
LINE
8
BLACK
6
CONTINUOUS
10
1.51857
20
-3.55242
11
1.51738
21
-3.55387
0
LINE
8
BLACK
6
CONTINUOUS
10
1.51738
20
-3.55387
11
1.51592
21
-3.55507
0
LINE
8
BLACK
6
CONTINUOUS
10
1.51592
20
-3.55507
11
1.51426
21
-3.55595
0
LINE
8
BLACK
6
CONTINUOUS
10
1.51426
20
-3.55595
11
1.51246
21
-3.5565
0
LINE
8
BLACK
6
CONTINUOUS
10
1.51246
20
-3.5565
11
1.51059
21
-3.55669
0
LINE
8
BLACK
6
CONTINUOUS
10
1.51059
20
-3.55669
11
1.4914
21
-3.55669
0
LINE
8
BLACK
6
CONTINUOUS
10
1.4914
20
-3.55669
11
1.48953
21
-3.5565
0
LINE
8
BLACK
6
CONTINUOUS
10
1.48953
20
-3.5565
11
1.48773
21
-3.55595
0
LINE
8
BLACK
6
CONTINUOUS
10
1.48773
20
-3.55595
11
1.48607
21
-3.55507
0
LINE
8
BLACK
6
CONTINUOUS
10
1.48607
20
-3.55507
11
1.48461
21
-3.55387
0
LINE
8
BLACK
6
CONTINUOUS
10
1.48461
20
-3.55387
11
1.48342
21
-3.55242
0
LINE
8
BLACK
6
CONTINUOUS
10
1.48342
20
-3.55242
11
1.48253
21
-3.55076
0
LINE
8
BLACK
6
CONTINUOUS
10
1.48253
20
-3.55076
11
1.48199
21
-3.54896
0
LINE
8
BLACK
6
CONTINUOUS
10
1.48199
20
-3.54896
11
1.4818
21
-3.54709
0
LINE
8
BLACK
6
CONTINUOUS
10
1.4818
20
-3.54709
11
1.4818
21
-3.51116
0
LINE
8
BLACK
6
CONTINUOUS
10
1.4818
20
-3.51116
11
1.48199
21
-3.50929
0
LINE
8
BLACK
6
CONTINUOUS
10
1.48199
20
-3.50929
11
1.48253
21
-3.50749
0
LINE
8
BLACK
6
CONTINUOUS
10
1.48253
20
-3.50749
11
1.48342
21
-3.50583
0
LINE
8
BLACK
6
CONTINUOUS
10
1.48342
20
-3.50583
11
1.48461
21
-3.50438
0
LINE
8
BLACK
6
CONTINUOUS
10
1.48461
20
-3.50438
11
1.48607
21
-3.50318
0
LINE
8
BLACK
6
CONTINUOUS
10
1.48607
20
-3.50318
11
1.48773
21
-3.5023
0
LINE
8
BLACK
6
CONTINUOUS
10
1.48773
20
-3.5023
11
1.48953
21
-3.50175
0
LINE
8
BLACK
6
CONTINUOUS
10
1.48953
20
-3.50175
11
1.4914
21
-3.50157
0
LINE
8
BLACK
6
CONTINUOUS
10
1.4914
20
-3.50157
11
1.51059
21
-3.50157
0
LINE
8
BLACK
6
CONTINUOUS
10
1.51059
20
-3.50157
11
1.51246
21
-3.50175
0
LINE
8
BLACK
6
CONTINUOUS
10
2.71054
20
-3.24217
11
2.71234
21
-3.24271
0
LINE
8
BLACK
6
CONTINUOUS
10
2.71234
20
-3.24271
11
2.714
21
-3.2436
0
LINE
8
BLACK
6
CONTINUOUS
10
2.714
20
-3.2436
11
2.71546
21
-3.24479
0
LINE
8
BLACK
6
CONTINUOUS
10
2.71546
20
-3.24479
11
2.71665
21
-3.24625
0
LINE
8
BLACK
6
CONTINUOUS
10
2.71665
20
-3.24625
11
2.71754
21
-3.24791
0
LINE
8
BLACK
6
CONTINUOUS
10
2.71754
20
-3.24791
11
2.71808
21
-3.24971
0
LINE
8
BLACK
6
CONTINUOUS
10
2.71808
20
-3.24971
11
2.71827
21
-3.25158
0
LINE
8
BLACK
6
CONTINUOUS
10
2.71827
20
-3.25158
11
2.71827
21
-3.27077
0
LINE
8
BLACK
6
CONTINUOUS
10
2.71827
20
-3.27077
11
2.71808
21
-3.27265
0
LINE
8
BLACK
6
CONTINUOUS
10
2.71808
20
-3.27265
11
2.71754
21
-3.27445
0
LINE
8
BLACK
6
CONTINUOUS
10
2.71754
20
-3.27445
11
2.71665
21
-3.27611
0
LINE
8
BLACK
6
CONTINUOUS
10
2.71665
20
-3.27611
11
2.71546
21
-3.27756
0
LINE
8
BLACK
6
CONTINUOUS
10
2.71546
20
-3.27756
11
2.714
21
-3.27875
0
LINE
8
BLACK
6
CONTINUOUS
10
2.714
20
-3.27875
11
2.71234
21
-3.27964
0
LINE
8
BLACK
6
CONTINUOUS
10
2.71234
20
-3.27964
11
2.71054
21
-3.28019
0
LINE
8
BLACK
6
CONTINUOUS
10
2.71054
20
-3.28019
11
2.70867
21
-3.28037
0
LINE
8
BLACK
6
CONTINUOUS
10
2.70867
20
-3.28037
11
2.67275
21
-3.28037
0
LINE
8
BLACK
6
CONTINUOUS
10
2.67275
20
-3.28037
11
2.67087
21
-3.28019
0
LINE
8
BLACK
6
CONTINUOUS
10
2.67087
20
-3.28019
11
2.66907
21
-3.27964
0
LINE
8
BLACK
6
CONTINUOUS
10
2.66907
20
-3.27964
11
2.66741
21
-3.27875
0
LINE
8
BLACK
6
CONTINUOUS
10
2.66741
20
-3.27875
11
2.66596
21
-3.27756
0
LINE
8
BLACK
6
CONTINUOUS
10
2.66596
20
-3.27756
11
2.66477
21
-3.27611
0
LINE
8
BLACK
6
CONTINUOUS
10
2.66477
20
-3.27611
11
2.66388
21
-3.27445
0
LINE
8
BLACK
6
CONTINUOUS
10
2.66388
20
-3.27445
11
2.66333
21
-3.27265
0
LINE
8
BLACK
6
CONTINUOUS
10
2.66333
20
-3.27265
11
2.66315
21
-3.27077
0
LINE
8
BLACK
6
CONTINUOUS
10
2.66315
20
-3.27077
11
2.66315
21
-3.25158
0
LINE
8
BLACK
6
CONTINUOUS
10
2.66315
20
-3.25158
11
2.66333
21
-3.24971
0
LINE
8
BLACK
6
CONTINUOUS
10
2.66333
20
-3.24971
11
2.66388
21
-3.24791
0
LINE
8
BLACK
6
CONTINUOUS
10
2.66388
20
-3.24791
11
2.66477
21
-3.24625
0
LINE
8
BLACK
6
CONTINUOUS
10
2.66477
20
-3.24625
11
2.66596
21
-3.24479
0
LINE
8
BLACK
6
CONTINUOUS
10
2.66596
20
-3.24479
11
2.66741
21
-3.2436
0
LINE
8
BLACK
6
CONTINUOUS
10
2.66741
20
-3.2436
11
2.66907
21
-3.24271
0
LINE
8
BLACK
6
CONTINUOUS
10
2.66907
20
-3.24271
11
2.67087
21
-3.24217
0
LINE
8
BLACK
6
CONTINUOUS
10
2.67087
20
-3.24217
11
2.67275
21
-3.24198
0
LINE
8
BLACK
6
CONTINUOUS
10
2.67275
20
-3.24198
11
2.70867
21
-3.24198
0
LINE
8
BLACK
6
CONTINUOUS
10
2.70867
20
-3.24198
11
2.71054
21
-3.24217
0
LINE
8
BLACK
6
CONTINUOUS
10
2.62954
20
-3.24126
11
2.63134
21
-3.24181
0
LINE
8
BLACK
6
CONTINUOUS
10
2.63134
20
-3.24181
11
2.633
21
-3.24269
0
LINE
8
BLACK
6
CONTINUOUS
10
2.633
20
-3.24269
11
2.63446
21
-3.24389
0
LINE
8
BLACK
6
CONTINUOUS
10
2.63446
20
-3.24389
11
2.63565
21
-3.24534
0
LINE
8
BLACK
6
CONTINUOUS
10
2.63565
20
-3.24534
11
2.63654
21
-3.247
0
LINE
8
BLACK
6
CONTINUOUS
10
2.63654
20
-3.247
11
2.63708
21
-3.2488
0
LINE
8
BLACK
6
CONTINUOUS
10
2.63708
20
-3.2488
11
2.63727
21
-3.25067
0
LINE
8
BLACK
6
CONTINUOUS
10
2.63727
20
-3.25067
11
2.63727
21
-3.26986
0
LINE
8
BLACK
6
CONTINUOUS
10
2.63727
20
-3.26986
11
2.63708
21
-3.27174
0
LINE
8
BLACK
6
CONTINUOUS
10
2.63708
20
-3.27174
11
2.63654
21
-3.27354
0
LINE
8
BLACK
6
CONTINUOUS
10
2.63654
20
-3.27354
11
2.63565
21
-3.2752
0
LINE
8
BLACK
6
CONTINUOUS
10
2.63565
20
-3.2752
11
2.63446
21
-3.27665
0
LINE
8
BLACK
6
CONTINUOUS
10
2.63446
20
-3.27665
11
2.633
21
-3.27784
0
LINE
8
BLACK
6
CONTINUOUS
10
2.633
20
-3.27784
11
2.63134
21
-3.27873
0
LINE
8
BLACK
6
CONTINUOUS
10
2.63134
20
-3.27873
11
2.62954
21
-3.27928
0
LINE
8
BLACK
6
CONTINUOUS
10
2.62954
20
-3.27928
11
2.62767
21
-3.27946
0
LINE
8
BLACK
6
CONTINUOUS
10
2.62767
20
-3.27946
11
2.59175
21
-3.27946
0
LINE
8
BLACK
6
CONTINUOUS
10
2.59175
20
-3.27946
11
2.58987
21
-3.27928
0
LINE
8
BLACK
6
CONTINUOUS
10
2.58987
20
-3.27928
11
2.58807
21
-3.27873
0
LINE
8
BLACK
6
CONTINUOUS
10
2.58807
20
-3.27873
11
2.58641
21
-3.27784
0
LINE
8
BLACK
6
CONTINUOUS
10
2.58641
20
-3.27784
11
2.58496
21
-3.27665
0
LINE
8
BLACK
6
CONTINUOUS
10
2.58496
20
-3.27665
11
2.58377
21
-3.2752
0
LINE
8
BLACK
6
CONTINUOUS
10
2.58377
20
-3.2752
11
2.58288
21
-3.27354
0
LINE
8
BLACK
6
CONTINUOUS
10
2.58288
20
-3.27354
11
2.58233
21
-3.27174
0
LINE
8
BLACK
6
CONTINUOUS
10
2.58233
20
-3.27174
11
2.58215
21
-3.26986
0
LINE
8
BLACK
6
CONTINUOUS
10
2.58215
20
-3.26986
11
2.58215
21
-3.25067
0
LINE
8
BLACK
6
CONTINUOUS
10
2.58215
20
-3.25067
11
2.58233
21
-3.2488
0
LINE
8
BLACK
6
CONTINUOUS
10
2.58233
20
-3.2488
11
2.58288
21
-3.247
0
LINE
8
BLACK
6
CONTINUOUS
10
2.58288
20
-3.247
11
2.58377
21
-3.24534
0
LINE
8
BLACK
6
CONTINUOUS
10
2.58377
20
-3.24534
11
2.58496
21
-3.24389
0
LINE
8
BLACK
6
CONTINUOUS
10
2.58496
20
-3.24389
11
2.58641
21
-3.24269
0
LINE
8
BLACK
6
CONTINUOUS
10
2.58641
20
-3.24269
11
2.58807
21
-3.24181
0
LINE
8
BLACK
6
CONTINUOUS
10
2.58807
20
-3.24181
11
2.58987
21
-3.24126
0
LINE
8
BLACK
6
CONTINUOUS
10
2.58987
20
-3.24126
11
2.59175
21
-3.24107
0
LINE
8
BLACK
6
CONTINUOUS
10
2.59175
20
-3.24107
11
2.62767
21
-3.24107
0
LINE
8
BLACK
6
CONTINUOUS
10
2.62767
20
-3.24107
11
2.62954
21
-3.24126
0
LINE
8
BLACK
6
CONTINUOUS
10
2.43289
20
-3.23669
11
2.39352
21
-3.23669
0
LINE
8
BLACK
6
CONTINUOUS
10
2.39352
20
-3.23669
11
2.39352
21
-3.20126
0
LINE
8
BLACK
6
CONTINUOUS
10
2.39352
20
-3.20126
11
2.43289
21
-3.20126
0
LINE
8
BLACK
6
CONTINUOUS
10
2.43289
20
-3.20126
11
2.43289
21
-3.23669
0
LINE
8
BLACK
6
CONTINUOUS
10
2.3699
20
-3.23669
11
2.33053
21
-3.23669
0
LINE
8
BLACK
6
CONTINUOUS
10
2.33053
20
-3.23669
11
2.33053
21
-3.20126
0
LINE
8
BLACK
6
CONTINUOUS
10
2.33053
20
-3.20126
11
2.3699
21
-3.20126
0
LINE
8
BLACK
6
CONTINUOUS
10
2.3699
20
-3.20126
11
2.3699
21
-3.23669
0
LINE
8
BLACK
6
CONTINUOUS
10
2.71054
20
-3.16835
11
2.71234
21
-3.1689
0
LINE
8
BLACK
6
CONTINUOUS
10
2.71234
20
-3.1689
11
2.714
21
-3.16978
0
LINE
8
BLACK
6
CONTINUOUS
10
2.714
20
-3.16978
11
2.71546
21
-3.17098
0
LINE
8
BLACK
6
CONTINUOUS
10
2.71546
20
-3.17098
11
2.71665
21
-3.17243
0
LINE
8
BLACK
6
CONTINUOUS
10
2.71665
20
-3.17243
11
2.71754
21
-3.17409
0
LINE
8
BLACK
6
CONTINUOUS
10
2.71754
20
-3.17409
11
2.71808
21
-3.17589
0
LINE
8
BLACK
6
CONTINUOUS
10
2.71808
20
-3.17589
11
2.71827
21
-3.17776
0
LINE
8
BLACK
6
CONTINUOUS
10
2.71827
20
-3.17776
11
2.71827
21
-3.19695
0
LINE
8
BLACK
6
CONTINUOUS
10
2.71827
20
-3.19695
11
2.71808
21
-3.19883
0
LINE
8
BLACK
6
CONTINUOUS
10
2.71808
20
-3.19883
11
2.71754
21
-3.20063
0
LINE
8
BLACK
6
CONTINUOUS
10
2.71754
20
-3.20063
11
2.71665
21
-3.20229
0
LINE
8
BLACK
6
CONTINUOUS
10
2.71665
20
-3.20229
11
2.71546
21
-3.20374
0
LINE
8
BLACK
6
CONTINUOUS
10
2.71546
20
-3.20374
11
2.714
21
-3.20493
0
LINE
8
BLACK
6
CONTINUOUS
10
2.714
20
-3.20493
11
2.71234
21
-3.20582
0
LINE
8
BLACK
6
CONTINUOUS
10
2.71234
20
-3.20582
11
2.71054
21
-3.20637
0
LINE
8
BLACK
6
CONTINUOUS
10
2.71054
20
-3.20637
11
2.70867
21
-3.20655
0
LINE
8
BLACK
6
CONTINUOUS
10
2.70867
20
-3.20655
11
2.67275
21
-3.20655
0
LINE
8
BLACK
6
CONTINUOUS
10
2.67275
20
-3.20655
11
2.67087
21
-3.20637
0
LINE
8
BLACK
6
CONTINUOUS
10
2.67087
20
-3.20637
11
2.66907
21
-3.20582
0
LINE
8
BLACK
6
CONTINUOUS
10
2.66907
20
-3.20582
11
2.66741
21
-3.20493
0
LINE
8
BLACK
6
CONTINUOUS
10
2.66741
20
-3.20493
11
2.66596
21
-3.20374
0
LINE
8
BLACK
6
CONTINUOUS
10
2.66596
20
-3.20374
11
2.66477
21
-3.20229
0
LINE
8
BLACK
6
CONTINUOUS
10
2.66477
20
-3.20229
11
2.66388
21
-3.20063
0
LINE
8
BLACK
6
CONTINUOUS
10
2.66388
20
-3.20063
11
2.66333
21
-3.19883
0
LINE
8
BLACK
6
CONTINUOUS
10
2.66333
20
-3.19883
11
2.66315
21
-3.19695
0
LINE
8
BLACK
6
CONTINUOUS
10
2.66315
20
-3.19695
11
2.66315
21
-3.17776
0
LINE
8
BLACK
6
CONTINUOUS
10
2.66315
20
-3.17776
11
2.66333
21
-3.17589
0
LINE
8
BLACK
6
CONTINUOUS
10
2.66333
20
-3.17589
11
2.66388
21
-3.17409
0
LINE
8
BLACK
6
CONTINUOUS
10
2.66388
20
-3.17409
11
2.66477
21
-3.17243
0
LINE
8
BLACK
6
CONTINUOUS
10
2.66477
20
-3.17243
11
2.66596
21
-3.17098
0
LINE
8
BLACK
6
CONTINUOUS
10
2.66596
20
-3.17098
11
2.66741
21
-3.16978
0
LINE
8
BLACK
6
CONTINUOUS
10
2.66741
20
-3.16978
11
2.66907
21
-3.1689
0
LINE
8
BLACK
6
CONTINUOUS
10
2.66907
20
-3.1689
11
2.67087
21
-3.16835
0
LINE
8
BLACK
6
CONTINUOUS
10
2.67087
20
-3.16835
11
2.67275
21
-3.16817
0
LINE
8
BLACK
6
CONTINUOUS
10
2.67275
20
-3.16817
11
2.70867
21
-3.16817
0
LINE
8
BLACK
6
CONTINUOUS
10
2.70867
20
-3.16817
11
2.71054
21
-3.16835
0
LINE
8
BLACK
6
CONTINUOUS
10
2.62954
20
-3.16744
11
2.63134
21
-3.16799
0
LINE
8
BLACK
6
CONTINUOUS
10
2.63134
20
-3.16799
11
2.633
21
-3.16887
0
LINE
8
BLACK
6
CONTINUOUS
10
2.633
20
-3.16887
11
2.63446
21
-3.17007
0
LINE
8
BLACK
6
CONTINUOUS
10
2.63446
20
-3.17007
11
2.63565
21
-3.17152
0
LINE
8
BLACK
6
CONTINUOUS
10
2.63565
20
-3.17152
11
2.63654
21
-3.17318
0
LINE
8
BLACK
6
CONTINUOUS
10
2.63654
20
-3.17318
11
2.63708
21
-3.17498
0
LINE
8
BLACK
6
CONTINUOUS
10
2.63708
20
-3.17498
11
2.63727
21
-3.17685
0
LINE
8
BLACK
6
CONTINUOUS
10
2.63727
20
-3.17685
11
2.63727
21
-3.19605
0
LINE
8
BLACK
6
CONTINUOUS
10
2.63727
20
-3.19605
11
2.63708
21
-3.19792
0
LINE
8
BLACK
6
CONTINUOUS
10
2.63708
20
-3.19792
11
2.63654
21
-3.19972
0
LINE
8
BLACK
6
CONTINUOUS
10
2.63654
20
-3.19972
11
2.63565
21
-3.20138
0
LINE
8
BLACK
6
CONTINUOUS
10
2.63565
20
-3.20138
11
2.63446
21
-3.20283
0
LINE
8
BLACK
6
CONTINUOUS
10
2.63446
20
-3.20283
11
2.633
21
-3.20402
0
LINE
8
BLACK
6
CONTINUOUS
10
2.633
20
-3.20402
11
2.63134
21
-3.20491
0
LINE
8
BLACK
6
CONTINUOUS
10
2.63134
20
-3.20491
11
2.62954
21
-3.20546
0
LINE
8
BLACK
6
CONTINUOUS
10
2.62954
20
-3.20546
11
2.62767
21
-3.20564
0
LINE
8
BLACK
6
CONTINUOUS
10
2.62767
20
-3.20564
11
2.59175
21
-3.20564
0
LINE
8
BLACK
6
CONTINUOUS
10
2.59175
20
-3.20564
11
2.58987
21
-3.20546
0
LINE
8
BLACK
6
CONTINUOUS
10
2.58987
20
-3.20546
11
2.58807
21
-3.20491
0
LINE
8
BLACK
6
CONTINUOUS
10
2.58807
20
-3.20491
11
2.58641
21
-3.20402
0
LINE
8
BLACK
6
CONTINUOUS
10
2.58641
20
-3.20402
11
2.58496
21
-3.20283
0
LINE
8
BLACK
6
CONTINUOUS
10
2.58496
20
-3.20283
11
2.58377
21
-3.20138
0
LINE
8
BLACK
6
CONTINUOUS
10
2.58377
20
-3.20138
11
2.58288
21
-3.19972
0
LINE
8
BLACK
6
CONTINUOUS
10
2.58288
20
-3.19972
11
2.58233
21
-3.19792
0
LINE
8
BLACK
6
CONTINUOUS
10
2.58233
20
-3.19792
11
2.58215
21
-3.19605
0
LINE
8
BLACK
6
CONTINUOUS
10
2.58215
20
-3.19605
11
2.58215
21
-3.17685
0
LINE
8
BLACK
6
CONTINUOUS
10
2.58215
20
-3.17685
11
2.58233
21
-3.17498
0
LINE
8
BLACK
6
CONTINUOUS
10
2.58233
20
-3.17498
11
2.58288
21
-3.17318
0
LINE
8
BLACK
6
CONTINUOUS
10
2.58288
20
-3.17318
11
2.58377
21
-3.17152
0
LINE
8
BLACK
6
CONTINUOUS
10
2.58377
20
-3.17152
11
2.58496
21
-3.17007
0
LINE
8
BLACK
6
CONTINUOUS
10
2.58496
20
-3.17007
11
2.58641
21
-3.16887
0
LINE
8
BLACK
6
CONTINUOUS
10
2.58641
20
-3.16887
11
2.58807
21
-3.16799
0
LINE
8
BLACK
6
CONTINUOUS
10
2.58807
20
-3.16799
11
2.58987
21
-3.16744
0
LINE
8
BLACK
6
CONTINUOUS
10
2.58987
20
-3.16744
11
2.59175
21
-3.16726
0
LINE
8
BLACK
6
CONTINUOUS
10
2.59175
20
-3.16726
11
2.62767
21
-3.16726
0
LINE
8
BLACK
6
CONTINUOUS
10
2.62767
20
-3.16726
11
2.62954
21
-3.16744
0
LINE
8
BLACK
6
CONTINUOUS
10
2.44864
20
-3.17173
11
2.42698
21
-3.17173
0
LINE
8
BLACK
6
CONTINUOUS
10
2.42698
20
-3.17173
11
2.42698
21
-3.1048
0
LINE
8
BLACK
6
CONTINUOUS
10
2.42698
20
-3.1048
11
2.44864
21
-3.1048
0
LINE
8
BLACK
6
CONTINUOUS
10
2.44864
20
-3.1048
11
2.44864
21
-3.17173
0
LINE
8
BLACK
6
CONTINUOUS
10
2.66118
20
-3.04589
11
2.66298
21
-3.04644
0
LINE
8
BLACK
6
CONTINUOUS
10
2.66298
20
-3.04644
11
2.66464
21
-3.04733
0
LINE
8
BLACK
6
CONTINUOUS
10
2.66464
20
-3.04733
11
2.66609
21
-3.04852
0
LINE
8
BLACK
6
CONTINUOUS
10
2.66609
20
-3.04852
11
2.66728
21
-3.04997
0
LINE
8
BLACK
6
CONTINUOUS
10
2.66728
20
-3.04997
11
2.66817
21
-3.05163
0
LINE
8
BLACK
6
CONTINUOUS
10
2.66817
20
-3.05163
11
2.66872
21
-3.05343
0
LINE
8
BLACK
6
CONTINUOUS
10
2.66872
20
-3.05343
11
2.6689
21
-3.05531
0
LINE
8
BLACK
6
CONTINUOUS
10
2.6689
20
-3.05531
11
2.6689
21
-3.09123
0
LINE
8
BLACK
6
CONTINUOUS
10
2.6689
20
-3.09123
11
2.66872
21
-3.0931
0
LINE
8
BLACK
6
CONTINUOUS
10
2.66872
20
-3.0931
11
2.66817
21
-3.0949
0
LINE
8
BLACK
6
CONTINUOUS
10
2.66817
20
-3.0949
11
2.66728
21
-3.09656
0
LINE
8
BLACK
6
CONTINUOUS
10
2.66728
20
-3.09656
11
2.66609
21
-3.09802
0
LINE
8
BLACK
6
CONTINUOUS
10
2.66609
20
-3.09802
11
2.66464
21
-3.09921
0
LINE
8
BLACK
6
CONTINUOUS
10
2.66464
20
-3.09921
11
2.66298
21
-3.1001
0
LINE
8
BLACK
6
CONTINUOUS
10
2.66298
20
-3.1001
11
2.66118
21
-3.10064
0
LINE
8
BLACK
6
CONTINUOUS
10
2.66118
20
-3.10064
11
2.65931
21
-3.10083
0
LINE
8
BLACK
6
CONTINUOUS
10
2.65931
20
-3.10083
11
2.64011
21
-3.10083
0
LINE
8
BLACK
6
CONTINUOUS
10
2.64011
20
-3.10083
11
2.63824
21
-3.10064
0
LINE
8
BLACK
6
CONTINUOUS
10
2.63824
20
-3.10064
11
2.63644
21
-3.1001
0
LINE
8
BLACK
6
CONTINUOUS
10
2.63644
20
-3.1001
11
2.63478
21
-3.09921
0
LINE
8
BLACK
6
CONTINUOUS
10
2.63478
20
-3.09921
11
2.63333
21
-3.09802
0
LINE
8
BLACK
6
CONTINUOUS
10
2.63333
20
-3.09802
11
2.63213
21
-3.09656
0
LINE
8
BLACK
6
CONTINUOUS
10
2.63213
20
-3.09656
11
2.63125
21
-3.0949
0
LINE
8
BLACK
6
CONTINUOUS
10
2.63125
20
-3.0949
11
2.6307
21
-3.0931
0
LINE
8
BLACK
6
CONTINUOUS
10
2.6307
20
-3.0931
11
2.63052
21
-3.09123
0
LINE
8
BLACK
6
CONTINUOUS
10
2.63052
20
-3.09123
11
2.63052
21
-3.05531
0
LINE
8
BLACK
6
CONTINUOUS
10
2.63052
20
-3.05531
11
2.6307
21
-3.05343
0
LINE
8
BLACK
6
CONTINUOUS
10
2.6307
20
-3.05343
11
2.63125
21
-3.05163
0
LINE
8
BLACK
6
CONTINUOUS
10
2.63125
20
-3.05163
11
2.63213
21
-3.04997
0
LINE
8
BLACK
6
CONTINUOUS
10
2.63213
20
-3.04997
11
2.63333
21
-3.04852
0
LINE
8
BLACK
6
CONTINUOUS
10
2.63333
20
-3.04852
11
2.63478
21
-3.04733
0
LINE
8
BLACK
6
CONTINUOUS
10
2.63478
20
-3.04733
11
2.63644
21
-3.04644
0
LINE
8
BLACK
6
CONTINUOUS
10
2.63644
20
-3.04644
11
2.63824
21
-3.04589
0
LINE
8
BLACK
6
CONTINUOUS
10
2.63824
20
-3.04589
11
2.64011
21
-3.04571
0
LINE
8
BLACK
6
CONTINUOUS
10
2.64011
20
-3.04571
11
2.65931
21
-3.04571
0
LINE
8
BLACK
6
CONTINUOUS
10
2.65931
20
-3.04571
11
2.66118
21
-3.04589
0
LINE
8
BLACK
6
CONTINUOUS
10
2.58736
20
-3.04589
11
2.58916
21
-3.04644
0
LINE
8
BLACK
6
CONTINUOUS
10
2.58916
20
-3.04644
11
2.59082
21
-3.04733
0
LINE
8
BLACK
6
CONTINUOUS
10
2.59082
20
-3.04733
11
2.59227
21
-3.04852
0
LINE
8
BLACK
6
CONTINUOUS
10
2.59227
20
-3.04852
11
2.59347
21
-3.04997
0
LINE
8
BLACK
6
CONTINUOUS
10
2.59347
20
-3.04997
11
2.59435
21
-3.05163
0
LINE
8
BLACK
6
CONTINUOUS
10
2.59435
20
-3.05163
11
2.5949
21
-3.05343
0
LINE
8
BLACK
6
CONTINUOUS
10
2.5949
20
-3.05343
11
2.59508
21
-3.05531
0
LINE
8
BLACK
6
CONTINUOUS
10
2.59508
20
-3.05531
11
2.59508
21
-3.09123
0
LINE
8
BLACK
6
CONTINUOUS
10
2.59508
20
-3.09123
11
2.5949
21
-3.0931
0
LINE
8
BLACK
6
CONTINUOUS
10
2.5949
20
-3.0931
11
2.59435
21
-3.0949
0
LINE
8
BLACK
6
CONTINUOUS
10
2.59435
20
-3.0949
11
2.59347
21
-3.09656
0
LINE
8
BLACK
6
CONTINUOUS
10
2.59347
20
-3.09656
11
2.59227
21
-3.09802
0
LINE
8
BLACK
6
CONTINUOUS
10
2.59227
20
-3.09802
11
2.59082
21
-3.09921
0
LINE
8
BLACK
6
CONTINUOUS
10
2.59082
20
-3.09921
11
2.58916
21
-3.1001
0
LINE
8
BLACK
6
CONTINUOUS
10
2.58916
20
-3.1001
11
2.58736
21
-3.10064
0
LINE
8
BLACK
6
CONTINUOUS
10
2.58736
20
-3.10064
11
2.58549
21
-3.10083
0
LINE
8
BLACK
6
CONTINUOUS
10
2.58549
20
-3.10083
11
2.56629
21
-3.10083
0
LINE
8
BLACK
6
CONTINUOUS
10
2.56629
20
-3.10083
11
2.56442
21
-3.10064
0
LINE
8
BLACK
6
CONTINUOUS
10
2.56442
20
-3.10064
11
2.56262
21
-3.1001
0
LINE
8
BLACK
6
CONTINUOUS
10
2.56262
20
-3.1001
11
2.56096
21
-3.09921
0
LINE
8
BLACK
6
CONTINUOUS
10
2.56096
20
-3.09921
11
2.55951
21
-3.09802
0
LINE
8
BLACK
6
CONTINUOUS
10
2.55951
20
-3.09802
11
2.55831
21
-3.09656
0
LINE
8
BLACK
6
CONTINUOUS
10
2.55831
20
-3.09656
11
2.55743
21
-3.0949
0
LINE
8
BLACK
6
CONTINUOUS
10
2.55743
20
-3.0949
11
2.55688
21
-3.0931
0
LINE
8
BLACK
6
CONTINUOUS
10
2.55688
20
-3.0931
11
2.5567
21
-3.09123
0
LINE
8
BLACK
6
CONTINUOUS
10
2.5567
20
-3.09123
11
2.5567
21
-3.05531
0
LINE
8
BLACK
6
CONTINUOUS
10
2.5567
20
-3.05531
11
2.55688
21
-3.05343
0
LINE
8
BLACK
6
CONTINUOUS
10
2.55688
20
-3.05343
11
2.55743
21
-3.05163
0
LINE
8
BLACK
6
CONTINUOUS
10
2.55743
20
-3.05163
11
2.55831
21
-3.04997
0
LINE
8
BLACK
6
CONTINUOUS
10
2.55831
20
-3.04997
11
2.55951
21
-3.04852
0
LINE
8
BLACK
6
CONTINUOUS
10
2.55951
20
-3.04852
11
2.56096
21
-3.04733
0
LINE
8
BLACK
6
CONTINUOUS
10
2.56096
20
-3.04733
11
2.56262
21
-3.04644
0
LINE
8
BLACK
6
CONTINUOUS
10
2.56262
20
-3.04644
11
2.56442
21
-3.04589
0
LINE
8
BLACK
6
CONTINUOUS
10
2.56442
20
-3.04589
11
2.56629
21
-3.04571
0
LINE
8
BLACK
6
CONTINUOUS
10
2.56629
20
-3.04571
11
2.58549
21
-3.04571
0
LINE
8
BLACK
6
CONTINUOUS
10
2.58549
20
-3.04571
11
2.58736
21
-3.04589
0
LINE
8
BLACK
6
CONTINUOUS
10
2.3699
20
-3.07528
11
2.33053
21
-3.07528
0
LINE
8
BLACK
6
CONTINUOUS
10
2.33053
20
-3.07528
11
2.33053
21
-3.03984
0
LINE
8
BLACK
6
CONTINUOUS
10
2.33053
20
-3.03984
11
2.3699
21
-3.03984
0
LINE
8
BLACK
6
CONTINUOUS
10
2.3699
20
-3.03984
11
2.3699
21
-3.07528
0
LINE
8
BLACK
6
CONTINUOUS
10
2.43289
20
-3.07528
11
2.39352
21
-3.07528
0
LINE
8
BLACK
6
CONTINUOUS
10
2.39352
20
-3.07528
11
2.39352
21
-3.03984
0
LINE
8
BLACK
6
CONTINUOUS
10
2.39352
20
-3.03984
11
2.43289
21
-3.03984
0
LINE
8
BLACK
6
CONTINUOUS
10
2.43289
20
-3.03984
11
2.43289
21
-3.07528
0
LINE
8
BLACK
6
CONTINUOUS
10
2.75513
20
-3.01498
11
2.67246
21
-3.01498
0
LINE
8
BLACK
6
CONTINUOUS
10
2.67246
20
-3.01498
11
2.67246
21
-2.94411
0
LINE
8
BLACK
6
CONTINUOUS
10
2.67246
20
-2.94411
11
2.75513
21
-2.94411
0
LINE
8
BLACK
6
CONTINUOUS
10
2.75513
20
-2.94411
11
2.75513
21
-3.01498
0
LINE
8
BLACK
6
CONTINUOUS
10
2.64096
20
-3.01498
11
2.55828
21
-3.01498
0
LINE
8
BLACK
6
CONTINUOUS
10
2.55828
20
-3.01498
11
2.55828
21
-2.94411
0
LINE
8
BLACK
6
CONTINUOUS
10
2.55828
20
-2.94411
11
2.64096
21
-2.94411
0
LINE
8
BLACK
6
CONTINUOUS
10
2.64096
20
-2.94411
11
2.64096
21
-3.01498
0
LINE
8
BLACK
6
CONTINUOUS
10
2.42336
20
-2.94389
11
2.42516
21
-2.94444
0
LINE
8
BLACK
6
CONTINUOUS
10
2.42516
20
-2.94444
11
2.42682
21
-2.94533
0
LINE
8
BLACK
6
CONTINUOUS
10
2.42682
20
-2.94533
11
2.42827
21
-2.94652
0
LINE
8
BLACK
6
CONTINUOUS
10
2.42827
20
-2.94652
11
2.42947
21
-2.94797
0
LINE
8
BLACK
6
CONTINUOUS
10
2.42947
20
-2.94797
11
2.43035
21
-2.94963
0
LINE
8
BLACK
6
CONTINUOUS
10
2.43035
20
-2.94963
11
2.4309
21
-2.95143
0
LINE
8
BLACK
6
CONTINUOUS
10
2.4309
20
-2.95143
11
2.43108
21
-2.95331
0
LINE
8
BLACK
6
CONTINUOUS
10
2.43108
20
-2.95331
11
2.43108
21
-2.98923
0
LINE
8
BLACK
6
CONTINUOUS
10
2.43108
20
-2.98923
11
2.4309
21
-2.9911
0
LINE
8
BLACK
6
CONTINUOUS
10
2.4309
20
-2.9911
11
2.43035
21
-2.9929
0
LINE
8
BLACK
6
CONTINUOUS
10
2.43035
20
-2.9929
11
2.42947
21
-2.99456
0
LINE
8
BLACK
6
CONTINUOUS
10
2.42947
20
-2.99456
11
2.42827
21
-2.99602
0
LINE
8
BLACK
6
CONTINUOUS
10
2.42827
20
-2.99602
11
2.42682
21
-2.99721
0
LINE
8
BLACK
6
CONTINUOUS
10
2.42682
20
-2.99721
11
2.42516
21
-2.9981
0
LINE
8
BLACK
6
CONTINUOUS
10
2.42516
20
-2.9981
11
2.42336
21
-2.99864
0
LINE
8
BLACK
6
CONTINUOUS
10
2.42336
20
-2.99864
11
2.42149
21
-2.99883
0
LINE
8
BLACK
6
CONTINUOUS
10
2.42149
20
-2.99883
11
2.40229
21
-2.99883
0
LINE
8
BLACK
6
CONTINUOUS
10
2.40229
20
-2.99883
11
2.40042
21
-2.99864
0
LINE
8
BLACK
6
CONTINUOUS
10
2.40042
20
-2.99864
11
2.39862
21
-2.9981
0
LINE
8
BLACK
6
CONTINUOUS
10
2.39862
20
-2.9981
11
2.39696
21
-2.99721
0
LINE
8
BLACK
6
CONTINUOUS
10
2.39696
20
-2.99721
11
2.39551
21
-2.99602
0
LINE
8
BLACK
6
CONTINUOUS
10
2.39551
20
-2.99602
11
2.39431
21
-2.99456
0
LINE
8
BLACK
6
CONTINUOUS
10
2.39431
20
-2.99456
11
2.39343
21
-2.9929
0
LINE
8
BLACK
6
CONTINUOUS
10
2.39343
20
-2.9929
11
2.39288
21
-2.9911
0
LINE
8
BLACK
6
CONTINUOUS
10
2.39288
20
-2.9911
11
2.3927
21
-2.98923
0
LINE
8
BLACK
6
CONTINUOUS
10
2.3927
20
-2.98923
11
2.3927
21
-2.95331
0
LINE
8
BLACK
6
CONTINUOUS
10
2.3927
20
-2.95331
11
2.39288
21
-2.95143
0
LINE
8
BLACK
6
CONTINUOUS
10
2.39288
20
-2.95143
11
2.39343
21
-2.94963
0
LINE
8
BLACK
6
CONTINUOUS
10
2.39343
20
-2.94963
11
2.39431
21
-2.94797
0
LINE
8
BLACK
6
CONTINUOUS
10
2.39431
20
-2.94797
11
2.39551
21
-2.94652
0
LINE
8
BLACK
6
CONTINUOUS
10
2.39551
20
-2.94652
11
2.39696
21
-2.94533
0
LINE
8
BLACK
6
CONTINUOUS
10
2.39696
20
-2.94533
11
2.39862
21
-2.94444
0
LINE
8
BLACK
6
CONTINUOUS
10
2.39862
20
-2.94444
11
2.40042
21
-2.94389
0
LINE
8
BLACK
6
CONTINUOUS
10
2.40042
20
-2.94389
11
2.40229
21
-2.94371
0
LINE
8
BLACK
6
CONTINUOUS
10
2.40229
20
-2.94371
11
2.42149
21
-2.94371
0
LINE
8
BLACK
6
CONTINUOUS
10
2.42149
20
-2.94371
11
2.42336
21
-2.94389
0
LINE
8
BLACK
6
CONTINUOUS
10
2.49718
20
-2.94389
11
2.49898
21
-2.94444
0
LINE
8
BLACK
6
CONTINUOUS
10
2.49898
20
-2.94444
11
2.50064
21
-2.94533
0
LINE
8
BLACK
6
CONTINUOUS
10
2.50064
20
-2.94533
11
2.50209
21
-2.94652
0
LINE
8
BLACK
6
CONTINUOUS
10
2.50209
20
-2.94652
11
2.50328
21
-2.94797
0
LINE
8
BLACK
6
CONTINUOUS
10
2.50328
20
-2.94797
11
2.50417
21
-2.94963
0
LINE
8
BLACK
6
CONTINUOUS
10
2.50417
20
-2.94963
11
2.50472
21
-2.95143
0
LINE
8
BLACK
6
CONTINUOUS
10
2.50472
20
-2.95143
11
2.5049
21
-2.95331
0
LINE
8
BLACK
6
CONTINUOUS
10
2.5049
20
-2.95331
11
2.5049
21
-2.98923
0
LINE
8
BLACK
6
CONTINUOUS
10
2.5049
20
-2.98923
11
2.50472
21
-2.9911
0
LINE
8
BLACK
6
CONTINUOUS
10
2.50472
20
-2.9911
11
2.50417
21
-2.9929
0
LINE
8
BLACK
6
CONTINUOUS
10
2.50417
20
-2.9929
11
2.50328
21
-2.99456
0
LINE
8
BLACK
6
CONTINUOUS
10
2.50328
20
-2.99456
11
2.50209
21
-2.99602
0
LINE
8
BLACK
6
CONTINUOUS
10
2.50209
20
-2.99602
11
2.50064
21
-2.99721
0
LINE
8
BLACK
6
CONTINUOUS
10
2.50064
20
-2.99721
11
2.49898
21
-2.9981
0
LINE
8
BLACK
6
CONTINUOUS
10
2.49898
20
-2.9981
11
2.49718
21
-2.99864
0
LINE
8
BLACK
6
CONTINUOUS
10
2.49718
20
-2.99864
11
2.49531
21
-2.99883
0
LINE
8
BLACK
6
CONTINUOUS
10
2.49531
20
-2.99883
11
2.47611
21
-2.99883
0
LINE
8
BLACK
6
CONTINUOUS
10
2.47611
20
-2.99883
11
2.47424
21
-2.99864
0
LINE
8
BLACK
6
CONTINUOUS
10
2.47424
20
-2.99864
11
2.47244
21
-2.9981
0
LINE
8
BLACK
6
CONTINUOUS
10
2.47244
20
-2.9981
11
2.47078
21
-2.99721
0
LINE
8
BLACK
6
CONTINUOUS
10
2.47078
20
-2.99721
11
2.46933
21
-2.99602
0
LINE
8
BLACK
6
CONTINUOUS
10
2.46933
20
-2.99602
11
2.46813
21
-2.99456
0
LINE
8
BLACK
6
CONTINUOUS
10
2.46813
20
-2.99456
11
2.46725
21
-2.9929
0
LINE
8
BLACK
6
CONTINUOUS
10
2.46725
20
-2.9929
11
2.4667
21
-2.9911
0
LINE
8
BLACK
6
CONTINUOUS
10
2.4667
20
-2.9911
11
2.46652
21
-2.98923
0
LINE
8
BLACK
6
CONTINUOUS
10
2.46652
20
-2.98923
11
2.46652
21
-2.95331
0
LINE
8
BLACK
6
CONTINUOUS
10
2.46652
20
-2.95331
11
2.4667
21
-2.95143
0
LINE
8
BLACK
6
CONTINUOUS
10
2.4667
20
-2.95143
11
2.46725
21
-2.94963
0
LINE
8
BLACK
6
CONTINUOUS
10
2.46725
20
-2.94963
11
2.46813
21
-2.94797
0
LINE
8
BLACK
6
CONTINUOUS
10
2.46813
20
-2.94797
11
2.46933
21
-2.94652
0
LINE
8
BLACK
6
CONTINUOUS
10
2.46933
20
-2.94652
11
2.47078
21
-2.94533
0
LINE
8
BLACK
6
CONTINUOUS
10
2.47078
20
-2.94533
11
2.47244
21
-2.94444
0
LINE
8
BLACK
6
CONTINUOUS
10
2.47244
20
-2.94444
11
2.47424
21
-2.94389
0
LINE
8
BLACK
6
CONTINUOUS
10
2.47424
20
-2.94389
11
2.47611
21
-2.94371
0
LINE
8
BLACK
6
CONTINUOUS
10
2.47611
20
-2.94371
11
2.49531
21
-2.94371
0
LINE
8
BLACK
6
CONTINUOUS
10
2.49531
20
-2.94371
11
2.49718
21
-2.94389
0
LINE
8
BLACK
6
CONTINUOUS
10
2.35654
20
-2.93717
11
2.35834
21
-2.93771
0
LINE
8
BLACK
6
CONTINUOUS
10
2.35834
20
-2.93771
11
2.36
21
-2.9386
0
LINE
8
BLACK
6
CONTINUOUS
10
2.36
20
-2.9386
11
2.36146
21
-2.93979
0
LINE
8
BLACK
6
CONTINUOUS
10
2.36146
20
-2.93979
11
2.36265
21
-2.94125
0
LINE
8
BLACK
6
CONTINUOUS
10
2.36265
20
-2.94125
11
2.36354
21
-2.94291
0
LINE
8
BLACK
6
CONTINUOUS
10
2.36354
20
-2.94291
11
2.36408
21
-2.94471
0
LINE
8
BLACK
6
CONTINUOUS
10
2.36408
20
-2.94471
11
2.36427
21
-2.94658
0
LINE
8
BLACK
6
CONTINUOUS
10
2.36427
20
-2.94658
11
2.36427
21
-2.96577
0
LINE
8
BLACK
6
CONTINUOUS
10
2.36427
20
-2.96577
11
2.36408
21
-2.96765
0
LINE
8
BLACK
6
CONTINUOUS
10
2.36408
20
-2.96765
11
2.36354
21
-2.96945
0
LINE
8
BLACK
6
CONTINUOUS
10
2.36354
20
-2.96945
11
2.36265
21
-2.97111
0
LINE
8
BLACK
6
CONTINUOUS
10
2.36265
20
-2.97111
11
2.36146
21
-2.97256
0
LINE
8
BLACK
6
CONTINUOUS
10
2.36146
20
-2.97256
11
2.36
21
-2.97375
0
LINE
8
BLACK
6
CONTINUOUS
10
2.36
20
-2.97375
11
2.35834
21
-2.97464
0
LINE
8
BLACK
6
CONTINUOUS
10
2.35834
20
-2.97464
11
2.35654
21
-2.97519
0
LINE
8
BLACK
6
CONTINUOUS
10
2.35654
20
-2.97519
11
2.35467
21
-2.97537
0
LINE
8
BLACK
6
CONTINUOUS
10
2.35467
20
-2.97537
11
2.31875
21
-2.97537
0
LINE
8
BLACK
6
CONTINUOUS
10
2.31875
20
-2.97537
11
2.31687
21
-2.97519
0
LINE
8
BLACK
6
CONTINUOUS
10
2.31687
20
-2.97519
11
2.31507
21
-2.97464
0
LINE
8
BLACK
6
CONTINUOUS
10
2.31507
20
-2.97464
11
2.31341
21
-2.97375
0
LINE
8
BLACK
6
CONTINUOUS
10
2.31341
20
-2.97375
11
2.31196
21
-2.97256
0
LINE
8
BLACK
6
CONTINUOUS
10
2.31196
20
-2.97256
11
2.31077
21
-2.97111
0
LINE
8
BLACK
6
CONTINUOUS
10
2.31077
20
-2.97111
11
2.30988
21
-2.96945
0
LINE
8
BLACK
6
CONTINUOUS
10
2.30988
20
-2.96945
11
2.30933
21
-2.96765
0
LINE
8
BLACK
6
CONTINUOUS
10
2.30933
20
-2.96765
11
2.30915
21
-2.96577
0
LINE
8
BLACK
6
CONTINUOUS
10
2.30915
20
-2.96577
11
2.30915
21
-2.94658
0
LINE
8
BLACK
6
CONTINUOUS
10
2.30915
20
-2.94658
11
2.30933
21
-2.94471
0
LINE
8
BLACK
6
CONTINUOUS
10
2.30933
20
-2.94471
11
2.30988
21
-2.94291
0
LINE
8
BLACK
6
CONTINUOUS
10
2.30988
20
-2.94291
11
2.31077
21
-2.94125
0
LINE
8
BLACK
6
CONTINUOUS
10
2.31077
20
-2.94125
11
2.31196
21
-2.93979
0
LINE
8
BLACK
6
CONTINUOUS
10
2.31196
20
-2.93979
11
2.31341
21
-2.9386
0
LINE
8
BLACK
6
CONTINUOUS
10
2.31341
20
-2.9386
11
2.31507
21
-2.93771
0
LINE
8
BLACK
6
CONTINUOUS
10
2.31507
20
-2.93771
11
2.31687
21
-2.93717
0
LINE
8
BLACK
6
CONTINUOUS
10
2.31687
20
-2.93717
11
2.31875
21
-2.93698
0
LINE
8
BLACK
6
CONTINUOUS
10
2.31875
20
-2.93698
11
2.35467
21
-2.93698
0
LINE
8
BLACK
6
CONTINUOUS
10
2.35467
20
-2.93698
11
2.35654
21
-2.93717
0
LINE
8
BLACK
6
CONTINUOUS
10
2.84354
20
-2.92817
11
2.84534
21
-2.92871
0
LINE
8
BLACK
6
CONTINUOUS
10
2.84534
20
-2.92871
11
2.847
21
-2.9296
0
LINE
8
BLACK
6
CONTINUOUS
10
2.847
20
-2.9296
11
2.84846
21
-2.93079
0
LINE
8
BLACK
6
CONTINUOUS
10
2.84846
20
-2.93079
11
2.84965
21
-2.93225
0
LINE
8
BLACK
6
CONTINUOUS
10
2.84965
20
-2.93225
11
2.85054
21
-2.93391
0
LINE
8
BLACK
6
CONTINUOUS
10
2.85054
20
-2.93391
11
2.85108
21
-2.93571
0
LINE
8
BLACK
6
CONTINUOUS
10
2.85108
20
-2.93571
11
2.85127
21
-2.93758
0
LINE
8
BLACK
6
CONTINUOUS
10
2.85127
20
-2.93758
11
2.85127
21
-2.95677
0
LINE
8
BLACK
6
CONTINUOUS
10
2.85127
20
-2.95677
11
2.85108
21
-2.95865
0
LINE
8
BLACK
6
CONTINUOUS
10
2.85108
20
-2.95865
11
2.85054
21
-2.96045
0
LINE
8
BLACK
6
CONTINUOUS
10
2.85054
20
-2.96045
11
2.84965
21
-2.96211
0
LINE
8
BLACK
6
CONTINUOUS
10
2.84965
20
-2.96211
11
2.84846
21
-2.96356
0
LINE
8
BLACK
6
CONTINUOUS
10
2.84846
20
-2.96356
11
2.847
21
-2.96475
0
LINE
8
BLACK
6
CONTINUOUS
10
2.847
20
-2.96475
11
2.84534
21
-2.96564
0
LINE
8
BLACK
6
CONTINUOUS
10
2.84534
20
-2.96564
11
2.84354
21
-2.96619
0
LINE
8
BLACK
6
CONTINUOUS
10
2.84354
20
-2.96619
11
2.84167
21
-2.96637
0
LINE
8
BLACK
6
CONTINUOUS
10
2.84167
20
-2.96637
11
2.80575
21
-2.96637
0
LINE
8
BLACK
6
CONTINUOUS
10
2.80575
20
-2.96637
11
2.80387
21
-2.96619
0
LINE
8
BLACK
6
CONTINUOUS
10
2.80387
20
-2.96619
11
2.80207
21
-2.96564
0
LINE
8
BLACK
6
CONTINUOUS
10
2.80207
20
-2.96564
11
2.80041
21
-2.96475
0
LINE
8
BLACK
6
CONTINUOUS
10
2.80041
20
-2.96475
11
2.79896
21
-2.96356
0
LINE
8
BLACK
6
CONTINUOUS
10
2.79896
20
-2.96356
11
2.79777
21
-2.96211
0
LINE
8
BLACK
6
CONTINUOUS
10
2.79777
20
-2.96211
11
2.79688
21
-2.96045
0
LINE
8
BLACK
6
CONTINUOUS
10
2.79688
20
-2.96045
11
2.79633
21
-2.95865
0
LINE
8
BLACK
6
CONTINUOUS
10
2.79633
20
-2.95865
11
2.79615
21
-2.95677
0
LINE
8
BLACK
6
CONTINUOUS
10
2.79615
20
-2.95677
11
2.79615
21
-2.93758
0
LINE
8
BLACK
6
CONTINUOUS
10
2.79615
20
-2.93758
11
2.79633
21
-2.93571
0
LINE
8
BLACK
6
CONTINUOUS
10
2.79633
20
-2.93571
11
2.79688
21
-2.93391
0
LINE
8
BLACK
6
CONTINUOUS
10
2.79688
20
-2.93391
11
2.79777
21
-2.93225
0
LINE
8
BLACK
6
CONTINUOUS
10
2.79777
20
-2.93225
11
2.79896
21
-2.93079
0
LINE
8
BLACK
6
CONTINUOUS
10
2.79896
20
-2.93079
11
2.80041
21
-2.9296
0
LINE
8
BLACK
6
CONTINUOUS
10
2.80041
20
-2.9296
11
2.80207
21
-2.92871
0
LINE
8
BLACK
6
CONTINUOUS
10
2.80207
20
-2.92871
11
2.80387
21
-2.92817
0
LINE
8
BLACK
6
CONTINUOUS
10
2.80387
20
-2.92817
11
2.80575
21
-2.92798
0
LINE
8
BLACK
6
CONTINUOUS
10
2.80575
20
-2.92798
11
2.84167
21
-2.92798
0
LINE
8
BLACK
6
CONTINUOUS
10
2.84167
20
-2.92798
11
2.84354
21
-2.92817
0
LINE
8
BLACK
6
CONTINUOUS
10
2.75513
20
-2.92443
11
2.67246
21
-2.92443
0
LINE
8
BLACK
6
CONTINUOUS
10
2.67246
20
-2.92443
11
2.67246
21
-2.85356
0
LINE
8
BLACK
6
CONTINUOUS
10
2.67246
20
-2.85356
11
2.75513
21
-2.85356
0
LINE
8
BLACK
6
CONTINUOUS
10
2.75513
20
-2.85356
11
2.75513
21
-2.92443
0
LINE
8
BLACK
6
CONTINUOUS
10
2.64096
20
-2.92443
11
2.55828
21
-2.92443
0
LINE
8
BLACK
6
CONTINUOUS
10
2.55828
20
-2.92443
11
2.55828
21
-2.85356
0
LINE
8
BLACK
6
CONTINUOUS
10
2.55828
20
-2.85356
11
2.64096
21
-2.85356
0
LINE
8
BLACK
6
CONTINUOUS
10
2.64096
20
-2.85356
11
2.64096
21
-2.92443
0
LINE
8
BLACK
6
CONTINUOUS
10
2.49718
20
-2.86289
11
2.49898
21
-2.86344
0
LINE
8
BLACK
6
CONTINUOUS
10
2.49898
20
-2.86344
11
2.50064
21
-2.86433
0
LINE
8
BLACK
6
CONTINUOUS
10
2.50064
20
-2.86433
11
2.50209
21
-2.86552
0
LINE
8
BLACK
6
CONTINUOUS
10
2.50209
20
-2.86552
11
2.50328
21
-2.86697
0
LINE
8
BLACK
6
CONTINUOUS
10
2.50328
20
-2.86697
11
2.50417
21
-2.86863
0
LINE
8
BLACK
6
CONTINUOUS
10
2.50417
20
-2.86863
11
2.50472
21
-2.87043
0
LINE
8
BLACK
6
CONTINUOUS
10
2.50472
20
-2.87043
11
2.5049
21
-2.87231
0
LINE
8
BLACK
6
CONTINUOUS
10
2.5049
20
-2.87231
11
2.5049
21
-2.90823
0
LINE
8
BLACK
6
CONTINUOUS
10
2.5049
20
-2.90823
11
2.50472
21
-2.9101
0
LINE
8
BLACK
6
CONTINUOUS
10
2.50472
20
-2.9101
11
2.50417
21
-2.9119
0
LINE
8
BLACK
6
CONTINUOUS
10
2.50417
20
-2.9119
11
2.50328
21
-2.91356
0
LINE
8
BLACK
6
CONTINUOUS
10
2.50328
20
-2.91356
11
2.50209
21
-2.91502
0
LINE
8
BLACK
6
CONTINUOUS
10
2.50209
20
-2.91502
11
2.50064
21
-2.91621
0
LINE
8
BLACK
6
CONTINUOUS
10
2.50064
20
-2.91621
11
2.49898
21
-2.9171
0
LINE
8
BLACK
6
CONTINUOUS
10
2.49898
20
-2.9171
11
2.49718
21
-2.91764
0
LINE
8
BLACK
6
CONTINUOUS
10
2.49718
20
-2.91764
11
2.49531
21
-2.91783
0
LINE
8
BLACK
6
CONTINUOUS
10
2.49531
20
-2.91783
11
2.47611
21
-2.91783
0
LINE
8
BLACK
6
CONTINUOUS
10
2.47611
20
-2.91783
11
2.47424
21
-2.91764
0
LINE
8
BLACK
6
CONTINUOUS
10
2.47424
20
-2.91764
11
2.47244
21
-2.9171
0
LINE
8
BLACK
6
CONTINUOUS
10
2.47244
20
-2.9171
11
2.47078
21
-2.91621
0
LINE
8
BLACK
6
CONTINUOUS
10
2.47078
20
-2.91621
11
2.46933
21
-2.91502
0
LINE
8
BLACK
6
CONTINUOUS
10
2.46933
20
-2.91502
11
2.46813
21
-2.91356
0
LINE
8
BLACK
6
CONTINUOUS
10
2.46813
20
-2.91356
11
2.46725
21
-2.9119
0
LINE
8
BLACK
6
CONTINUOUS
10
2.46725
20
-2.9119
11
2.4667
21
-2.9101
0
LINE
8
BLACK
6
CONTINUOUS
10
2.4667
20
-2.9101
11
2.46652
21
-2.90823
0
LINE
8
BLACK
6
CONTINUOUS
10
2.46652
20
-2.90823
11
2.46652
21
-2.87231
0
LINE
8
BLACK
6
CONTINUOUS
10
2.46652
20
-2.87231
11
2.4667
21
-2.87043
0
LINE
8
BLACK
6
CONTINUOUS
10
2.4667
20
-2.87043
11
2.46725
21
-2.86863
0
LINE
8
BLACK
6
CONTINUOUS
10
2.46725
20
-2.86863
11
2.46813
21
-2.86697
0
LINE
8
BLACK
6
CONTINUOUS
10
2.46813
20
-2.86697
11
2.46933
21
-2.86552
0
LINE
8
BLACK
6
CONTINUOUS
10
2.46933
20
-2.86552
11
2.47078
21
-2.86433
0
LINE
8
BLACK
6
CONTINUOUS
10
2.47078
20
-2.86433
11
2.47244
21
-2.86344
0
LINE
8
BLACK
6
CONTINUOUS
10
2.47244
20
-2.86344
11
2.47424
21
-2.86289
0
LINE
8
BLACK
6
CONTINUOUS
10
2.47424
20
-2.86289
11
2.47611
21
-2.86271
0
LINE
8
BLACK
6
CONTINUOUS
10
2.47611
20
-2.86271
11
2.49531
21
-2.86271
0
LINE
8
BLACK
6
CONTINUOUS
10
2.49531
20
-2.86271
11
2.49718
21
-2.86289
0
LINE
8
BLACK
6
CONTINUOUS
10
2.42336
20
-2.86289
11
2.42516
21
-2.86344
0
LINE
8
BLACK
6
CONTINUOUS
10
2.42516
20
-2.86344
11
2.42682
21
-2.86433
0
LINE
8
BLACK
6
CONTINUOUS
10
2.42682
20
-2.86433
11
2.42827
21
-2.86552
0
LINE
8
BLACK
6
CONTINUOUS
10
2.42827
20
-2.86552
11
2.42947
21
-2.86697
0
LINE
8
BLACK
6
CONTINUOUS
10
2.42947
20
-2.86697
11
2.43035
21
-2.86863
0
LINE
8
BLACK
6
CONTINUOUS
10
2.43035
20
-2.86863
11
2.4309
21
-2.87043
0
LINE
8
BLACK
6
CONTINUOUS
10
2.4309
20
-2.87043
11
2.43108
21
-2.87231
0
LINE
8
BLACK
6
CONTINUOUS
10
2.43108
20
-2.87231
11
2.43108
21
-2.90823
0
LINE
8
BLACK
6
CONTINUOUS
10
2.43108
20
-2.90823
11
2.4309
21
-2.9101
0
LINE
8
BLACK
6
CONTINUOUS
10
2.4309
20
-2.9101
11
2.43035
21
-2.9119
0
LINE
8
BLACK
6
CONTINUOUS
10
2.43035
20
-2.9119
11
2.42947
21
-2.91356
0
LINE
8
BLACK
6
CONTINUOUS
10
2.42947
20
-2.91356
11
2.42827
21
-2.91502
0
LINE
8
BLACK
6
CONTINUOUS
10
2.42827
20
-2.91502
11
2.42682
21
-2.91621
0
LINE
8
BLACK
6
CONTINUOUS
10
2.42682
20
-2.91621
11
2.42516
21
-2.9171
0
LINE
8
BLACK
6
CONTINUOUS
10
2.42516
20
-2.9171
11
2.42336
21
-2.91764
0
LINE
8
BLACK
6
CONTINUOUS
10
2.42336
20
-2.91764
11
2.42149
21
-2.91783
0
LINE
8
BLACK
6
CONTINUOUS
10
2.42149
20
-2.91783
11
2.40229
21
-2.91783
0
LINE
8
BLACK
6
CONTINUOUS
10
2.40229
20
-2.91783
11
2.40042
21
-2.91764
0
LINE
8
BLACK
6
CONTINUOUS
10
2.40042
20
-2.91764
11
2.39862
21
-2.9171
0
LINE
8
BLACK
6
CONTINUOUS
10
2.39862
20
-2.9171
11
2.39696
21
-2.91621
0
LINE
8
BLACK
6
CONTINUOUS
10
2.39696
20
-2.91621
11
2.39551
21
-2.91502
0
LINE
8
BLACK
6
CONTINUOUS
10
2.39551
20
-2.91502
11
2.39431
21
-2.91356
0
LINE
8
BLACK
6
CONTINUOUS
10
2.39431
20
-2.91356
11
2.39343
21
-2.9119
0
LINE
8
BLACK
6
CONTINUOUS
10
2.39343
20
-2.9119
11
2.39288
21
-2.9101
0
LINE
8
BLACK
6
CONTINUOUS
10
2.39288
20
-2.9101
11
2.3927
21
-2.90823
0
LINE
8
BLACK
6
CONTINUOUS
10
2.3927
20
-2.90823
11
2.3927
21
-2.87231
0
LINE
8
BLACK
6
CONTINUOUS
10
2.3927
20
-2.87231
11
2.39288
21
-2.87043
0
LINE
8
BLACK
6
CONTINUOUS
10
2.39288
20
-2.87043
11
2.39343
21
-2.86863
0
LINE
8
BLACK
6
CONTINUOUS
10
2.39343
20
-2.86863
11
2.39431
21
-2.86697
0
LINE
8
BLACK
6
CONTINUOUS
10
2.39431
20
-2.86697
11
2.39551
21
-2.86552
0
LINE
8
BLACK
6
CONTINUOUS
10
2.39551
20
-2.86552
11
2.39696
21
-2.86433
0
LINE
8
BLACK
6
CONTINUOUS
10
2.39696
20
-2.86433
11
2.39862
21
-2.86344
0
LINE
8
BLACK
6
CONTINUOUS
10
2.39862
20
-2.86344
11
2.40042
21
-2.86289
0
LINE
8
BLACK
6
CONTINUOUS
10
2.40042
20
-2.86289
11
2.40229
21
-2.86271
0
LINE
8
BLACK
6
CONTINUOUS
10
2.40229
20
-2.86271
11
2.42149
21
-2.86271
0
LINE
8
BLACK
6
CONTINUOUS
10
2.42149
20
-2.86271
11
2.42336
21
-2.86289
0
LINE
8
BLACK
6
CONTINUOUS
10
2.35654
20
-2.86335
11
2.35834
21
-2.8639
0
LINE
8
BLACK
6
CONTINUOUS
10
2.35834
20
-2.8639
11
2.36
21
-2.86478
0
LINE
8
BLACK
6
CONTINUOUS
10
2.36
20
-2.86478
11
2.36146
21
-2.86598
0
LINE
8
BLACK
6
CONTINUOUS
10
2.36146
20
-2.86598
11
2.36265
21
-2.86743
0
LINE
8
BLACK
6
CONTINUOUS
10
2.36265
20
-2.86743
11
2.36354
21
-2.86909
0
LINE
8
BLACK
6
CONTINUOUS
10
2.36354
20
-2.86909
11
2.36408
21
-2.87089
0
LINE
8
BLACK
6
CONTINUOUS
10
2.36408
20
-2.87089
11
2.36427
21
-2.87276
0
LINE
8
BLACK
6
CONTINUOUS
10
2.36427
20
-2.87276
11
2.36427
21
-2.89195
0
LINE
8
BLACK
6
CONTINUOUS
10
2.36427
20
-2.89195
11
2.36408
21
-2.89383
0
LINE
8
BLACK
6
CONTINUOUS
10
2.36408
20
-2.89383
11
2.36354
21
-2.89563
0
LINE
8
BLACK
6
CONTINUOUS
10
2.36354
20
-2.89563
11
2.36265
21
-2.89729
0
LINE
8
BLACK
6
CONTINUOUS
10
2.36265
20
-2.89729
11
2.36146
21
-2.89874
0
LINE
8
BLACK
6
CONTINUOUS
10
2.36146
20
-2.89874
11
2.36
21
-2.89993
0
LINE
8
BLACK
6
CONTINUOUS
10
2.36
20
-2.89993
11
2.35834
21
-2.90082
0
LINE
8
BLACK
6
CONTINUOUS
10
2.35834
20
-2.90082
11
2.35654
21
-2.90137
0
LINE
8
BLACK
6
CONTINUOUS
10
2.35654
20
-2.90137
11
2.35467
21
-2.90155
0
LINE
8
BLACK
6
CONTINUOUS
10
2.35467
20
-2.90155
11
2.31875
21
-2.90155
0
LINE
8
BLACK
6
CONTINUOUS
10
2.31875
20
-2.90155
11
2.31687
21
-2.90137
0
LINE
8
BLACK
6
CONTINUOUS
10
2.31687
20
-2.90137
11
2.31507
21
-2.90082
0
LINE
8
BLACK
6
CONTINUOUS
10
2.31507
20
-2.90082
11
2.31341
21
-2.89993
0
LINE
8
BLACK
6
CONTINUOUS
10
2.31341
20
-2.89993
11
2.31196
21
-2.89874
0
LINE
8
BLACK
6
CONTINUOUS
10
2.31196
20
-2.89874
11
2.31077
21
-2.89729
0
LINE
8
BLACK
6
CONTINUOUS
10
2.31077
20
-2.89729
11
2.30988
21
-2.89563
0
LINE
8
BLACK
6
CONTINUOUS
10
2.30988
20
-2.89563
11
2.30933
21
-2.89383
0
LINE
8
BLACK
6
CONTINUOUS
10
2.30933
20
-2.89383
11
2.30915
21
-2.89195
0
LINE
8
BLACK
6
CONTINUOUS
10
2.30915
20
-2.89195
11
2.30915
21
-2.87276
0
LINE
8
BLACK
6
CONTINUOUS
10
2.30915
20
-2.87276
11
2.30933
21
-2.87089
0
LINE
8
BLACK
6
CONTINUOUS
10
2.30933
20
-2.87089
11
2.30988
21
-2.86909
0
LINE
8
BLACK
6
CONTINUOUS
10
2.30988
20
-2.86909
11
2.31077
21
-2.86743
0
LINE
8
BLACK
6
CONTINUOUS
10
2.31077
20
-2.86743
11
2.31196
21
-2.86598
0
LINE
8
BLACK
6
CONTINUOUS
10
2.31196
20
-2.86598
11
2.31341
21
-2.86478
0
LINE
8
BLACK
6
CONTINUOUS
10
2.31341
20
-2.86478
11
2.31507
21
-2.8639
0
LINE
8
BLACK
6
CONTINUOUS
10
2.31507
20
-2.8639
11
2.31687
21
-2.86335
0
LINE
8
BLACK
6
CONTINUOUS
10
2.31687
20
-2.86335
11
2.31875
21
-2.86317
0
LINE
8
BLACK
6
CONTINUOUS
10
2.31875
20
-2.86317
11
2.35467
21
-2.86317
0
LINE
8
BLACK
6
CONTINUOUS
10
2.35467
20
-2.86317
11
2.35654
21
-2.86335
0
LINE
8
BLACK
6
CONTINUOUS
10
2.84354
20
-2.85435
11
2.84534
21
-2.8549
0
LINE
8
BLACK
6
CONTINUOUS
10
2.84534
20
-2.8549
11
2.847
21
-2.85578
0
LINE
8
BLACK
6
CONTINUOUS
10
2.847
20
-2.85578
11
2.84846
21
-2.85698
0
LINE
8
BLACK
6
CONTINUOUS
10
2.84846
20
-2.85698
11
2.84965
21
-2.85843
0
LINE
8
BLACK
6
CONTINUOUS
10
2.84965
20
-2.85843
11
2.85054
21
-2.86009
0
LINE
8
BLACK
6
CONTINUOUS
10
2.85054
20
-2.86009
11
2.85108
21
-2.86189
0
LINE
8
BLACK
6
CONTINUOUS
10
2.85108
20
-2.86189
11
2.85127
21
-2.86376
0
LINE
8
BLACK
6
CONTINUOUS
10
2.85127
20
-2.86376
11
2.85127
21
-2.88295
0
LINE
8
BLACK
6
CONTINUOUS
10
2.85127
20
-2.88295
11
2.85108
21
-2.88483
0
LINE
8
BLACK
6
CONTINUOUS
10
2.85108
20
-2.88483
11
2.85054
21
-2.88663
0
LINE
8
BLACK
6
CONTINUOUS
10
2.85054
20
-2.88663
11
2.84965
21
-2.88829
0
LINE
8
BLACK
6
CONTINUOUS
10
2.84965
20
-2.88829
11
2.84846
21
-2.88974
0
LINE
8
BLACK
6
CONTINUOUS
10
2.84846
20
-2.88974
11
2.847
21
-2.89093
0
LINE
8
BLACK
6
CONTINUOUS
10
2.847
20
-2.89093
11
2.84534
21
-2.89182
0
LINE
8
BLACK
6
CONTINUOUS
10
2.84534
20
-2.89182
11
2.84354
21
-2.89237
0
LINE
8
BLACK
6
CONTINUOUS
10
2.84354
20
-2.89237
11
2.84167
21
-2.89255
0
LINE
8
BLACK
6
CONTINUOUS
10
2.84167
20
-2.89255
11
2.80575
21
-2.89255
0
LINE
8
BLACK
6
CONTINUOUS
10
2.80575
20
-2.89255
11
2.80387
21
-2.89237
0
LINE
8
BLACK
6
CONTINUOUS
10
2.80387
20
-2.89237
11
2.80207
21
-2.89182
0
LINE
8
BLACK
6
CONTINUOUS
10
2.80207
20
-2.89182
11
2.80041
21
-2.89093
0
LINE
8
BLACK
6
CONTINUOUS
10
2.80041
20
-2.89093
11
2.79896
21
-2.88974
0
LINE
8
BLACK
6
CONTINUOUS
10
2.79896
20
-2.88974
11
2.79777
21
-2.88829
0
LINE
8
BLACK
6
CONTINUOUS
10
2.79777
20
-2.88829
11
2.79688
21
-2.88663
0
LINE
8
BLACK
6
CONTINUOUS
10
2.79688
20
-2.88663
11
2.79633
21
-2.88483
0
LINE
8
BLACK
6
CONTINUOUS
10
2.79633
20
-2.88483
11
2.79615
21
-2.88295
0
LINE
8
BLACK
6
CONTINUOUS
10
2.79615
20
-2.88295
11
2.79615
21
-2.86376
0
LINE
8
BLACK
6
CONTINUOUS
10
2.79615
20
-2.86376
11
2.79633
21
-2.86189
0
LINE
8
BLACK
6
CONTINUOUS
10
2.79633
20
-2.86189
11
2.79688
21
-2.86009
0
LINE
8
BLACK
6
CONTINUOUS
10
2.79688
20
-2.86009
11
2.79777
21
-2.85843
0
LINE
8
BLACK
6
CONTINUOUS
10
2.79777
20
-2.85843
11
2.79896
21
-2.85698
0
LINE
8
BLACK
6
CONTINUOUS
10
2.79896
20
-2.85698
11
2.80041
21
-2.85578
0
LINE
8
BLACK
6
CONTINUOUS
10
2.80041
20
-2.85578
11
2.80207
21
-2.8549
0
LINE
8
BLACK
6
CONTINUOUS
10
2.80207
20
-2.8549
11
2.80387
21
-2.85435
0
LINE
8
BLACK
6
CONTINUOUS
10
2.80387
20
-2.85435
11
2.80575
21
-2.85417
0
LINE
8
BLACK
6
CONTINUOUS
10
2.80575
20
-2.85417
11
2.84167
21
-2.85417
0
LINE
8
BLACK
6
CONTINUOUS
10
2.84167
20
-2.85417
11
2.84354
21
-2.85435
0
LINE
8
BLACK
6
CONTINUOUS
10
2.66257
20
-2.81257
11
2.64091
21
-2.81257
0
LINE
8
BLACK
6
CONTINUOUS
10
2.64091
20
-2.81257
11
2.64091
21
-2.75352
0
LINE
8
BLACK
6
CONTINUOUS
10
2.64091
20
-2.75352
11
2.66257
21
-2.75352
0
LINE
8
BLACK
6
CONTINUOUS
10
2.66257
20
-2.75352
11
2.66257
21
-2.81257
0
LINE
8
BLACK
6
CONTINUOUS
10
2.63107
20
-2.81257
11
2.60942
21
-2.81257
0
LINE
8
BLACK
6
CONTINUOUS
10
2.60942
20
-2.81257
11
2.60942
21
-2.75352
0
LINE
8
BLACK
6
CONTINUOUS
10
2.60942
20
-2.75352
11
2.63107
21
-2.75352
0
LINE
8
BLACK
6
CONTINUOUS
10
2.63107
20
-2.75352
11
2.63107
21
-2.81257
0
LINE
8
BLACK
6
CONTINUOUS
10
2.59957
20
-2.81257
11
2.57792
21
-2.81257
0
LINE
8
BLACK
6
CONTINUOUS
10
2.57792
20
-2.81257
11
2.57792
21
-2.75352
0
LINE
8
BLACK
6
CONTINUOUS
10
2.57792
20
-2.75352
11
2.59957
21
-2.75352
0
LINE
8
BLACK
6
CONTINUOUS
10
2.59957
20
-2.75352
11
2.59957
21
-2.81257
0
LINE
8
BLACK
6
CONTINUOUS
10
2.56808
20
-2.81257
11
2.54643
21
-2.81257
0
LINE
8
BLACK
6
CONTINUOUS
10
2.54643
20
-2.81257
11
2.54643
21
-2.75352
0
LINE
8
BLACK
6
CONTINUOUS
10
2.54643
20
-2.75352
11
2.56808
21
-2.75352
0
LINE
8
BLACK
6
CONTINUOUS
10
2.56808
20
-2.75352
11
2.56808
21
-2.81257
0
LINE
8
BLACK
6
CONTINUOUS
10
2.53658
20
-2.81257
11
2.51493
21
-2.81257
0
LINE
8
BLACK
6
CONTINUOUS
10
2.51493
20
-2.81257
11
2.51493
21
-2.75352
0
LINE
8
BLACK
6
CONTINUOUS
10
2.51493
20
-2.75352
11
2.53658
21
-2.75352
0
LINE
8
BLACK
6
CONTINUOUS
10
2.53658
20
-2.75352
11
2.53658
21
-2.81257
0
LINE
8
BLACK
6
CONTINUOUS
10
2.50509
20
-2.81257
11
2.48343
21
-2.81257
0
LINE
8
BLACK
6
CONTINUOUS
10
2.48343
20
-2.81257
11
2.48343
21
-2.75352
0
LINE
8
BLACK
6
CONTINUOUS
10
2.48343
20
-2.75352
11
2.50509
21
-2.75352
0
LINE
8
BLACK
6
CONTINUOUS
10
2.50509
20
-2.75352
11
2.50509
21
-2.81257
0
LINE
8
BLACK
6
CONTINUOUS
10
2.47359
20
-2.81257
11
2.45194
21
-2.81257
0
LINE
8
BLACK
6
CONTINUOUS
10
2.45194
20
-2.81257
11
2.45194
21
-2.75352
0
LINE
8
BLACK
6
CONTINUOUS
10
2.45194
20
-2.75352
11
2.47359
21
-2.75352
0
LINE
8
BLACK
6
CONTINUOUS
10
2.47359
20
-2.75352
11
2.47359
21
-2.81257
0
LINE
8
BLACK
6
CONTINUOUS
10
2.44209
20
-2.81257
11
2.42044
21
-2.81257
0
LINE
8
BLACK
6
CONTINUOUS
10
2.42044
20
-2.81257
11
2.42044
21
-2.75352
0
LINE
8
BLACK
6
CONTINUOUS
10
2.42044
20
-2.75352
11
2.44209
21
-2.75352
0
LINE
8
BLACK
6
CONTINUOUS
10
2.44209
20
-2.75352
11
2.44209
21
-2.81257
0
LINE
8
BLACK
6
CONTINUOUS
10
2.4106
20
-2.81257
11
2.38894
21
-2.81257
0
LINE
8
BLACK
6
CONTINUOUS
10
2.38894
20
-2.81257
11
2.38894
21
-2.75352
0
LINE
8
BLACK
6
CONTINUOUS
10
2.38894
20
-2.75352
11
2.4106
21
-2.75352
0
LINE
8
BLACK
6
CONTINUOUS
10
2.4106
20
-2.75352
11
2.4106
21
-2.81257
0
LINE
8
BLACK
6
CONTINUOUS
10
2.69406
20
-2.81257
11
2.67241
21
-2.81257
0
LINE
8
BLACK
6
CONTINUOUS
10
2.67241
20
-2.81257
11
2.67241
21
-2.75352
0
LINE
8
BLACK
6
CONTINUOUS
10
2.67241
20
-2.75352
11
2.69406
21
-2.75352
0
LINE
8
BLACK
6
CONTINUOUS
10
2.69406
20
-2.75352
11
2.69406
21
-2.81257
0
LINE
8
BLACK
6
CONTINUOUS
10
2.72556
20
-2.81257
11
2.70391
21
-2.81257
0
LINE
8
BLACK
6
CONTINUOUS
10
2.70391
20
-2.81257
11
2.70391
21
-2.75352
0
LINE
8
BLACK
6
CONTINUOUS
10
2.70391
20
-2.75352
11
2.72556
21
-2.75352
0
LINE
8
BLACK
6
CONTINUOUS
10
2.72556
20
-2.75352
11
2.72556
21
-2.81257
0
LINE
8
BLACK
6
CONTINUOUS
10
2.88299
20
-2.76158
11
2.88479
21
-2.76212
0
LINE
8
BLACK
6
CONTINUOUS
10
2.88479
20
-2.76212
11
2.88645
21
-2.76301
0
LINE
8
BLACK
6
CONTINUOUS
10
2.88645
20
-2.76301
11
2.88791
21
-2.7642
0
LINE
8
BLACK
6
CONTINUOUS
10
2.88791
20
-2.7642
11
2.8891
21
-2.76566
0
LINE
8
BLACK
6
CONTINUOUS
10
2.8891
20
-2.76566
11
2.88999
21
-2.76732
0
LINE
8
BLACK
6
CONTINUOUS
10
2.88999
20
-2.76732
11
2.89053
21
-2.76912
0
LINE
8
BLACK
6
CONTINUOUS
10
2.89053
20
-2.76912
11
2.89072
21
-2.77099
0
LINE
8
BLACK
6
CONTINUOUS
10
2.89072
20
-2.77099
11
2.89072
21
-2.79018
0
LINE
8
BLACK
6
CONTINUOUS
10
2.89072
20
-2.79018
11
2.89053
21
-2.79206
0
LINE
8
BLACK
6
CONTINUOUS
10
2.89053
20
-2.79206
11
2.88999
21
-2.79386
0
LINE
8
BLACK
6
CONTINUOUS
10
2.88999
20
-2.79386
11
2.8891
21
-2.79551
0
LINE
8
BLACK
6
CONTINUOUS
10
2.8891
20
-2.79551
11
2.88791
21
-2.79697
0
LINE
8
BLACK
6
CONTINUOUS
10
2.88791
20
-2.79697
11
2.88645
21
-2.79816
0
LINE
8
BLACK
6
CONTINUOUS
10
2.88645
20
-2.79816
11
2.88479
21
-2.79905
0
LINE
8
BLACK
6
CONTINUOUS
10
2.88479
20
-2.79905
11
2.88299
21
-2.7996
0
LINE
8
BLACK
6
CONTINUOUS
10
2.88299
20
-2.7996
11
2.88112
21
-2.79978
0
LINE
8
BLACK
6
CONTINUOUS
10
2.88112
20
-2.79978
11
2.84519
21
-2.79978
0
LINE
8
BLACK
6
CONTINUOUS
10
2.84519
20
-2.79978
11
2.84332
21
-2.7996
0
LINE
8
BLACK
6
CONTINUOUS
10
2.84332
20
-2.7996
11
2.84152
21
-2.79905
0
LINE
8
BLACK
6
CONTINUOUS
10
2.84152
20
-2.79905
11
2.83986
21
-2.79816
0
LINE
8
BLACK
6
CONTINUOUS
10
2.83986
20
-2.79816
11
2.83841
21
-2.79697
0
LINE
8
BLACK
6
CONTINUOUS
10
2.83841
20
-2.79697
11
2.83722
21
-2.79551
0
LINE
8
BLACK
6
CONTINUOUS
10
2.83722
20
-2.79551
11
2.83633
21
-2.79386
0
LINE
8
BLACK
6
CONTINUOUS
10
2.83633
20
-2.79386
11
2.83578
21
-2.79206
0
LINE
8
BLACK
6
CONTINUOUS
10
2.83578
20
-2.79206
11
2.8356
21
-2.79018
0
LINE
8
BLACK
6
CONTINUOUS
10
2.8356
20
-2.79018
11
2.8356
21
-2.77099
0
LINE
8
BLACK
6
CONTINUOUS
10
2.8356
20
-2.77099
11
2.83578
21
-2.76912
0
LINE
8
BLACK
6
CONTINUOUS
10
2.83578
20
-2.76912
11
2.83633
21
-2.76732
0
LINE
8
BLACK
6
CONTINUOUS
10
2.83633
20
-2.76732
11
2.83722
21
-2.76566
0
LINE
8
BLACK
6
CONTINUOUS
10
2.83722
20
-2.76566
11
2.83841
21
-2.7642
0
LINE
8
BLACK
6
CONTINUOUS
10
2.83841
20
-2.7642
11
2.83986
21
-2.76301
0
LINE
8
BLACK
6
CONTINUOUS
10
2.83986
20
-2.76301
11
2.84152
21
-2.76212
0
LINE
8
BLACK
6
CONTINUOUS
10
2.84152
20
-2.76212
11
2.84332
21
-2.76158
0
LINE
8
BLACK
6
CONTINUOUS
10
2.84332
20
-2.76158
11
2.84519
21
-2.76139
0
LINE
8
BLACK
6
CONTINUOUS
10
2.84519
20
-2.76139
11
2.88112
21
-2.76139
0
LINE
8
BLACK
6
CONTINUOUS
10
2.88112
20
-2.76139
11
2.88299
21
-2.76158
0
LINE
8
BLACK
6
CONTINUOUS
10
2.36237
20
-2.72694
11
2.30331
21
-2.72694
0
LINE
8
BLACK
6
CONTINUOUS
10
2.30331
20
-2.72694
11
2.30331
21
-2.70529
0
LINE
8
BLACK
6
CONTINUOUS
10
2.30331
20
-2.70529
11
2.36237
21
-2.70529
0
LINE
8
BLACK
6
CONTINUOUS
10
2.36237
20
-2.70529
11
2.36237
21
-2.72694
0
LINE
8
BLACK
6
CONTINUOUS
10
2.81119
20
-2.72694
11
2.75213
21
-2.72694
0
LINE
8
BLACK
6
CONTINUOUS
10
2.75213
20
-2.72694
11
2.75213
21
-2.70529
0
LINE
8
BLACK
6
CONTINUOUS
10
2.75213
20
-2.70529
11
2.81119
21
-2.70529
0
LINE
8
BLACK
6
CONTINUOUS
10
2.81119
20
-2.70529
11
2.81119
21
-2.72694
0
LINE
8
BLACK
6
CONTINUOUS
10
2.88299
20
-2.68776
11
2.88479
21
-2.68831
0
LINE
8
BLACK
6
CONTINUOUS
10
2.88479
20
-2.68831
11
2.88645
21
-2.68919
0
LINE
8
BLACK
6
CONTINUOUS
10
2.88645
20
-2.68919
11
2.88791
21
-2.69039
0
LINE
8
BLACK
6
CONTINUOUS
10
2.88791
20
-2.69039
11
2.8891
21
-2.69184
0
LINE
8
BLACK
6
CONTINUOUS
10
2.8891
20
-2.69184
11
2.88999
21
-2.6935
0
LINE
8
BLACK
6
CONTINUOUS
10
2.88999
20
-2.6935
11
2.89053
21
-2.6953
0
LINE
8
BLACK
6
CONTINUOUS
10
2.89053
20
-2.6953
11
2.89072
21
-2.69717
0
LINE
8
BLACK
6
CONTINUOUS
10
2.89072
20
-2.69717
11
2.89072
21
-2.71636
0
LINE
8
BLACK
6
CONTINUOUS
10
2.89072
20
-2.71636
11
2.89053
21
-2.71824
0
LINE
8
BLACK
6
CONTINUOUS
10
2.89053
20
-2.71824
11
2.88999
21
-2.72004
0
LINE
8
BLACK
6
CONTINUOUS
10
2.88999
20
-2.72004
11
2.8891
21
-2.7217
0
LINE
8
BLACK
6
CONTINUOUS
10
2.8891
20
-2.7217
11
2.88791
21
-2.72315
0
LINE
8
BLACK
6
CONTINUOUS
10
2.88791
20
-2.72315
11
2.88645
21
-2.72434
0
LINE
8
BLACK
6
CONTINUOUS
10
2.88645
20
-2.72434
11
2.88479
21
-2.72523
0
LINE
8
BLACK
6
CONTINUOUS
10
2.88479
20
-2.72523
11
2.88299
21
-2.72578
0
LINE
8
BLACK
6
CONTINUOUS
10
2.88299
20
-2.72578
11
2.88112
21
-2.72596
0
LINE
8
BLACK
6
CONTINUOUS
10
2.88112
20
-2.72596
11
2.84519
21
-2.72596
0
LINE
8
BLACK
6
CONTINUOUS
10
2.84519
20
-2.72596
11
2.84332
21
-2.72578
0
LINE
8
BLACK
6
CONTINUOUS
10
2.84332
20
-2.72578
11
2.84152
21
-2.72523
0
LINE
8
BLACK
6
CONTINUOUS
10
2.84152
20
-2.72523
11
2.83986
21
-2.72434
0
LINE
8
BLACK
6
CONTINUOUS
10
2.83986
20
-2.72434
11
2.83841
21
-2.72315
0
LINE
8
BLACK
6
CONTINUOUS
10
2.83841
20
-2.72315
11
2.83722
21
-2.7217
0
LINE
8
BLACK
6
CONTINUOUS
10
2.83722
20
-2.7217
11
2.83633
21
-2.72004
0
LINE
8
BLACK
6
CONTINUOUS
10
2.83633
20
-2.72004
11
2.83578
21
-2.71824
0
LINE
8
BLACK
6
CONTINUOUS
10
2.83578
20
-2.71824
11
2.8356
21
-2.71636
0
LINE
8
BLACK
6
CONTINUOUS
10
2.8356
20
-2.71636
11
2.8356
21
-2.69717
0
LINE
8
BLACK
6
CONTINUOUS
10
2.8356
20
-2.69717
11
2.83578
21
-2.6953
0
LINE
8
BLACK
6
CONTINUOUS
10
2.83578
20
-2.6953
11
2.83633
21
-2.6935
0
LINE
8
BLACK
6
CONTINUOUS
10
2.83633
20
-2.6935
11
2.83722
21
-2.69184
0
LINE
8
BLACK
6
CONTINUOUS
10
2.83722
20
-2.69184
11
2.83841
21
-2.69039
0
LINE
8
BLACK
6
CONTINUOUS
10
2.83841
20
-2.69039
11
2.83986
21
-2.68919
0
LINE
8
BLACK
6
CONTINUOUS
10
2.83986
20
-2.68919
11
2.84152
21
-2.68831
0
LINE
8
BLACK
6
CONTINUOUS
10
2.84152
20
-2.68831
11
2.84332
21
-2.68776
0
LINE
8
BLACK
6
CONTINUOUS
10
2.84332
20
-2.68776
11
2.84519
21
-2.68757
0
LINE
8
BLACK
6
CONTINUOUS
10
2.84519
20
-2.68757
11
2.88112
21
-2.68757
0
LINE
8
BLACK
6
CONTINUOUS
10
2.88112
20
-2.68757
11
2.88299
21
-2.68776
0
LINE
8
BLACK
6
CONTINUOUS
10
2.36237
20
-2.69545
11
2.30331
21
-2.69545
0
LINE
8
BLACK
6
CONTINUOUS
10
2.30331
20
-2.69545
11
2.30331
21
-2.6738
0
LINE
8
BLACK
6
CONTINUOUS
10
2.30331
20
-2.6738
11
2.36237
21
-2.6738
0
LINE
8
BLACK
6
CONTINUOUS
10
2.36237
20
-2.6738
11
2.36237
21
-2.69545
0
LINE
8
BLACK
6
CONTINUOUS
10
2.81119
20
-2.69545
11
2.75213
21
-2.69545
0
LINE
8
BLACK
6
CONTINUOUS
10
2.75213
20
-2.69545
11
2.75213
21
-2.6738
0
LINE
8
BLACK
6
CONTINUOUS
10
2.75213
20
-2.6738
11
2.81119
21
-2.6738
0
LINE
8
BLACK
6
CONTINUOUS
10
2.81119
20
-2.6738
11
2.81119
21
-2.69545
0
LINE
8
BLACK
6
CONTINUOUS
10
2.26454
20
-2.63017
11
2.26634
21
-2.63071
0
LINE
8
BLACK
6
CONTINUOUS
10
2.26634
20
-2.63071
11
2.268
21
-2.6316
0
LINE
8
BLACK
6
CONTINUOUS
10
2.268
20
-2.6316
11
2.26946
21
-2.63279
0
LINE
8
BLACK
6
CONTINUOUS
10
2.26946
20
-2.63279
11
2.27065
21
-2.63425
0
LINE
8
BLACK
6
CONTINUOUS
10
2.27065
20
-2.63425
11
2.27154
21
-2.63591
0
LINE
8
BLACK
6
CONTINUOUS
10
2.27154
20
-2.63591
11
2.27208
21
-2.63771
0
LINE
8
BLACK
6
CONTINUOUS
10
2.27208
20
-2.63771
11
2.27227
21
-2.63958
0
LINE
8
BLACK
6
CONTINUOUS
10
2.27227
20
-2.63958
11
2.27227
21
-2.65877
0
LINE
8
BLACK
6
CONTINUOUS
10
2.27227
20
-2.65877
11
2.27208
21
-2.66065
0
LINE
8
BLACK
6
CONTINUOUS
10
2.27208
20
-2.66065
11
2.27154
21
-2.66245
0
LINE
8
BLACK
6
CONTINUOUS
10
2.27154
20
-2.66245
11
2.27065
21
-2.66411
0
LINE
8
BLACK
6
CONTINUOUS
10
2.27065
20
-2.66411
11
2.26946
21
-2.66556
0
LINE
8
BLACK
6
CONTINUOUS
10
2.26946
20
-2.66556
11
2.268
21
-2.66675
0
LINE
8
BLACK
6
CONTINUOUS
10
2.268
20
-2.66675
11
2.26634
21
-2.66764
0
LINE
8
BLACK
6
CONTINUOUS
10
2.26634
20
-2.66764
11
2.26454
21
-2.66819
0
LINE
8
BLACK
6
CONTINUOUS
10
2.26454
20
-2.66819
11
2.26267
21
-2.66837
0
LINE
8
BLACK
6
CONTINUOUS
10
2.26267
20
-2.66837
11
2.22675
21
-2.66837
0
LINE
8
BLACK
6
CONTINUOUS
10
2.22675
20
-2.66837
11
2.22487
21
-2.66819
0
LINE
8
BLACK
6
CONTINUOUS
10
2.22487
20
-2.66819
11
2.22307
21
-2.66764
0
LINE
8
BLACK
6
CONTINUOUS
10
2.22307
20
-2.66764
11
2.22141
21
-2.66675
0
LINE
8
BLACK
6
CONTINUOUS
10
2.22141
20
-2.66675
11
2.21996
21
-2.66556
0
LINE
8
BLACK
6
CONTINUOUS
10
2.21996
20
-2.66556
11
2.21877
21
-2.66411
0
LINE
8
BLACK
6
CONTINUOUS
10
2.21877
20
-2.66411
11
2.21788
21
-2.66245
0
LINE
8
BLACK
6
CONTINUOUS
10
2.21788
20
-2.66245
11
2.21733
21
-2.66065
0
LINE
8
BLACK
6
CONTINUOUS
10
2.21733
20
-2.66065
11
2.21715
21
-2.65877
0
LINE
8
BLACK
6
CONTINUOUS
10
2.21715
20
-2.65877
11
2.21715
21
-2.63958
0
LINE
8
BLACK
6
CONTINUOUS
10
2.21715
20
-2.63958
11
2.21733
21
-2.63771
0
LINE
8
BLACK
6
CONTINUOUS
10
2.21733
20
-2.63771
11
2.21788
21
-2.63591
0
LINE
8
BLACK
6
CONTINUOUS
10
2.21788
20
-2.63591
11
2.21877
21
-2.63425
0
LINE
8
BLACK
6
CONTINUOUS
10
2.21877
20
-2.63425
11
2.21996
21
-2.63279
0
LINE
8
BLACK
6
CONTINUOUS
10
2.21996
20
-2.63279
11
2.22141
21
-2.6316
0
LINE
8
BLACK
6
CONTINUOUS
10
2.22141
20
-2.6316
11
2.22307
21
-2.63071
0
LINE
8
BLACK
6
CONTINUOUS
10
2.22307
20
-2.63071
11
2.22487
21
-2.63017
0
LINE
8
BLACK
6
CONTINUOUS
10
2.22487
20
-2.63017
11
2.22675
21
-2.62998
0
LINE
8
BLACK
6
CONTINUOUS
10
2.22675
20
-2.62998
11
2.26267
21
-2.62998
0
LINE
8
BLACK
6
CONTINUOUS
10
2.26267
20
-2.62998
11
2.26454
21
-2.63017
0
LINE
8
BLACK
6
CONTINUOUS
10
2.36237
20
-2.66395
11
2.30331
21
-2.66395
0
LINE
8
BLACK
6
CONTINUOUS
10
2.30331
20
-2.66395
11
2.30331
21
-2.6423
0
LINE
8
BLACK
6
CONTINUOUS
10
2.30331
20
-2.6423
11
2.36237
21
-2.6423
0
LINE
8
BLACK
6
CONTINUOUS
10
2.36237
20
-2.6423
11
2.36237
21
-2.66395
0
LINE
8
BLACK
6
CONTINUOUS
10
2.81119
20
-2.66395
11
2.75213
21
-2.66395
0
LINE
8
BLACK
6
CONTINUOUS
10
2.75213
20
-2.66395
11
2.75213
21
-2.6423
0
LINE
8
BLACK
6
CONTINUOUS
10
2.75213
20
-2.6423
11
2.81119
21
-2.6423
0
LINE
8
BLACK
6
CONTINUOUS
10
2.81119
20
-2.6423
11
2.81119
21
-2.66395
0
LINE
8
BLACK
6
CONTINUOUS
10
2.36237
20
-2.63246
11
2.30331
21
-2.63246
0
LINE
8
BLACK
6
CONTINUOUS
10
2.30331
20
-2.63246
11
2.30331
21
-2.6108
0
LINE
8
BLACK
6
CONTINUOUS
10
2.30331
20
-2.6108
11
2.36237
21
-2.6108
0
LINE
8
BLACK
6
CONTINUOUS
10
2.36237
20
-2.6108
11
2.36237
21
-2.63246
0
LINE
8
BLACK
6
CONTINUOUS
10
2.81119
20
-2.63246
11
2.75213
21
-2.63246
0
LINE
8
BLACK
6
CONTINUOUS
10
2.75213
20
-2.63246
11
2.75213
21
-2.6108
0
LINE
8
BLACK
6
CONTINUOUS
10
2.75213
20
-2.6108
11
2.81119
21
-2.6108
0
LINE
8
BLACK
6
CONTINUOUS
10
2.81119
20
-2.6108
11
2.81119
21
-2.63246
0
LINE
8
BLACK
6
CONTINUOUS
10
2.36237
20
-2.60096
11
2.30331
21
-2.60096
0
LINE
8
BLACK
6
CONTINUOUS
10
2.30331
20
-2.60096
11
2.30331
21
-2.57931
0
LINE
8
BLACK
6
CONTINUOUS
10
2.30331
20
-2.57931
11
2.36237
21
-2.57931
0
LINE
8
BLACK
6
CONTINUOUS
10
2.36237
20
-2.57931
11
2.36237
21
-2.60096
0
LINE
8
BLACK
6
CONTINUOUS
10
2.81119
20
-2.60096
11
2.75213
21
-2.60096
0
LINE
8
BLACK
6
CONTINUOUS
10
2.75213
20
-2.60096
11
2.75213
21
-2.57931
0
LINE
8
BLACK
6
CONTINUOUS
10
2.75213
20
-2.57931
11
2.81119
21
-2.57931
0
LINE
8
BLACK
6
CONTINUOUS
10
2.81119
20
-2.57931
11
2.81119
21
-2.60096
0
LINE
8
BLACK
6
CONTINUOUS
10
2.26454
20
-2.55635
11
2.26634
21
-2.5569
0
LINE
8
BLACK
6
CONTINUOUS
10
2.26634
20
-2.5569
11
2.268
21
-2.55778
0
LINE
8
BLACK
6
CONTINUOUS
10
2.268
20
-2.55778
11
2.26946
21
-2.55898
0
LINE
8
BLACK
6
CONTINUOUS
10
2.26946
20
-2.55898
11
2.27065
21
-2.56043
0
LINE
8
BLACK
6
CONTINUOUS
10
2.27065
20
-2.56043
11
2.27154
21
-2.56209
0
LINE
8
BLACK
6
CONTINUOUS
10
2.27154
20
-2.56209
11
2.27208
21
-2.56389
0
LINE
8
BLACK
6
CONTINUOUS
10
2.27208
20
-2.56389
11
2.27227
21
-2.56576
0
LINE
8
BLACK
6
CONTINUOUS
10
2.27227
20
-2.56576
11
2.27227
21
-2.58495
0
LINE
8
BLACK
6
CONTINUOUS
10
2.27227
20
-2.58495
11
2.27208
21
-2.58683
0
LINE
8
BLACK
6
CONTINUOUS
10
2.27208
20
-2.58683
11
2.27154
21
-2.58863
0
LINE
8
BLACK
6
CONTINUOUS
10
2.27154
20
-2.58863
11
2.27065
21
-2.59029
0
LINE
8
BLACK
6
CONTINUOUS
10
2.27065
20
-2.59029
11
2.26946
21
-2.59174
0
LINE
8
BLACK
6
CONTINUOUS
10
2.26946
20
-2.59174
11
2.268
21
-2.59293
0
LINE
8
BLACK
6
CONTINUOUS
10
2.268
20
-2.59293
11
2.26634
21
-2.59382
0
LINE
8
BLACK
6
CONTINUOUS
10
2.26634
20
-2.59382
11
2.26454
21
-2.59437
0
LINE
8
BLACK
6
CONTINUOUS
10
2.26454
20
-2.59437
11
2.26267
21
-2.59455
0
LINE
8
BLACK
6
CONTINUOUS
10
2.26267
20
-2.59455
11
2.22675
21
-2.59455
0
LINE
8
BLACK
6
CONTINUOUS
10
2.22675
20
-2.59455
11
2.22487
21
-2.59437
0
LINE
8
BLACK
6
CONTINUOUS
10
2.22487
20
-2.59437
11
2.22307
21
-2.59382
0
LINE
8
BLACK
6
CONTINUOUS
10
2.22307
20
-2.59382
11
2.22141
21
-2.59293
0
LINE
8
BLACK
6
CONTINUOUS
10
2.22141
20
-2.59293
11
2.21996
21
-2.59174
0
LINE
8
BLACK
6
CONTINUOUS
10
2.21996
20
-2.59174
11
2.21877
21
-2.59029
0
LINE
8
BLACK
6
CONTINUOUS
10
2.21877
20
-2.59029
11
2.21788
21
-2.58863
0
LINE
8
BLACK
6
CONTINUOUS
10
2.21788
20
-2.58863
11
2.21733
21
-2.58683
0
LINE
8
BLACK
6
CONTINUOUS
10
2.21733
20
-2.58683
11
2.21715
21
-2.58495
0
LINE
8
BLACK
6
CONTINUOUS
10
2.21715
20
-2.58495
11
2.21715
21
-2.56576
0
LINE
8
BLACK
6
CONTINUOUS
10
2.21715
20
-2.56576
11
2.21733
21
-2.56389
0
LINE
8
BLACK
6
CONTINUOUS
10
2.21733
20
-2.56389
11
2.21788
21
-2.56209
0
LINE
8
BLACK
6
CONTINUOUS
10
2.21788
20
-2.56209
11
2.21877
21
-2.56043
0
LINE
8
BLACK
6
CONTINUOUS
10
2.21877
20
-2.56043
11
2.21996
21
-2.55898
0
LINE
8
BLACK
6
CONTINUOUS
10
2.21996
20
-2.55898
11
2.22141
21
-2.55778
0
LINE
8
BLACK
6
CONTINUOUS
10
2.22141
20
-2.55778
11
2.22307
21
-2.5569
0
LINE
8
BLACK
6
CONTINUOUS
10
2.22307
20
-2.5569
11
2.22487
21
-2.55635
0
LINE
8
BLACK
6
CONTINUOUS
10
2.22487
20
-2.55635
11
2.22675
21
-2.55617
0
LINE
8
BLACK
6
CONTINUOUS
10
2.22675
20
-2.55617
11
2.26267
21
-2.55617
0
LINE
8
BLACK
6
CONTINUOUS
10
2.26267
20
-2.55617
11
2.26454
21
-2.55635
0
LINE
8
BLACK
6
CONTINUOUS
10
2.36237
20
-2.56946
11
2.30331
21
-2.56946
0
LINE
8
BLACK
6
CONTINUOUS
10
2.30331
20
-2.56946
11
2.30331
21
-2.54781
0
LINE
8
BLACK
6
CONTINUOUS
10
2.30331
20
-2.54781
11
2.36237
21
-2.54781
0
LINE
8
BLACK
6
CONTINUOUS
10
2.36237
20
-2.54781
11
2.36237
21
-2.56946
0
LINE
8
BLACK
6
CONTINUOUS
10
2.81119
20
-2.56946
11
2.75213
21
-2.56946
0
LINE
8
BLACK
6
CONTINUOUS
10
2.75213
20
-2.56946
11
2.75213
21
-2.54781
0
LINE
8
BLACK
6
CONTINUOUS
10
2.75213
20
-2.54781
11
2.81119
21
-2.54781
0
LINE
8
BLACK
6
CONTINUOUS
10
2.81119
20
-2.54781
11
2.81119
21
-2.56946
0
LINE
8
BLACK
6
CONTINUOUS
10
2.81119
20
-2.53797
11
2.75213
21
-2.53797
0
LINE
8
BLACK
6
CONTINUOUS
10
2.75213
20
-2.53797
11
2.75213
21
-2.51631
0
LINE
8
BLACK
6
CONTINUOUS
10
2.75213
20
-2.51631
11
2.81119
21
-2.51631
0
LINE
8
BLACK
6
CONTINUOUS
10
2.81119
20
-2.51631
11
2.81119
21
-2.53797
0
LINE
8
BLACK
6
CONTINUOUS
10
2.36237
20
-2.53797
11
2.30331
21
-2.53797
0
LINE
8
BLACK
6
CONTINUOUS
10
2.30331
20
-2.53797
11
2.30331
21
-2.51631
0
LINE
8
BLACK
6
CONTINUOUS
10
2.30331
20
-2.51631
11
2.36237
21
-2.51631
0
LINE
8
BLACK
6
CONTINUOUS
10
2.36237
20
-2.51631
11
2.36237
21
-2.53797
0
LINE
8
BLACK
6
CONTINUOUS
10
2.26409
20
-2.49465
11
2.26589
21
-2.4952
0
LINE
8
BLACK
6
CONTINUOUS
10
2.26589
20
-2.4952
11
2.26755
21
-2.49608
0
LINE
8
BLACK
6
CONTINUOUS
10
2.26755
20
-2.49608
11
2.26901
21
-2.49728
0
LINE
8
BLACK
6
CONTINUOUS
10
2.26901
20
-2.49728
11
2.2702
21
-2.49873
0
LINE
8
BLACK
6
CONTINUOUS
10
2.2702
20
-2.49873
11
2.27109
21
-2.50039
0
LINE
8
BLACK
6
CONTINUOUS
10
2.27109
20
-2.50039
11
2.27163
21
-2.50219
0
LINE
8
BLACK
6
CONTINUOUS
10
2.27163
20
-2.50219
11
2.27182
21
-2.50406
0
LINE
8
BLACK
6
CONTINUOUS
10
2.27182
20
-2.50406
11
2.27182
21
-2.52325
0
LINE
8
BLACK
6
CONTINUOUS
10
2.27182
20
-2.52325
11
2.27163
21
-2.52513
0
LINE
8
BLACK
6
CONTINUOUS
10
2.27163
20
-2.52513
11
2.27109
21
-2.52693
0
LINE
8
BLACK
6
CONTINUOUS
10
2.27109
20
-2.52693
11
2.2702
21
-2.52859
0
LINE
8
BLACK
6
CONTINUOUS
10
2.2702
20
-2.52859
11
2.26901
21
-2.53004
0
LINE
8
BLACK
6
CONTINUOUS
10
2.26901
20
-2.53004
11
2.26755
21
-2.53123
0
LINE
8
BLACK
6
CONTINUOUS
10
2.26755
20
-2.53123
11
2.26589
21
-2.53212
0
LINE
8
BLACK
6
CONTINUOUS
10
2.26589
20
-2.53212
11
2.26409
21
-2.53267
0
LINE
8
BLACK
6
CONTINUOUS
10
2.26409
20
-2.53267
11
2.26222
21
-2.53285
0
LINE
8
BLACK
6
CONTINUOUS
10
2.26222
20
-2.53285
11
2.2263
21
-2.53285
0
LINE
8
BLACK
6
CONTINUOUS
10
2.2263
20
-2.53285
11
2.22443
21
-2.53267
0
LINE
8
BLACK
6
CONTINUOUS
10
2.22443
20
-2.53267
11
2.22262
21
-2.53212
0
LINE
8
BLACK
6
CONTINUOUS
10
2.22262
20
-2.53212
11
2.22097
21
-2.53123
0
LINE
8
BLACK
6
CONTINUOUS
10
2.22097
20
-2.53123
11
2.21951
21
-2.53004
0
LINE
8
BLACK
6
CONTINUOUS
10
2.21951
20
-2.53004
11
2.21832
21
-2.52859
0
LINE
8
BLACK
6
CONTINUOUS
10
2.21832
20
-2.52859
11
2.21743
21
-2.52693
0
LINE
8
BLACK
6
CONTINUOUS
10
2.21743
20
-2.52693
11
2.21689
21
-2.52513
0
LINE
8
BLACK
6
CONTINUOUS
10
2.21689
20
-2.52513
11
2.2167
21
-2.52325
0
LINE
8
BLACK
6
CONTINUOUS
10
2.2167
20
-2.52325
11
2.2167
21
-2.50406
0
LINE
8
BLACK
6
CONTINUOUS
10
2.2167
20
-2.50406
11
2.21689
21
-2.50219
0
LINE
8
BLACK
6
CONTINUOUS
10
2.21689
20
-2.50219
11
2.21743
21
-2.50039
0
LINE
8
BLACK
6
CONTINUOUS
10
2.21743
20
-2.50039
11
2.21832
21
-2.49873
0
LINE
8
BLACK
6
CONTINUOUS
10
2.21832
20
-2.49873
11
2.21951
21
-2.49728
0
LINE
8
BLACK
6
CONTINUOUS
10
2.21951
20
-2.49728
11
2.22097
21
-2.49608
0
LINE
8
BLACK
6
CONTINUOUS
10
2.22097
20
-2.49608
11
2.22262
21
-2.4952
0
LINE
8
BLACK
6
CONTINUOUS
10
2.22262
20
-2.4952
11
2.22443
21
-2.49465
0
LINE
8
BLACK
6
CONTINUOUS
10
2.22443
20
-2.49465
11
2.2263
21
-2.49446
0
LINE
8
BLACK
6
CONTINUOUS
10
2.2263
20
-2.49446
11
2.26222
21
-2.49446
0
LINE
8
BLACK
6
CONTINUOUS
10
2.26222
20
-2.49446
11
2.26409
21
-2.49465
0
LINE
8
BLACK
6
CONTINUOUS
10
2.81119
20
-2.50647
11
2.75213
21
-2.50647
0
LINE
8
BLACK
6
CONTINUOUS
10
2.75213
20
-2.50647
11
2.75213
21
-2.48482
0
LINE
8
BLACK
6
CONTINUOUS
10
2.75213
20
-2.48482
11
2.81119
21
-2.48482
0
LINE
8
BLACK
6
CONTINUOUS
10
2.81119
20
-2.48482
11
2.81119
21
-2.50647
0
LINE
8
BLACK
6
CONTINUOUS
10
2.36237
20
-2.50647
11
2.30331
21
-2.50647
0
LINE
8
BLACK
6
CONTINUOUS
10
2.30331
20
-2.50647
11
2.30331
21
-2.48482
0
LINE
8
BLACK
6
CONTINUOUS
10
2.30331
20
-2.48482
11
2.36237
21
-2.48482
0
LINE
8
BLACK
6
CONTINUOUS
10
2.36237
20
-2.48482
11
2.36237
21
-2.50647
0
LINE
8
BLACK
6
CONTINUOUS
10
2.81119
20
-2.47498
11
2.75213
21
-2.47498
0
LINE
8
BLACK
6
CONTINUOUS
10
2.75213
20
-2.47498
11
2.75213
21
-2.45332
0
LINE
8
BLACK
6
CONTINUOUS
10
2.75213
20
-2.45332
11
2.81119
21
-2.45332
0
LINE
8
BLACK
6
CONTINUOUS
10
2.81119
20
-2.45332
11
2.81119
21
-2.47498
0
LINE
8
BLACK
6
CONTINUOUS
10
2.36237
20
-2.47498
11
2.30331
21
-2.47498
0
LINE
8
BLACK
6
CONTINUOUS
10
2.30331
20
-2.47498
11
2.30331
21
-2.45332
0
LINE
8
BLACK
6
CONTINUOUS
10
2.30331
20
-2.45332
11
2.36237
21
-2.45332
0
LINE
8
BLACK
6
CONTINUOUS
10
2.36237
20
-2.45332
11
2.36237
21
-2.47498
0
LINE
8
BLACK
6
CONTINUOUS
10
2.26409
20
-2.42083
11
2.26589
21
-2.42138
0
LINE
8
BLACK
6
CONTINUOUS
10
2.26589
20
-2.42138
11
2.26755
21
-2.42226
0
LINE
8
BLACK
6
CONTINUOUS
10
2.26755
20
-2.42226
11
2.26901
21
-2.42346
0
LINE
8
BLACK
6
CONTINUOUS
10
2.26901
20
-2.42346
11
2.2702
21
-2.42491
0
LINE
8
BLACK
6
CONTINUOUS
10
2.2702
20
-2.42491
11
2.27109
21
-2.42657
0
LINE
8
BLACK
6
CONTINUOUS
10
2.27109
20
-2.42657
11
2.27163
21
-2.42837
0
LINE
8
BLACK
6
CONTINUOUS
10
2.27163
20
-2.42837
11
2.27182
21
-2.43024
0
LINE
8
BLACK
6
CONTINUOUS
10
2.27182
20
-2.43024
11
2.27182
21
-2.44944
0
LINE
8
BLACK
6
CONTINUOUS
10
2.27182
20
-2.44944
11
2.27163
21
-2.45131
0
LINE
8
BLACK
6
CONTINUOUS
10
2.27163
20
-2.45131
11
2.27109
21
-2.45311
0
LINE
8
BLACK
6
CONTINUOUS
10
2.27109
20
-2.45311
11
2.2702
21
-2.45477
0
LINE
8
BLACK
6
CONTINUOUS
10
2.2702
20
-2.45477
11
2.26901
21
-2.45622
0
LINE
8
BLACK
6
CONTINUOUS
10
2.26901
20
-2.45622
11
2.26755
21
-2.45741
0
LINE
8
BLACK
6
CONTINUOUS
10
2.26755
20
-2.45741
11
2.26589
21
-2.4583
0
LINE
8
BLACK
6
CONTINUOUS
10
2.26589
20
-2.4583
11
2.26409
21
-2.45885
0
LINE
8
BLACK
6
CONTINUOUS
10
2.26409
20
-2.45885
11
2.26222
21
-2.45903
0
LINE
8
BLACK
6
CONTINUOUS
10
2.26222
20
-2.45903
11
2.2263
21
-2.45903
0
LINE
8
BLACK
6
CONTINUOUS
10
2.2263
20
-2.45903
11
2.22443
21
-2.45885
0
LINE
8
BLACK
6
CONTINUOUS
10
2.22443
20
-2.45885
11
2.22262
21
-2.4583
0
LINE
8
BLACK
6
CONTINUOUS
10
2.22262
20
-2.4583
11
2.22097
21
-2.45741
0
LINE
8
BLACK
6
CONTINUOUS
10
2.22097
20
-2.45741
11
2.21951
21
-2.45622
0
LINE
8
BLACK
6
CONTINUOUS
10
2.21951
20
-2.45622
11
2.21832
21
-2.45477
0
LINE
8
BLACK
6
CONTINUOUS
10
2.21832
20
-2.45477
11
2.21743
21
-2.45311
0
LINE
8
BLACK
6
CONTINUOUS
10
2.21743
20
-2.45311
11
2.21689
21
-2.45131
0
LINE
8
BLACK
6
CONTINUOUS
10
2.21689
20
-2.45131
11
2.2167
21
-2.44944
0
LINE
8
BLACK
6
CONTINUOUS
10
2.2167
20
-2.44944
11
2.2167
21
-2.43024
0
LINE
8
BLACK
6
CONTINUOUS
10
2.2167
20
-2.43024
11
2.21689
21
-2.42837
0
LINE
8
BLACK
6
CONTINUOUS
10
2.21689
20
-2.42837
11
2.21743
21
-2.42657
0
LINE
8
BLACK
6
CONTINUOUS
10
2.21743
20
-2.42657
11
2.21832
21
-2.42491
0
LINE
8
BLACK
6
CONTINUOUS
10
2.21832
20
-2.42491
11
2.21951
21
-2.42346
0
LINE
8
BLACK
6
CONTINUOUS
10
2.21951
20
-2.42346
11
2.22097
21
-2.42226
0
LINE
8
BLACK
6
CONTINUOUS
10
2.22097
20
-2.42226
11
2.22262
21
-2.42138
0
LINE
8
BLACK
6
CONTINUOUS
10
2.22262
20
-2.42138
11
2.22443
21
-2.42083
0
LINE
8
BLACK
6
CONTINUOUS
10
2.22443
20
-2.42083
11
2.2263
21
-2.42065
0
LINE
8
BLACK
6
CONTINUOUS
10
2.2263
20
-2.42065
11
2.26222
21
-2.42065
0
LINE
8
BLACK
6
CONTINUOUS
10
2.26222
20
-2.42065
11
2.26409
21
-2.42083
0
LINE
8
BLACK
6
CONTINUOUS
10
2.36237
20
-2.44348
11
2.30331
21
-2.44348
0
LINE
8
BLACK
6
CONTINUOUS
10
2.30331
20
-2.44348
11
2.30331
21
-2.42183
0
LINE
8
BLACK
6
CONTINUOUS
10
2.30331
20
-2.42183
11
2.36237
21
-2.42183
0
LINE
8
BLACK
6
CONTINUOUS
10
2.36237
20
-2.42183
11
2.36237
21
-2.44348
0
LINE
8
BLACK
6
CONTINUOUS
10
2.81119
20
-2.44348
11
2.75213
21
-2.44348
0
LINE
8
BLACK
6
CONTINUOUS
10
2.75213
20
-2.44348
11
2.75213
21
-2.42183
0
LINE
8
BLACK
6
CONTINUOUS
10
2.75213
20
-2.42183
11
2.81119
21
-2.42183
0
LINE
8
BLACK
6
CONTINUOUS
10
2.81119
20
-2.42183
11
2.81119
21
-2.44348
0
LINE
8
BLACK
6
CONTINUOUS
10
2.36237
20
-2.41198
11
2.30331
21
-2.41198
0
LINE
8
BLACK
6
CONTINUOUS
10
2.30331
20
-2.41198
11
2.30331
21
-2.39033
0
LINE
8
BLACK
6
CONTINUOUS
10
2.30331
20
-2.39033
11
2.36237
21
-2.39033
0
LINE
8
BLACK
6
CONTINUOUS
10
2.36237
20
-2.39033
11
2.36237
21
-2.41198
0
LINE
8
BLACK
6
CONTINUOUS
10
2.81119
20
-2.41198
11
2.75213
21
-2.41198
0
LINE
8
BLACK
6
CONTINUOUS
10
2.75213
20
-2.41198
11
2.75213
21
-2.39033
0
LINE
8
BLACK
6
CONTINUOUS
10
2.75213
20
-2.39033
11
2.81119
21
-2.39033
0
LINE
8
BLACK
6
CONTINUOUS
10
2.81119
20
-2.39033
11
2.81119
21
-2.41198
0
LINE
8
BLACK
6
CONTINUOUS
10
2.88854
20
-2.37126
11
2.89034
21
-2.37181
0
LINE
8
BLACK
6
CONTINUOUS
10
2.89034
20
-2.37181
11
2.892
21
-2.37269
0
LINE
8
BLACK
6
CONTINUOUS
10
2.892
20
-2.37269
11
2.89346
21
-2.37389
0
LINE
8
BLACK
6
CONTINUOUS
10
2.89346
20
-2.37389
11
2.89465
21
-2.37534
0
LINE
8
BLACK
6
CONTINUOUS
10
2.89465
20
-2.37534
11
2.89554
21
-2.377
0
LINE
8
BLACK
6
CONTINUOUS
10
2.89554
20
-2.377
11
2.89608
21
-2.3788
0
LINE
8
BLACK
6
CONTINUOUS
10
2.89608
20
-2.3788
11
2.89627
21
-2.38067
0
LINE
8
BLACK
6
CONTINUOUS
10
2.89627
20
-2.38067
11
2.89627
21
-2.39986
0
LINE
8
BLACK
6
CONTINUOUS
10
2.89627
20
-2.39986
11
2.89608
21
-2.40174
0
LINE
8
BLACK
6
CONTINUOUS
10
2.89608
20
-2.40174
11
2.89554
21
-2.40354
0
LINE
8
BLACK
6
CONTINUOUS
10
2.89554
20
-2.40354
11
2.89465
21
-2.4052
0
LINE
8
BLACK
6
CONTINUOUS
10
2.89465
20
-2.4052
11
2.89346
21
-2.40665
0
LINE
8
BLACK
6
CONTINUOUS
10
2.89346
20
-2.40665
11
2.892
21
-2.40784
0
LINE
8
BLACK
6
CONTINUOUS
10
2.892
20
-2.40784
11
2.89034
21
-2.40873
0
LINE
8
BLACK
6
CONTINUOUS
10
2.89034
20
-2.40873
11
2.88854
21
-2.40928
0
LINE
8
BLACK
6
CONTINUOUS
10
2.88854
20
-2.40928
11
2.88667
21
-2.40946
0
LINE
8
BLACK
6
CONTINUOUS
10
2.88667
20
-2.40946
11
2.85075
21
-2.40946
0
LINE
8
BLACK
6
CONTINUOUS
10
2.85075
20
-2.40946
11
2.84887
21
-2.40928
0
LINE
8
BLACK
6
CONTINUOUS
10
2.84887
20
-2.40928
11
2.84707
21
-2.40873
0
LINE
8
BLACK
6
CONTINUOUS
10
2.84707
20
-2.40873
11
2.84541
21
-2.40784
0
LINE
8
BLACK
6
CONTINUOUS
10
2.84541
20
-2.40784
11
2.84396
21
-2.40665
0
LINE
8
BLACK
6
CONTINUOUS
10
2.84396
20
-2.40665
11
2.84277
21
-2.4052
0
LINE
8
BLACK
6
CONTINUOUS
10
2.84277
20
-2.4052
11
2.84188
21
-2.40354
0
LINE
8
BLACK
6
CONTINUOUS
10
2.84188
20
-2.40354
11
2.84133
21
-2.40174
0
LINE
8
BLACK
6
CONTINUOUS
10
2.84133
20
-2.40174
11
2.84115
21
-2.39986
0
LINE
8
BLACK
6
CONTINUOUS
10
2.84115
20
-2.39986
11
2.84115
21
-2.38067
0
LINE
8
BLACK
6
CONTINUOUS
10
2.84115
20
-2.38067
11
2.84133
21
-2.3788
0
LINE
8
BLACK
6
CONTINUOUS
10
2.84133
20
-2.3788
11
2.84188
21
-2.377
0
LINE
8
BLACK
6
CONTINUOUS
10
2.84188
20
-2.377
11
2.84277
21
-2.37534
0
LINE
8
BLACK
6
CONTINUOUS
10
2.84277
20
-2.37534
11
2.84396
21
-2.37389
0
LINE
8
BLACK
6
CONTINUOUS
10
2.84396
20
-2.37389
11
2.84541
21
-2.37269
0
LINE
8
BLACK
6
CONTINUOUS
10
2.84541
20
-2.37269
11
2.84707
21
-2.37181
0
LINE
8
BLACK
6
CONTINUOUS
10
2.84707
20
-2.37181
11
2.84887
21
-2.37126
0
LINE
8
BLACK
6
CONTINUOUS
10
2.84887
20
-2.37126
11
2.85075
21
-2.37107
0
LINE
8
BLACK
6
CONTINUOUS
10
2.85075
20
-2.37107
11
2.88667
21
-2.37107
0
LINE
8
BLACK
6
CONTINUOUS
10
2.88667
20
-2.37107
11
2.88854
21
-2.37126
0
LINE
8
BLACK
6
CONTINUOUS
10
2.63107
20
-2.36376
11
2.60942
21
-2.36376
0
LINE
8
BLACK
6
CONTINUOUS
10
2.60942
20
-2.36376
11
2.60942
21
-2.3047
0
LINE
8
BLACK
6
CONTINUOUS
10
2.60942
20
-2.3047
11
2.63107
21
-2.3047
0
LINE
8
BLACK
6
CONTINUOUS
10
2.63107
20
-2.3047
11
2.63107
21
-2.36376
0
LINE
8
BLACK
6
CONTINUOUS
10
2.44209
20
-2.36376
11
2.42044
21
-2.36376
0
LINE
8
BLACK
6
CONTINUOUS
10
2.42044
20
-2.36376
11
2.42044
21
-2.3047
0
LINE
8
BLACK
6
CONTINUOUS
10
2.42044
20
-2.3047
11
2.44209
21
-2.3047
0
LINE
8
BLACK
6
CONTINUOUS
10
2.44209
20
-2.3047
11
2.44209
21
-2.36376
0
LINE
8
BLACK
6
CONTINUOUS
10
2.47359
20
-2.36376
11
2.45194
21
-2.36376
0
LINE
8
BLACK
6
CONTINUOUS
10
2.45194
20
-2.36376
11
2.45194
21
-2.3047
0
LINE
8
BLACK
6
CONTINUOUS
10
2.45194
20
-2.3047
11
2.47359
21
-2.3047
0
LINE
8
BLACK
6
CONTINUOUS
10
2.47359
20
-2.3047
11
2.47359
21
-2.36376
0
LINE
8
BLACK
6
CONTINUOUS
10
2.50509
20
-2.36376
11
2.48343
21
-2.36376
0
LINE
8
BLACK
6
CONTINUOUS
10
2.48343
20
-2.36376
11
2.48343
21
-2.3047
0
LINE
8
BLACK
6
CONTINUOUS
10
2.48343
20
-2.3047
11
2.50509
21
-2.3047
0
LINE
8
BLACK
6
CONTINUOUS
10
2.50509
20
-2.3047
11
2.50509
21
-2.36376
0
LINE
8
BLACK
6
CONTINUOUS
10
2.53658
20
-2.36376
11
2.51493
21
-2.36376
0
LINE
8
BLACK
6
CONTINUOUS
10
2.51493
20
-2.36376
11
2.51493
21
-2.3047
0
LINE
8
BLACK
6
CONTINUOUS
10
2.51493
20
-2.3047
11
2.53658
21
-2.3047
0
LINE
8
BLACK
6
CONTINUOUS
10
2.53658
20
-2.3047
11
2.53658
21
-2.36376
0
LINE
8
BLACK
6
CONTINUOUS
10
2.56808
20
-2.36376
11
2.54643
21
-2.36376
0
LINE
8
BLACK
6
CONTINUOUS
10
2.54643
20
-2.36376
11
2.54643
21
-2.3047
0
LINE
8
BLACK
6
CONTINUOUS
10
2.54643
20
-2.3047
11
2.56808
21
-2.3047
0
LINE
8
BLACK
6
CONTINUOUS
10
2.56808
20
-2.3047
11
2.56808
21
-2.36376
0
LINE
8
BLACK
6
CONTINUOUS
10
2.59957
20
-2.36376
11
2.57792
21
-2.36376
0
LINE
8
BLACK
6
CONTINUOUS
10
2.57792
20
-2.36376
11
2.57792
21
-2.3047
0
LINE
8
BLACK
6
CONTINUOUS
10
2.57792
20
-2.3047
11
2.59957
21
-2.3047
0
LINE
8
BLACK
6
CONTINUOUS
10
2.59957
20
-2.3047
11
2.59957
21
-2.36376
0
LINE
8
BLACK
6
CONTINUOUS
10
2.66257
20
-2.36376
11
2.64091
21
-2.36376
0
LINE
8
BLACK
6
CONTINUOUS
10
2.64091
20
-2.36376
11
2.64091
21
-2.3047
0
LINE
8
BLACK
6
CONTINUOUS
10
2.64091
20
-2.3047
11
2.66257
21
-2.3047
0
LINE
8
BLACK
6
CONTINUOUS
10
2.66257
20
-2.3047
11
2.66257
21
-2.36376
0
LINE
8
BLACK
6
CONTINUOUS
10
2.69406
20
-2.36376
11
2.67241
21
-2.36376
0
LINE
8
BLACK
6
CONTINUOUS
10
2.67241
20
-2.36376
11
2.67241
21
-2.3047
0
LINE
8
BLACK
6
CONTINUOUS
10
2.67241
20
-2.3047
11
2.69406
21
-2.3047
0
LINE
8
BLACK
6
CONTINUOUS
10
2.69406
20
-2.3047
11
2.69406
21
-2.36376
0
LINE
8
BLACK
6
CONTINUOUS
10
2.72556
20
-2.36376
11
2.70391
21
-2.36376
0
LINE
8
BLACK
6
CONTINUOUS
10
2.70391
20
-2.36376
11
2.70391
21
-2.3047
0
LINE
8
BLACK
6
CONTINUOUS
10
2.70391
20
-2.3047
11
2.72556
21
-2.3047
0
LINE
8
BLACK
6
CONTINUOUS
10
2.72556
20
-2.3047
11
2.72556
21
-2.36376
0
LINE
8
BLACK
6
CONTINUOUS
10
2.4106
20
-2.36376
11
2.38894
21
-2.36376
0
LINE
8
BLACK
6
CONTINUOUS
10
2.38894
20
-2.36376
11
2.38894
21
-2.3047
0
LINE
8
BLACK
6
CONTINUOUS
10
2.38894
20
-2.3047
11
2.4106
21
-2.3047
0
LINE
8
BLACK
6
CONTINUOUS
10
2.4106
20
-2.3047
11
2.4106
21
-2.36376
0
LINE
8
BLACK
6
CONTINUOUS
10
2.88854
20
-2.29744
11
2.89034
21
-2.29799
0
LINE
8
BLACK
6
CONTINUOUS
10
2.89034
20
-2.29799
11
2.892
21
-2.29887
0
LINE
8
BLACK
6
CONTINUOUS
10
2.892
20
-2.29887
11
2.89346
21
-2.30007
0
LINE
8
BLACK
6
CONTINUOUS
10
2.89346
20
-2.30007
11
2.89465
21
-2.30152
0
LINE
8
BLACK
6
CONTINUOUS
10
2.89465
20
-2.30152
11
2.89554
21
-2.30318
0
LINE
8
BLACK
6
CONTINUOUS
10
2.89554
20
-2.30318
11
2.89608
21
-2.30498
0
LINE
8
BLACK
6
CONTINUOUS
10
2.89608
20
-2.30498
11
2.89627
21
-2.30685
0
LINE
8
BLACK
6
CONTINUOUS
10
2.89627
20
-2.30685
11
2.89627
21
-2.32605
0
LINE
8
BLACK
6
CONTINUOUS
10
2.89627
20
-2.32605
11
2.89608
21
-2.32792
0
LINE
8
BLACK
6
CONTINUOUS
10
2.89608
20
-2.32792
11
2.89554
21
-2.32972
0
LINE
8
BLACK
6
CONTINUOUS
10
2.89554
20
-2.32972
11
2.89465
21
-2.33138
0
LINE
8
BLACK
6
CONTINUOUS
10
2.89465
20
-2.33138
11
2.89346
21
-2.33283
0
LINE
8
BLACK
6
CONTINUOUS
10
2.89346
20
-2.33283
11
2.892
21
-2.33402
0
LINE
8
BLACK
6
CONTINUOUS
10
2.892
20
-2.33402
11
2.89034
21
-2.33491
0
LINE
8
BLACK
6
CONTINUOUS
10
2.89034
20
-2.33491
11
2.88854
21
-2.33546
0
LINE
8
BLACK
6
CONTINUOUS
10
2.88854
20
-2.33546
11
2.88667
21
-2.33564
0
LINE
8
BLACK
6
CONTINUOUS
10
2.88667
20
-2.33564
11
2.85075
21
-2.33564
0
LINE
8
BLACK
6
CONTINUOUS
10
2.85075
20
-2.33564
11
2.84887
21
-2.33546
0
LINE
8
BLACK
6
CONTINUOUS
10
2.84887
20
-2.33546
11
2.84707
21
-2.33491
0
LINE
8
BLACK
6
CONTINUOUS
10
2.84707
20
-2.33491
11
2.84541
21
-2.33402
0
LINE
8
BLACK
6
CONTINUOUS
10
2.84541
20
-2.33402
11
2.84396
21
-2.33283
0
LINE
8
BLACK
6
CONTINUOUS
10
2.84396
20
-2.33283
11
2.84277
21
-2.33138
0
LINE
8
BLACK
6
CONTINUOUS
10
2.84277
20
-2.33138
11
2.84188
21
-2.32972
0
LINE
8
BLACK
6
CONTINUOUS
10
2.84188
20
-2.32972
11
2.84133
21
-2.32792
0
LINE
8
BLACK
6
CONTINUOUS
10
2.84133
20
-2.32792
11
2.84115
21
-2.32605
0
LINE
8
BLACK
6
CONTINUOUS
10
2.84115
20
-2.32605
11
2.84115
21
-2.30685
0
LINE
8
BLACK
6
CONTINUOUS
10
2.84115
20
-2.30685
11
2.84133
21
-2.30498
0
LINE
8
BLACK
6
CONTINUOUS
10
2.84133
20
-2.30498
11
2.84188
21
-2.30318
0
LINE
8
BLACK
6
CONTINUOUS
10
2.84188
20
-2.30318
11
2.84277
21
-2.30152
0
LINE
8
BLACK
6
CONTINUOUS
10
2.84277
20
-2.30152
11
2.84396
21
-2.30007
0
LINE
8
BLACK
6
CONTINUOUS
10
2.84396
20
-2.30007
11
2.84541
21
-2.29887
0
LINE
8
BLACK
6
CONTINUOUS
10
2.84541
20
-2.29887
11
2.84707
21
-2.29799
0
LINE
8
BLACK
6
CONTINUOUS
10
2.84707
20
-2.29799
11
2.84887
21
-2.29744
0
LINE
8
BLACK
6
CONTINUOUS
10
2.84887
20
-2.29744
11
2.85075
21
-2.29726
0
LINE
8
BLACK
6
CONTINUOUS
10
2.85075
20
-2.29726
11
2.88667
21
-2.29726
0
LINE
8
BLACK
6
CONTINUOUS
10
2.88667
20
-2.29726
11
2.88854
21
-2.29744
0
LINE
8
BLACK
6
CONTINUOUS
10
2.73053
20
-2.21827
11
2.73233
21
-2.21882
0
LINE
8
BLACK
6
CONTINUOUS
10
2.73233
20
-2.21882
11
2.73399
21
-2.2197
0
LINE
8
BLACK
6
CONTINUOUS
10
2.73399
20
-2.2197
11
2.73545
21
-2.2209
0
LINE
8
BLACK
6
CONTINUOUS
10
2.73545
20
-2.2209
11
2.73664
21
-2.22235
0
LINE
8
BLACK
6
CONTINUOUS
10
2.73664
20
-2.22235
11
2.73753
21
-2.22401
0
LINE
8
BLACK
6
CONTINUOUS
10
2.73753
20
-2.22401
11
2.73807
21
-2.22581
0
LINE
8
BLACK
6
CONTINUOUS
10
2.73807
20
-2.22581
11
2.73826
21
-2.22768
0
LINE
8
BLACK
6
CONTINUOUS
10
2.73826
20
-2.22768
11
2.73826
21
-2.26361
0
LINE
8
BLACK
6
CONTINUOUS
10
2.73826
20
-2.26361
11
2.73807
21
-2.26548
0
LINE
8
BLACK
6
CONTINUOUS
10
2.73807
20
-2.26548
11
2.73753
21
-2.26728
0
LINE
8
BLACK
6
CONTINUOUS
10
2.73753
20
-2.26728
11
2.73664
21
-2.26894
0
LINE
8
BLACK
6
CONTINUOUS
10
2.73664
20
-2.26894
11
2.73545
21
-2.27039
0
LINE
8
BLACK
6
CONTINUOUS
10
2.73545
20
-2.27039
11
2.73399
21
-2.27159
0
LINE
8
BLACK
6
CONTINUOUS
10
2.73399
20
-2.27159
11
2.73233
21
-2.27247
0
LINE
8
BLACK
6
CONTINUOUS
10
2.73233
20
-2.27247
11
2.73053
21
-2.27302
0
LINE
8
BLACK
6
CONTINUOUS
10
2.73053
20
-2.27302
11
2.72866
21
-2.2732
0
LINE
8
BLACK
6
CONTINUOUS
10
2.72866
20
-2.2732
11
2.70947
21
-2.2732
0
LINE
8
BLACK
6
CONTINUOUS
10
2.70947
20
-2.2732
11
2.70759
21
-2.27302
0
LINE
8
BLACK
6
CONTINUOUS
10
2.70759
20
-2.27302
11
2.70579
21
-2.27247
0
LINE
8
BLACK
6
CONTINUOUS
10
2.70579
20
-2.27247
11
2.70414
21
-2.27159
0
LINE
8
BLACK
6
CONTINUOUS
10
2.70414
20
-2.27159
11
2.70268
21
-2.27039
0
LINE
8
BLACK
6
CONTINUOUS
10
2.70268
20
-2.27039
11
2.70149
21
-2.26894
0
LINE
8
BLACK
6
CONTINUOUS
10
2.70149
20
-2.26894
11
2.7006
21
-2.26728
0
LINE
8
BLACK
6
CONTINUOUS
10
2.7006
20
-2.26728
11
2.70005
21
-2.26548
0
LINE
8
BLACK
6
CONTINUOUS
10
2.70005
20
-2.26548
11
2.69987
21
-2.26361
0
LINE
8
BLACK
6
CONTINUOUS
10
2.69987
20
-2.26361
11
2.69987
21
-2.22768
0
LINE
8
BLACK
6
CONTINUOUS
10
2.69987
20
-2.22768
11
2.70005
21
-2.22581
0
LINE
8
BLACK
6
CONTINUOUS
10
2.70005
20
-2.22581
11
2.7006
21
-2.22401
0
LINE
8
BLACK
6
CONTINUOUS
10
2.7006
20
-2.22401
11
2.70149
21
-2.22235
0
LINE
8
BLACK
6
CONTINUOUS
10
2.70149
20
-2.22235
11
2.70268
21
-2.2209
0
LINE
8
BLACK
6
CONTINUOUS
10
2.70268
20
-2.2209
11
2.70414
21
-2.2197
0
LINE
8
BLACK
6
CONTINUOUS
10
2.70414
20
-2.2197
11
2.70579
21
-2.21882
0
LINE
8
BLACK
6
CONTINUOUS
10
2.70579
20
-2.21882
11
2.70759
21
-2.21827
0
LINE
8
BLACK
6
CONTINUOUS
10
2.70759
20
-2.21827
11
2.70947
21
-2.21809
0
LINE
8
BLACK
6
CONTINUOUS
10
2.70947
20
-2.21809
11
2.72866
21
-2.21809
0
LINE
8
BLACK
6
CONTINUOUS
10
2.72866
20
-2.21809
11
2.73053
21
-2.21827
0
LINE
8
BLACK
6
CONTINUOUS
10
2.80435
20
-2.21827
11
2.80615
21
-2.21882
0
LINE
8
BLACK
6
CONTINUOUS
10
2.80615
20
-2.21882
11
2.80781
21
-2.2197
0
LINE
8
BLACK
6
CONTINUOUS
10
2.80781
20
-2.2197
11
2.80926
21
-2.2209
0
LINE
8
BLACK
6
CONTINUOUS
10
2.80926
20
-2.2209
11
2.81046
21
-2.22235
0
LINE
8
BLACK
6
CONTINUOUS
10
2.81046
20
-2.22235
11
2.81134
21
-2.22401
0
LINE
8
BLACK
6
CONTINUOUS
10
2.81134
20
-2.22401
11
2.81189
21
-2.22581
0
LINE
8
BLACK
6
CONTINUOUS
10
2.81189
20
-2.22581
11
2.81207
21
-2.22768
0
LINE
8
BLACK
6
CONTINUOUS
10
2.81207
20
-2.22768
11
2.81207
21
-2.26361
0
LINE
8
BLACK
6
CONTINUOUS
10
2.81207
20
-2.26361
11
2.81189
21
-2.26548
0
LINE
8
BLACK
6
CONTINUOUS
10
2.81189
20
-2.26548
11
2.81134
21
-2.26728
0
LINE
8
BLACK
6
CONTINUOUS
10
2.81134
20
-2.26728
11
2.81046
21
-2.26894
0
LINE
8
BLACK
6
CONTINUOUS
10
2.81046
20
-2.26894
11
2.80926
21
-2.27039
0
LINE
8
BLACK
6
CONTINUOUS
10
2.80926
20
-2.27039
11
2.80781
21
-2.27159
0
LINE
8
BLACK
6
CONTINUOUS
10
2.80781
20
-2.27159
11
2.80615
21
-2.27247
0
LINE
8
BLACK
6
CONTINUOUS
10
2.80615
20
-2.27247
11
2.80435
21
-2.27302
0
LINE
8
BLACK
6
CONTINUOUS
10
2.80435
20
-2.27302
11
2.80248
21
-2.2732
0
LINE
8
BLACK
6
CONTINUOUS
10
2.80248
20
-2.2732
11
2.78329
21
-2.2732
0
LINE
8
BLACK
6
CONTINUOUS
10
2.78329
20
-2.2732
11
2.78141
21
-2.27302
0
LINE
8
BLACK
6
CONTINUOUS
10
2.78141
20
-2.27302
11
2.77961
21
-2.27247
0
LINE
8
BLACK
6
CONTINUOUS
10
2.77961
20
-2.27247
11
2.77795
21
-2.27159
0
LINE
8
BLACK
6
CONTINUOUS
10
2.77795
20
-2.27159
11
2.7765
21
-2.27039
0
LINE
8
BLACK
6
CONTINUOUS
10
2.7765
20
-2.27039
11
2.77531
21
-2.26894
0
LINE
8
BLACK
6
CONTINUOUS
10
2.77531
20
-2.26894
11
2.77442
21
-2.26728
0
LINE
8
BLACK
6
CONTINUOUS
10
2.77442
20
-2.26728
11
2.77387
21
-2.26548
0
LINE
8
BLACK
6
CONTINUOUS
10
2.77387
20
-2.26548
11
2.77369
21
-2.26361
0
LINE
8
BLACK
6
CONTINUOUS
10
2.77369
20
-2.26361
11
2.77369
21
-2.22768
0
LINE
8
BLACK
6
CONTINUOUS
10
2.77369
20
-2.22768
11
2.77387
21
-2.22581
0
LINE
8
BLACK
6
CONTINUOUS
10
2.77387
20
-2.22581
11
2.77442
21
-2.22401
0
LINE
8
BLACK
6
CONTINUOUS
10
2.77442
20
-2.22401
11
2.77531
21
-2.22235
0
LINE
8
BLACK
6
CONTINUOUS
10
2.77531
20
-2.22235
11
2.7765
21
-2.2209
0
LINE
8
BLACK
6
CONTINUOUS
10
2.7765
20
-2.2209
11
2.77795
21
-2.2197
0
LINE
8
BLACK
6
CONTINUOUS
10
2.77795
20
-2.2197
11
2.77961
21
-2.21882
0
LINE
8
BLACK
6
CONTINUOUS
10
2.77961
20
-2.21882
11
2.78141
21
-2.21827
0
LINE
8
BLACK
6
CONTINUOUS
10
2.78141
20
-2.21827
11
2.78329
21
-2.21809
0
LINE
8
BLACK
6
CONTINUOUS
10
2.78329
20
-2.21809
11
2.80248
21
-2.21809
0
LINE
8
BLACK
6
CONTINUOUS
10
2.80248
20
-2.21809
11
2.80435
21
-2.21827
0
LINE
8
BLACK
6
CONTINUOUS
10
2.33417
20
-2.2167
11
2.33597
21
-2.21724
0
LINE
8
BLACK
6
CONTINUOUS
10
2.33597
20
-2.21724
11
2.33763
21
-2.21813
0
LINE
8
BLACK
6
CONTINUOUS
10
2.33763
20
-2.21813
11
2.33909
21
-2.21932
0
LINE
8
BLACK
6
CONTINUOUS
10
2.33909
20
-2.21932
11
2.34028
21
-2.22078
0
LINE
8
BLACK
6
CONTINUOUS
10
2.34028
20
-2.22078
11
2.34117
21
-2.22244
0
LINE
8
BLACK
6
CONTINUOUS
10
2.34117
20
-2.22244
11
2.34171
21
-2.22424
0
LINE
8
BLACK
6
CONTINUOUS
10
2.34171
20
-2.22424
11
2.3419
21
-2.22611
0
LINE
8
BLACK
6
CONTINUOUS
10
2.3419
20
-2.22611
11
2.3419
21
-2.26203
0
LINE
8
BLACK
6
CONTINUOUS
10
2.3419
20
-2.26203
11
2.34171
21
-2.26391
0
LINE
8
BLACK
6
CONTINUOUS
10
2.34171
20
-2.26391
11
2.34117
21
-2.26571
0
LINE
8
BLACK
6
CONTINUOUS
10
2.34117
20
-2.26571
11
2.34028
21
-2.26736
0
LINE
8
BLACK
6
CONTINUOUS
10
2.34028
20
-2.26736
11
2.33909
21
-2.26882
0
LINE
8
BLACK
6
CONTINUOUS
10
2.33909
20
-2.26882
11
2.33763
21
-2.27001
0
LINE
8
BLACK
6
CONTINUOUS
10
2.33763
20
-2.27001
11
2.33597
21
-2.2709
0
LINE
8
BLACK
6
CONTINUOUS
10
2.33597
20
-2.2709
11
2.33417
21
-2.27145
0
LINE
8
BLACK
6
CONTINUOUS
10
2.33417
20
-2.27145
11
2.3323
21
-2.27163
0
LINE
8
BLACK
6
CONTINUOUS
10
2.3323
20
-2.27163
11
2.31311
21
-2.27163
0
LINE
8
BLACK
6
CONTINUOUS
10
2.31311
20
-2.27163
11
2.31124
21
-2.27145
0
LINE
8
BLACK
6
CONTINUOUS
10
2.31124
20
-2.27145
11
2.30944
21
-2.2709
0
LINE
8
BLACK
6
CONTINUOUS
10
2.30944
20
-2.2709
11
2.30778
21
-2.27001
0
LINE
8
BLACK
6
CONTINUOUS
10
2.30778
20
-2.27001
11
2.30632
21
-2.26882
0
LINE
8
BLACK
6
CONTINUOUS
10
2.30632
20
-2.26882
11
2.30513
21
-2.26736
0
LINE
8
BLACK
6
CONTINUOUS
10
2.30513
20
-2.26736
11
2.30424
21
-2.26571
0
LINE
8
BLACK
6
CONTINUOUS
10
2.30424
20
-2.26571
11
2.3037
21
-2.26391
0
LINE
8
BLACK
6
CONTINUOUS
10
2.3037
20
-2.26391
11
2.30351
21
-2.26203
0
LINE
8
BLACK
6
CONTINUOUS
10
2.30351
20
-2.26203
11
2.30351
21
-2.22611
0
LINE
8
BLACK
6
CONTINUOUS
10
2.30351
20
-2.22611
11
2.3037
21
-2.22424
0
LINE
8
BLACK
6
CONTINUOUS
10
2.3037
20
-2.22424
11
2.30424
21
-2.22244
0
LINE
8
BLACK
6
CONTINUOUS
10
2.30424
20
-2.22244
11
2.30513
21
-2.22078
0
LINE
8
BLACK
6
CONTINUOUS
10
2.30513
20
-2.22078
11
2.30632
21
-2.21932
0
LINE
8
BLACK
6
CONTINUOUS
10
2.30632
20
-2.21932
11
2.30778
21
-2.21813
0
LINE
8
BLACK
6
CONTINUOUS
10
2.30778
20
-2.21813
11
2.30944
21
-2.21724
0
LINE
8
BLACK
6
CONTINUOUS
10
2.30944
20
-2.21724
11
2.31124
21
-2.2167
0
LINE
8
BLACK
6
CONTINUOUS
10
2.31124
20
-2.2167
11
2.31311
21
-2.21651
0
LINE
8
BLACK
6
CONTINUOUS
10
2.31311
20
-2.21651
11
2.3323
21
-2.21651
0
LINE
8
BLACK
6
CONTINUOUS
10
2.3323
20
-2.21651
11
2.33417
21
-2.2167
0
LINE
8
BLACK
6
CONTINUOUS
10
2.40799
20
-2.2167
11
2.40979
21
-2.21724
0
LINE
8
BLACK
6
CONTINUOUS
10
2.40979
20
-2.21724
11
2.41145
21
-2.21813
0
LINE
8
BLACK
6
CONTINUOUS
10
2.41145
20
-2.21813
11
2.41291
21
-2.21932
0
LINE
8
BLACK
6
CONTINUOUS
10
2.41291
20
-2.21932
11
2.4141
21
-2.22078
0
LINE
8
BLACK
6
CONTINUOUS
10
2.4141
20
-2.22078
11
2.41499
21
-2.22244
0
LINE
8
BLACK
6
CONTINUOUS
10
2.41499
20
-2.22244
11
2.41553
21
-2.22424
0
LINE
8
BLACK
6
CONTINUOUS
10
2.41553
20
-2.22424
11
2.41572
21
-2.22611
0
LINE
8
BLACK
6
CONTINUOUS
10
2.41572
20
-2.22611
11
2.41572
21
-2.26203
0
LINE
8
BLACK
6
CONTINUOUS
10
2.41572
20
-2.26203
11
2.41553
21
-2.26391
0
LINE
8
BLACK
6
CONTINUOUS
10
2.41553
20
-2.26391
11
2.41499
21
-2.26571
0
LINE
8
BLACK
6
CONTINUOUS
10
2.41499
20
-2.26571
11
2.4141
21
-2.26736
0
LINE
8
BLACK
6
CONTINUOUS
10
2.4141
20
-2.26736
11
2.41291
21
-2.26882
0
LINE
8
BLACK
6
CONTINUOUS
10
2.41291
20
-2.26882
11
2.41145
21
-2.27001
0
LINE
8
BLACK
6
CONTINUOUS
10
2.41145
20
-2.27001
11
2.40979
21
-2.2709
0
LINE
8
BLACK
6
CONTINUOUS
10
2.40979
20
-2.2709
11
2.40799
21
-2.27145
0
LINE
8
BLACK
6
CONTINUOUS
10
2.40799
20
-2.27145
11
2.40612
21
-2.27163
0
LINE
8
BLACK
6
CONTINUOUS
10
2.40612
20
-2.27163
11
2.38693
21
-2.27163
0
LINE
8
BLACK
6
CONTINUOUS
10
2.38693
20
-2.27163
11
2.38505
21
-2.27145
0
LINE
8
BLACK
6
CONTINUOUS
10
2.38505
20
-2.27145
11
2.38325
21
-2.2709
0
LINE
8
BLACK
6
CONTINUOUS
10
2.38325
20
-2.2709
11
2.3816
21
-2.27001
0
LINE
8
BLACK
6
CONTINUOUS
10
2.3816
20
-2.27001
11
2.38014
21
-2.26882
0
LINE
8
BLACK
6
CONTINUOUS
10
2.38014
20
-2.26882
11
2.37895
21
-2.26736
0
LINE
8
BLACK
6
CONTINUOUS
10
2.37895
20
-2.26736
11
2.37806
21
-2.26571
0
LINE
8
BLACK
6
CONTINUOUS
10
2.37806
20
-2.26571
11
2.37752
21
-2.26391
0
LINE
8
BLACK
6
CONTINUOUS
10
2.37752
20
-2.26391
11
2.37733
21
-2.26203
0
LINE
8
BLACK
6
CONTINUOUS
10
2.37733
20
-2.26203
11
2.37733
21
-2.22611
0
LINE
8
BLACK
6
CONTINUOUS
10
2.37733
20
-2.22611
11
2.37752
21
-2.22424
0
LINE
8
BLACK
6
CONTINUOUS
10
2.37752
20
-2.22424
11
2.37806
21
-2.22244
0
LINE
8
BLACK
6
CONTINUOUS
10
2.37806
20
-2.22244
11
2.37895
21
-2.22078
0
LINE
8
BLACK
6
CONTINUOUS
10
2.37895
20
-2.22078
11
2.38014
21
-2.21932
0
LINE
8
BLACK
6
CONTINUOUS
10
2.38014
20
-2.21932
11
2.3816
21
-2.21813
0
LINE
8
BLACK
6
CONTINUOUS
10
2.3816
20
-2.21813
11
2.38325
21
-2.21724
0
LINE
8
BLACK
6
CONTINUOUS
10
2.38325
20
-2.21724
11
2.38505
21
-2.2167
0
LINE
8
BLACK
6
CONTINUOUS
10
2.38505
20
-2.2167
11
2.38693
21
-2.21651
0
LINE
8
BLACK
6
CONTINUOUS
10
2.38693
20
-2.21651
11
2.40612
21
-2.21651
0
LINE
8
BLACK
6
CONTINUOUS
10
2.40612
20
-2.21651
11
2.40799
21
-2.2167
0
LINE
8
BLACK
6
CONTINUOUS
10
1.42732
20
-1.36633
11
1.42912
21
-1.36687
0
LINE
8
BLACK
6
CONTINUOUS
10
1.42912
20
-1.36687
11
1.43077
21
-1.36776
0
LINE
8
BLACK
6
CONTINUOUS
10
1.43077
20
-1.36776
11
1.43223
21
-1.36895
0
LINE
8
BLACK
6
CONTINUOUS
10
1.43223
20
-1.36895
11
1.43342
21
-1.37041
0
LINE
8
BLACK
6
CONTINUOUS
10
1.43342
20
-1.37041
11
1.43431
21
-1.37207
0
LINE
8
BLACK
6
CONTINUOUS
10
1.43431
20
-1.37207
11
1.43485
21
-1.37387
0
LINE
8
BLACK
6
CONTINUOUS
10
1.43485
20
-1.37387
11
1.43504
21
-1.37574
0
LINE
8
BLACK
6
CONTINUOUS
10
1.43504
20
-1.37574
11
1.43504
21
-1.39493
0
LINE
8
BLACK
6
CONTINUOUS
10
1.43504
20
-1.39493
11
1.43485
21
-1.3968
0
LINE
8
BLACK
6
CONTINUOUS
10
1.43485
20
-1.3968
11
1.43431
21
-1.3986
0
LINE
8
BLACK
6
CONTINUOUS
10
1.43431
20
-1.3986
11
1.43342
21
-1.40026
0
LINE
8
BLACK
6
CONTINUOUS
10
1.43342
20
-1.40026
11
1.43223
21
-1.40172
0
LINE
8
BLACK
6
CONTINUOUS
10
1.43223
20
-1.40172
11
1.43077
21
-1.40291
0
LINE
8
BLACK
6
CONTINUOUS
10
1.43077
20
-1.40291
11
1.42912
21
-1.4038
0
LINE
8
BLACK
6
CONTINUOUS
10
1.42912
20
-1.4038
11
1.42732
21
-1.40434
0
LINE
8
BLACK
6
CONTINUOUS
10
1.42732
20
-1.40434
11
1.42544
21
-1.40453
0
LINE
8
BLACK
6
CONTINUOUS
10
1.42544
20
-1.40453
11
1.38952
21
-1.40453
0
LINE
8
BLACK
6
CONTINUOUS
10
1.38952
20
-1.40453
11
1.38765
21
-1.40434
0
LINE
8
BLACK
6
CONTINUOUS
10
1.38765
20
-1.40434
11
1.38585
21
-1.4038
0
LINE
8
BLACK
6
CONTINUOUS
10
1.38585
20
-1.4038
11
1.38419
21
-1.40291
0
LINE
8
BLACK
6
CONTINUOUS
10
1.38419
20
-1.40291
11
1.38273
21
-1.40172
0
LINE
8
BLACK
6
CONTINUOUS
10
1.38273
20
-1.40172
11
1.38154
21
-1.40026
0
LINE
8
BLACK
6
CONTINUOUS
10
1.38154
20
-1.40026
11
1.38065
21
-1.3986
0
LINE
8
BLACK
6
CONTINUOUS
10
1.38065
20
-1.3986
11
1.38011
21
-1.3968
0
LINE
8
BLACK
6
CONTINUOUS
10
1.38011
20
-1.3968
11
1.37992
21
-1.39493
0
LINE
8
BLACK
6
CONTINUOUS
10
1.37992
20
-1.39493
11
1.37992
21
-1.37574
0
LINE
8
BLACK
6
CONTINUOUS
10
1.37992
20
-1.37574
11
1.38011
21
-1.37387
0
LINE
8
BLACK
6
CONTINUOUS
10
1.38011
20
-1.37387
11
1.38065
21
-1.37207
0
LINE
8
BLACK
6
CONTINUOUS
10
1.38065
20
-1.37207
11
1.38154
21
-1.37041
0
LINE
8
BLACK
6
CONTINUOUS
10
1.38154
20
-1.37041
11
1.38273
21
-1.36895
0
LINE
8
BLACK
6
CONTINUOUS
10
1.38273
20
-1.36895
11
1.38419
21
-1.36776
0
LINE
8
BLACK
6
CONTINUOUS
10
1.38419
20
-1.36776
11
1.38585
21
-1.36687
0
LINE
8
BLACK
6
CONTINUOUS
10
1.38585
20
-1.36687
11
1.38765
21
-1.36633
0
LINE
8
BLACK
6
CONTINUOUS
10
1.38765
20
-1.36633
11
1.38952
21
-1.36614
0
LINE
8
BLACK
6
CONTINUOUS
10
1.38952
20
-1.36614
11
1.42544
21
-1.36614
0
LINE
8
BLACK
6
CONTINUOUS
10
1.42544
20
-1.36614
11
1.42732
21
-1.36633
0
LINE
8
BLACK
6
CONTINUOUS
10
3.5732
20
-1.39584
11
3.5512
21
-1.39584
0
LINE
8
BLACK
6
CONTINUOUS
10
3.5512
20
-1.39584
11
3.5512
21
-1.33834
0
LINE
8
BLACK
6
CONTINUOUS
10
3.5512
20
-1.33834
11
3.5732
21
-1.33834
0
LINE
8
BLACK
6
CONTINUOUS
10
3.5732
20
-1.33834
11
3.5732
21
-1.39584
0
LINE
8
BLACK
6
CONTINUOUS
10
3.6232
20
-1.39584
11
3.6012
21
-1.39584
0
LINE
8
BLACK
6
CONTINUOUS
10
3.6012
20
-1.39584
11
3.6012
21
-1.33834
0
LINE
8
BLACK
6
CONTINUOUS
10
3.6012
20
-1.33834
11
3.6232
21
-1.33834
0
LINE
8
BLACK
6
CONTINUOUS
10
3.6232
20
-1.33834
11
3.6232
21
-1.39584
0
LINE
8
BLACK
6
CONTINUOUS
10
3.6732
20
-1.39584
11
3.6512
21
-1.39584
0
LINE
8
BLACK
6
CONTINUOUS
10
3.6512
20
-1.39584
11
3.6512
21
-1.33834
0
LINE
8
BLACK
6
CONTINUOUS
10
3.6512
20
-1.33834
11
3.6732
21
-1.33834
0
LINE
8
BLACK
6
CONTINUOUS
10
3.6732
20
-1.33834
11
3.6732
21
-1.39584
0
LINE
8
BLACK
6
CONTINUOUS
10
3.7232
20
-1.39584
11
3.7012
21
-1.39584
0
LINE
8
BLACK
6
CONTINUOUS
10
3.7012
20
-1.39584
11
3.7012
21
-1.33834
0
LINE
8
BLACK
6
CONTINUOUS
10
3.7012
20
-1.33834
11
3.7232
21
-1.33834
0
LINE
8
BLACK
6
CONTINUOUS
10
3.7232
20
-1.33834
11
3.7232
21
-1.39584
0
LINE
8
BLACK
6
CONTINUOUS
10
3.7732
20
-1.39584
11
3.7512
21
-1.39584
0
LINE
8
BLACK
6
CONTINUOUS
10
3.7512
20
-1.39584
11
3.7512
21
-1.33834
0
LINE
8
BLACK
6
CONTINUOUS
10
3.7512
20
-1.33834
11
3.7732
21
-1.33834
0
LINE
8
BLACK
6
CONTINUOUS
10
3.7732
20
-1.33834
11
3.7732
21
-1.39584
0
LINE
8
BLACK
6
CONTINUOUS
10
3.5232
20
-1.39584
11
3.5012
21
-1.39584
0
LINE
8
BLACK
6
CONTINUOUS
10
3.5012
20
-1.39584
11
3.5012
21
-1.33834
0
LINE
8
BLACK
6
CONTINUOUS
10
3.5012
20
-1.33834
11
3.5232
21
-1.33834
0
LINE
8
BLACK
6
CONTINUOUS
10
3.5232
20
-1.33834
11
3.5232
21
-1.39584
0
LINE
8
BLACK
6
CONTINUOUS
10
3.4732
20
-1.39584
11
3.4512
21
-1.39584
0
LINE
8
BLACK
6
CONTINUOUS
10
3.4512
20
-1.39584
11
3.4512
21
-1.33834
0
LINE
8
BLACK
6
CONTINUOUS
10
3.4512
20
-1.33834
11
3.4732
21
-1.33834
0
LINE
8
BLACK
6
CONTINUOUS
10
3.4732
20
-1.33834
11
3.4732
21
-1.39584
0
LINE
8
BLACK
6
CONTINUOUS
10
1.42732
20
-1.29251
11
1.42912
21
-1.29305
0
LINE
8
BLACK
6
CONTINUOUS
10
1.42912
20
-1.29305
11
1.43077
21
-1.29394
0
LINE
8
BLACK
6
CONTINUOUS
10
1.43077
20
-1.29394
11
1.43223
21
-1.29513
0
LINE
8
BLACK
6
CONTINUOUS
10
1.43223
20
-1.29513
11
1.43342
21
-1.29659
0
LINE
8
BLACK
6
CONTINUOUS
10
1.43342
20
-1.29659
11
1.43431
21
-1.29825
0
LINE
8
BLACK
6
CONTINUOUS
10
1.43431
20
-1.29825
11
1.43485
21
-1.30005
0
LINE
8
BLACK
6
CONTINUOUS
10
1.43485
20
-1.30005
11
1.43504
21
-1.30192
0
LINE
8
BLACK
6
CONTINUOUS
10
1.43504
20
-1.30192
11
1.43504
21
-1.32111
0
LINE
8
BLACK
6
CONTINUOUS
10
1.43504
20
-1.32111
11
1.43485
21
-1.32298
0
LINE
8
BLACK
6
CONTINUOUS
10
1.43485
20
-1.32298
11
1.43431
21
-1.32478
0
LINE
8
BLACK
6
CONTINUOUS
10
1.43431
20
-1.32478
11
1.43342
21
-1.32644
0
LINE
8
BLACK
6
CONTINUOUS
10
1.43342
20
-1.32644
11
1.43223
21
-1.3279
0
LINE
8
BLACK
6
CONTINUOUS
10
1.43223
20
-1.3279
11
1.43077
21
-1.32909
0
LINE
8
BLACK
6
CONTINUOUS
10
1.43077
20
-1.32909
11
1.42912
21
-1.32998
0
LINE
8
BLACK
6
CONTINUOUS
10
1.42912
20
-1.32998
11
1.42732
21
-1.33052
0
LINE
8
BLACK
6
CONTINUOUS
10
1.42732
20
-1.33052
11
1.42544
21
-1.33071
0
LINE
8
BLACK
6
CONTINUOUS
10
1.42544
20
-1.33071
11
1.38952
21
-1.33071
0
LINE
8
BLACK
6
CONTINUOUS
10
1.38952
20
-1.33071
11
1.38765
21
-1.33052
0
LINE
8
BLACK
6
CONTINUOUS
10
1.38765
20
-1.33052
11
1.38585
21
-1.32998
0
LINE
8
BLACK
6
CONTINUOUS
10
1.38585
20
-1.32998
11
1.38419
21
-1.32909
0
LINE
8
BLACK
6
CONTINUOUS
10
1.38419
20
-1.32909
11
1.38273
21
-1.3279
0
LINE
8
BLACK
6
CONTINUOUS
10
1.38273
20
-1.3279
11
1.38154
21
-1.32644
0
LINE
8
BLACK
6
CONTINUOUS
10
1.38154
20
-1.32644
11
1.38065
21
-1.32478
0
LINE
8
BLACK
6
CONTINUOUS
10
1.38065
20
-1.32478
11
1.38011
21
-1.32298
0
LINE
8
BLACK
6
CONTINUOUS
10
1.38011
20
-1.32298
11
1.37992
21
-1.32111
0
LINE
8
BLACK
6
CONTINUOUS
10
1.37992
20
-1.32111
11
1.37992
21
-1.30192
0
LINE
8
BLACK
6
CONTINUOUS
10
1.37992
20
-1.30192
11
1.38011
21
-1.30005
0
LINE
8
BLACK
6
CONTINUOUS
10
1.38011
20
-1.30005
11
1.38065
21
-1.29825
0
LINE
8
BLACK
6
CONTINUOUS
10
1.38065
20
-1.29825
11
1.38154
21
-1.29659
0
LINE
8
BLACK
6
CONTINUOUS
10
1.38154
20
-1.29659
11
1.38273
21
-1.29513
0
LINE
8
BLACK
6
CONTINUOUS
10
1.38273
20
-1.29513
11
1.38419
21
-1.29394
0
LINE
8
BLACK
6
CONTINUOUS
10
1.38419
20
-1.29394
11
1.38585
21
-1.29305
0
LINE
8
BLACK
6
CONTINUOUS
10
1.38585
20
-1.29305
11
1.38765
21
-1.29251
0
LINE
8
BLACK
6
CONTINUOUS
10
1.38765
20
-1.29251
11
1.38952
21
-1.29232
0
LINE
8
BLACK
6
CONTINUOUS
10
1.38952
20
-1.29232
11
1.42544
21
-1.29232
0
LINE
8
BLACK
6
CONTINUOUS
10
1.42544
20
-1.29232
11
1.42732
21
-1.29251
0
LINE
8
BLACK
6
CONTINUOUS
10
3.39582
20
-1.27774
11
3.39762
21
-1.27829
0
LINE
8
BLACK
6
CONTINUOUS
10
3.39762
20
-1.27829
11
3.39928
21
-1.27918
0
LINE
8
BLACK
6
CONTINUOUS
10
3.39928
20
-1.27918
11
3.40073
21
-1.28037
0
LINE
8
BLACK
6
CONTINUOUS
10
3.40073
20
-1.28037
11
3.40193
21
-1.28182
0
LINE
8
BLACK
6
CONTINUOUS
10
3.40193
20
-1.28182
11
3.40281
21
-1.28348
0
LINE
8
BLACK
6
CONTINUOUS
10
3.40281
20
-1.28348
11
3.40336
21
-1.28528
0
LINE
8
BLACK
6
CONTINUOUS
10
3.40336
20
-1.28528
11
3.40354
21
-1.28716
0
LINE
8
BLACK
6
CONTINUOUS
10
3.40354
20
-1.28716
11
3.40354
21
-1.30635
0
LINE
8
BLACK
6
CONTINUOUS
10
3.40354
20
-1.30635
11
3.40336
21
-1.30822
0
LINE
8
BLACK
6
CONTINUOUS
10
3.40336
20
-1.30822
11
3.40281
21
-1.31002
0
LINE
8
BLACK
6
CONTINUOUS
10
3.40281
20
-1.31002
11
3.40193
21
-1.31168
0
LINE
8
BLACK
6
CONTINUOUS
10
3.40193
20
-1.31168
11
3.40073
21
-1.31313
0
LINE
8
BLACK
6
CONTINUOUS
10
3.40073
20
-1.31313
11
3.39928
21
-1.31433
0
LINE
8
BLACK
6
CONTINUOUS
10
3.39928
20
-1.31433
11
3.39762
21
-1.31521
0
LINE
8
BLACK
6
CONTINUOUS
10
3.39762
20
-1.31521
11
3.39582
21
-1.31576
0
LINE
8
BLACK
6
CONTINUOUS
10
3.39582
20
-1.31576
11
3.39395
21
-1.31594
0
LINE
8
BLACK
6
CONTINUOUS
10
3.39395
20
-1.31594
11
3.35802
21
-1.31594
0
LINE
8
BLACK
6
CONTINUOUS
10
3.35802
20
-1.31594
11
3.35615
21
-1.31576
0
LINE
8
BLACK
6
CONTINUOUS
10
3.35615
20
-1.31576
11
3.35435
21
-1.31521
0
LINE
8
BLACK
6
CONTINUOUS
10
3.35435
20
-1.31521
11
3.35269
21
-1.31433
0
LINE
8
BLACK
6
CONTINUOUS
10
3.35269
20
-1.31433
11
3.35124
21
-1.31313
0
LINE
8
BLACK
6
CONTINUOUS
10
3.35124
20
-1.31313
11
3.35004
21
-1.31168
0
LINE
8
BLACK
6
CONTINUOUS
10
3.35004
20
-1.31168
11
3.34916
21
-1.31002
0
LINE
8
BLACK
6
CONTINUOUS
10
3.34916
20
-1.31002
11
3.34861
21
-1.30822
0
LINE
8
BLACK
6
CONTINUOUS
10
3.34861
20
-1.30822
11
3.34843
21
-1.30635
0
LINE
8
BLACK
6
CONTINUOUS
10
3.34843
20
-1.30635
11
3.34843
21
-1.28716
0
LINE
8
BLACK
6
CONTINUOUS
10
3.34843
20
-1.28716
11
3.34861
21
-1.28528
0
LINE
8
BLACK
6
CONTINUOUS
10
3.34861
20
-1.28528
11
3.34916
21
-1.28348
0
LINE
8
BLACK
6
CONTINUOUS
10
3.34916
20
-1.28348
11
3.35004
21
-1.28182
0
LINE
8
BLACK
6
CONTINUOUS
10
3.35004
20
-1.28182
11
3.35124
21
-1.28037
0
LINE
8
BLACK
6
CONTINUOUS
10
3.35124
20
-1.28037
11
3.35269
21
-1.27918
0
LINE
8
BLACK
6
CONTINUOUS
10
3.35269
20
-1.27918
11
3.35435
21
-1.27829
0
LINE
8
BLACK
6
CONTINUOUS
10
3.35435
20
-1.27829
11
3.35615
21
-1.27774
0
LINE
8
BLACK
6
CONTINUOUS
10
3.35615
20
-1.27774
11
3.35802
21
-1.27756
0
LINE
8
BLACK
6
CONTINUOUS
10
3.35802
20
-1.27756
11
3.39395
21
-1.27756
0
LINE
8
BLACK
6
CONTINUOUS
10
3.39395
20
-1.27756
11
3.39582
21
-1.27774
0
LINE
8
BLACK
6
CONTINUOUS
10
3.39582
20
-1.20392
11
3.39762
21
-1.20447
0
LINE
8
BLACK
6
CONTINUOUS
10
3.39762
20
-1.20447
11
3.39928
21
-1.20536
0
LINE
8
BLACK
6
CONTINUOUS
10
3.39928
20
-1.20536
11
3.40073
21
-1.20655
0
LINE
8
BLACK
6
CONTINUOUS
10
3.40073
20
-1.20655
11
3.40193
21
-1.20801
0
LINE
8
BLACK
6
CONTINUOUS
10
3.40193
20
-1.20801
11
3.40281
21
-1.20966
0
LINE
8
BLACK
6
CONTINUOUS
10
3.40281
20
-1.20966
11
3.40336
21
-1.21146
0
LINE
8
BLACK
6
CONTINUOUS
10
3.40336
20
-1.21146
11
3.40354
21
-1.21334
0
LINE
8
BLACK
6
CONTINUOUS
10
3.40354
20
-1.21334
11
3.40354
21
-1.23253
0
LINE
8
BLACK
6
CONTINUOUS
10
3.40354
20
-1.23253
11
3.40336
21
-1.2344
0
LINE
8
BLACK
6
CONTINUOUS
10
3.40336
20
-1.2344
11
3.40281
21
-1.2362
0
LINE
8
BLACK
6
CONTINUOUS
10
3.40281
20
-1.2362
11
3.40193
21
-1.23786
0
LINE
8
BLACK
6
CONTINUOUS
10
3.40193
20
-1.23786
11
3.40073
21
-1.23932
0
LINE
8
BLACK
6
CONTINUOUS
10
3.40073
20
-1.23932
11
3.39928
21
-1.24051
0
LINE
8
BLACK
6
CONTINUOUS
10
3.39928
20
-1.24051
11
3.39762
21
-1.2414
0
LINE
8
BLACK
6
CONTINUOUS
10
3.39762
20
-1.2414
11
3.39582
21
-1.24194
0
LINE
8
BLACK
6
CONTINUOUS
10
3.39582
20
-1.24194
11
3.39395
21
-1.24213
0
LINE
8
BLACK
6
CONTINUOUS
10
3.39395
20
-1.24213
11
3.35802
21
-1.24213
0
LINE
8
BLACK
6
CONTINUOUS
10
3.35802
20
-1.24213
11
3.35615
21
-1.24194
0
LINE
8
BLACK
6
CONTINUOUS
10
3.35615
20
-1.24194
11
3.35435
21
-1.2414
0
LINE
8
BLACK
6
CONTINUOUS
10
3.35435
20
-1.2414
11
3.35269
21
-1.24051
0
LINE
8
BLACK
6
CONTINUOUS
10
3.35269
20
-1.24051
11
3.35124
21
-1.23932
0
LINE
8
BLACK
6
CONTINUOUS
10
3.35124
20
-1.23932
11
3.35004
21
-1.23786
0
LINE
8
BLACK
6
CONTINUOUS
10
3.35004
20
-1.23786
11
3.34916
21
-1.2362
0
LINE
8
BLACK
6
CONTINUOUS
10
3.34916
20
-1.2362
11
3.34861
21
-1.2344
0
LINE
8
BLACK
6
CONTINUOUS
10
3.34861
20
-1.2344
11
3.34843
21
-1.23253
0
LINE
8
BLACK
6
CONTINUOUS
10
3.34843
20
-1.23253
11
3.34843
21
-1.21334
0
LINE
8
BLACK
6
CONTINUOUS
10
3.34843
20
-1.21334
11
3.34861
21
-1.21146
0
LINE
8
BLACK
6
CONTINUOUS
10
3.34861
20
-1.21146
11
3.34916
21
-1.20966
0
LINE
8
BLACK
6
CONTINUOUS
10
3.34916
20
-1.20966
11
3.35004
21
-1.20801
0
LINE
8
BLACK
6
CONTINUOUS
10
3.35004
20
-1.20801
11
3.35124
21
-1.20655
0
LINE
8
BLACK
6
CONTINUOUS
10
3.35124
20
-1.20655
11
3.35269
21
-1.20536
0
LINE
8
BLACK
6
CONTINUOUS
10
3.35269
20
-1.20536
11
3.35435
21
-1.20447
0
LINE
8
BLACK
6
CONTINUOUS
10
3.35435
20
-1.20447
11
3.35615
21
-1.20392
0
LINE
8
BLACK
6
CONTINUOUS
10
3.35615
20
-1.20392
11
3.35802
21
-1.20374
0
LINE
8
BLACK
6
CONTINUOUS
10
3.35802
20
-1.20374
11
3.39395
21
-1.20374
0
LINE
8
BLACK
6
CONTINUOUS
10
3.39395
20
-1.20374
11
3.39582
21
-1.20392
0
LINE
8
BLACK
6
CONTINUOUS
10
3.7732
20
-1.18134
11
3.7512
21
-1.18134
0
LINE
8
BLACK
6
CONTINUOUS
10
3.7512
20
-1.18134
11
3.7512
21
-1.12384
0
LINE
8
BLACK
6
CONTINUOUS
10
3.7512
20
-1.12384
11
3.7732
21
-1.12384
0
LINE
8
BLACK
6
CONTINUOUS
10
3.7732
20
-1.12384
11
3.7732
21
-1.18134
0
LINE
8
BLACK
6
CONTINUOUS
10
3.7232
20
-1.18134
11
3.7012
21
-1.18134
0
LINE
8
BLACK
6
CONTINUOUS
10
3.7012
20
-1.18134
11
3.7012
21
-1.12384
0
LINE
8
BLACK
6
CONTINUOUS
10
3.7012
20
-1.12384
11
3.7232
21
-1.12384
0
LINE
8
BLACK
6
CONTINUOUS
10
3.7232
20
-1.12384
11
3.7232
21
-1.18134
0
LINE
8
BLACK
6
CONTINUOUS
10
3.6732
20
-1.18134
11
3.6512
21
-1.18134
0
LINE
8
BLACK
6
CONTINUOUS
10
3.6512
20
-1.18134
11
3.6512
21
-1.12384
0
LINE
8
BLACK
6
CONTINUOUS
10
3.6512
20
-1.12384
11
3.6732
21
-1.12384
0
LINE
8
BLACK
6
CONTINUOUS
10
3.6732
20
-1.12384
11
3.6732
21
-1.18134
0
LINE
8
BLACK
6
CONTINUOUS
10
3.6232
20
-1.18134
11
3.6012
21
-1.18134
0
LINE
8
BLACK
6
CONTINUOUS
10
3.6012
20
-1.18134
11
3.6012
21
-1.12384
0
LINE
8
BLACK
6
CONTINUOUS
10
3.6012
20
-1.12384
11
3.6232
21
-1.12384
0
LINE
8
BLACK
6
CONTINUOUS
10
3.6232
20
-1.12384
11
3.6232
21
-1.18134
0
LINE
8
BLACK
6
CONTINUOUS
10
3.5732
20
-1.18134
11
3.5512
21
-1.18134
0
LINE
8
BLACK
6
CONTINUOUS
10
3.5512
20
-1.18134
11
3.5512
21
-1.12384
0
LINE
8
BLACK
6
CONTINUOUS
10
3.5512
20
-1.12384
11
3.5732
21
-1.12384
0
LINE
8
BLACK
6
CONTINUOUS
10
3.5732
20
-1.12384
11
3.5732
21
-1.18134
0
LINE
8
BLACK
6
CONTINUOUS
10
3.5232
20
-1.18134
11
3.5012
21
-1.18134
0
LINE
8
BLACK
6
CONTINUOUS
10
3.5012
20
-1.18134
11
3.5012
21
-1.12384
0
LINE
8
BLACK
6
CONTINUOUS
10
3.5012
20
-1.12384
11
3.5232
21
-1.12384
0
LINE
8
BLACK
6
CONTINUOUS
10
3.5232
20
-1.12384
11
3.5232
21
-1.18134
0
LINE
8
BLACK
6
CONTINUOUS
10
3.4732
20
-1.18134
11
3.4512
21
-1.18134
0
LINE
8
BLACK
6
CONTINUOUS
10
3.4512
20
-1.18134
11
3.4512
21
-1.12384
0
LINE
8
BLACK
6
CONTINUOUS
10
3.4512
20
-1.12384
11
3.4732
21
-1.12384
0
LINE
8
BLACK
6
CONTINUOUS
10
3.4732
20
-1.12384
11
3.4732
21
-1.18134
  0
ENDSEC
  0
EOF
