  0
SECTION
  2
HEADER
  9
$ANGBASE
  50
0.0
  9
$ANGDIR
  70
1
  9
$MEASUREMENT
  70
0
  0
ENDSEC
  0
SECTION
  2
TABLES
  0
TABLE
  2
LTYPE
  70
4
  0
LTYPE
  5
40F
  2
CONTINUOUS
  70
0
  3
Solid line
  72
65
  73
0
  40
0.0
  0
LTYPE
  5
410
  2
DASHDOT
 70
0
  3
Dash Dot ____ _ ____ _
 72
65
 73
4
 40
2.0
 49
1.25
 49
-0.25
 49
0.25
 49
-0.25
  0
LTYPE
  5
411
  2
DASHED
 70
0
  3
Dashed __ __ __ __ __
 72
65
 73
2
 40
0.75
 49
0.5
 49
-0.25
  0
LTYPE
  5
43B
  2
DOTTED
 70
0
  3
Dotted .  .  .  .
 72
65
 73
2
 40
0.2
 49
0.0
 49
-0.2
  0
ENDTAB
  0
TABLE
  2
STYLE
  70
4
  0
STYLE
  2
KICAD
  70
0
  40
0
  41
1
  42
1
  50
0
  71
0
  3
isocp.shx
  0
STYLE
  2
KICADB
  70
0
  40
0
  41
1
  42
1
  50
0
  71
0
  3
isocp.shx
  0
STYLE
  2
KICADI
  70
0
  40
0
  41
1
  42
1
  50
15
  71
0
  3
isocp.shx
  0
STYLE
  2
KICADBI
  70
0
  40
0
  41
1
  42
1
  50
15
  71
0
  3
isocp.shx
  0
ENDTAB
  0
TABLE
  2
LAYER
  70
1
  0
LAYER
  2
BLACK
  70
0
  62
7
  6
CONTINUOUS
  0
ENDTAB
  0
ENDSEC
  0
SECTION
  2
ENTITIES
0
LINE
8
BLACK
6
CONTINUOUS
10
4.33076
20
-0.786417
11
4.3309
21
-0.786432
0
LINE
8
BLACK
6
CONTINUOUS
10
4.3309
20
-0.786432
11
4.33109
21
-0.786488
0
LINE
8
BLACK
6
CONTINUOUS
10
4.33109
20
-0.786488
11
4.33126
21
-0.786579
0
LINE
8
BLACK
6
CONTINUOUS
10
4.33126
20
-0.786579
11
4.33141
21
-0.786702
0
LINE
8
BLACK
6
CONTINUOUS
10
4.33141
20
-0.786702
11
4.33153
21
-0.786852
0
LINE
8
BLACK
6
CONTINUOUS
10
4.33153
20
-0.786852
11
4.33162
21
-0.787023
0
LINE
8
BLACK
6
CONTINUOUS
10
4.33162
20
-0.787023
11
4.33168
21
-0.787209
0
LINE
8
BLACK
6
CONTINUOUS
10
4.33168
20
-0.787209
11
4.3317
21
-0.787402
0
LINE
8
BLACK
6
CONTINUOUS
10
4.3317
20
-0.787402
11
4.33169
21
-0.78745
0
LINE
8
BLACK
6
CONTINUOUS
10
4.33169
20
-0.78745
11
4.33169
21
-4.33066
0
LINE
8
BLACK
6
CONTINUOUS
10
4.33169
20
-4.33066
11
4.3317
21
-4.33071
0
LINE
8
BLACK
6
CONTINUOUS
10
4.3317
20
-4.33071
11
4.33168
21
-4.3309
0
LINE
8
BLACK
6
CONTINUOUS
10
4.33168
20
-4.3309
11
4.33162
21
-4.33109
0
LINE
8
BLACK
6
CONTINUOUS
10
4.33162
20
-4.33109
11
4.33153
21
-4.33126
0
LINE
8
BLACK
6
CONTINUOUS
10
4.33153
20
-4.33126
11
4.33141
21
-4.33141
0
LINE
8
BLACK
6
CONTINUOUS
10
4.33141
20
-4.33141
11
4.33126
21
-4.33153
0
LINE
8
BLACK
6
CONTINUOUS
10
4.33126
20
-4.33153
11
4.33109
21
-4.33162
0
LINE
8
BLACK
6
CONTINUOUS
10
4.33109
20
-4.33162
11
4.3309
21
-4.33168
0
LINE
8
BLACK
6
CONTINUOUS
10
4.3309
20
-4.33168
11
4.33076
21
-4.33169
0
LINE
8
BLACK
6
CONTINUOUS
10
4.33076
20
-4.33169
11
4.33076
21
-4.33169
0
LINE
8
BLACK
6
CONTINUOUS
10
4.33076
20
-4.33169
11
4.33071
21
-4.3317
0
LINE
8
BLACK
6
CONTINUOUS
10
4.33071
20
-4.3317
11
4.33066
21
-4.33169
0
LINE
8
BLACK
6
CONTINUOUS
10
4.33066
20
-4.33169
11
0.78745
21
-4.33169
0
LINE
8
BLACK
6
CONTINUOUS
10
0.78745
20
-4.33169
11
0.787402
21
-4.3317
0
LINE
8
BLACK
6
CONTINUOUS
10
0.787402
20
-4.3317
11
0.787354
21
-4.33169
0
LINE
8
BLACK
6
CONTINUOUS
10
0.787354
20
-4.33169
11
0.787354
21
-4.33169
0
LINE
8
BLACK
6
CONTINUOUS
10
0.787354
20
-4.33169
11
0.787209
21
-4.33168
0
LINE
8
BLACK
6
CONTINUOUS
10
0.787209
20
-4.33168
11
0.787023
21
-4.33162
0
LINE
8
BLACK
6
CONTINUOUS
10
0.787023
20
-4.33162
11
0.786852
21
-4.33153
0
LINE
8
BLACK
6
CONTINUOUS
10
0.786852
20
-4.33153
11
0.786702
21
-4.33141
0
LINE
8
BLACK
6
CONTINUOUS
10
0.786702
20
-4.33141
11
0.786579
21
-4.33126
0
LINE
8
BLACK
6
CONTINUOUS
10
0.786579
20
-4.33126
11
0.786488
21
-4.33109
0
LINE
8
BLACK
6
CONTINUOUS
10
0.786488
20
-4.33109
11
0.786432
21
-4.3309
0
LINE
8
BLACK
6
CONTINUOUS
10
0.786432
20
-4.3309
11
0.786413
21
-4.33071
0
LINE
8
BLACK
6
CONTINUOUS
10
0.786413
20
-4.33071
11
0.786417
21
-4.33066
0
LINE
8
BLACK
6
CONTINUOUS
10
0.786417
20
-4.33066
11
0.786417
21
-0.78745
0
LINE
8
BLACK
6
CONTINUOUS
10
0.786417
20
-0.78745
11
0.786413
21
-0.787402
0
LINE
8
BLACK
6
CONTINUOUS
10
0.786413
20
-0.787402
11
0.786432
21
-0.787209
0
LINE
8
BLACK
6
CONTINUOUS
10
0.786432
20
-0.787209
11
0.786488
21
-0.787023
0
LINE
8
BLACK
6
CONTINUOUS
10
0.786488
20
-0.787023
11
0.786579
21
-0.786852
0
LINE
8
BLACK
6
CONTINUOUS
10
0.786579
20
-0.786852
11
0.786702
21
-0.786702
0
LINE
8
BLACK
6
CONTINUOUS
10
0.786702
20
-0.786702
11
0.786852
21
-0.786579
0
LINE
8
BLACK
6
CONTINUOUS
10
0.786852
20
-0.786579
11
0.787023
21
-0.786488
0
LINE
8
BLACK
6
CONTINUOUS
10
0.787023
20
-0.786488
11
0.787209
21
-0.786432
0
LINE
8
BLACK
6
CONTINUOUS
10
0.787209
20
-0.786432
11
0.787354
21
-0.786417
0
LINE
8
BLACK
6
CONTINUOUS
10
0.787354
20
-0.786417
11
0.787402
21
-0.786413
0
LINE
8
BLACK
6
CONTINUOUS
10
0.787402
20
-0.786413
11
0.787449
21
-0.786417
0
LINE
8
BLACK
6
CONTINUOUS
10
0.787449
20
-0.786417
11
4.33066
21
-0.786417
0
LINE
8
BLACK
6
CONTINUOUS
10
4.33066
20
-0.786417
11
4.33071
21
-0.786413
0
LINE
8
BLACK
6
CONTINUOUS
10
4.33071
20
-0.786413
11
4.33076
21
-0.786417
0
LINE
8
BLACK
6
CONTINUOUS
10
0.788386
20
-0.788386
11
0.788386
21
-4.32972
0
LINE
8
BLACK
6
CONTINUOUS
10
0.788386
20
-4.32972
11
4.32972
21
-4.32972
0
LINE
8
BLACK
6
CONTINUOUS
10
4.32972
20
-4.32972
11
4.32972
21
-0.788386
0
LINE
8
BLACK
6
CONTINUOUS
10
4.32972
20
-0.788386
11
0.788386
21
-0.788386
  0
ENDSEC
  0
EOF
